G75*
%MOIN*%
%OFA0B0*%
%FSLAX25Y25*%
%IPPOS*%
%LPD*%
%AMOC8*
5,1,8,0,0,1.08239X$1,22.5*
%
%ADD10C,0.00591*%
%ADD11C,0.00000*%
%ADD12C,0.00992*%
%ADD13C,0.01003*%
%ADD14C,0.01575*%
%ADD15C,0.01800*%
%ADD16C,0.01008*%
%ADD17C,0.01015*%
%ADD18C,0.01024*%
D10*
X0001500Y0005437D02*
X0001500Y0198350D01*
X0001502Y0198540D01*
X0001509Y0198730D01*
X0001521Y0198920D01*
X0001537Y0199110D01*
X0001557Y0199299D01*
X0001583Y0199488D01*
X0001612Y0199676D01*
X0001647Y0199863D01*
X0001686Y0200049D01*
X0001729Y0200234D01*
X0001777Y0200419D01*
X0001829Y0200602D01*
X0001885Y0200783D01*
X0001946Y0200963D01*
X0002012Y0201142D01*
X0002081Y0201319D01*
X0002155Y0201495D01*
X0002233Y0201668D01*
X0002316Y0201840D01*
X0002402Y0202009D01*
X0002492Y0202177D01*
X0002587Y0202342D01*
X0002685Y0202505D01*
X0002788Y0202665D01*
X0002894Y0202823D01*
X0003004Y0202978D01*
X0003117Y0203131D01*
X0003235Y0203281D01*
X0003356Y0203427D01*
X0003480Y0203571D01*
X0003608Y0203712D01*
X0003739Y0203850D01*
X0003874Y0203985D01*
X0004012Y0204116D01*
X0004153Y0204244D01*
X0004297Y0204368D01*
X0004443Y0204489D01*
X0004593Y0204607D01*
X0004746Y0204720D01*
X0004901Y0204830D01*
X0005059Y0204936D01*
X0005219Y0205039D01*
X0005382Y0205137D01*
X0005547Y0205232D01*
X0005715Y0205322D01*
X0005884Y0205408D01*
X0006056Y0205491D01*
X0006229Y0205569D01*
X0006405Y0205643D01*
X0006582Y0205712D01*
X0006761Y0205778D01*
X0006941Y0205839D01*
X0007122Y0205895D01*
X0007305Y0205947D01*
X0007490Y0205995D01*
X0007675Y0206038D01*
X0007861Y0206077D01*
X0008048Y0206112D01*
X0008236Y0206141D01*
X0008425Y0206167D01*
X0008614Y0206187D01*
X0008804Y0206203D01*
X0008994Y0206215D01*
X0009184Y0206222D01*
X0009374Y0206224D01*
X0107799Y0206224D01*
X0107989Y0206226D01*
X0108179Y0206233D01*
X0108369Y0206245D01*
X0108559Y0206261D01*
X0108748Y0206281D01*
X0108937Y0206307D01*
X0109125Y0206336D01*
X0109312Y0206371D01*
X0109498Y0206410D01*
X0109683Y0206453D01*
X0109868Y0206501D01*
X0110051Y0206553D01*
X0110232Y0206609D01*
X0110412Y0206670D01*
X0110591Y0206736D01*
X0110768Y0206805D01*
X0110944Y0206879D01*
X0111117Y0206957D01*
X0111289Y0207040D01*
X0111458Y0207126D01*
X0111626Y0207216D01*
X0111791Y0207311D01*
X0111954Y0207409D01*
X0112114Y0207512D01*
X0112272Y0207618D01*
X0112427Y0207728D01*
X0112580Y0207841D01*
X0112730Y0207959D01*
X0112876Y0208080D01*
X0113020Y0208204D01*
X0113161Y0208332D01*
X0113299Y0208463D01*
X0113434Y0208598D01*
X0113565Y0208736D01*
X0113693Y0208877D01*
X0113817Y0209021D01*
X0113938Y0209167D01*
X0114056Y0209317D01*
X0114169Y0209470D01*
X0114279Y0209625D01*
X0114385Y0209783D01*
X0114488Y0209943D01*
X0114586Y0210106D01*
X0114681Y0210271D01*
X0114771Y0210439D01*
X0114857Y0210608D01*
X0114940Y0210780D01*
X0115018Y0210953D01*
X0115092Y0211129D01*
X0115161Y0211306D01*
X0115227Y0211485D01*
X0115288Y0211665D01*
X0115344Y0211846D01*
X0115396Y0212029D01*
X0115444Y0212214D01*
X0115487Y0212399D01*
X0115526Y0212585D01*
X0115561Y0212772D01*
X0115590Y0212960D01*
X0115616Y0213149D01*
X0115636Y0213338D01*
X0115652Y0213528D01*
X0115664Y0213718D01*
X0115671Y0213908D01*
X0115673Y0214098D01*
X0115673Y0266618D01*
X0115675Y0266808D01*
X0115682Y0266998D01*
X0115694Y0267188D01*
X0115710Y0267378D01*
X0115730Y0267567D01*
X0115756Y0267756D01*
X0115785Y0267944D01*
X0115820Y0268131D01*
X0115859Y0268317D01*
X0115902Y0268502D01*
X0115950Y0268687D01*
X0116002Y0268870D01*
X0116058Y0269051D01*
X0116119Y0269231D01*
X0116185Y0269410D01*
X0116254Y0269587D01*
X0116328Y0269763D01*
X0116406Y0269936D01*
X0116489Y0270108D01*
X0116575Y0270277D01*
X0116665Y0270445D01*
X0116760Y0270610D01*
X0116858Y0270773D01*
X0116961Y0270933D01*
X0117067Y0271091D01*
X0117177Y0271246D01*
X0117290Y0271399D01*
X0117408Y0271549D01*
X0117529Y0271695D01*
X0117653Y0271839D01*
X0117781Y0271980D01*
X0117912Y0272118D01*
X0118047Y0272253D01*
X0118185Y0272384D01*
X0118326Y0272512D01*
X0118470Y0272636D01*
X0118616Y0272757D01*
X0118766Y0272875D01*
X0118919Y0272988D01*
X0119074Y0273098D01*
X0119232Y0273204D01*
X0119392Y0273307D01*
X0119555Y0273405D01*
X0119720Y0273500D01*
X0119888Y0273590D01*
X0120057Y0273676D01*
X0120229Y0273759D01*
X0120402Y0273837D01*
X0120578Y0273911D01*
X0120755Y0273980D01*
X0120934Y0274046D01*
X0121114Y0274107D01*
X0121295Y0274163D01*
X0121478Y0274215D01*
X0121663Y0274263D01*
X0121848Y0274306D01*
X0122034Y0274345D01*
X0122221Y0274380D01*
X0122409Y0274409D01*
X0122598Y0274435D01*
X0122787Y0274455D01*
X0122977Y0274471D01*
X0123167Y0274483D01*
X0123357Y0274490D01*
X0123547Y0274492D01*
X0379201Y0274492D01*
X0385201Y0268492D01*
X0385201Y0223492D01*
X0395201Y0213492D01*
X0395201Y0084492D01*
X0385201Y0074492D01*
X0385201Y0005437D01*
X0385199Y0005313D01*
X0385193Y0005190D01*
X0385184Y0005066D01*
X0385170Y0004944D01*
X0385153Y0004821D01*
X0385131Y0004699D01*
X0385106Y0004578D01*
X0385077Y0004458D01*
X0385045Y0004339D01*
X0385008Y0004220D01*
X0384968Y0004103D01*
X0384925Y0003988D01*
X0384877Y0003873D01*
X0384826Y0003761D01*
X0384772Y0003650D01*
X0384714Y0003540D01*
X0384653Y0003433D01*
X0384588Y0003327D01*
X0384520Y0003224D01*
X0384449Y0003123D01*
X0384375Y0003024D01*
X0384298Y0002927D01*
X0384217Y0002833D01*
X0384134Y0002742D01*
X0384048Y0002653D01*
X0383959Y0002567D01*
X0383868Y0002484D01*
X0383774Y0002403D01*
X0383677Y0002326D01*
X0383578Y0002252D01*
X0383477Y0002181D01*
X0383374Y0002113D01*
X0383268Y0002048D01*
X0383161Y0001987D01*
X0383051Y0001929D01*
X0382940Y0001875D01*
X0382828Y0001824D01*
X0382713Y0001776D01*
X0382598Y0001733D01*
X0382481Y0001693D01*
X0382362Y0001656D01*
X0382243Y0001624D01*
X0382123Y0001595D01*
X0382002Y0001570D01*
X0381880Y0001548D01*
X0381757Y0001531D01*
X0381635Y0001517D01*
X0381511Y0001508D01*
X0381388Y0001502D01*
X0381264Y0001500D01*
X0005437Y0001500D01*
X0005313Y0001502D01*
X0005190Y0001508D01*
X0005066Y0001517D01*
X0004944Y0001531D01*
X0004821Y0001548D01*
X0004699Y0001570D01*
X0004578Y0001595D01*
X0004458Y0001624D01*
X0004339Y0001656D01*
X0004220Y0001693D01*
X0004103Y0001733D01*
X0003988Y0001776D01*
X0003873Y0001824D01*
X0003761Y0001875D01*
X0003650Y0001929D01*
X0003540Y0001987D01*
X0003433Y0002048D01*
X0003327Y0002113D01*
X0003224Y0002181D01*
X0003123Y0002252D01*
X0003024Y0002326D01*
X0002927Y0002403D01*
X0002833Y0002484D01*
X0002742Y0002567D01*
X0002653Y0002653D01*
X0002567Y0002742D01*
X0002484Y0002833D01*
X0002403Y0002927D01*
X0002326Y0003024D01*
X0002252Y0003123D01*
X0002181Y0003224D01*
X0002113Y0003327D01*
X0002048Y0003433D01*
X0001987Y0003540D01*
X0001929Y0003650D01*
X0001875Y0003761D01*
X0001824Y0003873D01*
X0001776Y0003988D01*
X0001733Y0004103D01*
X0001693Y0004220D01*
X0001656Y0004339D01*
X0001624Y0004458D01*
X0001595Y0004578D01*
X0001570Y0004699D01*
X0001548Y0004821D01*
X0001531Y0004944D01*
X0001517Y0005066D01*
X0001508Y0005190D01*
X0001502Y0005313D01*
X0001500Y0005437D01*
D11*
X0005201Y0011500D02*
X0005203Y0011658D01*
X0005209Y0011816D01*
X0005219Y0011974D01*
X0005233Y0012132D01*
X0005251Y0012289D01*
X0005272Y0012446D01*
X0005298Y0012602D01*
X0005328Y0012758D01*
X0005361Y0012913D01*
X0005399Y0013066D01*
X0005440Y0013219D01*
X0005485Y0013371D01*
X0005534Y0013522D01*
X0005587Y0013671D01*
X0005643Y0013819D01*
X0005703Y0013965D01*
X0005767Y0014110D01*
X0005835Y0014253D01*
X0005906Y0014395D01*
X0005980Y0014535D01*
X0006058Y0014672D01*
X0006140Y0014808D01*
X0006224Y0014942D01*
X0006313Y0015073D01*
X0006404Y0015202D01*
X0006499Y0015329D01*
X0006596Y0015454D01*
X0006697Y0015576D01*
X0006801Y0015695D01*
X0006908Y0015812D01*
X0007018Y0015926D01*
X0007131Y0016037D01*
X0007246Y0016146D01*
X0007364Y0016251D01*
X0007485Y0016353D01*
X0007608Y0016453D01*
X0007734Y0016549D01*
X0007862Y0016642D01*
X0007992Y0016732D01*
X0008125Y0016818D01*
X0008260Y0016902D01*
X0008396Y0016981D01*
X0008535Y0017058D01*
X0008676Y0017130D01*
X0008818Y0017200D01*
X0008962Y0017265D01*
X0009108Y0017327D01*
X0009255Y0017385D01*
X0009404Y0017440D01*
X0009554Y0017491D01*
X0009705Y0017538D01*
X0009857Y0017581D01*
X0010010Y0017620D01*
X0010165Y0017656D01*
X0010320Y0017687D01*
X0010476Y0017715D01*
X0010632Y0017739D01*
X0010789Y0017759D01*
X0010947Y0017775D01*
X0011104Y0017787D01*
X0011263Y0017795D01*
X0011421Y0017799D01*
X0011579Y0017799D01*
X0011737Y0017795D01*
X0011896Y0017787D01*
X0012053Y0017775D01*
X0012211Y0017759D01*
X0012368Y0017739D01*
X0012524Y0017715D01*
X0012680Y0017687D01*
X0012835Y0017656D01*
X0012990Y0017620D01*
X0013143Y0017581D01*
X0013295Y0017538D01*
X0013446Y0017491D01*
X0013596Y0017440D01*
X0013745Y0017385D01*
X0013892Y0017327D01*
X0014038Y0017265D01*
X0014182Y0017200D01*
X0014324Y0017130D01*
X0014465Y0017058D01*
X0014604Y0016981D01*
X0014740Y0016902D01*
X0014875Y0016818D01*
X0015008Y0016732D01*
X0015138Y0016642D01*
X0015266Y0016549D01*
X0015392Y0016453D01*
X0015515Y0016353D01*
X0015636Y0016251D01*
X0015754Y0016146D01*
X0015869Y0016037D01*
X0015982Y0015926D01*
X0016092Y0015812D01*
X0016199Y0015695D01*
X0016303Y0015576D01*
X0016404Y0015454D01*
X0016501Y0015329D01*
X0016596Y0015202D01*
X0016687Y0015073D01*
X0016776Y0014942D01*
X0016860Y0014808D01*
X0016942Y0014672D01*
X0017020Y0014535D01*
X0017094Y0014395D01*
X0017165Y0014253D01*
X0017233Y0014110D01*
X0017297Y0013965D01*
X0017357Y0013819D01*
X0017413Y0013671D01*
X0017466Y0013522D01*
X0017515Y0013371D01*
X0017560Y0013219D01*
X0017601Y0013066D01*
X0017639Y0012913D01*
X0017672Y0012758D01*
X0017702Y0012602D01*
X0017728Y0012446D01*
X0017749Y0012289D01*
X0017767Y0012132D01*
X0017781Y0011974D01*
X0017791Y0011816D01*
X0017797Y0011658D01*
X0017799Y0011500D01*
X0017797Y0011342D01*
X0017791Y0011184D01*
X0017781Y0011026D01*
X0017767Y0010868D01*
X0017749Y0010711D01*
X0017728Y0010554D01*
X0017702Y0010398D01*
X0017672Y0010242D01*
X0017639Y0010087D01*
X0017601Y0009934D01*
X0017560Y0009781D01*
X0017515Y0009629D01*
X0017466Y0009478D01*
X0017413Y0009329D01*
X0017357Y0009181D01*
X0017297Y0009035D01*
X0017233Y0008890D01*
X0017165Y0008747D01*
X0017094Y0008605D01*
X0017020Y0008465D01*
X0016942Y0008328D01*
X0016860Y0008192D01*
X0016776Y0008058D01*
X0016687Y0007927D01*
X0016596Y0007798D01*
X0016501Y0007671D01*
X0016404Y0007546D01*
X0016303Y0007424D01*
X0016199Y0007305D01*
X0016092Y0007188D01*
X0015982Y0007074D01*
X0015869Y0006963D01*
X0015754Y0006854D01*
X0015636Y0006749D01*
X0015515Y0006647D01*
X0015392Y0006547D01*
X0015266Y0006451D01*
X0015138Y0006358D01*
X0015008Y0006268D01*
X0014875Y0006182D01*
X0014740Y0006098D01*
X0014604Y0006019D01*
X0014465Y0005942D01*
X0014324Y0005870D01*
X0014182Y0005800D01*
X0014038Y0005735D01*
X0013892Y0005673D01*
X0013745Y0005615D01*
X0013596Y0005560D01*
X0013446Y0005509D01*
X0013295Y0005462D01*
X0013143Y0005419D01*
X0012990Y0005380D01*
X0012835Y0005344D01*
X0012680Y0005313D01*
X0012524Y0005285D01*
X0012368Y0005261D01*
X0012211Y0005241D01*
X0012053Y0005225D01*
X0011896Y0005213D01*
X0011737Y0005205D01*
X0011579Y0005201D01*
X0011421Y0005201D01*
X0011263Y0005205D01*
X0011104Y0005213D01*
X0010947Y0005225D01*
X0010789Y0005241D01*
X0010632Y0005261D01*
X0010476Y0005285D01*
X0010320Y0005313D01*
X0010165Y0005344D01*
X0010010Y0005380D01*
X0009857Y0005419D01*
X0009705Y0005462D01*
X0009554Y0005509D01*
X0009404Y0005560D01*
X0009255Y0005615D01*
X0009108Y0005673D01*
X0008962Y0005735D01*
X0008818Y0005800D01*
X0008676Y0005870D01*
X0008535Y0005942D01*
X0008396Y0006019D01*
X0008260Y0006098D01*
X0008125Y0006182D01*
X0007992Y0006268D01*
X0007862Y0006358D01*
X0007734Y0006451D01*
X0007608Y0006547D01*
X0007485Y0006647D01*
X0007364Y0006749D01*
X0007246Y0006854D01*
X0007131Y0006963D01*
X0007018Y0007074D01*
X0006908Y0007188D01*
X0006801Y0007305D01*
X0006697Y0007424D01*
X0006596Y0007546D01*
X0006499Y0007671D01*
X0006404Y0007798D01*
X0006313Y0007927D01*
X0006224Y0008058D01*
X0006140Y0008192D01*
X0006058Y0008328D01*
X0005980Y0008465D01*
X0005906Y0008605D01*
X0005835Y0008747D01*
X0005767Y0008890D01*
X0005703Y0009035D01*
X0005643Y0009181D01*
X0005587Y0009329D01*
X0005534Y0009478D01*
X0005485Y0009629D01*
X0005440Y0009781D01*
X0005399Y0009934D01*
X0005361Y0010087D01*
X0005328Y0010242D01*
X0005298Y0010398D01*
X0005272Y0010554D01*
X0005251Y0010711D01*
X0005233Y0010868D01*
X0005219Y0011026D01*
X0005209Y0011184D01*
X0005203Y0011342D01*
X0005201Y0011500D01*
X0378981Y0094492D02*
X0378983Y0094650D01*
X0378989Y0094808D01*
X0378999Y0094966D01*
X0379013Y0095124D01*
X0379031Y0095281D01*
X0379052Y0095438D01*
X0379078Y0095594D01*
X0379108Y0095750D01*
X0379141Y0095905D01*
X0379179Y0096058D01*
X0379220Y0096211D01*
X0379265Y0096363D01*
X0379314Y0096514D01*
X0379367Y0096663D01*
X0379423Y0096811D01*
X0379483Y0096957D01*
X0379547Y0097102D01*
X0379615Y0097245D01*
X0379686Y0097387D01*
X0379760Y0097527D01*
X0379838Y0097664D01*
X0379920Y0097800D01*
X0380004Y0097934D01*
X0380093Y0098065D01*
X0380184Y0098194D01*
X0380279Y0098321D01*
X0380376Y0098446D01*
X0380477Y0098568D01*
X0380581Y0098687D01*
X0380688Y0098804D01*
X0380798Y0098918D01*
X0380911Y0099029D01*
X0381026Y0099138D01*
X0381144Y0099243D01*
X0381265Y0099345D01*
X0381388Y0099445D01*
X0381514Y0099541D01*
X0381642Y0099634D01*
X0381772Y0099724D01*
X0381905Y0099810D01*
X0382040Y0099894D01*
X0382176Y0099973D01*
X0382315Y0100050D01*
X0382456Y0100122D01*
X0382598Y0100192D01*
X0382742Y0100257D01*
X0382888Y0100319D01*
X0383035Y0100377D01*
X0383184Y0100432D01*
X0383334Y0100483D01*
X0383485Y0100530D01*
X0383637Y0100573D01*
X0383790Y0100612D01*
X0383945Y0100648D01*
X0384100Y0100679D01*
X0384256Y0100707D01*
X0384412Y0100731D01*
X0384569Y0100751D01*
X0384727Y0100767D01*
X0384884Y0100779D01*
X0385043Y0100787D01*
X0385201Y0100791D01*
X0385359Y0100791D01*
X0385517Y0100787D01*
X0385676Y0100779D01*
X0385833Y0100767D01*
X0385991Y0100751D01*
X0386148Y0100731D01*
X0386304Y0100707D01*
X0386460Y0100679D01*
X0386615Y0100648D01*
X0386770Y0100612D01*
X0386923Y0100573D01*
X0387075Y0100530D01*
X0387226Y0100483D01*
X0387376Y0100432D01*
X0387525Y0100377D01*
X0387672Y0100319D01*
X0387818Y0100257D01*
X0387962Y0100192D01*
X0388104Y0100122D01*
X0388245Y0100050D01*
X0388384Y0099973D01*
X0388520Y0099894D01*
X0388655Y0099810D01*
X0388788Y0099724D01*
X0388918Y0099634D01*
X0389046Y0099541D01*
X0389172Y0099445D01*
X0389295Y0099345D01*
X0389416Y0099243D01*
X0389534Y0099138D01*
X0389649Y0099029D01*
X0389762Y0098918D01*
X0389872Y0098804D01*
X0389979Y0098687D01*
X0390083Y0098568D01*
X0390184Y0098446D01*
X0390281Y0098321D01*
X0390376Y0098194D01*
X0390467Y0098065D01*
X0390556Y0097934D01*
X0390640Y0097800D01*
X0390722Y0097664D01*
X0390800Y0097527D01*
X0390874Y0097387D01*
X0390945Y0097245D01*
X0391013Y0097102D01*
X0391077Y0096957D01*
X0391137Y0096811D01*
X0391193Y0096663D01*
X0391246Y0096514D01*
X0391295Y0096363D01*
X0391340Y0096211D01*
X0391381Y0096058D01*
X0391419Y0095905D01*
X0391452Y0095750D01*
X0391482Y0095594D01*
X0391508Y0095438D01*
X0391529Y0095281D01*
X0391547Y0095124D01*
X0391561Y0094966D01*
X0391571Y0094808D01*
X0391577Y0094650D01*
X0391579Y0094492D01*
X0391577Y0094334D01*
X0391571Y0094176D01*
X0391561Y0094018D01*
X0391547Y0093860D01*
X0391529Y0093703D01*
X0391508Y0093546D01*
X0391482Y0093390D01*
X0391452Y0093234D01*
X0391419Y0093079D01*
X0391381Y0092926D01*
X0391340Y0092773D01*
X0391295Y0092621D01*
X0391246Y0092470D01*
X0391193Y0092321D01*
X0391137Y0092173D01*
X0391077Y0092027D01*
X0391013Y0091882D01*
X0390945Y0091739D01*
X0390874Y0091597D01*
X0390800Y0091457D01*
X0390722Y0091320D01*
X0390640Y0091184D01*
X0390556Y0091050D01*
X0390467Y0090919D01*
X0390376Y0090790D01*
X0390281Y0090663D01*
X0390184Y0090538D01*
X0390083Y0090416D01*
X0389979Y0090297D01*
X0389872Y0090180D01*
X0389762Y0090066D01*
X0389649Y0089955D01*
X0389534Y0089846D01*
X0389416Y0089741D01*
X0389295Y0089639D01*
X0389172Y0089539D01*
X0389046Y0089443D01*
X0388918Y0089350D01*
X0388788Y0089260D01*
X0388655Y0089174D01*
X0388520Y0089090D01*
X0388384Y0089011D01*
X0388245Y0088934D01*
X0388104Y0088862D01*
X0387962Y0088792D01*
X0387818Y0088727D01*
X0387672Y0088665D01*
X0387525Y0088607D01*
X0387376Y0088552D01*
X0387226Y0088501D01*
X0387075Y0088454D01*
X0386923Y0088411D01*
X0386770Y0088372D01*
X0386615Y0088336D01*
X0386460Y0088305D01*
X0386304Y0088277D01*
X0386148Y0088253D01*
X0385991Y0088233D01*
X0385833Y0088217D01*
X0385676Y0088205D01*
X0385517Y0088197D01*
X0385359Y0088193D01*
X0385201Y0088193D01*
X0385043Y0088197D01*
X0384884Y0088205D01*
X0384727Y0088217D01*
X0384569Y0088233D01*
X0384412Y0088253D01*
X0384256Y0088277D01*
X0384100Y0088305D01*
X0383945Y0088336D01*
X0383790Y0088372D01*
X0383637Y0088411D01*
X0383485Y0088454D01*
X0383334Y0088501D01*
X0383184Y0088552D01*
X0383035Y0088607D01*
X0382888Y0088665D01*
X0382742Y0088727D01*
X0382598Y0088792D01*
X0382456Y0088862D01*
X0382315Y0088934D01*
X0382176Y0089011D01*
X0382040Y0089090D01*
X0381905Y0089174D01*
X0381772Y0089260D01*
X0381642Y0089350D01*
X0381514Y0089443D01*
X0381388Y0089539D01*
X0381265Y0089639D01*
X0381144Y0089741D01*
X0381026Y0089846D01*
X0380911Y0089955D01*
X0380798Y0090066D01*
X0380688Y0090180D01*
X0380581Y0090297D01*
X0380477Y0090416D01*
X0380376Y0090538D01*
X0380279Y0090663D01*
X0380184Y0090790D01*
X0380093Y0090919D01*
X0380004Y0091050D01*
X0379920Y0091184D01*
X0379838Y0091320D01*
X0379760Y0091457D01*
X0379686Y0091597D01*
X0379615Y0091739D01*
X0379547Y0091882D01*
X0379483Y0092027D01*
X0379423Y0092173D01*
X0379367Y0092321D01*
X0379314Y0092470D01*
X0379265Y0092621D01*
X0379220Y0092773D01*
X0379179Y0092926D01*
X0379141Y0093079D01*
X0379108Y0093234D01*
X0379078Y0093390D01*
X0379052Y0093546D01*
X0379031Y0093703D01*
X0379013Y0093860D01*
X0378999Y0094018D01*
X0378989Y0094176D01*
X0378983Y0094334D01*
X0378981Y0094492D01*
X0378981Y0204492D02*
X0378983Y0204650D01*
X0378989Y0204808D01*
X0378999Y0204966D01*
X0379013Y0205124D01*
X0379031Y0205281D01*
X0379052Y0205438D01*
X0379078Y0205594D01*
X0379108Y0205750D01*
X0379141Y0205905D01*
X0379179Y0206058D01*
X0379220Y0206211D01*
X0379265Y0206363D01*
X0379314Y0206514D01*
X0379367Y0206663D01*
X0379423Y0206811D01*
X0379483Y0206957D01*
X0379547Y0207102D01*
X0379615Y0207245D01*
X0379686Y0207387D01*
X0379760Y0207527D01*
X0379838Y0207664D01*
X0379920Y0207800D01*
X0380004Y0207934D01*
X0380093Y0208065D01*
X0380184Y0208194D01*
X0380279Y0208321D01*
X0380376Y0208446D01*
X0380477Y0208568D01*
X0380581Y0208687D01*
X0380688Y0208804D01*
X0380798Y0208918D01*
X0380911Y0209029D01*
X0381026Y0209138D01*
X0381144Y0209243D01*
X0381265Y0209345D01*
X0381388Y0209445D01*
X0381514Y0209541D01*
X0381642Y0209634D01*
X0381772Y0209724D01*
X0381905Y0209810D01*
X0382040Y0209894D01*
X0382176Y0209973D01*
X0382315Y0210050D01*
X0382456Y0210122D01*
X0382598Y0210192D01*
X0382742Y0210257D01*
X0382888Y0210319D01*
X0383035Y0210377D01*
X0383184Y0210432D01*
X0383334Y0210483D01*
X0383485Y0210530D01*
X0383637Y0210573D01*
X0383790Y0210612D01*
X0383945Y0210648D01*
X0384100Y0210679D01*
X0384256Y0210707D01*
X0384412Y0210731D01*
X0384569Y0210751D01*
X0384727Y0210767D01*
X0384884Y0210779D01*
X0385043Y0210787D01*
X0385201Y0210791D01*
X0385359Y0210791D01*
X0385517Y0210787D01*
X0385676Y0210779D01*
X0385833Y0210767D01*
X0385991Y0210751D01*
X0386148Y0210731D01*
X0386304Y0210707D01*
X0386460Y0210679D01*
X0386615Y0210648D01*
X0386770Y0210612D01*
X0386923Y0210573D01*
X0387075Y0210530D01*
X0387226Y0210483D01*
X0387376Y0210432D01*
X0387525Y0210377D01*
X0387672Y0210319D01*
X0387818Y0210257D01*
X0387962Y0210192D01*
X0388104Y0210122D01*
X0388245Y0210050D01*
X0388384Y0209973D01*
X0388520Y0209894D01*
X0388655Y0209810D01*
X0388788Y0209724D01*
X0388918Y0209634D01*
X0389046Y0209541D01*
X0389172Y0209445D01*
X0389295Y0209345D01*
X0389416Y0209243D01*
X0389534Y0209138D01*
X0389649Y0209029D01*
X0389762Y0208918D01*
X0389872Y0208804D01*
X0389979Y0208687D01*
X0390083Y0208568D01*
X0390184Y0208446D01*
X0390281Y0208321D01*
X0390376Y0208194D01*
X0390467Y0208065D01*
X0390556Y0207934D01*
X0390640Y0207800D01*
X0390722Y0207664D01*
X0390800Y0207527D01*
X0390874Y0207387D01*
X0390945Y0207245D01*
X0391013Y0207102D01*
X0391077Y0206957D01*
X0391137Y0206811D01*
X0391193Y0206663D01*
X0391246Y0206514D01*
X0391295Y0206363D01*
X0391340Y0206211D01*
X0391381Y0206058D01*
X0391419Y0205905D01*
X0391452Y0205750D01*
X0391482Y0205594D01*
X0391508Y0205438D01*
X0391529Y0205281D01*
X0391547Y0205124D01*
X0391561Y0204966D01*
X0391571Y0204808D01*
X0391577Y0204650D01*
X0391579Y0204492D01*
X0391577Y0204334D01*
X0391571Y0204176D01*
X0391561Y0204018D01*
X0391547Y0203860D01*
X0391529Y0203703D01*
X0391508Y0203546D01*
X0391482Y0203390D01*
X0391452Y0203234D01*
X0391419Y0203079D01*
X0391381Y0202926D01*
X0391340Y0202773D01*
X0391295Y0202621D01*
X0391246Y0202470D01*
X0391193Y0202321D01*
X0391137Y0202173D01*
X0391077Y0202027D01*
X0391013Y0201882D01*
X0390945Y0201739D01*
X0390874Y0201597D01*
X0390800Y0201457D01*
X0390722Y0201320D01*
X0390640Y0201184D01*
X0390556Y0201050D01*
X0390467Y0200919D01*
X0390376Y0200790D01*
X0390281Y0200663D01*
X0390184Y0200538D01*
X0390083Y0200416D01*
X0389979Y0200297D01*
X0389872Y0200180D01*
X0389762Y0200066D01*
X0389649Y0199955D01*
X0389534Y0199846D01*
X0389416Y0199741D01*
X0389295Y0199639D01*
X0389172Y0199539D01*
X0389046Y0199443D01*
X0388918Y0199350D01*
X0388788Y0199260D01*
X0388655Y0199174D01*
X0388520Y0199090D01*
X0388384Y0199011D01*
X0388245Y0198934D01*
X0388104Y0198862D01*
X0387962Y0198792D01*
X0387818Y0198727D01*
X0387672Y0198665D01*
X0387525Y0198607D01*
X0387376Y0198552D01*
X0387226Y0198501D01*
X0387075Y0198454D01*
X0386923Y0198411D01*
X0386770Y0198372D01*
X0386615Y0198336D01*
X0386460Y0198305D01*
X0386304Y0198277D01*
X0386148Y0198253D01*
X0385991Y0198233D01*
X0385833Y0198217D01*
X0385676Y0198205D01*
X0385517Y0198197D01*
X0385359Y0198193D01*
X0385201Y0198193D01*
X0385043Y0198197D01*
X0384884Y0198205D01*
X0384727Y0198217D01*
X0384569Y0198233D01*
X0384412Y0198253D01*
X0384256Y0198277D01*
X0384100Y0198305D01*
X0383945Y0198336D01*
X0383790Y0198372D01*
X0383637Y0198411D01*
X0383485Y0198454D01*
X0383334Y0198501D01*
X0383184Y0198552D01*
X0383035Y0198607D01*
X0382888Y0198665D01*
X0382742Y0198727D01*
X0382598Y0198792D01*
X0382456Y0198862D01*
X0382315Y0198934D01*
X0382176Y0199011D01*
X0382040Y0199090D01*
X0381905Y0199174D01*
X0381772Y0199260D01*
X0381642Y0199350D01*
X0381514Y0199443D01*
X0381388Y0199539D01*
X0381265Y0199639D01*
X0381144Y0199741D01*
X0381026Y0199846D01*
X0380911Y0199955D01*
X0380798Y0200066D01*
X0380688Y0200180D01*
X0380581Y0200297D01*
X0380477Y0200416D01*
X0380376Y0200538D01*
X0380279Y0200663D01*
X0380184Y0200790D01*
X0380093Y0200919D01*
X0380004Y0201050D01*
X0379920Y0201184D01*
X0379838Y0201320D01*
X0379760Y0201457D01*
X0379686Y0201597D01*
X0379615Y0201739D01*
X0379547Y0201882D01*
X0379483Y0202027D01*
X0379423Y0202173D01*
X0379367Y0202321D01*
X0379314Y0202470D01*
X0379265Y0202621D01*
X0379220Y0202773D01*
X0379179Y0202926D01*
X0379141Y0203079D01*
X0379108Y0203234D01*
X0379078Y0203390D01*
X0379052Y0203546D01*
X0379031Y0203703D01*
X0379013Y0203860D01*
X0378999Y0204018D01*
X0378989Y0204176D01*
X0378983Y0204334D01*
X0378981Y0204492D01*
D12*
X0344705Y0210953D02*
X0344705Y0212323D01*
X0344705Y0210953D02*
X0343335Y0210953D01*
X0343335Y0212323D01*
X0344705Y0212323D01*
X0344705Y0211944D02*
X0343335Y0211944D01*
X0344705Y0214890D02*
X0344705Y0216260D01*
X0344705Y0214890D02*
X0343335Y0214890D01*
X0343335Y0216260D01*
X0344705Y0216260D01*
X0344705Y0215881D02*
X0343335Y0215881D01*
X0307020Y0194870D02*
X0305650Y0194870D01*
X0307020Y0194870D02*
X0307020Y0193500D01*
X0305650Y0193500D01*
X0305650Y0194870D01*
X0305650Y0194491D02*
X0307020Y0194491D01*
X0303083Y0194870D02*
X0301713Y0194870D01*
X0303083Y0194870D02*
X0303083Y0193500D01*
X0301713Y0193500D01*
X0301713Y0194870D01*
X0301713Y0194491D02*
X0303083Y0194491D01*
X0295831Y0197173D02*
X0295831Y0190291D01*
X0295831Y0197173D02*
X0297595Y0197173D01*
X0297595Y0190291D01*
X0295831Y0190291D01*
X0295831Y0191282D02*
X0297595Y0191282D01*
X0297595Y0192273D02*
X0295831Y0192273D01*
X0295831Y0193264D02*
X0297595Y0193264D01*
X0297595Y0194255D02*
X0295831Y0194255D01*
X0295831Y0195246D02*
X0297595Y0195246D01*
X0297595Y0196237D02*
X0295831Y0196237D01*
X0291894Y0197173D02*
X0291894Y0190291D01*
X0291894Y0197173D02*
X0293658Y0197173D01*
X0293658Y0190291D01*
X0291894Y0190291D01*
X0291894Y0191282D02*
X0293658Y0191282D01*
X0293658Y0192273D02*
X0291894Y0192273D01*
X0291894Y0193264D02*
X0293658Y0193264D01*
X0293658Y0194255D02*
X0291894Y0194255D01*
X0291894Y0195246D02*
X0293658Y0195246D01*
X0293658Y0196237D02*
X0291894Y0196237D01*
X0287957Y0197173D02*
X0287957Y0190291D01*
X0287957Y0197173D02*
X0289721Y0197173D01*
X0289721Y0190291D01*
X0287957Y0190291D01*
X0287957Y0191282D02*
X0289721Y0191282D01*
X0289721Y0192273D02*
X0287957Y0192273D01*
X0287957Y0193264D02*
X0289721Y0193264D01*
X0289721Y0194255D02*
X0287957Y0194255D01*
X0287957Y0195246D02*
X0289721Y0195246D01*
X0289721Y0196237D02*
X0287957Y0196237D01*
X0250421Y0196681D02*
X0250421Y0205925D01*
X0254941Y0205925D01*
X0254941Y0196681D01*
X0250421Y0196681D01*
X0250421Y0197672D02*
X0254941Y0197672D01*
X0254941Y0198663D02*
X0250421Y0198663D01*
X0250421Y0199654D02*
X0254941Y0199654D01*
X0254941Y0200645D02*
X0250421Y0200645D01*
X0250421Y0201636D02*
X0254941Y0201636D01*
X0254941Y0202627D02*
X0250421Y0202627D01*
X0250421Y0203618D02*
X0254941Y0203618D01*
X0254941Y0204609D02*
X0250421Y0204609D01*
X0250421Y0205600D02*
X0254941Y0205600D01*
X0250421Y0189783D02*
X0250421Y0180539D01*
X0250421Y0189783D02*
X0254941Y0189783D01*
X0254941Y0180539D01*
X0250421Y0180539D01*
X0250421Y0181530D02*
X0254941Y0181530D01*
X0254941Y0182521D02*
X0250421Y0182521D01*
X0250421Y0183512D02*
X0254941Y0183512D01*
X0254941Y0184503D02*
X0250421Y0184503D01*
X0250421Y0185494D02*
X0254941Y0185494D01*
X0254941Y0186485D02*
X0250421Y0186485D01*
X0250421Y0187476D02*
X0254941Y0187476D01*
X0254941Y0188467D02*
X0250421Y0188467D01*
X0250421Y0189458D02*
X0254941Y0189458D01*
X0295106Y0158295D02*
X0296476Y0158295D01*
X0295106Y0158295D02*
X0295106Y0159665D01*
X0296476Y0159665D01*
X0296476Y0158295D01*
X0296476Y0159286D02*
X0295106Y0159286D01*
X0299043Y0158295D02*
X0300413Y0158295D01*
X0299043Y0158295D02*
X0299043Y0159665D01*
X0300413Y0159665D01*
X0300413Y0158295D01*
X0300413Y0159286D02*
X0299043Y0159286D01*
X0302980Y0159272D02*
X0304350Y0159272D01*
X0304350Y0157902D01*
X0302980Y0157902D01*
X0302980Y0159272D01*
X0302980Y0158893D02*
X0304350Y0158893D01*
X0306917Y0159272D02*
X0308287Y0159272D01*
X0308287Y0157902D01*
X0306917Y0157902D01*
X0306917Y0159272D01*
X0306917Y0158893D02*
X0308287Y0158893D01*
X0324437Y0174831D02*
X0325807Y0174831D01*
X0324437Y0174831D02*
X0324437Y0176201D01*
X0325807Y0176201D01*
X0325807Y0174831D01*
X0325807Y0175822D02*
X0324437Y0175822D01*
X0328374Y0174831D02*
X0329744Y0174831D01*
X0328374Y0174831D02*
X0328374Y0176201D01*
X0329744Y0176201D01*
X0329744Y0174831D01*
X0329744Y0175822D02*
X0328374Y0175822D01*
X0179555Y0246681D02*
X0179555Y0255925D01*
X0184075Y0255925D01*
X0184075Y0246681D01*
X0179555Y0246681D01*
X0179555Y0247672D02*
X0184075Y0247672D01*
X0184075Y0248663D02*
X0179555Y0248663D01*
X0179555Y0249654D02*
X0184075Y0249654D01*
X0184075Y0250645D02*
X0179555Y0250645D01*
X0179555Y0251636D02*
X0184075Y0251636D01*
X0184075Y0252627D02*
X0179555Y0252627D01*
X0179555Y0253618D02*
X0184075Y0253618D01*
X0184075Y0254609D02*
X0179555Y0254609D01*
X0179555Y0255600D02*
X0184075Y0255600D01*
X0179555Y0262823D02*
X0179555Y0272067D01*
X0184075Y0272067D01*
X0184075Y0262823D01*
X0179555Y0262823D01*
X0179555Y0263814D02*
X0184075Y0263814D01*
X0184075Y0264805D02*
X0179555Y0264805D01*
X0179555Y0265796D02*
X0184075Y0265796D01*
X0184075Y0266787D02*
X0179555Y0266787D01*
X0179555Y0267778D02*
X0184075Y0267778D01*
X0184075Y0268769D02*
X0179555Y0268769D01*
X0179555Y0269760D02*
X0184075Y0269760D01*
X0184075Y0270751D02*
X0179555Y0270751D01*
X0179555Y0271742D02*
X0184075Y0271742D01*
X0083886Y0201201D02*
X0083886Y0191957D01*
X0083886Y0201201D02*
X0088406Y0201201D01*
X0088406Y0191957D01*
X0083886Y0191957D01*
X0083886Y0192948D02*
X0088406Y0192948D01*
X0088406Y0193939D02*
X0083886Y0193939D01*
X0083886Y0194930D02*
X0088406Y0194930D01*
X0088406Y0195921D02*
X0083886Y0195921D01*
X0083886Y0196912D02*
X0088406Y0196912D01*
X0088406Y0197903D02*
X0083886Y0197903D01*
X0083886Y0198894D02*
X0088406Y0198894D01*
X0088406Y0199885D02*
X0083886Y0199885D01*
X0083886Y0200876D02*
X0088406Y0200876D01*
X0083886Y0185059D02*
X0083886Y0175815D01*
X0083886Y0185059D02*
X0088406Y0185059D01*
X0088406Y0175815D01*
X0083886Y0175815D01*
X0083886Y0176806D02*
X0088406Y0176806D01*
X0088406Y0177797D02*
X0083886Y0177797D01*
X0083886Y0178788D02*
X0088406Y0178788D01*
X0088406Y0179779D02*
X0083886Y0179779D01*
X0083886Y0180770D02*
X0088406Y0180770D01*
X0088406Y0181761D02*
X0083886Y0181761D01*
X0083886Y0182752D02*
X0088406Y0182752D01*
X0088406Y0183743D02*
X0083886Y0183743D01*
X0083886Y0184734D02*
X0088406Y0184734D01*
X0076406Y0145886D02*
X0076406Y0144516D01*
X0076406Y0145886D02*
X0077776Y0145886D01*
X0077776Y0144516D01*
X0076406Y0144516D01*
X0076406Y0145507D02*
X0077776Y0145507D01*
X0076406Y0141949D02*
X0076406Y0140579D01*
X0076406Y0141949D02*
X0077776Y0141949D01*
X0077776Y0140579D01*
X0076406Y0140579D01*
X0076406Y0141570D02*
X0077776Y0141570D01*
X0109299Y0121083D02*
X0110669Y0121083D01*
X0110669Y0116169D01*
X0109299Y0116169D01*
X0109299Y0121083D01*
X0109299Y0117160D02*
X0110669Y0117160D01*
X0110669Y0118151D02*
X0109299Y0118151D01*
X0109299Y0119142D02*
X0110669Y0119142D01*
X0110669Y0120133D02*
X0109299Y0120133D01*
X0114299Y0121083D02*
X0115669Y0121083D01*
X0115669Y0116169D01*
X0114299Y0116169D01*
X0114299Y0121083D01*
X0114299Y0117160D02*
X0115669Y0117160D01*
X0115669Y0118151D02*
X0114299Y0118151D01*
X0114299Y0119142D02*
X0115669Y0119142D01*
X0115669Y0120133D02*
X0114299Y0120133D01*
X0119299Y0121083D02*
X0120669Y0121083D01*
X0120669Y0116169D01*
X0119299Y0116169D01*
X0119299Y0121083D01*
X0119299Y0117160D02*
X0120669Y0117160D01*
X0120669Y0118151D02*
X0119299Y0118151D01*
X0119299Y0119142D02*
X0120669Y0119142D01*
X0120669Y0120133D02*
X0119299Y0120133D01*
X0124299Y0121083D02*
X0125669Y0121083D01*
X0125669Y0116169D01*
X0124299Y0116169D01*
X0124299Y0121083D01*
X0124299Y0117160D02*
X0125669Y0117160D01*
X0125669Y0118151D02*
X0124299Y0118151D01*
X0124299Y0119142D02*
X0125669Y0119142D01*
X0125669Y0120133D02*
X0124299Y0120133D01*
X0129299Y0121083D02*
X0130669Y0121083D01*
X0130669Y0116169D01*
X0129299Y0116169D01*
X0129299Y0121083D01*
X0129299Y0117160D02*
X0130669Y0117160D01*
X0130669Y0118151D02*
X0129299Y0118151D01*
X0129299Y0119142D02*
X0130669Y0119142D01*
X0130669Y0120133D02*
X0129299Y0120133D01*
X0134299Y0121083D02*
X0135669Y0121083D01*
X0135669Y0116169D01*
X0134299Y0116169D01*
X0134299Y0121083D01*
X0134299Y0117160D02*
X0135669Y0117160D01*
X0135669Y0118151D02*
X0134299Y0118151D01*
X0134299Y0119142D02*
X0135669Y0119142D01*
X0135669Y0120133D02*
X0134299Y0120133D01*
X0139299Y0121083D02*
X0140669Y0121083D01*
X0140669Y0116169D01*
X0139299Y0116169D01*
X0139299Y0121083D01*
X0139299Y0117160D02*
X0140669Y0117160D01*
X0140669Y0118151D02*
X0139299Y0118151D01*
X0139299Y0119142D02*
X0140669Y0119142D01*
X0140669Y0120133D02*
X0139299Y0120133D01*
X0144299Y0121083D02*
X0145669Y0121083D01*
X0145669Y0116169D01*
X0144299Y0116169D01*
X0144299Y0121083D01*
X0144299Y0117160D02*
X0145669Y0117160D01*
X0145669Y0118151D02*
X0144299Y0118151D01*
X0144299Y0119142D02*
X0145669Y0119142D01*
X0145669Y0120133D02*
X0144299Y0120133D01*
X0171673Y0124429D02*
X0171673Y0115185D01*
X0167153Y0115185D01*
X0167153Y0124429D01*
X0171673Y0124429D01*
X0171673Y0116176D02*
X0167153Y0116176D01*
X0167153Y0117167D02*
X0171673Y0117167D01*
X0171673Y0118158D02*
X0167153Y0118158D01*
X0167153Y0119149D02*
X0171673Y0119149D01*
X0171673Y0120140D02*
X0167153Y0120140D01*
X0167153Y0121131D02*
X0171673Y0121131D01*
X0171673Y0122122D02*
X0167153Y0122122D01*
X0167153Y0123113D02*
X0171673Y0123113D01*
X0171673Y0124104D02*
X0167153Y0124104D01*
X0171673Y0108287D02*
X0171673Y0099043D01*
X0167153Y0099043D01*
X0167153Y0108287D01*
X0171673Y0108287D01*
X0171673Y0100034D02*
X0167153Y0100034D01*
X0167153Y0101025D02*
X0171673Y0101025D01*
X0171673Y0102016D02*
X0167153Y0102016D01*
X0167153Y0103007D02*
X0171673Y0103007D01*
X0171673Y0103998D02*
X0167153Y0103998D01*
X0167153Y0104989D02*
X0171673Y0104989D01*
X0171673Y0105980D02*
X0167153Y0105980D01*
X0167153Y0106971D02*
X0171673Y0106971D01*
X0171673Y0107962D02*
X0167153Y0107962D01*
X0155728Y0099240D02*
X0154358Y0099240D01*
X0154358Y0100610D01*
X0155728Y0100610D01*
X0155728Y0099240D01*
X0155728Y0100231D02*
X0154358Y0100231D01*
X0151791Y0099240D02*
X0150421Y0099240D01*
X0150421Y0100610D01*
X0151791Y0100610D01*
X0151791Y0099240D01*
X0151791Y0100231D02*
X0150421Y0100231D01*
X0145669Y0099429D02*
X0144299Y0099429D01*
X0145669Y0099429D02*
X0145669Y0094515D01*
X0144299Y0094515D01*
X0144299Y0099429D01*
X0144299Y0095506D02*
X0145669Y0095506D01*
X0145669Y0096497D02*
X0144299Y0096497D01*
X0144299Y0097488D02*
X0145669Y0097488D01*
X0145669Y0098479D02*
X0144299Y0098479D01*
X0140669Y0099429D02*
X0139299Y0099429D01*
X0140669Y0099429D02*
X0140669Y0094515D01*
X0139299Y0094515D01*
X0139299Y0099429D01*
X0139299Y0095506D02*
X0140669Y0095506D01*
X0140669Y0096497D02*
X0139299Y0096497D01*
X0139299Y0097488D02*
X0140669Y0097488D01*
X0140669Y0098479D02*
X0139299Y0098479D01*
X0135669Y0099429D02*
X0134299Y0099429D01*
X0135669Y0099429D02*
X0135669Y0094515D01*
X0134299Y0094515D01*
X0134299Y0099429D01*
X0134299Y0095506D02*
X0135669Y0095506D01*
X0135669Y0096497D02*
X0134299Y0096497D01*
X0134299Y0097488D02*
X0135669Y0097488D01*
X0135669Y0098479D02*
X0134299Y0098479D01*
X0130669Y0099429D02*
X0129299Y0099429D01*
X0130669Y0099429D02*
X0130669Y0094515D01*
X0129299Y0094515D01*
X0129299Y0099429D01*
X0129299Y0095506D02*
X0130669Y0095506D01*
X0130669Y0096497D02*
X0129299Y0096497D01*
X0129299Y0097488D02*
X0130669Y0097488D01*
X0130669Y0098479D02*
X0129299Y0098479D01*
X0125669Y0099429D02*
X0124299Y0099429D01*
X0125669Y0099429D02*
X0125669Y0094515D01*
X0124299Y0094515D01*
X0124299Y0099429D01*
X0124299Y0095506D02*
X0125669Y0095506D01*
X0125669Y0096497D02*
X0124299Y0096497D01*
X0124299Y0097488D02*
X0125669Y0097488D01*
X0125669Y0098479D02*
X0124299Y0098479D01*
X0120669Y0099429D02*
X0119299Y0099429D01*
X0120669Y0099429D02*
X0120669Y0094515D01*
X0119299Y0094515D01*
X0119299Y0099429D01*
X0119299Y0095506D02*
X0120669Y0095506D01*
X0120669Y0096497D02*
X0119299Y0096497D01*
X0119299Y0097488D02*
X0120669Y0097488D01*
X0120669Y0098479D02*
X0119299Y0098479D01*
X0115669Y0099429D02*
X0114299Y0099429D01*
X0115669Y0099429D02*
X0115669Y0094515D01*
X0114299Y0094515D01*
X0114299Y0099429D01*
X0114299Y0095506D02*
X0115669Y0095506D01*
X0115669Y0096497D02*
X0114299Y0096497D01*
X0114299Y0097488D02*
X0115669Y0097488D01*
X0115669Y0098479D02*
X0114299Y0098479D01*
X0110669Y0099429D02*
X0109299Y0099429D01*
X0110669Y0099429D02*
X0110669Y0094515D01*
X0109299Y0094515D01*
X0109299Y0099429D01*
X0109299Y0095506D02*
X0110669Y0095506D01*
X0110669Y0096497D02*
X0109299Y0096497D01*
X0109299Y0097488D02*
X0110669Y0097488D01*
X0110669Y0098479D02*
X0109299Y0098479D01*
X0118327Y0061240D02*
X0118327Y0059870D01*
X0116957Y0059870D01*
X0116957Y0061240D01*
X0118327Y0061240D01*
X0118327Y0060861D02*
X0116957Y0060861D01*
X0118327Y0057303D02*
X0118327Y0055933D01*
X0116957Y0055933D01*
X0116957Y0057303D01*
X0118327Y0057303D01*
X0118327Y0056924D02*
X0116957Y0056924D01*
X0124232Y0057303D02*
X0124232Y0055933D01*
X0122862Y0055933D01*
X0122862Y0057303D01*
X0124232Y0057303D01*
X0124232Y0056924D02*
X0122862Y0056924D01*
X0124232Y0059870D02*
X0124232Y0061240D01*
X0124232Y0059870D02*
X0122862Y0059870D01*
X0122862Y0061240D01*
X0124232Y0061240D01*
X0124232Y0060861D02*
X0122862Y0060861D01*
D13*
X0294324Y0167592D02*
X0294324Y0167692D01*
X0296078Y0167692D01*
X0296078Y0167592D01*
X0294324Y0167592D01*
X0294324Y0169560D02*
X0294324Y0169660D01*
X0296078Y0169660D01*
X0296078Y0169560D01*
X0294324Y0169560D01*
X0294324Y0171529D02*
X0294324Y0171629D01*
X0296078Y0171629D01*
X0296078Y0171529D01*
X0294324Y0171529D01*
X0294324Y0173497D02*
X0294324Y0173597D01*
X0296078Y0173597D01*
X0296078Y0173497D01*
X0294324Y0173497D01*
X0294324Y0175466D02*
X0294324Y0175566D01*
X0296078Y0175566D01*
X0296078Y0175466D01*
X0294324Y0175466D01*
X0294324Y0177434D02*
X0294324Y0177534D01*
X0296078Y0177534D01*
X0296078Y0177434D01*
X0294324Y0177434D01*
X0294324Y0179403D02*
X0294324Y0179503D01*
X0296078Y0179503D01*
X0296078Y0179403D01*
X0294324Y0179403D01*
X0294324Y0181371D02*
X0294324Y0181471D01*
X0296078Y0181471D01*
X0296078Y0181371D01*
X0294324Y0181371D01*
X0297710Y0183103D02*
X0297710Y0184857D01*
X0297810Y0184857D01*
X0297810Y0183103D01*
X0297710Y0183103D01*
X0297710Y0184105D02*
X0297810Y0184105D01*
X0299678Y0184857D02*
X0299678Y0183103D01*
X0299678Y0184857D02*
X0299778Y0184857D01*
X0299778Y0183103D01*
X0299678Y0183103D01*
X0299678Y0184105D02*
X0299778Y0184105D01*
X0301647Y0184857D02*
X0301647Y0183103D01*
X0301647Y0184857D02*
X0301747Y0184857D01*
X0301747Y0183103D01*
X0301647Y0183103D01*
X0301647Y0184105D02*
X0301747Y0184105D01*
X0303615Y0184857D02*
X0303615Y0183103D01*
X0303615Y0184857D02*
X0303715Y0184857D01*
X0303715Y0183103D01*
X0303615Y0183103D01*
X0303615Y0184105D02*
X0303715Y0184105D01*
X0305584Y0184857D02*
X0305584Y0183103D01*
X0305584Y0184857D02*
X0305684Y0184857D01*
X0305684Y0183103D01*
X0305584Y0183103D01*
X0305584Y0184105D02*
X0305684Y0184105D01*
X0307552Y0184857D02*
X0307552Y0183103D01*
X0307552Y0184857D02*
X0307652Y0184857D01*
X0307652Y0183103D01*
X0307552Y0183103D01*
X0307552Y0184105D02*
X0307652Y0184105D01*
X0309521Y0184857D02*
X0309521Y0183103D01*
X0309521Y0184857D02*
X0309621Y0184857D01*
X0309621Y0183103D01*
X0309521Y0183103D01*
X0309521Y0184105D02*
X0309621Y0184105D01*
X0311489Y0184857D02*
X0311489Y0183103D01*
X0311489Y0184857D02*
X0311589Y0184857D01*
X0311589Y0183103D01*
X0311489Y0183103D01*
X0311489Y0184105D02*
X0311589Y0184105D01*
X0313221Y0181471D02*
X0313221Y0181371D01*
X0313221Y0181471D02*
X0314975Y0181471D01*
X0314975Y0181371D01*
X0313221Y0181371D01*
X0313221Y0179503D02*
X0313221Y0179403D01*
X0313221Y0179503D02*
X0314975Y0179503D01*
X0314975Y0179403D01*
X0313221Y0179403D01*
X0313221Y0177534D02*
X0313221Y0177434D01*
X0313221Y0177534D02*
X0314975Y0177534D01*
X0314975Y0177434D01*
X0313221Y0177434D01*
X0313221Y0175566D02*
X0313221Y0175466D01*
X0313221Y0175566D02*
X0314975Y0175566D01*
X0314975Y0175466D01*
X0313221Y0175466D01*
X0313221Y0173597D02*
X0313221Y0173497D01*
X0313221Y0173597D02*
X0314975Y0173597D01*
X0314975Y0173497D01*
X0313221Y0173497D01*
X0313221Y0171629D02*
X0313221Y0171529D01*
X0313221Y0171629D02*
X0314975Y0171629D01*
X0314975Y0171529D01*
X0313221Y0171529D01*
X0313221Y0169660D02*
X0313221Y0169560D01*
X0313221Y0169660D02*
X0314975Y0169660D01*
X0314975Y0169560D01*
X0313221Y0169560D01*
X0313221Y0167692D02*
X0313221Y0167592D01*
X0313221Y0167692D02*
X0314975Y0167692D01*
X0314975Y0167592D01*
X0313221Y0167592D01*
X0311489Y0165960D02*
X0311489Y0164206D01*
X0311489Y0165960D02*
X0311589Y0165960D01*
X0311589Y0164206D01*
X0311489Y0164206D01*
X0311489Y0165208D02*
X0311589Y0165208D01*
X0309521Y0165960D02*
X0309521Y0164206D01*
X0309521Y0165960D02*
X0309621Y0165960D01*
X0309621Y0164206D01*
X0309521Y0164206D01*
X0309521Y0165208D02*
X0309621Y0165208D01*
X0307552Y0165960D02*
X0307552Y0164206D01*
X0307552Y0165960D02*
X0307652Y0165960D01*
X0307652Y0164206D01*
X0307552Y0164206D01*
X0307552Y0165208D02*
X0307652Y0165208D01*
X0305584Y0165960D02*
X0305584Y0164206D01*
X0305584Y0165960D02*
X0305684Y0165960D01*
X0305684Y0164206D01*
X0305584Y0164206D01*
X0305584Y0165208D02*
X0305684Y0165208D01*
X0303615Y0165960D02*
X0303615Y0164206D01*
X0303615Y0165960D02*
X0303715Y0165960D01*
X0303715Y0164206D01*
X0303615Y0164206D01*
X0303615Y0165208D02*
X0303715Y0165208D01*
X0301647Y0165960D02*
X0301647Y0164206D01*
X0301647Y0165960D02*
X0301747Y0165960D01*
X0301747Y0164206D01*
X0301647Y0164206D01*
X0301647Y0165208D02*
X0301747Y0165208D01*
X0299678Y0165960D02*
X0299678Y0164206D01*
X0299678Y0165960D02*
X0299778Y0165960D01*
X0299778Y0164206D01*
X0299678Y0164206D01*
X0299678Y0165208D02*
X0299778Y0165208D01*
X0297710Y0165960D02*
X0297710Y0164206D01*
X0297710Y0165960D02*
X0297810Y0165960D01*
X0297810Y0164206D01*
X0297710Y0164206D01*
X0297710Y0165208D02*
X0297810Y0165208D01*
D14*
X0299925Y0169807D03*
X0299925Y0172169D03*
X0302287Y0169807D03*
X0304650Y0172169D03*
X0307012Y0169807D03*
X0309374Y0169807D03*
X0309374Y0172169D03*
X0307012Y0174531D03*
X0309374Y0176894D03*
X0309374Y0179256D03*
X0307012Y0179256D03*
X0304650Y0176894D03*
X0302287Y0179256D03*
X0299925Y0179256D03*
X0299925Y0176894D03*
X0302287Y0174531D03*
D15*
X0352012Y0224541D02*
X0352212Y0224541D01*
X0352212Y0223341D01*
X0352012Y0223341D01*
X0352012Y0224541D01*
X0355512Y0224541D02*
X0355712Y0224541D01*
X0355712Y0223341D01*
X0355512Y0223341D01*
X0355512Y0224541D01*
X0355512Y0234383D02*
X0355712Y0234383D01*
X0355712Y0233183D01*
X0355512Y0233183D01*
X0355512Y0234383D01*
X0352212Y0234383D02*
X0352012Y0234383D01*
X0352212Y0234383D02*
X0352212Y0233183D01*
X0352012Y0233183D01*
X0352012Y0234383D01*
X0352012Y0243026D02*
X0352212Y0243026D01*
X0352012Y0243026D02*
X0352012Y0244226D01*
X0352212Y0244226D01*
X0352212Y0243026D01*
X0355512Y0243026D02*
X0355712Y0243026D01*
X0355512Y0243026D02*
X0355512Y0244226D01*
X0355712Y0244226D01*
X0355712Y0243026D01*
D16*
X0178752Y0228948D02*
X0178752Y0223658D01*
X0169130Y0223658D01*
X0169130Y0228948D01*
X0178752Y0228948D01*
X0178752Y0224665D02*
X0169130Y0224665D01*
X0169130Y0225672D02*
X0178752Y0225672D01*
X0178752Y0226679D02*
X0169130Y0226679D01*
X0169130Y0227686D02*
X0178752Y0227686D01*
X0178752Y0228693D02*
X0169130Y0228693D01*
X0178752Y0217925D02*
X0178752Y0212635D01*
X0169130Y0212635D01*
X0169130Y0217925D01*
X0178752Y0217925D01*
X0178752Y0213642D02*
X0169130Y0213642D01*
X0169130Y0214649D02*
X0178752Y0214649D01*
X0178752Y0215656D02*
X0169130Y0215656D01*
X0169130Y0216663D02*
X0178752Y0216663D01*
X0178752Y0217670D02*
X0169130Y0217670D01*
X0167728Y0246886D02*
X0167728Y0252176D01*
X0167728Y0246886D02*
X0158106Y0246886D01*
X0158106Y0252176D01*
X0167728Y0252176D01*
X0167728Y0247893D02*
X0158106Y0247893D01*
X0158106Y0248900D02*
X0167728Y0248900D01*
X0167728Y0249907D02*
X0158106Y0249907D01*
X0158106Y0250914D02*
X0167728Y0250914D01*
X0167728Y0251921D02*
X0158106Y0251921D01*
X0167728Y0257910D02*
X0167728Y0263200D01*
X0167728Y0257910D02*
X0158106Y0257910D01*
X0158106Y0263200D01*
X0167728Y0263200D01*
X0167728Y0258917D02*
X0158106Y0258917D01*
X0158106Y0259924D02*
X0167728Y0259924D01*
X0167728Y0260931D02*
X0158106Y0260931D01*
X0158106Y0261938D02*
X0167728Y0261938D01*
X0167728Y0262945D02*
X0158106Y0262945D01*
X0108673Y0198633D02*
X0108673Y0193343D01*
X0099051Y0193343D01*
X0099051Y0198633D01*
X0108673Y0198633D01*
X0108673Y0194350D02*
X0099051Y0194350D01*
X0099051Y0195357D02*
X0108673Y0195357D01*
X0108673Y0196364D02*
X0099051Y0196364D01*
X0099051Y0197371D02*
X0108673Y0197371D01*
X0108673Y0198378D02*
X0099051Y0198378D01*
X0108673Y0187610D02*
X0108673Y0182320D01*
X0099051Y0182320D01*
X0099051Y0187610D01*
X0108673Y0187610D01*
X0108673Y0183327D02*
X0099051Y0183327D01*
X0099051Y0184334D02*
X0108673Y0184334D01*
X0108673Y0185341D02*
X0099051Y0185341D01*
X0099051Y0186348D02*
X0108673Y0186348D01*
X0108673Y0187355D02*
X0099051Y0187355D01*
X0072452Y0148043D02*
X0072452Y0145901D01*
X0069918Y0145901D01*
X0069918Y0148043D01*
X0072452Y0148043D01*
X0072452Y0146908D02*
X0069918Y0146908D01*
X0069918Y0147915D02*
X0072452Y0147915D01*
X0072452Y0140563D02*
X0072452Y0138421D01*
X0069918Y0138421D01*
X0069918Y0140563D01*
X0072452Y0140563D01*
X0072452Y0139428D02*
X0069918Y0139428D01*
X0069918Y0140435D02*
X0072452Y0140435D01*
X0064184Y0142161D02*
X0064184Y0144303D01*
X0064184Y0142161D02*
X0061650Y0142161D01*
X0061650Y0144303D01*
X0064184Y0144303D01*
X0064184Y0143168D02*
X0061650Y0143168D01*
X0061650Y0144175D02*
X0064184Y0144175D01*
X0148461Y0123830D02*
X0148461Y0118540D01*
X0148461Y0123830D02*
X0158083Y0123830D01*
X0158083Y0118540D01*
X0148461Y0118540D01*
X0148461Y0119547D02*
X0158083Y0119547D01*
X0158083Y0120554D02*
X0148461Y0120554D01*
X0148461Y0121561D02*
X0158083Y0121561D01*
X0158083Y0122568D02*
X0148461Y0122568D01*
X0148461Y0123575D02*
X0158083Y0123575D01*
X0148461Y0112806D02*
X0148461Y0107516D01*
X0148461Y0112806D02*
X0158083Y0112806D01*
X0158083Y0107516D01*
X0148461Y0107516D01*
X0148461Y0108523D02*
X0158083Y0108523D01*
X0158083Y0109530D02*
X0148461Y0109530D01*
X0148461Y0110537D02*
X0158083Y0110537D01*
X0158083Y0111544D02*
X0148461Y0111544D01*
X0148461Y0112551D02*
X0158083Y0112551D01*
D17*
X0283426Y0153800D02*
X0285912Y0153800D01*
X0283426Y0153800D02*
X0283426Y0156286D01*
X0285912Y0156286D01*
X0285912Y0153800D01*
X0285912Y0154814D02*
X0283426Y0154814D01*
X0283426Y0155828D02*
X0285912Y0155828D01*
X0290316Y0153800D02*
X0292802Y0153800D01*
X0290316Y0153800D02*
X0290316Y0156286D01*
X0292802Y0156286D01*
X0292802Y0153800D01*
X0292802Y0154814D02*
X0290316Y0154814D01*
X0290316Y0155828D02*
X0292802Y0155828D01*
D18*
X0056697Y0140595D02*
X0052603Y0140595D01*
X0052603Y0145869D01*
X0056697Y0145869D01*
X0056697Y0140595D01*
X0056697Y0141618D02*
X0052603Y0141618D01*
X0052603Y0142641D02*
X0056697Y0142641D01*
X0056697Y0143664D02*
X0052603Y0143664D01*
X0052603Y0144687D02*
X0056697Y0144687D01*
X0056697Y0145710D02*
X0052603Y0145710D01*
X0048823Y0140595D02*
X0044729Y0140595D01*
X0044729Y0145869D01*
X0048823Y0145869D01*
X0048823Y0140595D01*
X0048823Y0141618D02*
X0044729Y0141618D01*
X0044729Y0142641D02*
X0048823Y0142641D01*
X0048823Y0143664D02*
X0044729Y0143664D01*
X0044729Y0144687D02*
X0048823Y0144687D01*
X0048823Y0145710D02*
X0044729Y0145710D01*
M02*
