G75*
%MOIN*%
%OFA0B0*%
%FSLAX25Y25*%
%IPPOS*%
%LPD*%
%AMOC8*
5,1,8,0,0,1.08239X$1,22.5*
%
%ADD10C,0.00591*%
%ADD11C,0.00000*%
%ADD12OC8,0.06600*%
%ADD13OC8,0.07400*%
%ADD14C,0.07400*%
%ADD15R,0.09500X0.09500*%
%ADD16C,0.09500*%
%ADD17C,0.07087*%
%ADD18C,0.04724*%
%ADD19C,0.07800*%
%ADD20C,0.01000*%
%ADD21C,0.03369*%
%ADD22C,0.01600*%
%ADD23C,0.03200*%
%ADD24C,0.04000*%
D10*
X0001500Y0005437D02*
X0001500Y0198350D01*
X0001502Y0198540D01*
X0001509Y0198730D01*
X0001521Y0198920D01*
X0001537Y0199110D01*
X0001557Y0199299D01*
X0001583Y0199488D01*
X0001612Y0199676D01*
X0001647Y0199863D01*
X0001686Y0200049D01*
X0001729Y0200234D01*
X0001777Y0200419D01*
X0001829Y0200602D01*
X0001885Y0200783D01*
X0001946Y0200963D01*
X0002012Y0201142D01*
X0002081Y0201319D01*
X0002155Y0201495D01*
X0002233Y0201668D01*
X0002316Y0201840D01*
X0002402Y0202009D01*
X0002492Y0202177D01*
X0002587Y0202342D01*
X0002685Y0202505D01*
X0002788Y0202665D01*
X0002894Y0202823D01*
X0003004Y0202978D01*
X0003117Y0203131D01*
X0003235Y0203281D01*
X0003356Y0203427D01*
X0003480Y0203571D01*
X0003608Y0203712D01*
X0003739Y0203850D01*
X0003874Y0203985D01*
X0004012Y0204116D01*
X0004153Y0204244D01*
X0004297Y0204368D01*
X0004443Y0204489D01*
X0004593Y0204607D01*
X0004746Y0204720D01*
X0004901Y0204830D01*
X0005059Y0204936D01*
X0005219Y0205039D01*
X0005382Y0205137D01*
X0005547Y0205232D01*
X0005715Y0205322D01*
X0005884Y0205408D01*
X0006056Y0205491D01*
X0006229Y0205569D01*
X0006405Y0205643D01*
X0006582Y0205712D01*
X0006761Y0205778D01*
X0006941Y0205839D01*
X0007122Y0205895D01*
X0007305Y0205947D01*
X0007490Y0205995D01*
X0007675Y0206038D01*
X0007861Y0206077D01*
X0008048Y0206112D01*
X0008236Y0206141D01*
X0008425Y0206167D01*
X0008614Y0206187D01*
X0008804Y0206203D01*
X0008994Y0206215D01*
X0009184Y0206222D01*
X0009374Y0206224D01*
X0107799Y0206224D01*
X0107989Y0206226D01*
X0108179Y0206233D01*
X0108369Y0206245D01*
X0108559Y0206261D01*
X0108748Y0206281D01*
X0108937Y0206307D01*
X0109125Y0206336D01*
X0109312Y0206371D01*
X0109498Y0206410D01*
X0109683Y0206453D01*
X0109868Y0206501D01*
X0110051Y0206553D01*
X0110232Y0206609D01*
X0110412Y0206670D01*
X0110591Y0206736D01*
X0110768Y0206805D01*
X0110944Y0206879D01*
X0111117Y0206957D01*
X0111289Y0207040D01*
X0111458Y0207126D01*
X0111626Y0207216D01*
X0111791Y0207311D01*
X0111954Y0207409D01*
X0112114Y0207512D01*
X0112272Y0207618D01*
X0112427Y0207728D01*
X0112580Y0207841D01*
X0112730Y0207959D01*
X0112876Y0208080D01*
X0113020Y0208204D01*
X0113161Y0208332D01*
X0113299Y0208463D01*
X0113434Y0208598D01*
X0113565Y0208736D01*
X0113693Y0208877D01*
X0113817Y0209021D01*
X0113938Y0209167D01*
X0114056Y0209317D01*
X0114169Y0209470D01*
X0114279Y0209625D01*
X0114385Y0209783D01*
X0114488Y0209943D01*
X0114586Y0210106D01*
X0114681Y0210271D01*
X0114771Y0210439D01*
X0114857Y0210608D01*
X0114940Y0210780D01*
X0115018Y0210953D01*
X0115092Y0211129D01*
X0115161Y0211306D01*
X0115227Y0211485D01*
X0115288Y0211665D01*
X0115344Y0211846D01*
X0115396Y0212029D01*
X0115444Y0212214D01*
X0115487Y0212399D01*
X0115526Y0212585D01*
X0115561Y0212772D01*
X0115590Y0212960D01*
X0115616Y0213149D01*
X0115636Y0213338D01*
X0115652Y0213528D01*
X0115664Y0213718D01*
X0115671Y0213908D01*
X0115673Y0214098D01*
X0115673Y0266618D01*
X0115675Y0266808D01*
X0115682Y0266998D01*
X0115694Y0267188D01*
X0115710Y0267378D01*
X0115730Y0267567D01*
X0115756Y0267756D01*
X0115785Y0267944D01*
X0115820Y0268131D01*
X0115859Y0268317D01*
X0115902Y0268502D01*
X0115950Y0268687D01*
X0116002Y0268870D01*
X0116058Y0269051D01*
X0116119Y0269231D01*
X0116185Y0269410D01*
X0116254Y0269587D01*
X0116328Y0269763D01*
X0116406Y0269936D01*
X0116489Y0270108D01*
X0116575Y0270277D01*
X0116665Y0270445D01*
X0116760Y0270610D01*
X0116858Y0270773D01*
X0116961Y0270933D01*
X0117067Y0271091D01*
X0117177Y0271246D01*
X0117290Y0271399D01*
X0117408Y0271549D01*
X0117529Y0271695D01*
X0117653Y0271839D01*
X0117781Y0271980D01*
X0117912Y0272118D01*
X0118047Y0272253D01*
X0118185Y0272384D01*
X0118326Y0272512D01*
X0118470Y0272636D01*
X0118616Y0272757D01*
X0118766Y0272875D01*
X0118919Y0272988D01*
X0119074Y0273098D01*
X0119232Y0273204D01*
X0119392Y0273307D01*
X0119555Y0273405D01*
X0119720Y0273500D01*
X0119888Y0273590D01*
X0120057Y0273676D01*
X0120229Y0273759D01*
X0120402Y0273837D01*
X0120578Y0273911D01*
X0120755Y0273980D01*
X0120934Y0274046D01*
X0121114Y0274107D01*
X0121295Y0274163D01*
X0121478Y0274215D01*
X0121663Y0274263D01*
X0121848Y0274306D01*
X0122034Y0274345D01*
X0122221Y0274380D01*
X0122409Y0274409D01*
X0122598Y0274435D01*
X0122787Y0274455D01*
X0122977Y0274471D01*
X0123167Y0274483D01*
X0123357Y0274490D01*
X0123547Y0274492D01*
X0379201Y0274492D01*
X0385201Y0268492D01*
X0385201Y0223492D01*
X0395201Y0213492D01*
X0395201Y0084492D01*
X0385201Y0074492D01*
X0385201Y0005437D01*
X0385199Y0005313D01*
X0385193Y0005190D01*
X0385184Y0005066D01*
X0385170Y0004944D01*
X0385153Y0004821D01*
X0385131Y0004699D01*
X0385106Y0004578D01*
X0385077Y0004458D01*
X0385045Y0004339D01*
X0385008Y0004220D01*
X0384968Y0004103D01*
X0384925Y0003988D01*
X0384877Y0003873D01*
X0384826Y0003761D01*
X0384772Y0003650D01*
X0384714Y0003540D01*
X0384653Y0003433D01*
X0384588Y0003327D01*
X0384520Y0003224D01*
X0384449Y0003123D01*
X0384375Y0003024D01*
X0384298Y0002927D01*
X0384217Y0002833D01*
X0384134Y0002742D01*
X0384048Y0002653D01*
X0383959Y0002567D01*
X0383868Y0002484D01*
X0383774Y0002403D01*
X0383677Y0002326D01*
X0383578Y0002252D01*
X0383477Y0002181D01*
X0383374Y0002113D01*
X0383268Y0002048D01*
X0383161Y0001987D01*
X0383051Y0001929D01*
X0382940Y0001875D01*
X0382828Y0001824D01*
X0382713Y0001776D01*
X0382598Y0001733D01*
X0382481Y0001693D01*
X0382362Y0001656D01*
X0382243Y0001624D01*
X0382123Y0001595D01*
X0382002Y0001570D01*
X0381880Y0001548D01*
X0381757Y0001531D01*
X0381635Y0001517D01*
X0381511Y0001508D01*
X0381388Y0001502D01*
X0381264Y0001500D01*
X0005437Y0001500D01*
X0005313Y0001502D01*
X0005190Y0001508D01*
X0005066Y0001517D01*
X0004944Y0001531D01*
X0004821Y0001548D01*
X0004699Y0001570D01*
X0004578Y0001595D01*
X0004458Y0001624D01*
X0004339Y0001656D01*
X0004220Y0001693D01*
X0004103Y0001733D01*
X0003988Y0001776D01*
X0003873Y0001824D01*
X0003761Y0001875D01*
X0003650Y0001929D01*
X0003540Y0001987D01*
X0003433Y0002048D01*
X0003327Y0002113D01*
X0003224Y0002181D01*
X0003123Y0002252D01*
X0003024Y0002326D01*
X0002927Y0002403D01*
X0002833Y0002484D01*
X0002742Y0002567D01*
X0002653Y0002653D01*
X0002567Y0002742D01*
X0002484Y0002833D01*
X0002403Y0002927D01*
X0002326Y0003024D01*
X0002252Y0003123D01*
X0002181Y0003224D01*
X0002113Y0003327D01*
X0002048Y0003433D01*
X0001987Y0003540D01*
X0001929Y0003650D01*
X0001875Y0003761D01*
X0001824Y0003873D01*
X0001776Y0003988D01*
X0001733Y0004103D01*
X0001693Y0004220D01*
X0001656Y0004339D01*
X0001624Y0004458D01*
X0001595Y0004578D01*
X0001570Y0004699D01*
X0001548Y0004821D01*
X0001531Y0004944D01*
X0001517Y0005066D01*
X0001508Y0005190D01*
X0001502Y0005313D01*
X0001500Y0005437D01*
D11*
X0005201Y0011500D02*
X0005203Y0011658D01*
X0005209Y0011816D01*
X0005219Y0011974D01*
X0005233Y0012132D01*
X0005251Y0012289D01*
X0005272Y0012446D01*
X0005298Y0012602D01*
X0005328Y0012758D01*
X0005361Y0012913D01*
X0005399Y0013066D01*
X0005440Y0013219D01*
X0005485Y0013371D01*
X0005534Y0013522D01*
X0005587Y0013671D01*
X0005643Y0013819D01*
X0005703Y0013965D01*
X0005767Y0014110D01*
X0005835Y0014253D01*
X0005906Y0014395D01*
X0005980Y0014535D01*
X0006058Y0014672D01*
X0006140Y0014808D01*
X0006224Y0014942D01*
X0006313Y0015073D01*
X0006404Y0015202D01*
X0006499Y0015329D01*
X0006596Y0015454D01*
X0006697Y0015576D01*
X0006801Y0015695D01*
X0006908Y0015812D01*
X0007018Y0015926D01*
X0007131Y0016037D01*
X0007246Y0016146D01*
X0007364Y0016251D01*
X0007485Y0016353D01*
X0007608Y0016453D01*
X0007734Y0016549D01*
X0007862Y0016642D01*
X0007992Y0016732D01*
X0008125Y0016818D01*
X0008260Y0016902D01*
X0008396Y0016981D01*
X0008535Y0017058D01*
X0008676Y0017130D01*
X0008818Y0017200D01*
X0008962Y0017265D01*
X0009108Y0017327D01*
X0009255Y0017385D01*
X0009404Y0017440D01*
X0009554Y0017491D01*
X0009705Y0017538D01*
X0009857Y0017581D01*
X0010010Y0017620D01*
X0010165Y0017656D01*
X0010320Y0017687D01*
X0010476Y0017715D01*
X0010632Y0017739D01*
X0010789Y0017759D01*
X0010947Y0017775D01*
X0011104Y0017787D01*
X0011263Y0017795D01*
X0011421Y0017799D01*
X0011579Y0017799D01*
X0011737Y0017795D01*
X0011896Y0017787D01*
X0012053Y0017775D01*
X0012211Y0017759D01*
X0012368Y0017739D01*
X0012524Y0017715D01*
X0012680Y0017687D01*
X0012835Y0017656D01*
X0012990Y0017620D01*
X0013143Y0017581D01*
X0013295Y0017538D01*
X0013446Y0017491D01*
X0013596Y0017440D01*
X0013745Y0017385D01*
X0013892Y0017327D01*
X0014038Y0017265D01*
X0014182Y0017200D01*
X0014324Y0017130D01*
X0014465Y0017058D01*
X0014604Y0016981D01*
X0014740Y0016902D01*
X0014875Y0016818D01*
X0015008Y0016732D01*
X0015138Y0016642D01*
X0015266Y0016549D01*
X0015392Y0016453D01*
X0015515Y0016353D01*
X0015636Y0016251D01*
X0015754Y0016146D01*
X0015869Y0016037D01*
X0015982Y0015926D01*
X0016092Y0015812D01*
X0016199Y0015695D01*
X0016303Y0015576D01*
X0016404Y0015454D01*
X0016501Y0015329D01*
X0016596Y0015202D01*
X0016687Y0015073D01*
X0016776Y0014942D01*
X0016860Y0014808D01*
X0016942Y0014672D01*
X0017020Y0014535D01*
X0017094Y0014395D01*
X0017165Y0014253D01*
X0017233Y0014110D01*
X0017297Y0013965D01*
X0017357Y0013819D01*
X0017413Y0013671D01*
X0017466Y0013522D01*
X0017515Y0013371D01*
X0017560Y0013219D01*
X0017601Y0013066D01*
X0017639Y0012913D01*
X0017672Y0012758D01*
X0017702Y0012602D01*
X0017728Y0012446D01*
X0017749Y0012289D01*
X0017767Y0012132D01*
X0017781Y0011974D01*
X0017791Y0011816D01*
X0017797Y0011658D01*
X0017799Y0011500D01*
X0017797Y0011342D01*
X0017791Y0011184D01*
X0017781Y0011026D01*
X0017767Y0010868D01*
X0017749Y0010711D01*
X0017728Y0010554D01*
X0017702Y0010398D01*
X0017672Y0010242D01*
X0017639Y0010087D01*
X0017601Y0009934D01*
X0017560Y0009781D01*
X0017515Y0009629D01*
X0017466Y0009478D01*
X0017413Y0009329D01*
X0017357Y0009181D01*
X0017297Y0009035D01*
X0017233Y0008890D01*
X0017165Y0008747D01*
X0017094Y0008605D01*
X0017020Y0008465D01*
X0016942Y0008328D01*
X0016860Y0008192D01*
X0016776Y0008058D01*
X0016687Y0007927D01*
X0016596Y0007798D01*
X0016501Y0007671D01*
X0016404Y0007546D01*
X0016303Y0007424D01*
X0016199Y0007305D01*
X0016092Y0007188D01*
X0015982Y0007074D01*
X0015869Y0006963D01*
X0015754Y0006854D01*
X0015636Y0006749D01*
X0015515Y0006647D01*
X0015392Y0006547D01*
X0015266Y0006451D01*
X0015138Y0006358D01*
X0015008Y0006268D01*
X0014875Y0006182D01*
X0014740Y0006098D01*
X0014604Y0006019D01*
X0014465Y0005942D01*
X0014324Y0005870D01*
X0014182Y0005800D01*
X0014038Y0005735D01*
X0013892Y0005673D01*
X0013745Y0005615D01*
X0013596Y0005560D01*
X0013446Y0005509D01*
X0013295Y0005462D01*
X0013143Y0005419D01*
X0012990Y0005380D01*
X0012835Y0005344D01*
X0012680Y0005313D01*
X0012524Y0005285D01*
X0012368Y0005261D01*
X0012211Y0005241D01*
X0012053Y0005225D01*
X0011896Y0005213D01*
X0011737Y0005205D01*
X0011579Y0005201D01*
X0011421Y0005201D01*
X0011263Y0005205D01*
X0011104Y0005213D01*
X0010947Y0005225D01*
X0010789Y0005241D01*
X0010632Y0005261D01*
X0010476Y0005285D01*
X0010320Y0005313D01*
X0010165Y0005344D01*
X0010010Y0005380D01*
X0009857Y0005419D01*
X0009705Y0005462D01*
X0009554Y0005509D01*
X0009404Y0005560D01*
X0009255Y0005615D01*
X0009108Y0005673D01*
X0008962Y0005735D01*
X0008818Y0005800D01*
X0008676Y0005870D01*
X0008535Y0005942D01*
X0008396Y0006019D01*
X0008260Y0006098D01*
X0008125Y0006182D01*
X0007992Y0006268D01*
X0007862Y0006358D01*
X0007734Y0006451D01*
X0007608Y0006547D01*
X0007485Y0006647D01*
X0007364Y0006749D01*
X0007246Y0006854D01*
X0007131Y0006963D01*
X0007018Y0007074D01*
X0006908Y0007188D01*
X0006801Y0007305D01*
X0006697Y0007424D01*
X0006596Y0007546D01*
X0006499Y0007671D01*
X0006404Y0007798D01*
X0006313Y0007927D01*
X0006224Y0008058D01*
X0006140Y0008192D01*
X0006058Y0008328D01*
X0005980Y0008465D01*
X0005906Y0008605D01*
X0005835Y0008747D01*
X0005767Y0008890D01*
X0005703Y0009035D01*
X0005643Y0009181D01*
X0005587Y0009329D01*
X0005534Y0009478D01*
X0005485Y0009629D01*
X0005440Y0009781D01*
X0005399Y0009934D01*
X0005361Y0010087D01*
X0005328Y0010242D01*
X0005298Y0010398D01*
X0005272Y0010554D01*
X0005251Y0010711D01*
X0005233Y0010868D01*
X0005219Y0011026D01*
X0005209Y0011184D01*
X0005203Y0011342D01*
X0005201Y0011500D01*
X0378981Y0094492D02*
X0378983Y0094650D01*
X0378989Y0094808D01*
X0378999Y0094966D01*
X0379013Y0095124D01*
X0379031Y0095281D01*
X0379052Y0095438D01*
X0379078Y0095594D01*
X0379108Y0095750D01*
X0379141Y0095905D01*
X0379179Y0096058D01*
X0379220Y0096211D01*
X0379265Y0096363D01*
X0379314Y0096514D01*
X0379367Y0096663D01*
X0379423Y0096811D01*
X0379483Y0096957D01*
X0379547Y0097102D01*
X0379615Y0097245D01*
X0379686Y0097387D01*
X0379760Y0097527D01*
X0379838Y0097664D01*
X0379920Y0097800D01*
X0380004Y0097934D01*
X0380093Y0098065D01*
X0380184Y0098194D01*
X0380279Y0098321D01*
X0380376Y0098446D01*
X0380477Y0098568D01*
X0380581Y0098687D01*
X0380688Y0098804D01*
X0380798Y0098918D01*
X0380911Y0099029D01*
X0381026Y0099138D01*
X0381144Y0099243D01*
X0381265Y0099345D01*
X0381388Y0099445D01*
X0381514Y0099541D01*
X0381642Y0099634D01*
X0381772Y0099724D01*
X0381905Y0099810D01*
X0382040Y0099894D01*
X0382176Y0099973D01*
X0382315Y0100050D01*
X0382456Y0100122D01*
X0382598Y0100192D01*
X0382742Y0100257D01*
X0382888Y0100319D01*
X0383035Y0100377D01*
X0383184Y0100432D01*
X0383334Y0100483D01*
X0383485Y0100530D01*
X0383637Y0100573D01*
X0383790Y0100612D01*
X0383945Y0100648D01*
X0384100Y0100679D01*
X0384256Y0100707D01*
X0384412Y0100731D01*
X0384569Y0100751D01*
X0384727Y0100767D01*
X0384884Y0100779D01*
X0385043Y0100787D01*
X0385201Y0100791D01*
X0385359Y0100791D01*
X0385517Y0100787D01*
X0385676Y0100779D01*
X0385833Y0100767D01*
X0385991Y0100751D01*
X0386148Y0100731D01*
X0386304Y0100707D01*
X0386460Y0100679D01*
X0386615Y0100648D01*
X0386770Y0100612D01*
X0386923Y0100573D01*
X0387075Y0100530D01*
X0387226Y0100483D01*
X0387376Y0100432D01*
X0387525Y0100377D01*
X0387672Y0100319D01*
X0387818Y0100257D01*
X0387962Y0100192D01*
X0388104Y0100122D01*
X0388245Y0100050D01*
X0388384Y0099973D01*
X0388520Y0099894D01*
X0388655Y0099810D01*
X0388788Y0099724D01*
X0388918Y0099634D01*
X0389046Y0099541D01*
X0389172Y0099445D01*
X0389295Y0099345D01*
X0389416Y0099243D01*
X0389534Y0099138D01*
X0389649Y0099029D01*
X0389762Y0098918D01*
X0389872Y0098804D01*
X0389979Y0098687D01*
X0390083Y0098568D01*
X0390184Y0098446D01*
X0390281Y0098321D01*
X0390376Y0098194D01*
X0390467Y0098065D01*
X0390556Y0097934D01*
X0390640Y0097800D01*
X0390722Y0097664D01*
X0390800Y0097527D01*
X0390874Y0097387D01*
X0390945Y0097245D01*
X0391013Y0097102D01*
X0391077Y0096957D01*
X0391137Y0096811D01*
X0391193Y0096663D01*
X0391246Y0096514D01*
X0391295Y0096363D01*
X0391340Y0096211D01*
X0391381Y0096058D01*
X0391419Y0095905D01*
X0391452Y0095750D01*
X0391482Y0095594D01*
X0391508Y0095438D01*
X0391529Y0095281D01*
X0391547Y0095124D01*
X0391561Y0094966D01*
X0391571Y0094808D01*
X0391577Y0094650D01*
X0391579Y0094492D01*
X0391577Y0094334D01*
X0391571Y0094176D01*
X0391561Y0094018D01*
X0391547Y0093860D01*
X0391529Y0093703D01*
X0391508Y0093546D01*
X0391482Y0093390D01*
X0391452Y0093234D01*
X0391419Y0093079D01*
X0391381Y0092926D01*
X0391340Y0092773D01*
X0391295Y0092621D01*
X0391246Y0092470D01*
X0391193Y0092321D01*
X0391137Y0092173D01*
X0391077Y0092027D01*
X0391013Y0091882D01*
X0390945Y0091739D01*
X0390874Y0091597D01*
X0390800Y0091457D01*
X0390722Y0091320D01*
X0390640Y0091184D01*
X0390556Y0091050D01*
X0390467Y0090919D01*
X0390376Y0090790D01*
X0390281Y0090663D01*
X0390184Y0090538D01*
X0390083Y0090416D01*
X0389979Y0090297D01*
X0389872Y0090180D01*
X0389762Y0090066D01*
X0389649Y0089955D01*
X0389534Y0089846D01*
X0389416Y0089741D01*
X0389295Y0089639D01*
X0389172Y0089539D01*
X0389046Y0089443D01*
X0388918Y0089350D01*
X0388788Y0089260D01*
X0388655Y0089174D01*
X0388520Y0089090D01*
X0388384Y0089011D01*
X0388245Y0088934D01*
X0388104Y0088862D01*
X0387962Y0088792D01*
X0387818Y0088727D01*
X0387672Y0088665D01*
X0387525Y0088607D01*
X0387376Y0088552D01*
X0387226Y0088501D01*
X0387075Y0088454D01*
X0386923Y0088411D01*
X0386770Y0088372D01*
X0386615Y0088336D01*
X0386460Y0088305D01*
X0386304Y0088277D01*
X0386148Y0088253D01*
X0385991Y0088233D01*
X0385833Y0088217D01*
X0385676Y0088205D01*
X0385517Y0088197D01*
X0385359Y0088193D01*
X0385201Y0088193D01*
X0385043Y0088197D01*
X0384884Y0088205D01*
X0384727Y0088217D01*
X0384569Y0088233D01*
X0384412Y0088253D01*
X0384256Y0088277D01*
X0384100Y0088305D01*
X0383945Y0088336D01*
X0383790Y0088372D01*
X0383637Y0088411D01*
X0383485Y0088454D01*
X0383334Y0088501D01*
X0383184Y0088552D01*
X0383035Y0088607D01*
X0382888Y0088665D01*
X0382742Y0088727D01*
X0382598Y0088792D01*
X0382456Y0088862D01*
X0382315Y0088934D01*
X0382176Y0089011D01*
X0382040Y0089090D01*
X0381905Y0089174D01*
X0381772Y0089260D01*
X0381642Y0089350D01*
X0381514Y0089443D01*
X0381388Y0089539D01*
X0381265Y0089639D01*
X0381144Y0089741D01*
X0381026Y0089846D01*
X0380911Y0089955D01*
X0380798Y0090066D01*
X0380688Y0090180D01*
X0380581Y0090297D01*
X0380477Y0090416D01*
X0380376Y0090538D01*
X0380279Y0090663D01*
X0380184Y0090790D01*
X0380093Y0090919D01*
X0380004Y0091050D01*
X0379920Y0091184D01*
X0379838Y0091320D01*
X0379760Y0091457D01*
X0379686Y0091597D01*
X0379615Y0091739D01*
X0379547Y0091882D01*
X0379483Y0092027D01*
X0379423Y0092173D01*
X0379367Y0092321D01*
X0379314Y0092470D01*
X0379265Y0092621D01*
X0379220Y0092773D01*
X0379179Y0092926D01*
X0379141Y0093079D01*
X0379108Y0093234D01*
X0379078Y0093390D01*
X0379052Y0093546D01*
X0379031Y0093703D01*
X0379013Y0093860D01*
X0378999Y0094018D01*
X0378989Y0094176D01*
X0378983Y0094334D01*
X0378981Y0094492D01*
X0378981Y0204492D02*
X0378983Y0204650D01*
X0378989Y0204808D01*
X0378999Y0204966D01*
X0379013Y0205124D01*
X0379031Y0205281D01*
X0379052Y0205438D01*
X0379078Y0205594D01*
X0379108Y0205750D01*
X0379141Y0205905D01*
X0379179Y0206058D01*
X0379220Y0206211D01*
X0379265Y0206363D01*
X0379314Y0206514D01*
X0379367Y0206663D01*
X0379423Y0206811D01*
X0379483Y0206957D01*
X0379547Y0207102D01*
X0379615Y0207245D01*
X0379686Y0207387D01*
X0379760Y0207527D01*
X0379838Y0207664D01*
X0379920Y0207800D01*
X0380004Y0207934D01*
X0380093Y0208065D01*
X0380184Y0208194D01*
X0380279Y0208321D01*
X0380376Y0208446D01*
X0380477Y0208568D01*
X0380581Y0208687D01*
X0380688Y0208804D01*
X0380798Y0208918D01*
X0380911Y0209029D01*
X0381026Y0209138D01*
X0381144Y0209243D01*
X0381265Y0209345D01*
X0381388Y0209445D01*
X0381514Y0209541D01*
X0381642Y0209634D01*
X0381772Y0209724D01*
X0381905Y0209810D01*
X0382040Y0209894D01*
X0382176Y0209973D01*
X0382315Y0210050D01*
X0382456Y0210122D01*
X0382598Y0210192D01*
X0382742Y0210257D01*
X0382888Y0210319D01*
X0383035Y0210377D01*
X0383184Y0210432D01*
X0383334Y0210483D01*
X0383485Y0210530D01*
X0383637Y0210573D01*
X0383790Y0210612D01*
X0383945Y0210648D01*
X0384100Y0210679D01*
X0384256Y0210707D01*
X0384412Y0210731D01*
X0384569Y0210751D01*
X0384727Y0210767D01*
X0384884Y0210779D01*
X0385043Y0210787D01*
X0385201Y0210791D01*
X0385359Y0210791D01*
X0385517Y0210787D01*
X0385676Y0210779D01*
X0385833Y0210767D01*
X0385991Y0210751D01*
X0386148Y0210731D01*
X0386304Y0210707D01*
X0386460Y0210679D01*
X0386615Y0210648D01*
X0386770Y0210612D01*
X0386923Y0210573D01*
X0387075Y0210530D01*
X0387226Y0210483D01*
X0387376Y0210432D01*
X0387525Y0210377D01*
X0387672Y0210319D01*
X0387818Y0210257D01*
X0387962Y0210192D01*
X0388104Y0210122D01*
X0388245Y0210050D01*
X0388384Y0209973D01*
X0388520Y0209894D01*
X0388655Y0209810D01*
X0388788Y0209724D01*
X0388918Y0209634D01*
X0389046Y0209541D01*
X0389172Y0209445D01*
X0389295Y0209345D01*
X0389416Y0209243D01*
X0389534Y0209138D01*
X0389649Y0209029D01*
X0389762Y0208918D01*
X0389872Y0208804D01*
X0389979Y0208687D01*
X0390083Y0208568D01*
X0390184Y0208446D01*
X0390281Y0208321D01*
X0390376Y0208194D01*
X0390467Y0208065D01*
X0390556Y0207934D01*
X0390640Y0207800D01*
X0390722Y0207664D01*
X0390800Y0207527D01*
X0390874Y0207387D01*
X0390945Y0207245D01*
X0391013Y0207102D01*
X0391077Y0206957D01*
X0391137Y0206811D01*
X0391193Y0206663D01*
X0391246Y0206514D01*
X0391295Y0206363D01*
X0391340Y0206211D01*
X0391381Y0206058D01*
X0391419Y0205905D01*
X0391452Y0205750D01*
X0391482Y0205594D01*
X0391508Y0205438D01*
X0391529Y0205281D01*
X0391547Y0205124D01*
X0391561Y0204966D01*
X0391571Y0204808D01*
X0391577Y0204650D01*
X0391579Y0204492D01*
X0391577Y0204334D01*
X0391571Y0204176D01*
X0391561Y0204018D01*
X0391547Y0203860D01*
X0391529Y0203703D01*
X0391508Y0203546D01*
X0391482Y0203390D01*
X0391452Y0203234D01*
X0391419Y0203079D01*
X0391381Y0202926D01*
X0391340Y0202773D01*
X0391295Y0202621D01*
X0391246Y0202470D01*
X0391193Y0202321D01*
X0391137Y0202173D01*
X0391077Y0202027D01*
X0391013Y0201882D01*
X0390945Y0201739D01*
X0390874Y0201597D01*
X0390800Y0201457D01*
X0390722Y0201320D01*
X0390640Y0201184D01*
X0390556Y0201050D01*
X0390467Y0200919D01*
X0390376Y0200790D01*
X0390281Y0200663D01*
X0390184Y0200538D01*
X0390083Y0200416D01*
X0389979Y0200297D01*
X0389872Y0200180D01*
X0389762Y0200066D01*
X0389649Y0199955D01*
X0389534Y0199846D01*
X0389416Y0199741D01*
X0389295Y0199639D01*
X0389172Y0199539D01*
X0389046Y0199443D01*
X0388918Y0199350D01*
X0388788Y0199260D01*
X0388655Y0199174D01*
X0388520Y0199090D01*
X0388384Y0199011D01*
X0388245Y0198934D01*
X0388104Y0198862D01*
X0387962Y0198792D01*
X0387818Y0198727D01*
X0387672Y0198665D01*
X0387525Y0198607D01*
X0387376Y0198552D01*
X0387226Y0198501D01*
X0387075Y0198454D01*
X0386923Y0198411D01*
X0386770Y0198372D01*
X0386615Y0198336D01*
X0386460Y0198305D01*
X0386304Y0198277D01*
X0386148Y0198253D01*
X0385991Y0198233D01*
X0385833Y0198217D01*
X0385676Y0198205D01*
X0385517Y0198197D01*
X0385359Y0198193D01*
X0385201Y0198193D01*
X0385043Y0198197D01*
X0384884Y0198205D01*
X0384727Y0198217D01*
X0384569Y0198233D01*
X0384412Y0198253D01*
X0384256Y0198277D01*
X0384100Y0198305D01*
X0383945Y0198336D01*
X0383790Y0198372D01*
X0383637Y0198411D01*
X0383485Y0198454D01*
X0383334Y0198501D01*
X0383184Y0198552D01*
X0383035Y0198607D01*
X0382888Y0198665D01*
X0382742Y0198727D01*
X0382598Y0198792D01*
X0382456Y0198862D01*
X0382315Y0198934D01*
X0382176Y0199011D01*
X0382040Y0199090D01*
X0381905Y0199174D01*
X0381772Y0199260D01*
X0381642Y0199350D01*
X0381514Y0199443D01*
X0381388Y0199539D01*
X0381265Y0199639D01*
X0381144Y0199741D01*
X0381026Y0199846D01*
X0380911Y0199955D01*
X0380798Y0200066D01*
X0380688Y0200180D01*
X0380581Y0200297D01*
X0380477Y0200416D01*
X0380376Y0200538D01*
X0380279Y0200663D01*
X0380184Y0200790D01*
X0380093Y0200919D01*
X0380004Y0201050D01*
X0379920Y0201184D01*
X0379838Y0201320D01*
X0379760Y0201457D01*
X0379686Y0201597D01*
X0379615Y0201739D01*
X0379547Y0201882D01*
X0379483Y0202027D01*
X0379423Y0202173D01*
X0379367Y0202321D01*
X0379314Y0202470D01*
X0379265Y0202621D01*
X0379220Y0202773D01*
X0379179Y0202926D01*
X0379141Y0203079D01*
X0379108Y0203234D01*
X0379078Y0203390D01*
X0379052Y0203546D01*
X0379031Y0203703D01*
X0379013Y0203860D01*
X0378999Y0204018D01*
X0378989Y0204176D01*
X0378983Y0204334D01*
X0378981Y0204492D01*
D12*
X0375201Y0264492D03*
X0365201Y0264492D03*
X0355201Y0264492D03*
X0345201Y0264492D03*
X0335201Y0264492D03*
X0325201Y0264492D03*
X0315201Y0264492D03*
X0305201Y0264492D03*
X0289201Y0264492D03*
X0279201Y0264492D03*
X0269201Y0264492D03*
X0259201Y0264492D03*
X0249201Y0264492D03*
X0239201Y0264492D03*
X0229201Y0264492D03*
X0219201Y0264492D03*
X0209201Y0264492D03*
X0199201Y0264492D03*
X0235201Y0074492D03*
X0245201Y0074492D03*
X0255201Y0074492D03*
X0265201Y0074492D03*
X0275201Y0074492D03*
X0285201Y0074492D03*
X0295201Y0074492D03*
X0305201Y0074492D03*
X0325201Y0074492D03*
X0335201Y0074492D03*
X0345201Y0074492D03*
X0355201Y0074492D03*
X0365201Y0074492D03*
X0375201Y0074492D03*
D13*
X0362209Y0034559D03*
X0352209Y0034559D03*
X0342209Y0034559D03*
X0332209Y0034559D03*
X0322209Y0034559D03*
X0312209Y0034559D03*
X0302209Y0034559D03*
X0302209Y0023559D03*
X0312209Y0023559D03*
X0322209Y0023559D03*
X0332209Y0023559D03*
X0342209Y0023559D03*
X0352209Y0023559D03*
X0362209Y0023559D03*
X0251972Y0023559D03*
X0241972Y0023559D03*
X0231972Y0023559D03*
X0221972Y0023559D03*
X0211972Y0023559D03*
X0201972Y0023559D03*
X0191972Y0023559D03*
X0191972Y0034559D03*
X0201972Y0034559D03*
X0211972Y0034559D03*
X0221972Y0034559D03*
X0231972Y0034559D03*
X0241972Y0034559D03*
X0251972Y0034559D03*
X0375701Y0164492D03*
X0385701Y0164492D03*
X0385701Y0174492D03*
X0375701Y0174492D03*
X0375701Y0184492D03*
X0385701Y0184492D03*
D14*
X0363705Y0198350D03*
X0363705Y0208350D03*
X0363705Y0218350D03*
X0363705Y0228350D03*
X0363705Y0238350D03*
X0363705Y0248350D03*
X0225161Y0182602D03*
X0215161Y0182602D03*
X0205161Y0182602D03*
X0195161Y0182602D03*
X0195161Y0162917D03*
X0205161Y0162917D03*
X0215161Y0162917D03*
X0225161Y0162917D03*
X0158232Y0194413D03*
X0148232Y0194413D03*
X0138232Y0194413D03*
X0128232Y0194413D03*
X0092551Y0153075D03*
X0091551Y0143075D03*
X0092551Y0133075D03*
X0091551Y0123075D03*
X0092551Y0113075D03*
X0091551Y0103075D03*
X0092551Y0093075D03*
X0091551Y0083075D03*
X0092551Y0073075D03*
X0091551Y0063075D03*
D15*
X0070398Y0040870D03*
X0141264Y0040870D03*
X0141264Y0221972D03*
D16*
X0141264Y0241657D03*
X0141264Y0261343D03*
X0121579Y0040870D03*
X0101894Y0040870D03*
X0050713Y0040870D03*
X0031028Y0040870D03*
D17*
X0050713Y0125713D02*
X0050713Y0132799D01*
D18*
X0074335Y0122366D03*
X0027091Y0122366D03*
D19*
X0027091Y0077054D02*
X0027091Y0069254D01*
X0074335Y0069254D02*
X0074335Y0077054D01*
D20*
X0078077Y0080382D02*
X0087471Y0080382D01*
X0087482Y0080356D02*
X0088832Y0079006D01*
X0090596Y0078275D01*
X0092506Y0078275D01*
X0094270Y0079006D01*
X0095620Y0080356D01*
X0096351Y0082120D01*
X0096351Y0084030D01*
X0095620Y0085794D01*
X0094270Y0087144D01*
X0092506Y0087875D01*
X0090596Y0087875D01*
X0088832Y0087144D01*
X0087482Y0085794D01*
X0086751Y0084030D01*
X0086751Y0082120D01*
X0087482Y0080356D01*
X0087057Y0081381D02*
X0076953Y0081381D01*
X0077167Y0081292D02*
X0075329Y0082054D01*
X0073340Y0082054D01*
X0071502Y0081292D01*
X0070096Y0079886D01*
X0069335Y0078048D01*
X0069335Y0072538D01*
X0067770Y0070973D01*
X0067298Y0069833D01*
X0067298Y0046720D01*
X0065192Y0046720D01*
X0064548Y0046076D01*
X0064548Y0035664D01*
X0065192Y0035020D01*
X0075603Y0035020D01*
X0076248Y0035664D01*
X0076248Y0046076D01*
X0075603Y0046720D01*
X0073498Y0046720D01*
X0073498Y0064254D01*
X0075329Y0064254D01*
X0077167Y0065015D01*
X0078573Y0066421D01*
X0079335Y0068259D01*
X0079335Y0078048D01*
X0078573Y0079886D01*
X0077167Y0081292D01*
X0078781Y0079384D02*
X0088454Y0079384D01*
X0090329Y0078385D02*
X0079195Y0078385D01*
X0079335Y0077387D02*
X0090418Y0077387D01*
X0089832Y0077144D02*
X0088482Y0075794D01*
X0087751Y0074030D01*
X0087751Y0072120D01*
X0088482Y0070356D01*
X0089832Y0069006D01*
X0091596Y0068275D01*
X0093506Y0068275D01*
X0095270Y0069006D01*
X0096620Y0070356D01*
X0097351Y0072120D01*
X0097351Y0074030D01*
X0096620Y0075794D01*
X0095270Y0077144D01*
X0093506Y0077875D01*
X0091596Y0077875D01*
X0089832Y0077144D01*
X0089077Y0076388D02*
X0079335Y0076388D01*
X0079335Y0075390D02*
X0088315Y0075390D01*
X0087901Y0074391D02*
X0079335Y0074391D01*
X0079335Y0073393D02*
X0087751Y0073393D01*
X0087751Y0072394D02*
X0079335Y0072394D01*
X0079335Y0071396D02*
X0088051Y0071396D01*
X0088465Y0070397D02*
X0079335Y0070397D01*
X0079335Y0069399D02*
X0089439Y0069399D01*
X0089555Y0067894D02*
X0090334Y0068147D01*
X0091051Y0068260D01*
X0091051Y0063575D01*
X0092051Y0063575D01*
X0092051Y0068260D01*
X0092769Y0068147D01*
X0093547Y0067894D01*
X0094277Y0067522D01*
X0094939Y0067041D01*
X0095518Y0066462D01*
X0095999Y0065800D01*
X0096370Y0065071D01*
X0096623Y0064292D01*
X0096737Y0063575D01*
X0092051Y0063575D01*
X0092051Y0062575D01*
X0096737Y0062575D01*
X0096623Y0061857D01*
X0096370Y0061079D01*
X0095999Y0060349D01*
X0095518Y0059687D01*
X0094939Y0059108D01*
X0094277Y0058627D01*
X0093547Y0058256D01*
X0092769Y0058003D01*
X0092051Y0057889D01*
X0092051Y0062575D01*
X0091051Y0062575D01*
X0086366Y0062575D01*
X0086479Y0061857D01*
X0086732Y0061079D01*
X0087104Y0060349D01*
X0087585Y0059687D01*
X0088164Y0059108D01*
X0088826Y0058627D01*
X0089555Y0058256D01*
X0090334Y0058003D01*
X0091051Y0057889D01*
X0091051Y0062575D01*
X0091051Y0063575D01*
X0086366Y0063575D01*
X0086479Y0064292D01*
X0086732Y0065071D01*
X0087104Y0065800D01*
X0087585Y0066462D01*
X0088164Y0067041D01*
X0088826Y0067522D01*
X0089555Y0067894D01*
X0088660Y0067402D02*
X0078980Y0067402D01*
X0079335Y0068400D02*
X0091294Y0068400D01*
X0091051Y0067402D02*
X0092051Y0067402D01*
X0092051Y0066403D02*
X0091051Y0066403D01*
X0091051Y0065405D02*
X0092051Y0065405D01*
X0092051Y0064406D02*
X0091051Y0064406D01*
X0091051Y0063408D02*
X0073498Y0063408D01*
X0073498Y0062409D02*
X0086392Y0062409D01*
X0086624Y0061411D02*
X0073498Y0061411D01*
X0073498Y0060412D02*
X0087072Y0060412D01*
X0087858Y0059414D02*
X0073498Y0059414D01*
X0073498Y0058415D02*
X0089242Y0058415D01*
X0091051Y0058415D02*
X0092051Y0058415D01*
X0092051Y0059414D02*
X0091051Y0059414D01*
X0091051Y0060412D02*
X0092051Y0060412D01*
X0092051Y0061411D02*
X0091051Y0061411D01*
X0091051Y0062409D02*
X0092051Y0062409D01*
X0092051Y0063408D02*
X0138699Y0063408D01*
X0138903Y0062915D02*
X0138480Y0063938D01*
X0138480Y0065046D01*
X0138903Y0066069D01*
X0139687Y0066852D01*
X0140710Y0067276D01*
X0141818Y0067276D01*
X0142841Y0066852D01*
X0143601Y0066092D01*
X0162548Y0066092D01*
X0163309Y0066852D01*
X0164332Y0067276D01*
X0165440Y0067276D01*
X0166463Y0066852D01*
X0167246Y0066069D01*
X0167670Y0065046D01*
X0167670Y0063938D01*
X0167246Y0062915D01*
X0166463Y0062132D01*
X0165440Y0061708D01*
X0164332Y0061708D01*
X0163309Y0062132D01*
X0162548Y0062892D01*
X0143601Y0062892D01*
X0142841Y0062132D01*
X0141818Y0061708D01*
X0140710Y0061708D01*
X0139687Y0062132D01*
X0138903Y0062915D01*
X0139409Y0062409D02*
X0096711Y0062409D01*
X0096478Y0061411D02*
X0171160Y0061411D01*
X0171160Y0062409D02*
X0166740Y0062409D01*
X0167450Y0063408D02*
X0171160Y0063408D01*
X0171160Y0064406D02*
X0167670Y0064406D01*
X0167521Y0065405D02*
X0171160Y0065405D01*
X0171160Y0066403D02*
X0166912Y0066403D01*
X0164886Y0064492D02*
X0141264Y0064492D01*
X0143290Y0066403D02*
X0162859Y0066403D01*
X0163031Y0062409D02*
X0143118Y0062409D01*
X0139237Y0066403D02*
X0135301Y0066403D01*
X0134967Y0066069D02*
X0135750Y0066852D01*
X0136174Y0067875D01*
X0136174Y0068951D01*
X0161612Y0094388D01*
X0162549Y0095325D01*
X0162549Y0119779D01*
X0163471Y0119779D01*
X0164494Y0120203D01*
X0165278Y0120986D01*
X0165702Y0122009D01*
X0165702Y0123117D01*
X0165278Y0124140D01*
X0164494Y0124923D01*
X0163471Y0125347D01*
X0162363Y0125347D01*
X0161340Y0124923D01*
X0160557Y0124140D01*
X0160133Y0123117D01*
X0160133Y0122041D01*
X0159349Y0121257D01*
X0159349Y0096651D01*
X0133911Y0071213D01*
X0132836Y0071213D01*
X0131813Y0070789D01*
X0131029Y0070006D01*
X0130606Y0068983D01*
X0130606Y0067875D01*
X0131029Y0066852D01*
X0131813Y0066069D01*
X0132836Y0065645D01*
X0133944Y0065645D01*
X0134967Y0066069D01*
X0135978Y0067402D02*
X0171160Y0067402D01*
X0171160Y0068400D02*
X0136174Y0068400D01*
X0136622Y0069399D02*
X0171160Y0069399D01*
X0171160Y0070397D02*
X0137621Y0070397D01*
X0138619Y0071396D02*
X0171160Y0071396D01*
X0171160Y0072394D02*
X0139618Y0072394D01*
X0140616Y0073393D02*
X0171160Y0073393D01*
X0171160Y0074391D02*
X0141615Y0074391D01*
X0142613Y0075390D02*
X0171160Y0075390D01*
X0171160Y0076388D02*
X0143612Y0076388D01*
X0144610Y0077387D02*
X0171160Y0077387D01*
X0171160Y0078385D02*
X0145609Y0078385D01*
X0146607Y0079384D02*
X0171160Y0079384D01*
X0171160Y0080382D02*
X0147606Y0080382D01*
X0148604Y0081381D02*
X0171160Y0081381D01*
X0171160Y0082379D02*
X0149603Y0082379D01*
X0150601Y0083378D02*
X0171160Y0083378D01*
X0171160Y0084376D02*
X0151600Y0084376D01*
X0152598Y0085375D02*
X0171160Y0085375D01*
X0171160Y0086373D02*
X0153597Y0086373D01*
X0154595Y0087372D02*
X0171160Y0087372D01*
X0171160Y0088370D02*
X0155594Y0088370D01*
X0156592Y0089369D02*
X0171160Y0089369D01*
X0171160Y0090368D02*
X0157591Y0090368D01*
X0158589Y0091366D02*
X0171160Y0091366D01*
X0171160Y0092365D02*
X0159588Y0092365D01*
X0160586Y0093363D02*
X0171160Y0093363D01*
X0171160Y0094362D02*
X0161585Y0094362D01*
X0162549Y0095360D02*
X0171160Y0095360D01*
X0171160Y0096359D02*
X0162549Y0096359D01*
X0162549Y0097357D02*
X0171160Y0097357D01*
X0171160Y0098356D02*
X0162549Y0098356D01*
X0162549Y0099354D02*
X0171160Y0099354D01*
X0171160Y0100353D02*
X0162549Y0100353D01*
X0162549Y0101351D02*
X0171160Y0101351D01*
X0171160Y0102350D02*
X0162549Y0102350D01*
X0162549Y0103348D02*
X0171160Y0103348D01*
X0171160Y0104347D02*
X0162549Y0104347D01*
X0162549Y0105345D02*
X0171160Y0105345D01*
X0171160Y0106344D02*
X0162549Y0106344D01*
X0162549Y0107342D02*
X0171160Y0107342D01*
X0171160Y0108341D02*
X0162549Y0108341D01*
X0162549Y0109339D02*
X0171160Y0109339D01*
X0171160Y0110338D02*
X0162549Y0110338D01*
X0162549Y0111336D02*
X0171160Y0111336D01*
X0171160Y0112335D02*
X0162549Y0112335D01*
X0162549Y0113333D02*
X0171160Y0113333D01*
X0171160Y0114332D02*
X0162549Y0114332D01*
X0162549Y0115330D02*
X0171160Y0115330D01*
X0171160Y0116329D02*
X0162549Y0116329D01*
X0162549Y0117327D02*
X0171160Y0117327D01*
X0171160Y0118326D02*
X0162549Y0118326D01*
X0162549Y0119324D02*
X0171160Y0119324D01*
X0171160Y0120323D02*
X0164615Y0120323D01*
X0165417Y0121321D02*
X0171160Y0121321D01*
X0171160Y0122320D02*
X0165702Y0122320D01*
X0165618Y0123318D02*
X0171160Y0123318D01*
X0171160Y0124317D02*
X0165101Y0124317D01*
X0163548Y0125315D02*
X0171160Y0125315D01*
X0171160Y0126314D02*
X0099557Y0126314D01*
X0099557Y0127312D02*
X0171160Y0127312D01*
X0171160Y0128311D02*
X0099557Y0128311D01*
X0099557Y0129309D02*
X0171160Y0129309D01*
X0171160Y0130308D02*
X0099557Y0130308D01*
X0099557Y0131306D02*
X0171160Y0131306D01*
X0171160Y0132305D02*
X0099557Y0132305D01*
X0099557Y0133303D02*
X0171160Y0133303D01*
X0171160Y0134302D02*
X0099557Y0134302D01*
X0099557Y0135301D02*
X0171160Y0135301D01*
X0171160Y0136299D02*
X0099557Y0136299D01*
X0099557Y0137298D02*
X0171160Y0137298D01*
X0171160Y0138296D02*
X0099557Y0138296D01*
X0099557Y0139295D02*
X0171160Y0139295D01*
X0171160Y0140293D02*
X0099557Y0140293D01*
X0099557Y0141292D02*
X0171160Y0141292D01*
X0171160Y0142290D02*
X0099557Y0142290D01*
X0099557Y0143289D02*
X0171160Y0143289D01*
X0171160Y0144287D02*
X0099557Y0144287D01*
X0099557Y0145286D02*
X0171160Y0145286D01*
X0171160Y0146284D02*
X0099557Y0146284D01*
X0099557Y0147283D02*
X0171160Y0147283D01*
X0171160Y0148281D02*
X0099557Y0148281D01*
X0099557Y0148332D02*
X0096888Y0151001D01*
X0097351Y0152120D01*
X0097351Y0154030D01*
X0096620Y0155794D01*
X0095270Y0157144D01*
X0093506Y0157875D01*
X0091596Y0157875D01*
X0089832Y0157144D01*
X0088482Y0155794D01*
X0087751Y0154030D01*
X0087751Y0152120D01*
X0088482Y0150356D01*
X0089832Y0149006D01*
X0091596Y0148275D01*
X0093506Y0148275D01*
X0094625Y0148738D01*
X0096357Y0147007D01*
X0096357Y0136057D01*
X0095270Y0137144D01*
X0093506Y0137875D01*
X0091596Y0137875D01*
X0089832Y0137144D01*
X0088482Y0135794D01*
X0087751Y0134030D01*
X0087751Y0132120D01*
X0088482Y0130356D01*
X0089832Y0129006D01*
X0091596Y0128275D01*
X0093506Y0128275D01*
X0095270Y0129006D01*
X0096357Y0130092D01*
X0096357Y0116057D01*
X0095270Y0117144D01*
X0093506Y0117875D01*
X0091596Y0117875D01*
X0089832Y0117144D01*
X0088482Y0115794D01*
X0087751Y0114030D01*
X0087751Y0112120D01*
X0088482Y0110356D01*
X0089832Y0109006D01*
X0091596Y0108275D01*
X0093506Y0108275D01*
X0095270Y0109006D01*
X0096620Y0110356D01*
X0097330Y0112069D01*
X0103199Y0106199D01*
X0136958Y0106199D01*
X0137718Y0105439D01*
X0138741Y0105015D01*
X0139849Y0105015D01*
X0140872Y0105439D01*
X0141656Y0106222D01*
X0142080Y0107245D01*
X0142080Y0108353D01*
X0141656Y0109376D01*
X0140872Y0110160D01*
X0139849Y0110583D01*
X0138741Y0110583D01*
X0137718Y0110160D01*
X0136958Y0109399D01*
X0104525Y0109399D01*
X0099557Y0114367D01*
X0099557Y0148332D01*
X0098609Y0149280D02*
X0171160Y0149280D01*
X0171160Y0150278D02*
X0097611Y0150278D01*
X0097002Y0151277D02*
X0171160Y0151277D01*
X0171160Y0152275D02*
X0097351Y0152275D01*
X0097351Y0153274D02*
X0171160Y0153274D01*
X0171160Y0154272D02*
X0097251Y0154272D01*
X0096837Y0155271D02*
X0171160Y0155271D01*
X0171160Y0156269D02*
X0096145Y0156269D01*
X0094971Y0157268D02*
X0171160Y0157268D01*
X0171160Y0158266D02*
X0003795Y0158266D01*
X0003795Y0157268D02*
X0090131Y0157268D01*
X0088957Y0156269D02*
X0003795Y0156269D01*
X0003795Y0155271D02*
X0088265Y0155271D01*
X0087852Y0154272D02*
X0003795Y0154272D01*
X0003795Y0153274D02*
X0087751Y0153274D01*
X0087751Y0152275D02*
X0003795Y0152275D01*
X0003795Y0151277D02*
X0088100Y0151277D01*
X0088560Y0150278D02*
X0003795Y0150278D01*
X0003795Y0149280D02*
X0089558Y0149280D01*
X0090596Y0147875D02*
X0088832Y0147144D01*
X0087482Y0145794D01*
X0086751Y0144030D01*
X0086751Y0142120D01*
X0087482Y0140356D01*
X0088832Y0139006D01*
X0090596Y0138275D01*
X0092506Y0138275D01*
X0094270Y0139006D01*
X0095620Y0140356D01*
X0096351Y0142120D01*
X0096351Y0144030D01*
X0095620Y0145794D01*
X0094270Y0147144D01*
X0092506Y0147875D01*
X0090596Y0147875D01*
X0091581Y0148281D02*
X0003795Y0148281D01*
X0003795Y0147283D02*
X0089167Y0147283D01*
X0087972Y0146284D02*
X0003795Y0146284D01*
X0003795Y0145286D02*
X0087271Y0145286D01*
X0086858Y0144287D02*
X0003795Y0144287D01*
X0003795Y0143289D02*
X0086751Y0143289D01*
X0086751Y0142290D02*
X0003795Y0142290D01*
X0003795Y0141292D02*
X0087094Y0141292D01*
X0087545Y0140293D02*
X0003795Y0140293D01*
X0003795Y0139295D02*
X0088543Y0139295D01*
X0090545Y0138296D02*
X0003795Y0138296D01*
X0003795Y0137298D02*
X0049439Y0137298D01*
X0049789Y0137443D02*
X0048082Y0136736D01*
X0046776Y0135429D01*
X0046069Y0133723D01*
X0046069Y0124789D01*
X0046776Y0123082D01*
X0047613Y0122246D01*
X0047613Y0045918D01*
X0047399Y0045829D01*
X0045753Y0044184D01*
X0044863Y0042034D01*
X0044863Y0039706D01*
X0045753Y0037556D01*
X0047399Y0035911D01*
X0049549Y0035020D01*
X0051876Y0035020D01*
X0054026Y0035911D01*
X0055672Y0037556D01*
X0056563Y0039706D01*
X0056563Y0042034D01*
X0055672Y0044184D01*
X0054026Y0045829D01*
X0053813Y0045918D01*
X0053813Y0122246D01*
X0054649Y0123082D01*
X0055356Y0124789D01*
X0055356Y0133723D01*
X0054649Y0135429D01*
X0053343Y0136736D01*
X0051636Y0137443D01*
X0049789Y0137443D01*
X0051986Y0137298D02*
X0090203Y0137298D01*
X0088987Y0136299D02*
X0053779Y0136299D01*
X0054702Y0135301D02*
X0088278Y0135301D01*
X0087864Y0134302D02*
X0055116Y0134302D01*
X0055356Y0133303D02*
X0087751Y0133303D01*
X0087751Y0132305D02*
X0055356Y0132305D01*
X0055356Y0131306D02*
X0088088Y0131306D01*
X0088530Y0130308D02*
X0055356Y0130308D01*
X0055356Y0129309D02*
X0089528Y0129309D01*
X0090596Y0127875D02*
X0088832Y0127144D01*
X0087482Y0125794D01*
X0086751Y0124030D01*
X0086751Y0122120D01*
X0087482Y0120356D01*
X0088832Y0119006D01*
X0090596Y0118275D01*
X0092506Y0118275D01*
X0094270Y0119006D01*
X0095620Y0120356D01*
X0096351Y0122120D01*
X0096351Y0124030D01*
X0095620Y0125794D01*
X0094270Y0127144D01*
X0092506Y0127875D01*
X0090596Y0127875D01*
X0091509Y0128311D02*
X0055356Y0128311D01*
X0055356Y0127312D02*
X0089239Y0127312D01*
X0088002Y0126314D02*
X0055356Y0126314D01*
X0055356Y0125315D02*
X0072408Y0125315D01*
X0072373Y0125301D02*
X0071400Y0124327D01*
X0070872Y0123055D01*
X0070872Y0121677D01*
X0071400Y0120405D01*
X0072373Y0119431D01*
X0073646Y0118904D01*
X0075023Y0118904D01*
X0076296Y0119431D01*
X0077270Y0120405D01*
X0077797Y0121677D01*
X0077797Y0123055D01*
X0077270Y0124327D01*
X0076296Y0125301D01*
X0075023Y0125828D01*
X0073646Y0125828D01*
X0072373Y0125301D01*
X0071395Y0124317D02*
X0055160Y0124317D01*
X0054747Y0123318D02*
X0070982Y0123318D01*
X0070872Y0122320D02*
X0053886Y0122320D01*
X0053813Y0121321D02*
X0071020Y0121321D01*
X0071482Y0120323D02*
X0053813Y0120323D01*
X0053813Y0119324D02*
X0072631Y0119324D01*
X0076038Y0119324D02*
X0088513Y0119324D01*
X0087515Y0120323D02*
X0077188Y0120323D01*
X0077649Y0121321D02*
X0087082Y0121321D01*
X0086751Y0122320D02*
X0077797Y0122320D01*
X0077688Y0123318D02*
X0086751Y0123318D01*
X0086870Y0124317D02*
X0077274Y0124317D01*
X0076262Y0125315D02*
X0087284Y0125315D01*
X0093864Y0127312D02*
X0096357Y0127312D01*
X0096357Y0126314D02*
X0095100Y0126314D01*
X0095819Y0125315D02*
X0096357Y0125315D01*
X0096357Y0124317D02*
X0096232Y0124317D01*
X0096351Y0123318D02*
X0096357Y0123318D01*
X0096351Y0122320D02*
X0096357Y0122320D01*
X0096357Y0121321D02*
X0096020Y0121321D01*
X0096357Y0120323D02*
X0095587Y0120323D01*
X0096357Y0119324D02*
X0094589Y0119324D01*
X0094828Y0117327D02*
X0096357Y0117327D01*
X0096357Y0116329D02*
X0096085Y0116329D01*
X0096357Y0118326D02*
X0092629Y0118326D01*
X0090473Y0118326D02*
X0053813Y0118326D01*
X0053813Y0117327D02*
X0090275Y0117327D01*
X0089017Y0116329D02*
X0053813Y0116329D01*
X0053813Y0115330D02*
X0088290Y0115330D01*
X0087876Y0114332D02*
X0053813Y0114332D01*
X0053813Y0113333D02*
X0087751Y0113333D01*
X0087751Y0112335D02*
X0053813Y0112335D01*
X0053813Y0111336D02*
X0088076Y0111336D01*
X0088500Y0110338D02*
X0053813Y0110338D01*
X0053813Y0109339D02*
X0089499Y0109339D01*
X0090596Y0107875D02*
X0088832Y0107144D01*
X0087482Y0105794D01*
X0086751Y0104030D01*
X0086751Y0102120D01*
X0087482Y0100356D01*
X0088832Y0099006D01*
X0090596Y0098275D01*
X0092506Y0098275D01*
X0094270Y0099006D01*
X0095620Y0100356D01*
X0096351Y0102120D01*
X0096351Y0104030D01*
X0095620Y0105794D01*
X0094270Y0107144D01*
X0092506Y0107875D01*
X0090596Y0107875D01*
X0091437Y0108341D02*
X0053813Y0108341D01*
X0053813Y0107342D02*
X0089311Y0107342D01*
X0088032Y0106344D02*
X0053813Y0106344D01*
X0053813Y0105345D02*
X0087296Y0105345D01*
X0086883Y0104347D02*
X0053813Y0104347D01*
X0053813Y0103348D02*
X0086751Y0103348D01*
X0086751Y0102350D02*
X0053813Y0102350D01*
X0053813Y0101351D02*
X0087070Y0101351D01*
X0087485Y0100353D02*
X0053813Y0100353D01*
X0053813Y0099354D02*
X0088484Y0099354D01*
X0090401Y0098356D02*
X0053813Y0098356D01*
X0053813Y0097357D02*
X0090347Y0097357D01*
X0089832Y0097144D02*
X0088482Y0095794D01*
X0087751Y0094030D01*
X0087751Y0092120D01*
X0088482Y0090356D01*
X0089832Y0089006D01*
X0091596Y0088275D01*
X0093506Y0088275D01*
X0095270Y0089006D01*
X0096620Y0090356D01*
X0097351Y0092120D01*
X0097351Y0094030D01*
X0096620Y0095794D01*
X0095270Y0097144D01*
X0093506Y0097875D01*
X0091596Y0097875D01*
X0089832Y0097144D01*
X0089047Y0096359D02*
X0053813Y0096359D01*
X0053813Y0095360D02*
X0088302Y0095360D01*
X0087889Y0094362D02*
X0053813Y0094362D01*
X0053813Y0093363D02*
X0087751Y0093363D01*
X0087751Y0092365D02*
X0053813Y0092365D01*
X0053813Y0091366D02*
X0088063Y0091366D01*
X0088477Y0090368D02*
X0053813Y0090368D01*
X0053813Y0089369D02*
X0089469Y0089369D01*
X0089382Y0087372D02*
X0053813Y0087372D01*
X0053813Y0088370D02*
X0091365Y0088370D01*
X0093737Y0088370D02*
X0151068Y0088370D01*
X0150070Y0087372D02*
X0093720Y0087372D01*
X0095041Y0086373D02*
X0149071Y0086373D01*
X0148073Y0085375D02*
X0095794Y0085375D01*
X0096208Y0084376D02*
X0147074Y0084376D01*
X0146076Y0083378D02*
X0096351Y0083378D01*
X0096351Y0082379D02*
X0145077Y0082379D01*
X0144079Y0081381D02*
X0096045Y0081381D01*
X0095631Y0080382D02*
X0143080Y0080382D01*
X0142082Y0079384D02*
X0094648Y0079384D01*
X0094684Y0077387D02*
X0140085Y0077387D01*
X0141083Y0078385D02*
X0092773Y0078385D01*
X0096026Y0076388D02*
X0139086Y0076388D01*
X0138088Y0075390D02*
X0096788Y0075390D01*
X0097201Y0074391D02*
X0137089Y0074391D01*
X0136091Y0073393D02*
X0097351Y0073393D01*
X0097351Y0072394D02*
X0135092Y0072394D01*
X0134094Y0071396D02*
X0097051Y0071396D01*
X0096638Y0070397D02*
X0131420Y0070397D01*
X0130778Y0069399D02*
X0095663Y0069399D01*
X0093809Y0068400D02*
X0130606Y0068400D01*
X0130802Y0067402D02*
X0094442Y0067402D01*
X0095560Y0066403D02*
X0131478Y0066403D01*
X0133390Y0068429D02*
X0160949Y0095988D01*
X0160949Y0120594D01*
X0162917Y0122563D01*
X0160133Y0122320D02*
X0099557Y0122320D01*
X0099557Y0123318D02*
X0160217Y0123318D01*
X0160734Y0124317D02*
X0099557Y0124317D01*
X0099557Y0125315D02*
X0162287Y0125315D01*
X0159413Y0121321D02*
X0099557Y0121321D01*
X0099557Y0120323D02*
X0159349Y0120323D01*
X0159349Y0119324D02*
X0099557Y0119324D01*
X0099557Y0118326D02*
X0159349Y0118326D01*
X0159349Y0117327D02*
X0099557Y0117327D01*
X0099557Y0116329D02*
X0159349Y0116329D01*
X0159349Y0115330D02*
X0099557Y0115330D01*
X0099592Y0114332D02*
X0159349Y0114332D01*
X0159349Y0113333D02*
X0100591Y0113333D01*
X0101589Y0112335D02*
X0159349Y0112335D01*
X0159349Y0111336D02*
X0102588Y0111336D01*
X0103586Y0110338D02*
X0138148Y0110338D01*
X0140442Y0110338D02*
X0159349Y0110338D01*
X0159349Y0109339D02*
X0141671Y0109339D01*
X0142080Y0108341D02*
X0159349Y0108341D01*
X0159349Y0107342D02*
X0142080Y0107342D01*
X0141706Y0106344D02*
X0159349Y0106344D01*
X0159349Y0105345D02*
X0140646Y0105345D01*
X0137944Y0105345D02*
X0095806Y0105345D01*
X0096220Y0104347D02*
X0159349Y0104347D01*
X0159349Y0103348D02*
X0096351Y0103348D01*
X0096351Y0102350D02*
X0159349Y0102350D01*
X0159349Y0101351D02*
X0096033Y0101351D01*
X0095617Y0100353D02*
X0159349Y0100353D01*
X0159349Y0099354D02*
X0094619Y0099354D01*
X0094756Y0097357D02*
X0159349Y0097357D01*
X0159349Y0098356D02*
X0092701Y0098356D01*
X0096056Y0096359D02*
X0159056Y0096359D01*
X0158058Y0095360D02*
X0096800Y0095360D01*
X0097214Y0094362D02*
X0157059Y0094362D01*
X0156061Y0093363D02*
X0097351Y0093363D01*
X0097351Y0092365D02*
X0155062Y0092365D01*
X0154064Y0091366D02*
X0097039Y0091366D01*
X0096625Y0090368D02*
X0153065Y0090368D01*
X0152067Y0089369D02*
X0095634Y0089369D01*
X0088062Y0086373D02*
X0053813Y0086373D01*
X0053813Y0085375D02*
X0087308Y0085375D01*
X0086895Y0084376D02*
X0053813Y0084376D01*
X0053813Y0083378D02*
X0086751Y0083378D01*
X0086751Y0082379D02*
X0053813Y0082379D01*
X0053813Y0081381D02*
X0071716Y0081381D01*
X0070592Y0080382D02*
X0053813Y0080382D01*
X0053813Y0079384D02*
X0069888Y0079384D01*
X0069474Y0078385D02*
X0053813Y0078385D01*
X0053813Y0077387D02*
X0069335Y0077387D01*
X0069335Y0076388D02*
X0053813Y0076388D01*
X0053813Y0075390D02*
X0069335Y0075390D01*
X0069335Y0074391D02*
X0053813Y0074391D01*
X0053813Y0073393D02*
X0069335Y0073393D01*
X0069191Y0072394D02*
X0053813Y0072394D01*
X0053813Y0071396D02*
X0068193Y0071396D01*
X0067531Y0070397D02*
X0053813Y0070397D01*
X0053813Y0069399D02*
X0067298Y0069399D01*
X0067298Y0068400D02*
X0053813Y0068400D01*
X0053813Y0067402D02*
X0067298Y0067402D01*
X0067298Y0066403D02*
X0053813Y0066403D01*
X0053813Y0065405D02*
X0067298Y0065405D01*
X0067298Y0064406D02*
X0053813Y0064406D01*
X0053813Y0063408D02*
X0067298Y0063408D01*
X0067298Y0062409D02*
X0053813Y0062409D01*
X0053813Y0061411D02*
X0067298Y0061411D01*
X0067298Y0060412D02*
X0053813Y0060412D01*
X0053813Y0059414D02*
X0067298Y0059414D01*
X0067298Y0058415D02*
X0053813Y0058415D01*
X0053813Y0057417D02*
X0067298Y0057417D01*
X0067298Y0056418D02*
X0053813Y0056418D01*
X0053813Y0055420D02*
X0067298Y0055420D01*
X0067298Y0054421D02*
X0053813Y0054421D01*
X0053813Y0053423D02*
X0067298Y0053423D01*
X0067298Y0052424D02*
X0053813Y0052424D01*
X0053813Y0051426D02*
X0067298Y0051426D01*
X0067298Y0050427D02*
X0053813Y0050427D01*
X0053813Y0049429D02*
X0067298Y0049429D01*
X0067298Y0048430D02*
X0053813Y0048430D01*
X0053813Y0047432D02*
X0067298Y0047432D01*
X0064905Y0046433D02*
X0053813Y0046433D01*
X0054421Y0045434D02*
X0064548Y0045434D01*
X0064548Y0044436D02*
X0055420Y0044436D01*
X0055981Y0043437D02*
X0064548Y0043437D01*
X0064548Y0042439D02*
X0056395Y0042439D01*
X0056563Y0041440D02*
X0064548Y0041440D01*
X0064548Y0040442D02*
X0056563Y0040442D01*
X0056454Y0039443D02*
X0064548Y0039443D01*
X0064548Y0038445D02*
X0056040Y0038445D01*
X0055562Y0037446D02*
X0064548Y0037446D01*
X0064548Y0036448D02*
X0054564Y0036448D01*
X0052913Y0035449D02*
X0064763Y0035449D01*
X0076033Y0035449D02*
X0099694Y0035449D01*
X0100730Y0035020D02*
X0103057Y0035020D01*
X0105207Y0035911D01*
X0106853Y0037556D01*
X0107744Y0039706D01*
X0107744Y0042034D01*
X0106853Y0044184D01*
X0105207Y0045829D01*
X0103057Y0046720D01*
X0100730Y0046720D01*
X0098580Y0045829D01*
X0096934Y0044184D01*
X0096044Y0042034D01*
X0096044Y0039706D01*
X0096934Y0037556D01*
X0098580Y0035911D01*
X0100730Y0035020D01*
X0098043Y0036448D02*
X0076248Y0036448D01*
X0076248Y0037446D02*
X0097044Y0037446D01*
X0096566Y0038445D02*
X0076248Y0038445D01*
X0076248Y0039443D02*
X0096153Y0039443D01*
X0096044Y0040442D02*
X0076248Y0040442D01*
X0076248Y0041440D02*
X0096044Y0041440D01*
X0096212Y0042439D02*
X0076248Y0042439D01*
X0076248Y0043437D02*
X0096625Y0043437D01*
X0097186Y0044436D02*
X0076248Y0044436D01*
X0076248Y0045434D02*
X0098185Y0045434D01*
X0100037Y0046433D02*
X0075890Y0046433D01*
X0073498Y0047432D02*
X0175747Y0047432D01*
X0174748Y0048430D02*
X0073498Y0048430D01*
X0073498Y0049429D02*
X0173750Y0049429D01*
X0172751Y0050427D02*
X0073498Y0050427D01*
X0073498Y0051426D02*
X0171753Y0051426D01*
X0171160Y0052018D02*
X0177065Y0046113D01*
X0178003Y0045176D01*
X0191782Y0045176D01*
X0197688Y0039270D01*
X0199895Y0039270D01*
X0197172Y0036547D01*
X0197172Y0032571D01*
X0197447Y0032296D01*
X0196337Y0031187D01*
X0195400Y0030249D01*
X0195400Y0026920D01*
X0193961Y0028359D01*
X0189984Y0028359D01*
X0187172Y0025547D01*
X0187172Y0021571D01*
X0189984Y0018759D01*
X0190545Y0018759D01*
X0190545Y0006619D01*
X0193368Y0003795D01*
X0014586Y0003795D01*
X0016201Y0004464D01*
X0018536Y0006799D01*
X0019799Y0009849D01*
X0019799Y0013151D01*
X0018536Y0016201D01*
X0016201Y0018536D01*
X0013151Y0019799D01*
X0009849Y0019799D01*
X0006799Y0018536D01*
X0004464Y0016201D01*
X0003795Y0014586D01*
X0003795Y0198350D01*
X0003864Y0199223D01*
X0004403Y0200883D01*
X0005429Y0202295D01*
X0006841Y0203321D01*
X0008501Y0203860D01*
X0009374Y0203929D01*
X0109410Y0203929D01*
X0112473Y0204925D01*
X0112474Y0204925D01*
X0115080Y0206818D01*
X0116973Y0209424D01*
X0116973Y0209424D01*
X0117968Y0212488D01*
X0117968Y0266618D01*
X0118037Y0267491D01*
X0118577Y0269151D01*
X0119602Y0270563D01*
X0121015Y0271589D01*
X0122675Y0272128D01*
X0123547Y0272197D01*
X0378250Y0272197D01*
X0382906Y0267541D01*
X0382906Y0222541D01*
X0384250Y0221197D01*
X0392906Y0212541D01*
X0392906Y0207768D01*
X0392315Y0209193D01*
X0389981Y0211528D01*
X0386930Y0212791D01*
X0383629Y0212791D01*
X0380578Y0211528D01*
X0378244Y0209193D01*
X0376980Y0206143D01*
X0376980Y0202841D01*
X0378244Y0199791D01*
X0380578Y0197456D01*
X0383629Y0196193D01*
X0386930Y0196193D01*
X0389981Y0197456D01*
X0392315Y0199791D01*
X0392906Y0201216D01*
X0392906Y0097768D01*
X0392315Y0099193D01*
X0389981Y0101528D01*
X0386930Y0102791D01*
X0383629Y0102791D01*
X0380578Y0101528D01*
X0378244Y0099193D01*
X0376980Y0096143D01*
X0376980Y0092841D01*
X0378244Y0089791D01*
X0380578Y0087456D01*
X0383629Y0086193D01*
X0386930Y0086193D01*
X0389981Y0087456D01*
X0392315Y0089791D01*
X0392906Y0091216D01*
X0392906Y0085443D01*
X0382906Y0075443D01*
X0382906Y0005437D01*
X0382874Y0005117D01*
X0382629Y0004525D01*
X0382176Y0004072D01*
X0381584Y0003827D01*
X0381264Y0003795D01*
X0360813Y0003795D01*
X0362996Y0005978D01*
X0364109Y0007091D01*
X0364109Y0018759D01*
X0364197Y0018759D01*
X0367009Y0021571D01*
X0367009Y0025547D01*
X0364197Y0028359D01*
X0364109Y0028359D01*
X0364109Y0029759D01*
X0364197Y0029759D01*
X0367009Y0032571D01*
X0367009Y0036547D01*
X0364197Y0039359D01*
X0360220Y0039359D01*
X0357409Y0036547D01*
X0357409Y0032571D01*
X0360220Y0029759D01*
X0360309Y0029759D01*
X0360309Y0028359D01*
X0360220Y0028359D01*
X0357409Y0025547D01*
X0357409Y0021571D01*
X0360220Y0018759D01*
X0360309Y0018759D01*
X0360309Y0008665D01*
X0357996Y0006353D01*
X0309347Y0006353D01*
X0309610Y0006616D01*
X0310034Y0007639D01*
X0310034Y0008747D01*
X0309610Y0009770D01*
X0308850Y0010530D01*
X0308850Y0020130D01*
X0310220Y0018759D01*
X0310609Y0018759D01*
X0310609Y0014664D01*
X0309848Y0013904D01*
X0309424Y0012881D01*
X0309424Y0011773D01*
X0309848Y0010750D01*
X0310632Y0009966D01*
X0311655Y0009543D01*
X0312762Y0009543D01*
X0313786Y0009966D01*
X0314569Y0010750D01*
X0314993Y0011773D01*
X0314993Y0012881D01*
X0314569Y0013904D01*
X0313809Y0014664D01*
X0313809Y0018759D01*
X0314197Y0018759D01*
X0317009Y0021571D01*
X0317009Y0025547D01*
X0314197Y0028359D01*
X0310220Y0028359D01*
X0308850Y0026989D01*
X0308850Y0028938D01*
X0309946Y0030034D01*
X0310220Y0029759D01*
X0314197Y0029759D01*
X0315650Y0031212D01*
X0315650Y0027855D01*
X0316587Y0026918D01*
X0317683Y0025822D01*
X0317409Y0025547D01*
X0317409Y0021571D01*
X0320220Y0018759D01*
X0324197Y0018759D01*
X0327009Y0021571D01*
X0327009Y0025547D01*
X0324197Y0028359D01*
X0320220Y0028359D01*
X0319946Y0028085D01*
X0318850Y0029180D01*
X0318850Y0031130D01*
X0320220Y0029759D01*
X0324197Y0029759D01*
X0325650Y0031212D01*
X0325650Y0027855D01*
X0326587Y0026918D01*
X0327683Y0025822D01*
X0327409Y0025547D01*
X0327409Y0021571D01*
X0330220Y0018759D01*
X0334197Y0018759D01*
X0337009Y0021571D01*
X0337009Y0025547D01*
X0334197Y0028359D01*
X0330220Y0028359D01*
X0329946Y0028085D01*
X0328850Y0029180D01*
X0328850Y0031130D01*
X0330220Y0029759D01*
X0334197Y0029759D01*
X0337009Y0032571D01*
X0337009Y0036547D01*
X0334197Y0039359D01*
X0333809Y0039359D01*
X0333809Y0049162D01*
X0334569Y0049923D01*
X0334993Y0050946D01*
X0334993Y0052054D01*
X0334569Y0053077D01*
X0333786Y0053860D01*
X0332762Y0054284D01*
X0331655Y0054284D01*
X0330632Y0053860D01*
X0329848Y0053077D01*
X0329424Y0052054D01*
X0329424Y0050946D01*
X0329848Y0049923D01*
X0330609Y0049162D01*
X0330609Y0039359D01*
X0330220Y0039359D01*
X0328562Y0037701D01*
X0314887Y0051375D01*
X0313950Y0052313D01*
X0277575Y0052313D01*
X0277906Y0053112D01*
X0277906Y0054219D01*
X0277482Y0055242D01*
X0277022Y0055703D01*
X0277022Y0070092D01*
X0277023Y0070092D01*
X0279601Y0072670D01*
X0279601Y0076315D01*
X0277023Y0078892D01*
X0273378Y0078892D01*
X0270801Y0076315D01*
X0270801Y0072670D01*
X0273222Y0070248D01*
X0273222Y0055703D01*
X0272762Y0055242D01*
X0272338Y0054219D01*
X0272338Y0053112D01*
X0272669Y0052313D01*
X0267733Y0052313D01*
X0268064Y0053112D01*
X0268064Y0054219D01*
X0267640Y0055242D01*
X0267180Y0055703D01*
X0267180Y0070248D01*
X0269601Y0072670D01*
X0269601Y0076315D01*
X0267023Y0078892D01*
X0263378Y0078892D01*
X0260801Y0076315D01*
X0260801Y0072670D01*
X0263378Y0070092D01*
X0263380Y0070092D01*
X0263380Y0055703D01*
X0262919Y0055242D01*
X0262495Y0054219D01*
X0262495Y0053112D01*
X0262826Y0052313D01*
X0246257Y0052313D01*
X0243257Y0055312D01*
X0242320Y0056250D01*
X0228541Y0056250D01*
X0225541Y0059249D01*
X0225541Y0084302D01*
X0271848Y0130609D01*
X0272785Y0131546D01*
X0272785Y0172491D01*
X0278341Y0178046D01*
X0279416Y0178046D01*
X0280439Y0178470D01*
X0281223Y0179254D01*
X0281646Y0180277D01*
X0281646Y0181385D01*
X0281223Y0182408D01*
X0280439Y0183191D01*
X0280020Y0183365D01*
X0312648Y0183365D01*
X0313042Y0182971D01*
X0316730Y0182971D01*
X0318698Y0184939D01*
X0319635Y0185877D01*
X0319635Y0189958D01*
X0317667Y0191927D01*
X0316730Y0192864D01*
X0314861Y0192864D01*
X0314101Y0193624D01*
X0313118Y0194031D01*
X0313536Y0195041D01*
X0313536Y0196148D01*
X0313112Y0197172D01*
X0312329Y0197955D01*
X0311306Y0198379D01*
X0310198Y0198379D01*
X0309175Y0197955D01*
X0308392Y0197172D01*
X0307968Y0196148D01*
X0307968Y0195270D01*
X0303199Y0190502D01*
X0289171Y0190502D01*
X0285777Y0193895D01*
X0284840Y0194832D01*
X0280759Y0194832D01*
X0278396Y0192470D01*
X0274853Y0192470D01*
X0261711Y0179328D01*
X0261711Y0135627D01*
X0215404Y0089320D01*
X0214467Y0088383D01*
X0214467Y0064171D01*
X0210483Y0060187D01*
X0209546Y0059249D01*
X0209546Y0052018D01*
X0211514Y0050050D01*
X0212451Y0049113D01*
X0239026Y0049113D01*
X0242963Y0045176D01*
X0263679Y0045176D01*
X0262919Y0044416D01*
X0262495Y0043392D01*
X0262495Y0042285D01*
X0262919Y0041261D01*
X0263380Y0040801D01*
X0263380Y0033065D01*
X0262919Y0032605D01*
X0262495Y0031581D01*
X0262495Y0030474D01*
X0262919Y0029450D01*
X0263702Y0028667D01*
X0264726Y0028243D01*
X0265833Y0028243D01*
X0266857Y0028667D01*
X0267640Y0029450D01*
X0268064Y0030474D01*
X0268064Y0031581D01*
X0267640Y0032605D01*
X0267180Y0033065D01*
X0267180Y0040801D01*
X0267640Y0041261D01*
X0268064Y0042285D01*
X0268064Y0043392D01*
X0267640Y0044416D01*
X0266880Y0045176D01*
X0273522Y0045176D01*
X0272762Y0044416D01*
X0272338Y0043392D01*
X0272338Y0042285D01*
X0272762Y0041261D01*
X0273222Y0040801D01*
X0273222Y0033065D01*
X0272762Y0032605D01*
X0272338Y0031581D01*
X0272338Y0030474D01*
X0272762Y0029450D01*
X0273222Y0028990D01*
X0273222Y0012130D01*
X0267445Y0006353D01*
X0199097Y0006353D01*
X0199360Y0006616D01*
X0199784Y0007639D01*
X0199784Y0008747D01*
X0199360Y0009770D01*
X0198600Y0010530D01*
X0198600Y0020143D01*
X0199984Y0018759D01*
X0203961Y0018759D01*
X0205400Y0020198D01*
X0205400Y0019747D01*
X0206337Y0018809D01*
X0209499Y0015648D01*
X0233659Y0015648D01*
X0234596Y0016585D01*
X0238377Y0020366D01*
X0239984Y0018759D01*
X0243961Y0018759D01*
X0246772Y0021571D01*
X0246772Y0025547D01*
X0246498Y0025822D01*
X0247663Y0026987D01*
X0248600Y0027924D01*
X0248600Y0030578D01*
X0249819Y0029359D01*
X0251472Y0029359D01*
X0251472Y0034059D01*
X0252472Y0034059D01*
X0252472Y0029359D01*
X0254126Y0029359D01*
X0257172Y0032405D01*
X0257172Y0034059D01*
X0252472Y0034059D01*
X0252472Y0035059D01*
X0251472Y0035059D01*
X0251472Y0039759D01*
X0249819Y0039759D01*
X0248409Y0038350D01*
X0239320Y0047438D01*
X0238383Y0048376D01*
X0211808Y0048376D01*
X0206840Y0053344D01*
X0205903Y0054281D01*
X0195882Y0054281D01*
X0196213Y0055080D01*
X0196213Y0056188D01*
X0195789Y0057211D01*
X0195006Y0057994D01*
X0193983Y0058418D01*
X0192875Y0058418D01*
X0191852Y0057994D01*
X0191069Y0057211D01*
X0190671Y0056250D01*
X0183265Y0056250D01*
X0182234Y0057281D01*
X0182234Y0185483D01*
X0193501Y0196750D01*
X0258711Y0196750D01*
X0260136Y0195325D01*
X0261073Y0194388D01*
X0265155Y0194388D01*
X0268304Y0197538D01*
X0271060Y0197538D01*
X0271998Y0198475D01*
X0275785Y0202262D01*
X0276328Y0202262D01*
X0277088Y0201502D01*
X0278112Y0201078D01*
X0279219Y0201078D01*
X0280242Y0201502D01*
X0281026Y0202285D01*
X0281450Y0203308D01*
X0281450Y0204416D01*
X0281038Y0205409D01*
X0281188Y0205409D01*
X0282211Y0205833D01*
X0282994Y0206616D01*
X0283418Y0207639D01*
X0283418Y0208747D01*
X0282994Y0209770D01*
X0282211Y0210553D01*
X0281188Y0210977D01*
X0280080Y0210977D01*
X0279057Y0210553D01*
X0278296Y0209793D01*
X0267911Y0209793D01*
X0267517Y0210187D01*
X0263436Y0210187D01*
X0262498Y0209249D01*
X0260877Y0207628D01*
X0188829Y0207628D01*
X0187892Y0206690D01*
X0171160Y0189958D01*
X0171160Y0052018D01*
X0171160Y0052424D02*
X0073498Y0052424D01*
X0073498Y0053423D02*
X0171160Y0053423D01*
X0171160Y0054421D02*
X0111508Y0054421D01*
X0111345Y0054258D02*
X0112128Y0055041D01*
X0112552Y0056064D01*
X0112552Y0056987D01*
X0162548Y0056987D01*
X0163309Y0056226D01*
X0164332Y0055802D01*
X0165440Y0055802D01*
X0166463Y0056226D01*
X0167246Y0057009D01*
X0167670Y0058033D01*
X0167670Y0059140D01*
X0167246Y0060164D01*
X0166463Y0060947D01*
X0165440Y0061371D01*
X0164332Y0061371D01*
X0163309Y0060947D01*
X0162548Y0060187D01*
X0111073Y0060187D01*
X0110289Y0059402D01*
X0109214Y0059402D01*
X0108191Y0058978D01*
X0107407Y0058195D01*
X0106983Y0057172D01*
X0106983Y0056064D01*
X0107407Y0055041D01*
X0108191Y0054258D01*
X0109214Y0053834D01*
X0110322Y0053834D01*
X0111345Y0054258D01*
X0112285Y0055420D02*
X0171160Y0055420D01*
X0171160Y0056418D02*
X0166655Y0056418D01*
X0167415Y0057417D02*
X0171160Y0057417D01*
X0171160Y0058415D02*
X0167670Y0058415D01*
X0167557Y0059414D02*
X0171160Y0059414D01*
X0171160Y0060412D02*
X0166998Y0060412D01*
X0164886Y0058587D02*
X0111736Y0058587D01*
X0109768Y0056618D01*
X0107250Y0055420D02*
X0073498Y0055420D01*
X0073498Y0056418D02*
X0106983Y0056418D01*
X0107085Y0057417D02*
X0073498Y0057417D01*
X0073498Y0054421D02*
X0108027Y0054421D01*
X0107627Y0058415D02*
X0093860Y0058415D01*
X0095244Y0059414D02*
X0110301Y0059414D01*
X0112552Y0056418D02*
X0163117Y0056418D01*
X0162774Y0060412D02*
X0096031Y0060412D01*
X0096586Y0064406D02*
X0138480Y0064406D01*
X0138628Y0065405D02*
X0096200Y0065405D01*
X0087542Y0066403D02*
X0078555Y0066403D01*
X0077557Y0065405D02*
X0086902Y0065405D01*
X0086516Y0064406D02*
X0075698Y0064406D01*
X0047613Y0064406D02*
X0034128Y0064406D01*
X0034128Y0063408D02*
X0047613Y0063408D01*
X0047613Y0062409D02*
X0034128Y0062409D01*
X0034128Y0061411D02*
X0047613Y0061411D01*
X0047613Y0060412D02*
X0034128Y0060412D01*
X0034128Y0059414D02*
X0047613Y0059414D01*
X0047613Y0058415D02*
X0034128Y0058415D01*
X0034128Y0057417D02*
X0047613Y0057417D01*
X0047613Y0056418D02*
X0034128Y0056418D01*
X0034128Y0055420D02*
X0047613Y0055420D01*
X0047613Y0054421D02*
X0034128Y0054421D01*
X0034128Y0053423D02*
X0047613Y0053423D01*
X0047613Y0052424D02*
X0034128Y0052424D01*
X0034128Y0051426D02*
X0047613Y0051426D01*
X0047613Y0050427D02*
X0034128Y0050427D01*
X0034128Y0049429D02*
X0047613Y0049429D01*
X0047613Y0048430D02*
X0034128Y0048430D01*
X0034128Y0047432D02*
X0047613Y0047432D01*
X0047613Y0046433D02*
X0034128Y0046433D01*
X0034128Y0045918D02*
X0034128Y0069833D01*
X0033656Y0070973D01*
X0032091Y0072538D01*
X0032091Y0078048D01*
X0031329Y0079886D01*
X0029923Y0081292D01*
X0028085Y0082054D01*
X0026096Y0082054D01*
X0024258Y0081292D01*
X0022852Y0079886D01*
X0022091Y0078048D01*
X0022091Y0068259D01*
X0022852Y0066421D01*
X0024258Y0065015D01*
X0026096Y0064254D01*
X0027928Y0064254D01*
X0027928Y0045918D01*
X0027714Y0045829D01*
X0026068Y0044184D01*
X0025178Y0042034D01*
X0025178Y0039706D01*
X0026068Y0037556D01*
X0027714Y0035911D01*
X0029864Y0035020D01*
X0032191Y0035020D01*
X0034341Y0035911D01*
X0035987Y0037556D01*
X0036878Y0039706D01*
X0036878Y0042034D01*
X0035987Y0044184D01*
X0034341Y0045829D01*
X0034128Y0045918D01*
X0034736Y0045434D02*
X0047004Y0045434D01*
X0046005Y0044436D02*
X0035735Y0044436D01*
X0036296Y0043437D02*
X0045444Y0043437D01*
X0045030Y0042439D02*
X0036710Y0042439D01*
X0036878Y0041440D02*
X0044863Y0041440D01*
X0044863Y0040442D02*
X0036878Y0040442D01*
X0036769Y0039443D02*
X0044972Y0039443D01*
X0045385Y0038445D02*
X0036355Y0038445D01*
X0035877Y0037446D02*
X0045863Y0037446D01*
X0046862Y0036448D02*
X0034879Y0036448D01*
X0033228Y0035449D02*
X0048513Y0035449D01*
X0028827Y0035449D02*
X0003795Y0035449D01*
X0003795Y0034451D02*
X0191472Y0034451D01*
X0191472Y0034059D02*
X0186772Y0034059D01*
X0186772Y0032405D01*
X0189819Y0029359D01*
X0191472Y0029359D01*
X0191472Y0034059D01*
X0191472Y0035059D01*
X0186772Y0035059D01*
X0186772Y0036713D01*
X0189819Y0039759D01*
X0191472Y0039759D01*
X0191472Y0035059D01*
X0192472Y0035059D01*
X0192472Y0039759D01*
X0194126Y0039759D01*
X0197172Y0036713D01*
X0197172Y0035059D01*
X0192472Y0035059D01*
X0192472Y0034059D01*
X0192472Y0029359D01*
X0194126Y0029359D01*
X0197172Y0032405D01*
X0197172Y0034059D01*
X0192472Y0034059D01*
X0191472Y0034059D01*
X0191472Y0033452D02*
X0192472Y0033452D01*
X0192472Y0032454D02*
X0191472Y0032454D01*
X0191472Y0031455D02*
X0192472Y0031455D01*
X0192472Y0030457D02*
X0191472Y0030457D01*
X0191472Y0029458D02*
X0192472Y0029458D01*
X0194226Y0029458D02*
X0195400Y0029458D01*
X0195400Y0028460D02*
X0003795Y0028460D01*
X0003795Y0029458D02*
X0189719Y0029458D01*
X0188721Y0030457D02*
X0003795Y0030457D01*
X0003795Y0031455D02*
X0187722Y0031455D01*
X0186772Y0032454D02*
X0003795Y0032454D01*
X0003795Y0033452D02*
X0186772Y0033452D01*
X0186772Y0035449D02*
X0146899Y0035449D01*
X0147114Y0035664D02*
X0147114Y0046076D01*
X0146469Y0046720D01*
X0136058Y0046720D01*
X0135414Y0046076D01*
X0135414Y0035664D01*
X0136058Y0035020D01*
X0146469Y0035020D01*
X0147114Y0035664D01*
X0147114Y0036448D02*
X0186772Y0036448D01*
X0187506Y0037446D02*
X0147114Y0037446D01*
X0147114Y0038445D02*
X0188504Y0038445D01*
X0189503Y0039443D02*
X0147114Y0039443D01*
X0147114Y0040442D02*
X0196516Y0040442D01*
X0197514Y0039443D02*
X0194442Y0039443D01*
X0195440Y0038445D02*
X0199070Y0038445D01*
X0198072Y0037446D02*
X0196439Y0037446D01*
X0197172Y0036448D02*
X0197172Y0036448D01*
X0197172Y0035449D02*
X0197172Y0035449D01*
X0197172Y0034451D02*
X0192472Y0034451D01*
X0192472Y0035449D02*
X0191472Y0035449D01*
X0191472Y0036448D02*
X0192472Y0036448D01*
X0192472Y0037446D02*
X0191472Y0037446D01*
X0191472Y0038445D02*
X0192472Y0038445D01*
X0192472Y0039443D02*
X0191472Y0039443D01*
X0194519Y0042439D02*
X0147114Y0042439D01*
X0147114Y0043437D02*
X0193520Y0043437D01*
X0192522Y0044436D02*
X0147114Y0044436D01*
X0147114Y0045434D02*
X0177744Y0045434D01*
X0176745Y0046433D02*
X0146756Y0046433D01*
X0147114Y0041440D02*
X0195517Y0041440D01*
X0198350Y0040870D02*
X0192445Y0046776D01*
X0178665Y0046776D01*
X0172760Y0052681D01*
X0172760Y0189295D01*
X0189492Y0206028D01*
X0261539Y0206028D01*
X0264098Y0208587D01*
X0266854Y0208587D01*
X0267248Y0208193D01*
X0280634Y0208193D01*
X0283418Y0208192D02*
X0287001Y0208192D01*
X0287999Y0209190D02*
X0283234Y0209190D01*
X0282575Y0210189D02*
X0321281Y0210189D01*
X0320792Y0209699D02*
X0288508Y0209699D01*
X0276697Y0197888D01*
X0273548Y0197888D01*
X0268823Y0193164D01*
X0197563Y0193164D01*
X0194414Y0190014D01*
X0193301Y0188901D01*
X0193301Y0187027D01*
X0192442Y0186672D01*
X0191092Y0185321D01*
X0190361Y0183557D01*
X0190361Y0181648D01*
X0191092Y0179883D01*
X0192442Y0178533D01*
X0193261Y0178194D01*
X0193261Y0172130D01*
X0200701Y0164691D01*
X0200361Y0163872D01*
X0200361Y0161963D01*
X0201092Y0160198D01*
X0202442Y0158848D01*
X0204207Y0158117D01*
X0206116Y0158117D01*
X0207880Y0158848D01*
X0209231Y0160198D01*
X0209961Y0161963D01*
X0209961Y0163872D01*
X0209231Y0165636D01*
X0207880Y0166987D01*
X0206116Y0167717D01*
X0204207Y0167717D01*
X0203388Y0167378D01*
X0197061Y0173704D01*
X0197061Y0178194D01*
X0197880Y0178533D01*
X0199231Y0179883D01*
X0199961Y0181648D01*
X0199961Y0183557D01*
X0199231Y0185321D01*
X0197880Y0186672D01*
X0197101Y0186995D01*
X0197101Y0187327D01*
X0199137Y0189364D01*
X0270397Y0189364D01*
X0271510Y0190477D01*
X0275122Y0194088D01*
X0278271Y0194088D01*
X0279384Y0195201D01*
X0290082Y0205899D01*
X0319679Y0205899D01*
X0319679Y0203075D01*
X0320792Y0201962D01*
X0333390Y0189364D01*
X0378142Y0189364D01*
X0380963Y0186543D01*
X0380901Y0186480D01*
X0380901Y0182504D01*
X0383713Y0179692D01*
X0387689Y0179692D01*
X0390501Y0182504D01*
X0390501Y0186480D01*
X0387689Y0189292D01*
X0383713Y0189292D01*
X0383650Y0189230D01*
X0380829Y0192051D01*
X0379716Y0193164D01*
X0334964Y0193164D01*
X0323479Y0204649D01*
X0323479Y0207012D01*
X0329355Y0212889D01*
X0330007Y0212889D01*
X0331030Y0213313D01*
X0331813Y0214096D01*
X0332237Y0215119D01*
X0332237Y0216227D01*
X0331813Y0217250D01*
X0331030Y0218034D01*
X0330007Y0218457D01*
X0328899Y0218457D01*
X0327876Y0218034D01*
X0327092Y0217250D01*
X0326669Y0216227D01*
X0326669Y0215576D01*
X0320792Y0209699D01*
X0322280Y0211187D02*
X0139725Y0211187D01*
X0138727Y0212186D02*
X0323278Y0212186D01*
X0324277Y0213184D02*
X0137728Y0213184D01*
X0136730Y0214183D02*
X0325275Y0214183D01*
X0326274Y0215181D02*
X0135731Y0215181D01*
X0136058Y0216122D02*
X0146469Y0216122D01*
X0147114Y0216767D01*
X0147114Y0227178D01*
X0146469Y0227822D01*
X0136058Y0227822D01*
X0135414Y0227178D01*
X0135414Y0216767D01*
X0136058Y0216122D01*
X0136001Y0216180D02*
X0134733Y0216180D01*
X0135414Y0217178D02*
X0133734Y0217178D01*
X0132736Y0218177D02*
X0135414Y0218177D01*
X0135414Y0219175D02*
X0131737Y0219175D01*
X0130739Y0220174D02*
X0135414Y0220174D01*
X0135414Y0221172D02*
X0130578Y0221172D01*
X0130578Y0220335D02*
X0130578Y0246838D01*
X0139486Y0255747D01*
X0140100Y0255493D01*
X0142427Y0255493D01*
X0144578Y0256383D01*
X0146223Y0258029D01*
X0147114Y0260179D01*
X0147114Y0262506D01*
X0146223Y0264656D01*
X0144578Y0266302D01*
X0142427Y0267193D01*
X0140100Y0267193D01*
X0137950Y0266302D01*
X0136304Y0264656D01*
X0135414Y0262506D01*
X0135414Y0260179D01*
X0135668Y0259565D01*
X0125589Y0249486D01*
X0125178Y0248494D01*
X0125178Y0218679D01*
X0125589Y0217687D01*
X0139762Y0203514D01*
X0140522Y0202754D01*
X0141514Y0202343D01*
X0149201Y0202343D01*
X0154287Y0197257D01*
X0154163Y0197132D01*
X0153432Y0195368D01*
X0153432Y0193459D01*
X0154163Y0191694D01*
X0155513Y0190344D01*
X0157277Y0189613D01*
X0159187Y0189613D01*
X0160951Y0190344D01*
X0162302Y0191694D01*
X0163032Y0193459D01*
X0163032Y0195368D01*
X0162302Y0197132D01*
X0160951Y0198483D01*
X0160519Y0198662D01*
X0159762Y0199419D01*
X0151848Y0207332D01*
X0150856Y0207743D01*
X0143170Y0207743D01*
X0130578Y0220335D01*
X0130578Y0222171D02*
X0135414Y0222171D01*
X0135414Y0223170D02*
X0130578Y0223170D01*
X0130578Y0224168D02*
X0135414Y0224168D01*
X0135414Y0225167D02*
X0130578Y0225167D01*
X0130578Y0226165D02*
X0135414Y0226165D01*
X0135414Y0227164D02*
X0130578Y0227164D01*
X0130578Y0228162D02*
X0349506Y0228162D01*
X0349506Y0228147D02*
X0348084Y0226725D01*
X0347009Y0226725D01*
X0345986Y0226301D01*
X0345203Y0225518D01*
X0344779Y0224495D01*
X0344779Y0223387D01*
X0345203Y0222364D01*
X0345986Y0221581D01*
X0347009Y0221157D01*
X0348117Y0221157D01*
X0349140Y0221581D01*
X0349923Y0222364D01*
X0350347Y0223387D01*
X0350347Y0224462D01*
X0351769Y0225884D01*
X0352706Y0226822D01*
X0352706Y0246900D01*
X0363580Y0257774D01*
X0370745Y0257774D01*
X0373221Y0260249D01*
X0373378Y0260092D01*
X0377023Y0260092D01*
X0379601Y0262670D01*
X0379601Y0266315D01*
X0377023Y0268892D01*
X0373378Y0268892D01*
X0370801Y0266315D01*
X0370801Y0262670D01*
X0370958Y0262512D01*
X0369420Y0260974D01*
X0367905Y0260974D01*
X0369601Y0262670D01*
X0369601Y0266315D01*
X0367023Y0268892D01*
X0363378Y0268892D01*
X0360801Y0266315D01*
X0360801Y0262670D01*
X0360958Y0262512D01*
X0345963Y0247517D01*
X0345963Y0236121D01*
X0345203Y0235361D01*
X0344779Y0234337D01*
X0344779Y0233230D01*
X0345203Y0232206D01*
X0345986Y0231423D01*
X0347009Y0230999D01*
X0348117Y0230999D01*
X0349140Y0231423D01*
X0349506Y0231789D01*
X0349506Y0228147D01*
X0349506Y0229161D02*
X0130578Y0229161D01*
X0130578Y0230159D02*
X0349506Y0230159D01*
X0349506Y0231158D02*
X0348499Y0231158D01*
X0346627Y0231158D02*
X0130578Y0231158D01*
X0130578Y0232156D02*
X0345253Y0232156D01*
X0344810Y0233155D02*
X0130578Y0233155D01*
X0130578Y0234153D02*
X0344779Y0234153D01*
X0345116Y0235152D02*
X0130578Y0235152D01*
X0130578Y0236150D02*
X0138306Y0236150D01*
X0137988Y0236312D02*
X0138865Y0235865D01*
X0139800Y0235561D01*
X0140764Y0235409D01*
X0140764Y0241157D01*
X0141764Y0241157D01*
X0141764Y0235409D01*
X0142727Y0235561D01*
X0143663Y0235865D01*
X0144539Y0236312D01*
X0145335Y0236890D01*
X0146031Y0237586D01*
X0146609Y0238382D01*
X0147056Y0239258D01*
X0147360Y0240194D01*
X0147512Y0241157D01*
X0141764Y0241157D01*
X0141764Y0242157D01*
X0147512Y0242157D01*
X0147360Y0243121D01*
X0147056Y0244057D01*
X0146609Y0244933D01*
X0146031Y0245729D01*
X0145335Y0246425D01*
X0144539Y0247003D01*
X0143663Y0247450D01*
X0142727Y0247754D01*
X0141764Y0247906D01*
X0141764Y0242158D01*
X0140764Y0242158D01*
X0140764Y0247906D01*
X0139800Y0247754D01*
X0138865Y0247450D01*
X0137988Y0247003D01*
X0137192Y0246425D01*
X0136497Y0245729D01*
X0135918Y0244933D01*
X0135472Y0244057D01*
X0135168Y0243121D01*
X0135015Y0242157D01*
X0140764Y0242157D01*
X0140764Y0241157D01*
X0135015Y0241157D01*
X0135168Y0240194D01*
X0135472Y0239258D01*
X0135918Y0238382D01*
X0136497Y0237586D01*
X0137192Y0236890D01*
X0137988Y0236312D01*
X0136934Y0237149D02*
X0130578Y0237149D01*
X0130578Y0238147D02*
X0136089Y0238147D01*
X0135529Y0239146D02*
X0130578Y0239146D01*
X0130578Y0240144D02*
X0135184Y0240144D01*
X0135017Y0241143D02*
X0130578Y0241143D01*
X0130578Y0242141D02*
X0140764Y0242141D01*
X0140764Y0241143D02*
X0141764Y0241143D01*
X0141764Y0242141D02*
X0345963Y0242141D01*
X0345963Y0241143D02*
X0147510Y0241143D01*
X0147344Y0240144D02*
X0345963Y0240144D01*
X0345963Y0239146D02*
X0146998Y0239146D01*
X0146439Y0238147D02*
X0345963Y0238147D01*
X0345963Y0237149D02*
X0145594Y0237149D01*
X0144222Y0236150D02*
X0345963Y0236150D01*
X0347563Y0233783D02*
X0347563Y0246854D01*
X0365201Y0264492D01*
X0368044Y0261113D02*
X0369559Y0261113D01*
X0369043Y0262111D02*
X0370557Y0262111D01*
X0370801Y0263110D02*
X0369601Y0263110D01*
X0369601Y0264108D02*
X0370801Y0264108D01*
X0370801Y0265107D02*
X0369601Y0265107D01*
X0369601Y0266105D02*
X0370801Y0266105D01*
X0371590Y0267104D02*
X0368811Y0267104D01*
X0367813Y0268103D02*
X0372589Y0268103D01*
X0375201Y0264492D02*
X0370083Y0259374D01*
X0362917Y0259374D01*
X0351106Y0247563D01*
X0351106Y0227484D01*
X0347563Y0223941D01*
X0345057Y0225167D02*
X0147114Y0225167D01*
X0147114Y0226165D02*
X0345850Y0226165D01*
X0344779Y0224168D02*
X0147114Y0224168D01*
X0147114Y0223170D02*
X0344869Y0223170D01*
X0345395Y0222171D02*
X0147114Y0222171D01*
X0147114Y0221172D02*
X0346971Y0221172D01*
X0348155Y0221172D02*
X0359739Y0221172D01*
X0359635Y0221069D02*
X0358905Y0219305D01*
X0358905Y0217396D01*
X0359635Y0215631D01*
X0360986Y0214281D01*
X0362750Y0213550D01*
X0364659Y0213550D01*
X0366424Y0214281D01*
X0367774Y0215631D01*
X0368505Y0217396D01*
X0368505Y0219305D01*
X0367774Y0221069D01*
X0366424Y0222420D01*
X0364659Y0223150D01*
X0362750Y0223150D01*
X0360986Y0222420D01*
X0359635Y0221069D01*
X0359265Y0220174D02*
X0147114Y0220174D01*
X0147114Y0219175D02*
X0358905Y0219175D01*
X0358905Y0218177D02*
X0330684Y0218177D01*
X0331843Y0217178D02*
X0358995Y0217178D01*
X0359408Y0216180D02*
X0332237Y0216180D01*
X0332237Y0215181D02*
X0360085Y0215181D01*
X0361223Y0214183D02*
X0331849Y0214183D01*
X0330720Y0213184D02*
X0361755Y0213184D01*
X0361709Y0213169D02*
X0360979Y0212798D01*
X0360317Y0212317D01*
X0359738Y0211738D01*
X0359257Y0211076D01*
X0358886Y0210346D01*
X0358633Y0209568D01*
X0358519Y0208850D01*
X0363205Y0208850D01*
X0363205Y0207850D01*
X0364205Y0207850D01*
X0364205Y0208850D01*
X0368890Y0208850D01*
X0368777Y0209568D01*
X0368524Y0210346D01*
X0368152Y0211076D01*
X0367671Y0211738D01*
X0367092Y0212317D01*
X0366430Y0212798D01*
X0365701Y0213169D01*
X0364922Y0213422D01*
X0364205Y0213536D01*
X0364205Y0208850D01*
X0363205Y0208850D01*
X0363205Y0213536D01*
X0362487Y0213422D01*
X0361709Y0213169D01*
X0363205Y0213184D02*
X0364205Y0213184D01*
X0364205Y0212186D02*
X0363205Y0212186D01*
X0363205Y0211187D02*
X0364205Y0211187D01*
X0364205Y0210189D02*
X0363205Y0210189D01*
X0363205Y0209190D02*
X0364205Y0209190D01*
X0364205Y0208192D02*
X0377829Y0208192D01*
X0378243Y0209190D02*
X0368836Y0209190D01*
X0368575Y0210189D02*
X0379239Y0210189D01*
X0380238Y0211187D02*
X0368071Y0211187D01*
X0367223Y0212186D02*
X0382167Y0212186D01*
X0388392Y0212186D02*
X0392906Y0212186D01*
X0392906Y0211187D02*
X0390321Y0211187D01*
X0391320Y0210189D02*
X0392906Y0210189D01*
X0392906Y0209190D02*
X0392316Y0209190D01*
X0392730Y0208192D02*
X0392906Y0208192D01*
X0392262Y0213184D02*
X0365655Y0213184D01*
X0366187Y0214183D02*
X0391264Y0214183D01*
X0390265Y0215181D02*
X0367324Y0215181D01*
X0368001Y0216180D02*
X0389267Y0216180D01*
X0388268Y0217178D02*
X0368415Y0217178D01*
X0368505Y0218177D02*
X0387270Y0218177D01*
X0386271Y0219175D02*
X0368505Y0219175D01*
X0368145Y0220174D02*
X0385273Y0220174D01*
X0384274Y0221172D02*
X0367671Y0221172D01*
X0366672Y0222171D02*
X0383276Y0222171D01*
X0382906Y0223170D02*
X0350257Y0223170D01*
X0350347Y0224168D02*
X0361259Y0224168D01*
X0360986Y0224281D02*
X0362750Y0223550D01*
X0364659Y0223550D01*
X0366424Y0224281D01*
X0367774Y0225631D01*
X0368505Y0227396D01*
X0368505Y0229305D01*
X0367774Y0231069D01*
X0366424Y0232420D01*
X0364659Y0233150D01*
X0362750Y0233150D01*
X0360986Y0232420D01*
X0359635Y0231069D01*
X0358905Y0229305D01*
X0358905Y0227396D01*
X0359635Y0225631D01*
X0360986Y0224281D01*
X0360100Y0225167D02*
X0351051Y0225167D01*
X0352050Y0226165D02*
X0359414Y0226165D01*
X0359001Y0227164D02*
X0352706Y0227164D01*
X0352706Y0228162D02*
X0358905Y0228162D01*
X0358905Y0229161D02*
X0352706Y0229161D01*
X0352706Y0230159D02*
X0359258Y0230159D01*
X0359724Y0231158D02*
X0352706Y0231158D01*
X0352706Y0232156D02*
X0360722Y0232156D01*
X0361295Y0234153D02*
X0352706Y0234153D01*
X0352706Y0233155D02*
X0382906Y0233155D01*
X0382906Y0234153D02*
X0366115Y0234153D01*
X0366424Y0234281D02*
X0367774Y0235631D01*
X0368505Y0237396D01*
X0368505Y0239305D01*
X0367774Y0241069D01*
X0366424Y0242420D01*
X0364659Y0243150D01*
X0362750Y0243150D01*
X0360986Y0242420D01*
X0359635Y0241069D01*
X0358905Y0239305D01*
X0358905Y0237396D01*
X0359635Y0235631D01*
X0360986Y0234281D01*
X0362750Y0233550D01*
X0364659Y0233550D01*
X0366424Y0234281D01*
X0367294Y0235152D02*
X0382906Y0235152D01*
X0382906Y0236150D02*
X0367989Y0236150D01*
X0368402Y0237149D02*
X0382906Y0237149D01*
X0382906Y0238147D02*
X0368505Y0238147D01*
X0368505Y0239146D02*
X0382906Y0239146D01*
X0382906Y0240144D02*
X0368157Y0240144D01*
X0367701Y0241143D02*
X0382906Y0241143D01*
X0382906Y0242141D02*
X0366702Y0242141D01*
X0366079Y0244138D02*
X0382906Y0244138D01*
X0382906Y0243140D02*
X0364685Y0243140D01*
X0364659Y0243550D02*
X0366424Y0244281D01*
X0367774Y0245631D01*
X0368505Y0247396D01*
X0368505Y0249305D01*
X0367774Y0251069D01*
X0366424Y0252420D01*
X0364659Y0253150D01*
X0362750Y0253150D01*
X0360986Y0252420D01*
X0359635Y0251069D01*
X0358905Y0249305D01*
X0358905Y0247396D01*
X0359635Y0245631D01*
X0360986Y0244281D01*
X0362750Y0243550D01*
X0364659Y0243550D01*
X0362724Y0243140D02*
X0352706Y0243140D01*
X0352706Y0244138D02*
X0361331Y0244138D01*
X0360130Y0245137D02*
X0352706Y0245137D01*
X0352706Y0246135D02*
X0359427Y0246135D01*
X0359013Y0247134D02*
X0352940Y0247134D01*
X0353938Y0248132D02*
X0358905Y0248132D01*
X0358905Y0249131D02*
X0354937Y0249131D01*
X0355935Y0250129D02*
X0359246Y0250129D01*
X0359694Y0251128D02*
X0356934Y0251128D01*
X0357932Y0252126D02*
X0360692Y0252126D01*
X0358931Y0253125D02*
X0362688Y0253125D01*
X0364721Y0253125D02*
X0382906Y0253125D01*
X0382906Y0254123D02*
X0359929Y0254123D01*
X0360928Y0255122D02*
X0382906Y0255122D01*
X0382906Y0256120D02*
X0361926Y0256120D01*
X0362925Y0257119D02*
X0382906Y0257119D01*
X0382906Y0258117D02*
X0371089Y0258117D01*
X0372087Y0259116D02*
X0382906Y0259116D01*
X0382906Y0260114D02*
X0377046Y0260114D01*
X0378044Y0261113D02*
X0382906Y0261113D01*
X0382906Y0262111D02*
X0379043Y0262111D01*
X0379601Y0263110D02*
X0382906Y0263110D01*
X0382906Y0264108D02*
X0379601Y0264108D01*
X0379601Y0265107D02*
X0382906Y0265107D01*
X0382906Y0266105D02*
X0379601Y0266105D01*
X0378811Y0267104D02*
X0382906Y0267104D01*
X0382344Y0268103D02*
X0377813Y0268103D01*
X0380347Y0270100D02*
X0119266Y0270100D01*
X0118560Y0269101D02*
X0227021Y0269101D01*
X0227213Y0269292D02*
X0224401Y0266480D01*
X0224401Y0264976D01*
X0228716Y0264976D01*
X0228716Y0264008D01*
X0224401Y0264008D01*
X0224401Y0262504D01*
X0227213Y0259692D01*
X0228717Y0259692D01*
X0228717Y0264008D01*
X0229685Y0264008D01*
X0229685Y0264976D01*
X0234001Y0264976D01*
X0234001Y0266480D01*
X0231189Y0269292D01*
X0229685Y0269292D01*
X0229685Y0264976D01*
X0228717Y0264976D01*
X0228717Y0269292D01*
X0227213Y0269292D01*
X0228717Y0269101D02*
X0229685Y0269101D01*
X0229685Y0268103D02*
X0228717Y0268103D01*
X0228717Y0267104D02*
X0229685Y0267104D01*
X0229685Y0266105D02*
X0228717Y0266105D01*
X0228717Y0265107D02*
X0229685Y0265107D01*
X0229685Y0264108D02*
X0234801Y0264108D01*
X0234001Y0264008D02*
X0234001Y0262504D01*
X0231189Y0259692D01*
X0229685Y0259692D01*
X0229685Y0264008D01*
X0234001Y0264008D01*
X0234001Y0263110D02*
X0234801Y0263110D01*
X0234801Y0262670D02*
X0237378Y0260092D01*
X0241023Y0260092D01*
X0243601Y0262670D01*
X0243601Y0266315D01*
X0241023Y0268892D01*
X0237378Y0268892D01*
X0234801Y0266315D01*
X0234801Y0262670D01*
X0235359Y0262111D02*
X0233608Y0262111D01*
X0232610Y0261113D02*
X0236357Y0261113D01*
X0237356Y0260114D02*
X0231611Y0260114D01*
X0229685Y0260114D02*
X0228717Y0260114D01*
X0228717Y0261113D02*
X0229685Y0261113D01*
X0229685Y0262111D02*
X0228717Y0262111D01*
X0228717Y0263110D02*
X0229685Y0263110D01*
X0228716Y0264108D02*
X0223601Y0264108D01*
X0223601Y0263110D02*
X0224401Y0263110D01*
X0223601Y0262670D02*
X0221023Y0260092D01*
X0217378Y0260092D01*
X0214801Y0262670D01*
X0214801Y0266315D01*
X0217378Y0268892D01*
X0221023Y0268892D01*
X0223601Y0266315D01*
X0223601Y0262670D01*
X0223043Y0262111D02*
X0224793Y0262111D01*
X0225792Y0261113D02*
X0222044Y0261113D01*
X0221046Y0260114D02*
X0226790Y0260114D01*
X0224401Y0265107D02*
X0223601Y0265107D01*
X0223601Y0266105D02*
X0224401Y0266105D01*
X0225024Y0267104D02*
X0222811Y0267104D01*
X0221813Y0268103D02*
X0226023Y0268103D01*
X0231380Y0269101D02*
X0381346Y0269101D01*
X0379349Y0271098D02*
X0120339Y0271098D01*
X0122577Y0272097D02*
X0378350Y0272097D01*
X0373356Y0260114D02*
X0373086Y0260114D01*
X0366717Y0252126D02*
X0382906Y0252126D01*
X0382906Y0251128D02*
X0367715Y0251128D01*
X0368163Y0250129D02*
X0382906Y0250129D01*
X0382906Y0249131D02*
X0368505Y0249131D01*
X0368505Y0248132D02*
X0382906Y0248132D01*
X0382906Y0247134D02*
X0368396Y0247134D01*
X0367983Y0246135D02*
X0382906Y0246135D01*
X0382906Y0245137D02*
X0367279Y0245137D01*
X0360707Y0242141D02*
X0352706Y0242141D01*
X0352706Y0241143D02*
X0359709Y0241143D01*
X0359252Y0240144D02*
X0352706Y0240144D01*
X0352706Y0239146D02*
X0358905Y0239146D01*
X0358905Y0238147D02*
X0352706Y0238147D01*
X0352706Y0237149D02*
X0359007Y0237149D01*
X0359421Y0236150D02*
X0352706Y0236150D01*
X0352706Y0235152D02*
X0360115Y0235152D01*
X0366687Y0232156D02*
X0382906Y0232156D01*
X0382906Y0231158D02*
X0367686Y0231158D01*
X0368151Y0230159D02*
X0382906Y0230159D01*
X0382906Y0229161D02*
X0368505Y0229161D01*
X0368505Y0228162D02*
X0382906Y0228162D01*
X0382906Y0227164D02*
X0368409Y0227164D01*
X0367995Y0226165D02*
X0382906Y0226165D01*
X0382906Y0225167D02*
X0367309Y0225167D01*
X0366151Y0224168D02*
X0382906Y0224168D01*
X0368890Y0207850D02*
X0364205Y0207850D01*
X0364205Y0203165D01*
X0364205Y0198850D01*
X0368890Y0198850D01*
X0368777Y0199568D01*
X0368524Y0200346D01*
X0368152Y0201076D01*
X0367671Y0201738D01*
X0367092Y0202317D01*
X0366430Y0202798D01*
X0365701Y0203169D01*
X0365144Y0203350D01*
X0365701Y0203531D01*
X0366430Y0203903D01*
X0367092Y0204384D01*
X0367671Y0204963D01*
X0368152Y0205625D01*
X0368524Y0206354D01*
X0368777Y0207133D01*
X0368890Y0207850D01*
X0368786Y0207193D02*
X0377415Y0207193D01*
X0377002Y0206195D02*
X0368442Y0206195D01*
X0367841Y0205196D02*
X0376980Y0205196D01*
X0376980Y0204198D02*
X0366836Y0204198D01*
X0365609Y0203199D02*
X0376980Y0203199D01*
X0377246Y0202201D02*
X0367208Y0202201D01*
X0368060Y0201202D02*
X0377659Y0201202D01*
X0378073Y0200204D02*
X0368570Y0200204D01*
X0368834Y0199205D02*
X0378830Y0199205D01*
X0379828Y0198207D02*
X0364205Y0198207D01*
X0364205Y0197850D02*
X0364205Y0198850D01*
X0363205Y0198850D01*
X0363205Y0197850D01*
X0364205Y0197850D01*
X0368890Y0197850D01*
X0368777Y0197133D01*
X0368524Y0196354D01*
X0368152Y0195625D01*
X0367671Y0194963D01*
X0367092Y0194384D01*
X0366430Y0193903D01*
X0365701Y0193531D01*
X0364922Y0193278D01*
X0364205Y0193165D01*
X0364205Y0197850D01*
X0364205Y0197208D02*
X0363205Y0197208D01*
X0363205Y0197850D02*
X0363205Y0193165D01*
X0362487Y0193278D01*
X0361709Y0193531D01*
X0360979Y0193903D01*
X0360317Y0194384D01*
X0359738Y0194963D01*
X0359257Y0195625D01*
X0358886Y0196354D01*
X0358633Y0197133D01*
X0358519Y0197850D01*
X0363205Y0197850D01*
X0363205Y0198207D02*
X0329921Y0198207D01*
X0328923Y0199205D02*
X0358575Y0199205D01*
X0358519Y0198850D02*
X0363205Y0198850D01*
X0363205Y0207850D01*
X0358519Y0207850D01*
X0358633Y0207133D01*
X0358886Y0206354D01*
X0359257Y0205625D01*
X0359738Y0204963D01*
X0360317Y0204384D01*
X0360979Y0203903D01*
X0361709Y0203531D01*
X0362266Y0203350D01*
X0361709Y0203169D01*
X0360979Y0202798D01*
X0360317Y0202317D01*
X0359738Y0201738D01*
X0359257Y0201076D01*
X0358886Y0200346D01*
X0358633Y0199568D01*
X0358519Y0198850D01*
X0358839Y0200204D02*
X0327924Y0200204D01*
X0326926Y0201202D02*
X0359349Y0201202D01*
X0360201Y0202201D02*
X0325927Y0202201D01*
X0324929Y0203199D02*
X0361801Y0203199D01*
X0363205Y0203199D02*
X0364205Y0203199D01*
X0364205Y0202201D02*
X0363205Y0202201D01*
X0363205Y0201202D02*
X0364205Y0201202D01*
X0364205Y0200204D02*
X0363205Y0200204D01*
X0363205Y0199205D02*
X0364205Y0199205D01*
X0364205Y0196210D02*
X0363205Y0196210D01*
X0363205Y0195211D02*
X0364205Y0195211D01*
X0364205Y0194213D02*
X0363205Y0194213D01*
X0363205Y0193214D02*
X0364205Y0193214D01*
X0364517Y0193214D02*
X0392906Y0193214D01*
X0392906Y0192216D02*
X0380664Y0192216D01*
X0381663Y0191217D02*
X0392906Y0191217D01*
X0392906Y0190219D02*
X0382661Y0190219D01*
X0380283Y0187223D02*
X0379758Y0187223D01*
X0380501Y0186480D02*
X0377689Y0189292D01*
X0373713Y0189292D01*
X0370901Y0186480D01*
X0370901Y0182504D01*
X0371437Y0181968D01*
X0364617Y0175147D01*
X0343357Y0175147D01*
X0319735Y0151525D01*
X0299407Y0151525D01*
X0290108Y0160824D01*
X0290108Y0165549D01*
X0289717Y0165939D01*
X0289717Y0167014D01*
X0289293Y0168038D01*
X0288510Y0168821D01*
X0287487Y0169245D01*
X0286379Y0169245D01*
X0285356Y0168821D01*
X0284573Y0168038D01*
X0284149Y0167014D01*
X0284149Y0165907D01*
X0284457Y0165164D01*
X0283809Y0164895D01*
X0283809Y0167273D01*
X0284569Y0168033D01*
X0284993Y0169056D01*
X0284993Y0170164D01*
X0284569Y0171187D01*
X0283786Y0171971D01*
X0282762Y0172394D01*
X0281655Y0172394D01*
X0280632Y0171971D01*
X0279848Y0171187D01*
X0279424Y0170164D01*
X0279424Y0169056D01*
X0279848Y0168033D01*
X0280609Y0167273D01*
X0280609Y0160680D01*
X0281546Y0159743D01*
X0296062Y0145226D01*
X0281546Y0145226D01*
X0280609Y0144289D01*
X0273522Y0137202D01*
X0273522Y0131297D01*
X0253443Y0111218D01*
X0253443Y0078892D01*
X0253378Y0078892D01*
X0250801Y0076315D01*
X0250801Y0072670D01*
X0253378Y0070092D01*
X0257023Y0070092D01*
X0259601Y0072670D01*
X0259601Y0076315D01*
X0257023Y0078892D01*
X0256643Y0078892D01*
X0256643Y0109892D01*
X0275785Y0129034D01*
X0276722Y0129971D01*
X0276722Y0135877D01*
X0282871Y0142026D01*
X0322635Y0142026D01*
X0342789Y0162179D01*
X0342836Y0162132D01*
X0343860Y0161708D01*
X0344967Y0161708D01*
X0345991Y0162132D01*
X0346774Y0162915D01*
X0347198Y0163938D01*
X0347198Y0165046D01*
X0346774Y0166069D01*
X0345991Y0166852D01*
X0344967Y0167276D01*
X0344736Y0167276D01*
X0345470Y0168010D01*
X0372431Y0168010D01*
X0370901Y0166480D01*
X0370901Y0162504D01*
X0373713Y0159692D01*
X0377689Y0159692D01*
X0380501Y0162504D01*
X0380501Y0166480D01*
X0378971Y0168010D01*
X0381690Y0168010D01*
X0382628Y0168947D01*
X0383542Y0169862D01*
X0383713Y0169692D01*
X0387689Y0169692D01*
X0390501Y0172504D01*
X0390501Y0176480D01*
X0387689Y0179292D01*
X0383713Y0179292D01*
X0380901Y0176480D01*
X0380901Y0172504D01*
X0381280Y0172125D01*
X0380365Y0171210D01*
X0379207Y0171210D01*
X0380501Y0172504D01*
X0380501Y0176480D01*
X0377689Y0179292D01*
X0373713Y0179292D01*
X0370901Y0176480D01*
X0370901Y0176092D01*
X0370087Y0176092D01*
X0373700Y0179705D01*
X0373713Y0179692D01*
X0377689Y0179692D01*
X0380501Y0182504D01*
X0380501Y0186480D01*
X0380501Y0186225D02*
X0380901Y0186225D01*
X0380901Y0185226D02*
X0380501Y0185226D01*
X0380501Y0184228D02*
X0380901Y0184228D01*
X0380901Y0183229D02*
X0380501Y0183229D01*
X0380227Y0182231D02*
X0381174Y0182231D01*
X0382173Y0181232D02*
X0379229Y0181232D01*
X0378230Y0180234D02*
X0383171Y0180234D01*
X0383655Y0179235D02*
X0377746Y0179235D01*
X0378745Y0178237D02*
X0382657Y0178237D01*
X0381658Y0177238D02*
X0379743Y0177238D01*
X0380501Y0176239D02*
X0380901Y0176239D01*
X0380901Y0175241D02*
X0380501Y0175241D01*
X0380501Y0174242D02*
X0380901Y0174242D01*
X0380901Y0173244D02*
X0380501Y0173244D01*
X0380242Y0172245D02*
X0381159Y0172245D01*
X0380402Y0171247D02*
X0379244Y0171247D01*
X0381028Y0169610D02*
X0344807Y0169610D01*
X0321185Y0145988D01*
X0297563Y0145988D01*
X0282209Y0161343D01*
X0282209Y0169610D01*
X0283122Y0172245D02*
X0320072Y0172245D01*
X0320072Y0171247D02*
X0284509Y0171247D01*
X0284958Y0170248D02*
X0320072Y0170248D01*
X0320072Y0169250D02*
X0284993Y0169250D01*
X0284786Y0168251D02*
X0284659Y0168251D01*
X0284248Y0167253D02*
X0283809Y0167253D01*
X0283809Y0166254D02*
X0284149Y0166254D01*
X0284418Y0165256D02*
X0283809Y0165256D01*
X0285358Y0162524D02*
X0285358Y0160555D01*
X0297957Y0147957D01*
X0320791Y0147957D01*
X0344413Y0171579D01*
X0365673Y0171579D01*
X0368587Y0174492D01*
X0375701Y0174492D01*
X0371658Y0177238D02*
X0371233Y0177238D01*
X0370901Y0176239D02*
X0370234Y0176239D01*
X0372232Y0178237D02*
X0372657Y0178237D01*
X0373230Y0179235D02*
X0373655Y0179235D01*
X0370702Y0181232D02*
X0323872Y0181232D01*
X0323872Y0180234D02*
X0369703Y0180234D01*
X0368705Y0179235D02*
X0323872Y0179235D01*
X0323872Y0178237D02*
X0332289Y0178237D01*
X0332442Y0178300D02*
X0331419Y0177876D01*
X0330659Y0177116D01*
X0323872Y0177116D01*
X0323872Y0197169D01*
X0322759Y0198282D01*
X0316460Y0204581D01*
X0305831Y0204581D01*
X0304718Y0203468D01*
X0302385Y0201135D01*
X0301734Y0201135D01*
X0300710Y0200711D01*
X0299927Y0199928D01*
X0299503Y0198904D01*
X0299503Y0197797D01*
X0299927Y0196773D01*
X0300710Y0195990D01*
X0301734Y0195566D01*
X0302841Y0195566D01*
X0303865Y0195990D01*
X0304648Y0196773D01*
X0305072Y0197797D01*
X0305072Y0198448D01*
X0307405Y0200781D01*
X0314886Y0200781D01*
X0320072Y0195595D01*
X0320072Y0166854D01*
X0310359Y0157140D01*
X0301766Y0157140D01*
X0301305Y0157601D01*
X0300282Y0158024D01*
X0299175Y0158024D01*
X0298151Y0157601D01*
X0297368Y0156817D01*
X0296944Y0155794D01*
X0296944Y0154686D01*
X0297368Y0153663D01*
X0298151Y0152880D01*
X0299175Y0152456D01*
X0300282Y0152456D01*
X0301305Y0152880D01*
X0301766Y0153340D01*
X0311933Y0153340D01*
X0313046Y0154453D01*
X0323872Y0165280D01*
X0323872Y0173916D01*
X0330659Y0173916D01*
X0331419Y0173155D01*
X0332442Y0172731D01*
X0333550Y0172731D01*
X0334573Y0173155D01*
X0335356Y0173939D01*
X0335780Y0174962D01*
X0335780Y0176070D01*
X0335356Y0177093D01*
X0334573Y0177876D01*
X0333550Y0178300D01*
X0332442Y0178300D01*
X0333703Y0178237D02*
X0367706Y0178237D01*
X0366708Y0177238D02*
X0335211Y0177238D01*
X0335710Y0176239D02*
X0365709Y0176239D01*
X0364711Y0175241D02*
X0335780Y0175241D01*
X0335482Y0174242D02*
X0342452Y0174242D01*
X0341454Y0173244D02*
X0334662Y0173244D01*
X0332996Y0175516D02*
X0321972Y0175516D01*
X0320072Y0175241D02*
X0275535Y0175241D01*
X0274537Y0174242D02*
X0320072Y0174242D01*
X0320072Y0173244D02*
X0273538Y0173244D01*
X0272785Y0172245D02*
X0281295Y0172245D01*
X0279908Y0171247D02*
X0272785Y0171247D01*
X0272785Y0170248D02*
X0279459Y0170248D01*
X0279424Y0169250D02*
X0272785Y0169250D01*
X0272785Y0168251D02*
X0279758Y0168251D01*
X0280609Y0167253D02*
X0272785Y0167253D01*
X0272785Y0166254D02*
X0280609Y0166254D01*
X0280609Y0165256D02*
X0272785Y0165256D01*
X0272785Y0164257D02*
X0280609Y0164257D01*
X0280609Y0163259D02*
X0272785Y0163259D01*
X0272785Y0162260D02*
X0280609Y0162260D01*
X0280609Y0161262D02*
X0272785Y0161262D01*
X0272785Y0160263D02*
X0281025Y0160263D01*
X0282024Y0159265D02*
X0272785Y0159265D01*
X0272785Y0158266D02*
X0283022Y0158266D01*
X0284021Y0157268D02*
X0272785Y0157268D01*
X0272785Y0156269D02*
X0285019Y0156269D01*
X0286018Y0155271D02*
X0272785Y0155271D01*
X0272785Y0154272D02*
X0287016Y0154272D01*
X0288015Y0153274D02*
X0272785Y0153274D01*
X0272785Y0152275D02*
X0289013Y0152275D01*
X0290012Y0151277D02*
X0272785Y0151277D01*
X0272785Y0150278D02*
X0291010Y0150278D01*
X0292009Y0149280D02*
X0272785Y0149280D01*
X0272785Y0148281D02*
X0293007Y0148281D01*
X0294006Y0147283D02*
X0272785Y0147283D01*
X0272785Y0146284D02*
X0295004Y0146284D01*
X0296003Y0145286D02*
X0272785Y0145286D01*
X0272785Y0144287D02*
X0280607Y0144287D01*
X0279609Y0143289D02*
X0272785Y0143289D01*
X0272785Y0142290D02*
X0278610Y0142290D01*
X0277612Y0141292D02*
X0272785Y0141292D01*
X0272785Y0140293D02*
X0276613Y0140293D01*
X0275615Y0139295D02*
X0272785Y0139295D01*
X0272785Y0138296D02*
X0274616Y0138296D01*
X0273617Y0137298D02*
X0272785Y0137298D01*
X0272785Y0136299D02*
X0273522Y0136299D01*
X0273522Y0135301D02*
X0272785Y0135301D01*
X0272785Y0134302D02*
X0273522Y0134302D01*
X0273522Y0133303D02*
X0272785Y0133303D01*
X0272785Y0132305D02*
X0273522Y0132305D01*
X0273522Y0131306D02*
X0272546Y0131306D01*
X0272533Y0130308D02*
X0271547Y0130308D01*
X0271535Y0129309D02*
X0270549Y0129309D01*
X0270536Y0128311D02*
X0269550Y0128311D01*
X0269538Y0127312D02*
X0268552Y0127312D01*
X0268539Y0126314D02*
X0267553Y0126314D01*
X0267541Y0125315D02*
X0266555Y0125315D01*
X0266542Y0124317D02*
X0265556Y0124317D01*
X0265544Y0123318D02*
X0264557Y0123318D01*
X0264545Y0122320D02*
X0263559Y0122320D01*
X0263547Y0121321D02*
X0262560Y0121321D01*
X0262548Y0120323D02*
X0261562Y0120323D01*
X0261550Y0119324D02*
X0260563Y0119324D01*
X0260551Y0118326D02*
X0259565Y0118326D01*
X0259553Y0117327D02*
X0258566Y0117327D01*
X0258554Y0116329D02*
X0257568Y0116329D01*
X0257556Y0115330D02*
X0256569Y0115330D01*
X0256557Y0114332D02*
X0255571Y0114332D01*
X0255559Y0113333D02*
X0254572Y0113333D01*
X0254560Y0112335D02*
X0253574Y0112335D01*
X0253562Y0111336D02*
X0252575Y0111336D01*
X0253443Y0110338D02*
X0251577Y0110338D01*
X0250578Y0109339D02*
X0253443Y0109339D01*
X0253443Y0108341D02*
X0249580Y0108341D01*
X0248581Y0107342D02*
X0253443Y0107342D01*
X0253443Y0106344D02*
X0247583Y0106344D01*
X0246584Y0105345D02*
X0253443Y0105345D01*
X0253443Y0104347D02*
X0245586Y0104347D01*
X0244587Y0103348D02*
X0253443Y0103348D01*
X0253443Y0102350D02*
X0243589Y0102350D01*
X0242590Y0101351D02*
X0253443Y0101351D01*
X0253443Y0100353D02*
X0241592Y0100353D01*
X0240593Y0099354D02*
X0253443Y0099354D01*
X0253443Y0098356D02*
X0239595Y0098356D01*
X0238596Y0097357D02*
X0253443Y0097357D01*
X0253443Y0096359D02*
X0237598Y0096359D01*
X0236599Y0095360D02*
X0253443Y0095360D01*
X0253443Y0094362D02*
X0235601Y0094362D01*
X0234602Y0093363D02*
X0253443Y0093363D01*
X0253443Y0092365D02*
X0233604Y0092365D01*
X0232605Y0091366D02*
X0253443Y0091366D01*
X0253443Y0090368D02*
X0231607Y0090368D01*
X0230608Y0089369D02*
X0253443Y0089369D01*
X0253443Y0088370D02*
X0229610Y0088370D01*
X0228611Y0087372D02*
X0253443Y0087372D01*
X0253443Y0086373D02*
X0227613Y0086373D01*
X0226614Y0085375D02*
X0253443Y0085375D01*
X0253443Y0084376D02*
X0225616Y0084376D01*
X0225541Y0083378D02*
X0253443Y0083378D01*
X0253443Y0082379D02*
X0225541Y0082379D01*
X0225541Y0081381D02*
X0253443Y0081381D01*
X0253443Y0080382D02*
X0225541Y0080382D01*
X0225541Y0079384D02*
X0253443Y0079384D01*
X0252872Y0078385D02*
X0247530Y0078385D01*
X0247023Y0078892D02*
X0243378Y0078892D01*
X0240801Y0076315D01*
X0240801Y0072670D01*
X0243378Y0070092D01*
X0247023Y0070092D01*
X0249601Y0072670D01*
X0249601Y0076315D01*
X0247023Y0078892D01*
X0248529Y0077387D02*
X0251873Y0077387D01*
X0250874Y0076388D02*
X0249527Y0076388D01*
X0249601Y0075390D02*
X0250801Y0075390D01*
X0250801Y0074391D02*
X0249601Y0074391D01*
X0249601Y0073393D02*
X0250801Y0073393D01*
X0251076Y0072394D02*
X0249325Y0072394D01*
X0248327Y0071396D02*
X0252075Y0071396D01*
X0253073Y0070397D02*
X0247328Y0070397D01*
X0243073Y0070397D02*
X0237328Y0070397D01*
X0237023Y0070092D02*
X0239601Y0072670D01*
X0239601Y0076315D01*
X0237023Y0078892D01*
X0233378Y0078892D01*
X0230801Y0076315D01*
X0230801Y0072670D01*
X0233378Y0070092D01*
X0237023Y0070092D01*
X0238327Y0071396D02*
X0242075Y0071396D01*
X0241076Y0072394D02*
X0239325Y0072394D01*
X0239601Y0073393D02*
X0240801Y0073393D01*
X0240801Y0074391D02*
X0239601Y0074391D01*
X0239601Y0075390D02*
X0240801Y0075390D01*
X0240874Y0076388D02*
X0239527Y0076388D01*
X0238529Y0077387D02*
X0241873Y0077387D01*
X0242872Y0078385D02*
X0237530Y0078385D01*
X0232872Y0078385D02*
X0225541Y0078385D01*
X0225541Y0077387D02*
X0231873Y0077387D01*
X0230874Y0076388D02*
X0225541Y0076388D01*
X0225541Y0075390D02*
X0230801Y0075390D01*
X0230801Y0074391D02*
X0225541Y0074391D01*
X0225541Y0073393D02*
X0230801Y0073393D01*
X0231076Y0072394D02*
X0225541Y0072394D01*
X0225541Y0071396D02*
X0232075Y0071396D01*
X0233073Y0070397D02*
X0225541Y0070397D01*
X0225541Y0069399D02*
X0263380Y0069399D01*
X0263380Y0068400D02*
X0225541Y0068400D01*
X0225541Y0067402D02*
X0263380Y0067402D01*
X0263380Y0066403D02*
X0225541Y0066403D01*
X0225541Y0065405D02*
X0263380Y0065405D01*
X0263380Y0064406D02*
X0225541Y0064406D01*
X0225541Y0063408D02*
X0263380Y0063408D01*
X0263380Y0062409D02*
X0225541Y0062409D01*
X0225541Y0061411D02*
X0263380Y0061411D01*
X0263380Y0060412D02*
X0225541Y0060412D01*
X0225541Y0059414D02*
X0263380Y0059414D01*
X0263380Y0058415D02*
X0226375Y0058415D01*
X0227374Y0057417D02*
X0263380Y0057417D01*
X0263380Y0056418D02*
X0228372Y0056418D01*
X0227878Y0054650D02*
X0223941Y0058587D01*
X0223941Y0084965D01*
X0271185Y0132209D01*
X0271185Y0173154D01*
X0278862Y0180831D01*
X0279875Y0178237D02*
X0320072Y0178237D01*
X0320072Y0179235D02*
X0281204Y0179235D01*
X0281628Y0180234D02*
X0320072Y0180234D01*
X0320072Y0181232D02*
X0281646Y0181232D01*
X0281296Y0182231D02*
X0320072Y0182231D01*
X0320072Y0183229D02*
X0316988Y0183229D01*
X0317986Y0184228D02*
X0320072Y0184228D01*
X0320072Y0185226D02*
X0318985Y0185226D01*
X0319635Y0186225D02*
X0320072Y0186225D01*
X0320072Y0187223D02*
X0319635Y0187223D01*
X0319635Y0188222D02*
X0320072Y0188222D01*
X0320072Y0189220D02*
X0319635Y0189220D01*
X0319375Y0190219D02*
X0320072Y0190219D01*
X0320072Y0191217D02*
X0318376Y0191217D01*
X0317378Y0192216D02*
X0320072Y0192216D01*
X0320072Y0193214D02*
X0314511Y0193214D01*
X0313193Y0194213D02*
X0320072Y0194213D01*
X0320072Y0195211D02*
X0313536Y0195211D01*
X0313511Y0196210D02*
X0319458Y0196210D01*
X0318459Y0197208D02*
X0313076Y0197208D01*
X0311721Y0198207D02*
X0317461Y0198207D01*
X0316462Y0199205D02*
X0305829Y0199205D01*
X0305072Y0198207D02*
X0309783Y0198207D01*
X0308428Y0197208D02*
X0304828Y0197208D01*
X0304084Y0196210D02*
X0307993Y0196210D01*
X0307909Y0195211D02*
X0279394Y0195211D01*
X0280139Y0194213D02*
X0278396Y0194213D01*
X0279140Y0193214D02*
X0274248Y0193214D01*
X0274599Y0192216D02*
X0273249Y0192216D01*
X0273600Y0191217D02*
X0272251Y0191217D01*
X0272602Y0190219D02*
X0271252Y0190219D01*
X0271603Y0189220D02*
X0198994Y0189220D01*
X0197995Y0188222D02*
X0270605Y0188222D01*
X0269606Y0187223D02*
X0226549Y0187223D01*
X0226116Y0187402D02*
X0227880Y0186672D01*
X0229231Y0185321D01*
X0229961Y0183557D01*
X0229961Y0181648D01*
X0229231Y0179883D01*
X0227944Y0178597D01*
X0251037Y0178597D01*
X0251498Y0179057D01*
X0252521Y0179481D01*
X0253629Y0179481D01*
X0254652Y0179057D01*
X0255435Y0178274D01*
X0255859Y0177251D01*
X0255859Y0176143D01*
X0255435Y0175120D01*
X0254652Y0174336D01*
X0253629Y0173913D01*
X0252521Y0173913D01*
X0251498Y0174336D01*
X0251037Y0174797D01*
X0226559Y0174797D01*
X0235683Y0165673D01*
X0235683Y0152288D01*
X0234570Y0151175D01*
X0230633Y0147238D01*
X0213901Y0147238D01*
X0203400Y0136737D01*
X0203400Y0133459D01*
X0203860Y0132998D01*
X0204284Y0131975D01*
X0204284Y0130867D01*
X0203860Y0129844D01*
X0203077Y0129061D01*
X0202054Y0128637D01*
X0200946Y0128637D01*
X0199923Y0129061D01*
X0199140Y0129844D01*
X0198716Y0130867D01*
X0198716Y0131975D01*
X0199140Y0132998D01*
X0199600Y0133459D01*
X0199600Y0138311D01*
X0211214Y0149925D01*
X0212327Y0151038D01*
X0229059Y0151038D01*
X0231883Y0153862D01*
X0231883Y0164099D01*
X0221185Y0174797D01*
X0216343Y0174797D01*
X0215230Y0175910D01*
X0213261Y0177878D01*
X0213261Y0178194D01*
X0212442Y0178533D01*
X0211092Y0179883D01*
X0210361Y0181648D01*
X0210361Y0183557D01*
X0211092Y0185321D01*
X0212442Y0186672D01*
X0214207Y0187402D01*
X0216116Y0187402D01*
X0217880Y0186672D01*
X0219231Y0185321D01*
X0219961Y0183557D01*
X0219961Y0181648D01*
X0219231Y0179883D01*
X0217944Y0178597D01*
X0222379Y0178597D01*
X0221092Y0179883D01*
X0220361Y0181648D01*
X0220361Y0183557D01*
X0221092Y0185321D01*
X0222442Y0186672D01*
X0224207Y0187402D01*
X0226116Y0187402D01*
X0223774Y0187223D02*
X0216549Y0187223D01*
X0218327Y0186225D02*
X0221995Y0186225D01*
X0221053Y0185226D02*
X0219270Y0185226D01*
X0219684Y0184228D02*
X0220639Y0184228D01*
X0220361Y0183229D02*
X0219961Y0183229D01*
X0219961Y0182231D02*
X0220361Y0182231D01*
X0220534Y0181232D02*
X0219789Y0181232D01*
X0219376Y0180234D02*
X0220947Y0180234D01*
X0221741Y0179235D02*
X0218582Y0179235D01*
X0214900Y0176239D02*
X0197061Y0176239D01*
X0197061Y0175241D02*
X0215899Y0175241D01*
X0213902Y0177238D02*
X0197061Y0177238D01*
X0197164Y0178237D02*
X0202324Y0178237D01*
X0202436Y0178155D02*
X0203165Y0177783D01*
X0203944Y0177530D01*
X0204661Y0177417D01*
X0204661Y0182102D01*
X0199976Y0182102D01*
X0200089Y0181385D01*
X0200342Y0180606D01*
X0200714Y0179877D01*
X0201195Y0179215D01*
X0201774Y0178636D01*
X0202436Y0178155D01*
X0201180Y0179235D02*
X0198582Y0179235D01*
X0199376Y0180234D02*
X0200532Y0180234D01*
X0200139Y0181232D02*
X0199789Y0181232D01*
X0199961Y0182231D02*
X0204661Y0182231D01*
X0204661Y0182102D02*
X0204661Y0183102D01*
X0199976Y0183102D01*
X0200089Y0183820D01*
X0200342Y0184598D01*
X0200714Y0185328D01*
X0201195Y0185990D01*
X0201774Y0186569D01*
X0202436Y0187050D01*
X0203165Y0187421D01*
X0203944Y0187674D01*
X0204661Y0187788D01*
X0204661Y0183102D01*
X0205661Y0183102D01*
X0205661Y0187788D01*
X0206379Y0187674D01*
X0207158Y0187421D01*
X0207887Y0187050D01*
X0208549Y0186569D01*
X0209128Y0185990D01*
X0209609Y0185328D01*
X0209980Y0184598D01*
X0210233Y0183820D01*
X0210347Y0183102D01*
X0205661Y0183102D01*
X0205661Y0182102D01*
X0205661Y0177417D01*
X0206379Y0177530D01*
X0207158Y0177783D01*
X0207887Y0178155D01*
X0208549Y0178636D01*
X0209128Y0179215D01*
X0209609Y0179877D01*
X0209980Y0180606D01*
X0210233Y0181385D01*
X0210347Y0182102D01*
X0205661Y0182102D01*
X0204661Y0182102D01*
X0204661Y0181232D02*
X0205661Y0181232D01*
X0205661Y0180234D02*
X0204661Y0180234D01*
X0204661Y0179235D02*
X0205661Y0179235D01*
X0205661Y0178237D02*
X0204661Y0178237D01*
X0207999Y0178237D02*
X0213159Y0178237D01*
X0211741Y0179235D02*
X0209142Y0179235D01*
X0209791Y0180234D02*
X0210947Y0180234D01*
X0210534Y0181232D02*
X0210184Y0181232D01*
X0210361Y0182231D02*
X0205661Y0182231D01*
X0205661Y0183229D02*
X0204661Y0183229D01*
X0204661Y0184228D02*
X0205661Y0184228D01*
X0205661Y0185226D02*
X0204661Y0185226D01*
X0204661Y0186225D02*
X0205661Y0186225D01*
X0205661Y0187223D02*
X0204661Y0187223D01*
X0202776Y0187223D02*
X0197101Y0187223D01*
X0198327Y0186225D02*
X0201430Y0186225D01*
X0200662Y0185226D02*
X0199270Y0185226D01*
X0199684Y0184228D02*
X0200222Y0184228D01*
X0199996Y0183229D02*
X0199961Y0183229D01*
X0193301Y0187223D02*
X0183974Y0187223D01*
X0182976Y0186225D02*
X0191995Y0186225D01*
X0191053Y0185226D02*
X0182234Y0185226D01*
X0182234Y0184228D02*
X0190639Y0184228D01*
X0190361Y0183229D02*
X0182234Y0183229D01*
X0182234Y0182231D02*
X0190361Y0182231D01*
X0190534Y0181232D02*
X0182234Y0181232D01*
X0182234Y0180234D02*
X0190947Y0180234D01*
X0191741Y0179235D02*
X0182234Y0179235D01*
X0182234Y0178237D02*
X0193159Y0178237D01*
X0193261Y0177238D02*
X0182234Y0177238D01*
X0182234Y0176239D02*
X0193261Y0176239D01*
X0193261Y0175241D02*
X0182234Y0175241D01*
X0182234Y0174242D02*
X0193261Y0174242D01*
X0193261Y0173244D02*
X0182234Y0173244D01*
X0182234Y0172245D02*
X0193261Y0172245D01*
X0194145Y0171247D02*
X0182234Y0171247D01*
X0182234Y0170248D02*
X0195143Y0170248D01*
X0196142Y0169250D02*
X0182234Y0169250D01*
X0182234Y0168251D02*
X0197140Y0168251D01*
X0197237Y0167253D02*
X0198139Y0167253D01*
X0197880Y0166987D02*
X0196116Y0167717D01*
X0194207Y0167717D01*
X0192442Y0166987D01*
X0191092Y0165636D01*
X0190361Y0163872D01*
X0190361Y0161963D01*
X0191092Y0160198D01*
X0192442Y0158848D01*
X0194207Y0158117D01*
X0196116Y0158117D01*
X0197880Y0158848D01*
X0199231Y0160198D01*
X0199961Y0161963D01*
X0199961Y0163872D01*
X0199231Y0165636D01*
X0197880Y0166987D01*
X0198613Y0166254D02*
X0199137Y0166254D01*
X0199388Y0165256D02*
X0200136Y0165256D01*
X0199802Y0164257D02*
X0200521Y0164257D01*
X0200361Y0163259D02*
X0199961Y0163259D01*
X0199961Y0162260D02*
X0200361Y0162260D01*
X0200652Y0161262D02*
X0199671Y0161262D01*
X0199258Y0160263D02*
X0201065Y0160263D01*
X0202026Y0159265D02*
X0198297Y0159265D01*
X0196476Y0158266D02*
X0203847Y0158266D01*
X0206476Y0158266D02*
X0212836Y0158266D01*
X0213165Y0158098D02*
X0213944Y0157845D01*
X0214661Y0157732D01*
X0214661Y0162417D01*
X0209976Y0162417D01*
X0210089Y0161700D01*
X0210342Y0160921D01*
X0210714Y0160192D01*
X0211195Y0159530D01*
X0211774Y0158951D01*
X0212436Y0158470D01*
X0213165Y0158098D01*
X0214661Y0158266D02*
X0215661Y0158266D01*
X0215661Y0157732D02*
X0216379Y0157845D01*
X0217158Y0158098D01*
X0217887Y0158470D01*
X0218549Y0158951D01*
X0219128Y0159530D01*
X0219609Y0160192D01*
X0219980Y0160921D01*
X0220233Y0161700D01*
X0220347Y0162417D01*
X0215661Y0162417D01*
X0215661Y0157732D01*
X0215661Y0159265D02*
X0214661Y0159265D01*
X0214661Y0160263D02*
X0215661Y0160263D01*
X0215661Y0161262D02*
X0214661Y0161262D01*
X0214661Y0162260D02*
X0215661Y0162260D01*
X0215661Y0162417D02*
X0214661Y0162417D01*
X0214661Y0163417D01*
X0209976Y0163417D01*
X0210089Y0164135D01*
X0210342Y0164913D01*
X0210714Y0165643D01*
X0211195Y0166305D01*
X0211774Y0166884D01*
X0212436Y0167365D01*
X0213165Y0167736D01*
X0213944Y0167989D01*
X0214661Y0168103D01*
X0214661Y0163417D01*
X0215661Y0163417D01*
X0215661Y0168103D01*
X0216379Y0167989D01*
X0217158Y0167736D01*
X0217887Y0167365D01*
X0218549Y0166884D01*
X0219128Y0166305D01*
X0219609Y0165643D01*
X0219980Y0164913D01*
X0220233Y0164135D01*
X0220347Y0163417D01*
X0215661Y0163417D01*
X0215661Y0162417D01*
X0215661Y0163259D02*
X0220361Y0163259D01*
X0220361Y0163872D02*
X0220361Y0161963D01*
X0221092Y0160198D01*
X0222442Y0158848D01*
X0224207Y0158117D01*
X0226116Y0158117D01*
X0227880Y0158848D01*
X0229231Y0160198D01*
X0229961Y0161963D01*
X0229961Y0163872D01*
X0229231Y0165636D01*
X0227880Y0166987D01*
X0226116Y0167717D01*
X0224207Y0167717D01*
X0222442Y0166987D01*
X0221092Y0165636D01*
X0220361Y0163872D01*
X0220521Y0164257D02*
X0220194Y0164257D01*
X0219806Y0165256D02*
X0220935Y0165256D01*
X0221710Y0166254D02*
X0219164Y0166254D01*
X0218041Y0167253D02*
X0223085Y0167253D01*
X0225734Y0170248D02*
X0200517Y0170248D01*
X0201516Y0169250D02*
X0226732Y0169250D01*
X0227731Y0168251D02*
X0202514Y0168251D01*
X0199519Y0171247D02*
X0224735Y0171247D01*
X0223737Y0172245D02*
X0198520Y0172245D01*
X0197522Y0173244D02*
X0222738Y0173244D01*
X0221740Y0174242D02*
X0197061Y0174242D01*
X0193085Y0167253D02*
X0182234Y0167253D01*
X0182234Y0166254D02*
X0191710Y0166254D01*
X0190935Y0165256D02*
X0182234Y0165256D01*
X0182234Y0164257D02*
X0190521Y0164257D01*
X0190361Y0163259D02*
X0182234Y0163259D01*
X0182234Y0162260D02*
X0190361Y0162260D01*
X0190652Y0161262D02*
X0182234Y0161262D01*
X0182234Y0160263D02*
X0191065Y0160263D01*
X0192026Y0159265D02*
X0182234Y0159265D01*
X0182234Y0158266D02*
X0193847Y0158266D01*
X0182234Y0157268D02*
X0231883Y0157268D01*
X0231883Y0158266D02*
X0226476Y0158266D01*
X0228297Y0159265D02*
X0231883Y0159265D01*
X0231883Y0160263D02*
X0229258Y0160263D01*
X0229671Y0161262D02*
X0231883Y0161262D01*
X0231883Y0162260D02*
X0229961Y0162260D01*
X0229961Y0163259D02*
X0231883Y0163259D01*
X0231725Y0164257D02*
X0229802Y0164257D01*
X0229388Y0165256D02*
X0230726Y0165256D01*
X0229728Y0166254D02*
X0228613Y0166254D01*
X0228729Y0167253D02*
X0227237Y0167253D01*
X0231108Y0170248D02*
X0261711Y0170248D01*
X0261711Y0169250D02*
X0232106Y0169250D01*
X0233105Y0168251D02*
X0261711Y0168251D01*
X0261711Y0167253D02*
X0234103Y0167253D01*
X0235102Y0166254D02*
X0261711Y0166254D01*
X0261711Y0165256D02*
X0235683Y0165256D01*
X0235683Y0164257D02*
X0261711Y0164257D01*
X0261711Y0163259D02*
X0235683Y0163259D01*
X0235683Y0162260D02*
X0261711Y0162260D01*
X0261711Y0161262D02*
X0235683Y0161262D01*
X0235683Y0160263D02*
X0261711Y0160263D01*
X0261711Y0159265D02*
X0235683Y0159265D01*
X0235683Y0158266D02*
X0261711Y0158266D01*
X0261711Y0157268D02*
X0235683Y0157268D01*
X0235683Y0156269D02*
X0261711Y0156269D01*
X0261711Y0155271D02*
X0235683Y0155271D01*
X0235683Y0154272D02*
X0261711Y0154272D01*
X0261711Y0153274D02*
X0235683Y0153274D01*
X0235671Y0152275D02*
X0261711Y0152275D01*
X0261711Y0151277D02*
X0234672Y0151277D01*
X0233674Y0150278D02*
X0261711Y0150278D01*
X0261711Y0149280D02*
X0232675Y0149280D01*
X0231677Y0148281D02*
X0261711Y0148281D01*
X0261711Y0147283D02*
X0230678Y0147283D01*
X0229298Y0151277D02*
X0182234Y0151277D01*
X0182234Y0152275D02*
X0230297Y0152275D01*
X0231295Y0153274D02*
X0182234Y0153274D01*
X0182234Y0154272D02*
X0231883Y0154272D01*
X0231883Y0155271D02*
X0182234Y0155271D01*
X0182234Y0156269D02*
X0231883Y0156269D01*
X0223847Y0158266D02*
X0217487Y0158266D01*
X0218863Y0159265D02*
X0222026Y0159265D01*
X0221065Y0160263D02*
X0219645Y0160263D01*
X0220091Y0161262D02*
X0220652Y0161262D01*
X0220361Y0162260D02*
X0220322Y0162260D01*
X0215661Y0164257D02*
X0214661Y0164257D01*
X0214661Y0163259D02*
X0209961Y0163259D01*
X0209961Y0162260D02*
X0210001Y0162260D01*
X0210232Y0161262D02*
X0209671Y0161262D01*
X0209258Y0160263D02*
X0210678Y0160263D01*
X0211460Y0159265D02*
X0208297Y0159265D01*
X0209802Y0164257D02*
X0210129Y0164257D01*
X0210517Y0165256D02*
X0209388Y0165256D01*
X0208613Y0166254D02*
X0211158Y0166254D01*
X0212282Y0167253D02*
X0207237Y0167253D01*
X0214661Y0167253D02*
X0215661Y0167253D01*
X0215661Y0166254D02*
X0214661Y0166254D01*
X0214661Y0165256D02*
X0215661Y0165256D01*
X0227114Y0174242D02*
X0251725Y0174242D01*
X0254425Y0174242D02*
X0261711Y0174242D01*
X0261711Y0173244D02*
X0228112Y0173244D01*
X0229111Y0172245D02*
X0261711Y0172245D01*
X0261711Y0171247D02*
X0230109Y0171247D01*
X0228582Y0179235D02*
X0251927Y0179235D01*
X0254223Y0179235D02*
X0261711Y0179235D01*
X0261711Y0178237D02*
X0255451Y0178237D01*
X0255859Y0177238D02*
X0261711Y0177238D01*
X0261711Y0176239D02*
X0255859Y0176239D01*
X0255485Y0175241D02*
X0261711Y0175241D01*
X0263311Y0178665D02*
X0263311Y0134965D01*
X0216067Y0087720D01*
X0216067Y0063508D01*
X0211146Y0058587D01*
X0211146Y0052681D01*
X0213114Y0050713D01*
X0239689Y0050713D01*
X0243626Y0046776D01*
X0306974Y0046776D01*
X0317250Y0036500D01*
X0317250Y0029018D01*
X0317250Y0032250D01*
X0317250Y0028518D01*
X0322209Y0023559D01*
X0327009Y0023467D02*
X0327409Y0023467D01*
X0327409Y0022469D02*
X0327009Y0022469D01*
X0326908Y0021470D02*
X0327509Y0021470D01*
X0328508Y0020472D02*
X0325910Y0020472D01*
X0324911Y0019473D02*
X0329506Y0019473D01*
X0332209Y0023559D02*
X0327250Y0028518D01*
X0327250Y0029018D01*
X0327250Y0032250D01*
X0327250Y0036750D01*
X0313287Y0050713D01*
X0245594Y0050713D01*
X0241657Y0054650D01*
X0227878Y0054650D01*
X0221972Y0056618D02*
X0220988Y0055634D01*
X0221972Y0056618D02*
X0221972Y0085752D01*
X0269217Y0132996D01*
X0269217Y0176303D01*
X0277878Y0184965D01*
X0313311Y0184965D01*
X0313705Y0184571D01*
X0316067Y0184571D01*
X0318035Y0186539D01*
X0318035Y0189295D01*
X0316067Y0191264D01*
X0312524Y0191264D01*
X0314886Y0187720D02*
X0314098Y0186933D01*
X0276697Y0186933D01*
X0267248Y0177484D01*
X0267248Y0133783D01*
X0220004Y0086539D01*
X0220004Y0059571D01*
X0216067Y0055634D01*
X0213114Y0057602D02*
X0213114Y0053665D01*
X0214098Y0052681D01*
X0240673Y0052681D01*
X0244610Y0048744D01*
X0307524Y0048744D01*
X0321709Y0034559D01*
X0322209Y0034559D01*
X0324895Y0030457D02*
X0325650Y0030457D01*
X0325650Y0029458D02*
X0318850Y0029458D01*
X0318850Y0030457D02*
X0319523Y0030457D01*
X0319571Y0028460D02*
X0325650Y0028460D01*
X0326044Y0027461D02*
X0325095Y0027461D01*
X0326093Y0026463D02*
X0327042Y0026463D01*
X0327009Y0025464D02*
X0327409Y0025464D01*
X0327409Y0024466D02*
X0327009Y0024466D01*
X0329571Y0028460D02*
X0360309Y0028460D01*
X0360309Y0029458D02*
X0328850Y0029458D01*
X0328850Y0030457D02*
X0329523Y0030457D01*
X0332209Y0034559D02*
X0332209Y0051500D01*
X0334778Y0050427D02*
X0382906Y0050427D01*
X0382906Y0049429D02*
X0334075Y0049429D01*
X0333809Y0048430D02*
X0382906Y0048430D01*
X0382906Y0047432D02*
X0333809Y0047432D01*
X0333809Y0046433D02*
X0340093Y0046433D01*
X0340513Y0046607D02*
X0339490Y0046183D01*
X0338707Y0045400D01*
X0338283Y0044377D01*
X0338283Y0043269D01*
X0338707Y0042246D01*
X0339467Y0041485D01*
X0339467Y0038606D01*
X0337409Y0036547D01*
X0337409Y0032571D01*
X0340220Y0029759D01*
X0344197Y0029759D01*
X0347009Y0032571D01*
X0347009Y0036547D01*
X0344197Y0039359D01*
X0342667Y0039359D01*
X0342667Y0041485D01*
X0343427Y0042246D01*
X0343851Y0043269D01*
X0343851Y0044377D01*
X0343427Y0045400D01*
X0342644Y0046183D01*
X0341621Y0046607D01*
X0340513Y0046607D01*
X0342041Y0046433D02*
X0382906Y0046433D01*
X0382906Y0045434D02*
X0343393Y0045434D01*
X0343827Y0044436D02*
X0382906Y0044436D01*
X0382906Y0043437D02*
X0343851Y0043437D01*
X0343507Y0042439D02*
X0382906Y0042439D01*
X0382906Y0041440D02*
X0342667Y0041440D01*
X0342667Y0040442D02*
X0382906Y0040442D01*
X0382906Y0039443D02*
X0342667Y0039443D01*
X0341067Y0038902D02*
X0341067Y0036776D01*
X0341067Y0035701D01*
X0342209Y0034559D01*
X0347009Y0034451D02*
X0347409Y0034451D01*
X0347409Y0035449D02*
X0347009Y0035449D01*
X0347009Y0036448D02*
X0347409Y0036448D01*
X0347409Y0036547D02*
X0347409Y0032571D01*
X0350220Y0029759D01*
X0354197Y0029759D01*
X0357009Y0032571D01*
X0357009Y0036547D01*
X0354197Y0039359D01*
X0350220Y0039359D01*
X0347409Y0036547D01*
X0348308Y0037446D02*
X0346110Y0037446D01*
X0345111Y0038445D02*
X0349306Y0038445D01*
X0347409Y0033452D02*
X0347009Y0033452D01*
X0346892Y0032454D02*
X0347526Y0032454D01*
X0348524Y0031455D02*
X0345893Y0031455D01*
X0344895Y0030457D02*
X0349523Y0030457D01*
X0350220Y0028359D02*
X0347409Y0025547D01*
X0347409Y0021571D01*
X0350220Y0018759D01*
X0354197Y0018759D01*
X0357009Y0021571D01*
X0357009Y0025547D01*
X0354197Y0028359D01*
X0350220Y0028359D01*
X0349323Y0027461D02*
X0345095Y0027461D01*
X0344197Y0028359D02*
X0340220Y0028359D01*
X0337409Y0025547D01*
X0337409Y0021571D01*
X0339467Y0019513D01*
X0339467Y0016633D01*
X0338707Y0015872D01*
X0338283Y0014849D01*
X0338283Y0013741D01*
X0338707Y0012718D01*
X0339490Y0011935D01*
X0340513Y0011511D01*
X0341621Y0011511D01*
X0342644Y0011935D01*
X0343427Y0012718D01*
X0343851Y0013741D01*
X0343851Y0014849D01*
X0343427Y0015872D01*
X0342667Y0016633D01*
X0342667Y0018759D01*
X0344197Y0018759D01*
X0347009Y0021571D01*
X0347009Y0025547D01*
X0344197Y0028359D01*
X0346093Y0026463D02*
X0348324Y0026463D01*
X0347409Y0025464D02*
X0347009Y0025464D01*
X0347009Y0024466D02*
X0347409Y0024466D01*
X0347409Y0023467D02*
X0347009Y0023467D01*
X0347009Y0022469D02*
X0347409Y0022469D01*
X0347509Y0021470D02*
X0346908Y0021470D01*
X0345910Y0020472D02*
X0348508Y0020472D01*
X0349506Y0019473D02*
X0344911Y0019473D01*
X0342667Y0018475D02*
X0360309Y0018475D01*
X0360309Y0017476D02*
X0342667Y0017476D01*
X0342822Y0016478D02*
X0360309Y0016478D01*
X0360309Y0015479D02*
X0343590Y0015479D01*
X0343851Y0014481D02*
X0360309Y0014481D01*
X0360309Y0013482D02*
X0343744Y0013482D01*
X0343193Y0012484D02*
X0360309Y0012484D01*
X0360309Y0011485D02*
X0314874Y0011485D01*
X0314993Y0012484D02*
X0338941Y0012484D01*
X0338390Y0013482D02*
X0314744Y0013482D01*
X0313992Y0014481D02*
X0338283Y0014481D01*
X0338544Y0015479D02*
X0313809Y0015479D01*
X0313809Y0016478D02*
X0339312Y0016478D01*
X0339467Y0017476D02*
X0313809Y0017476D01*
X0313809Y0018475D02*
X0339467Y0018475D01*
X0339467Y0019473D02*
X0334911Y0019473D01*
X0335910Y0020472D02*
X0338508Y0020472D01*
X0337509Y0021470D02*
X0336908Y0021470D01*
X0337009Y0022469D02*
X0337409Y0022469D01*
X0337409Y0023467D02*
X0337009Y0023467D01*
X0337009Y0024466D02*
X0337409Y0024466D01*
X0337409Y0025464D02*
X0337009Y0025464D01*
X0336093Y0026463D02*
X0338324Y0026463D01*
X0339323Y0027461D02*
X0335095Y0027461D01*
X0334895Y0030457D02*
X0339523Y0030457D01*
X0338524Y0031455D02*
X0335893Y0031455D01*
X0336892Y0032454D02*
X0337526Y0032454D01*
X0337409Y0033452D02*
X0337009Y0033452D01*
X0337009Y0034451D02*
X0337409Y0034451D01*
X0337409Y0035449D02*
X0337009Y0035449D01*
X0337009Y0036448D02*
X0337409Y0036448D01*
X0338308Y0037446D02*
X0336110Y0037446D01*
X0335111Y0038445D02*
X0339306Y0038445D01*
X0339467Y0039443D02*
X0333809Y0039443D01*
X0333809Y0040442D02*
X0339467Y0040442D01*
X0339467Y0041440D02*
X0333809Y0041440D01*
X0333809Y0042439D02*
X0338626Y0042439D01*
X0338283Y0043437D02*
X0333809Y0043437D01*
X0333809Y0044436D02*
X0338307Y0044436D01*
X0338741Y0045434D02*
X0333809Y0045434D01*
X0330609Y0045434D02*
X0320828Y0045434D01*
X0321827Y0044436D02*
X0330609Y0044436D01*
X0330609Y0043437D02*
X0322825Y0043437D01*
X0323824Y0042439D02*
X0330609Y0042439D01*
X0330609Y0041440D02*
X0324822Y0041440D01*
X0325821Y0040442D02*
X0330609Y0040442D01*
X0330609Y0039443D02*
X0326819Y0039443D01*
X0327818Y0038445D02*
X0329306Y0038445D01*
X0341067Y0038902D02*
X0341067Y0043823D01*
X0330609Y0046433D02*
X0319830Y0046433D01*
X0318831Y0047432D02*
X0330609Y0047432D01*
X0330609Y0048430D02*
X0317833Y0048430D01*
X0316834Y0049429D02*
X0330343Y0049429D01*
X0329639Y0050427D02*
X0315836Y0050427D01*
X0314837Y0051426D02*
X0329424Y0051426D01*
X0329578Y0052424D02*
X0277622Y0052424D01*
X0277906Y0053423D02*
X0330194Y0053423D01*
X0334224Y0053423D02*
X0382906Y0053423D01*
X0382906Y0054421D02*
X0277823Y0054421D01*
X0277305Y0055420D02*
X0382906Y0055420D01*
X0382906Y0056418D02*
X0277022Y0056418D01*
X0277022Y0057417D02*
X0382906Y0057417D01*
X0382906Y0058415D02*
X0277022Y0058415D01*
X0277022Y0059414D02*
X0382906Y0059414D01*
X0382906Y0060412D02*
X0277022Y0060412D01*
X0277022Y0061411D02*
X0382906Y0061411D01*
X0382906Y0062409D02*
X0277022Y0062409D01*
X0277022Y0063408D02*
X0382906Y0063408D01*
X0382906Y0064406D02*
X0277022Y0064406D01*
X0277022Y0065405D02*
X0382906Y0065405D01*
X0382906Y0066403D02*
X0277022Y0066403D01*
X0277022Y0067402D02*
X0382906Y0067402D01*
X0382906Y0068400D02*
X0277022Y0068400D01*
X0277022Y0069399D02*
X0382906Y0069399D01*
X0382906Y0070397D02*
X0377328Y0070397D01*
X0377023Y0070092D02*
X0379601Y0072670D01*
X0379601Y0076315D01*
X0377023Y0078892D01*
X0373378Y0078892D01*
X0370801Y0076315D01*
X0370801Y0072670D01*
X0373378Y0070092D01*
X0377023Y0070092D01*
X0378327Y0071396D02*
X0382906Y0071396D01*
X0382906Y0072394D02*
X0379325Y0072394D01*
X0379601Y0073393D02*
X0382906Y0073393D01*
X0382906Y0074391D02*
X0379601Y0074391D01*
X0379601Y0075390D02*
X0382906Y0075390D01*
X0383851Y0076388D02*
X0379527Y0076388D01*
X0378529Y0077387D02*
X0384850Y0077387D01*
X0385848Y0078385D02*
X0377530Y0078385D01*
X0372872Y0078385D02*
X0367530Y0078385D01*
X0367023Y0078892D02*
X0363378Y0078892D01*
X0360801Y0076315D01*
X0360801Y0072670D01*
X0363378Y0070092D01*
X0367023Y0070092D01*
X0369601Y0072670D01*
X0369601Y0076315D01*
X0367023Y0078892D01*
X0368529Y0077387D02*
X0371873Y0077387D01*
X0370874Y0076388D02*
X0369527Y0076388D01*
X0369601Y0075390D02*
X0370801Y0075390D01*
X0370801Y0074391D02*
X0369601Y0074391D01*
X0369601Y0073393D02*
X0370801Y0073393D01*
X0371076Y0072394D02*
X0369325Y0072394D01*
X0368327Y0071396D02*
X0372075Y0071396D01*
X0373073Y0070397D02*
X0367328Y0070397D01*
X0363073Y0070397D02*
X0357328Y0070397D01*
X0357023Y0070092D02*
X0359601Y0072670D01*
X0359601Y0076315D01*
X0357023Y0078892D01*
X0353378Y0078892D01*
X0350801Y0076315D01*
X0350801Y0072670D01*
X0353378Y0070092D01*
X0357023Y0070092D01*
X0358327Y0071396D02*
X0362075Y0071396D01*
X0361076Y0072394D02*
X0359325Y0072394D01*
X0359601Y0073393D02*
X0360801Y0073393D01*
X0360801Y0074391D02*
X0359601Y0074391D01*
X0359601Y0075390D02*
X0360801Y0075390D01*
X0360874Y0076388D02*
X0359527Y0076388D01*
X0358529Y0077387D02*
X0361873Y0077387D01*
X0362872Y0078385D02*
X0357530Y0078385D01*
X0352872Y0078385D02*
X0347530Y0078385D01*
X0347023Y0078892D02*
X0343378Y0078892D01*
X0340801Y0076315D01*
X0340801Y0072670D01*
X0343378Y0070092D01*
X0347023Y0070092D01*
X0349601Y0072670D01*
X0349601Y0076315D01*
X0347023Y0078892D01*
X0348529Y0077387D02*
X0351873Y0077387D01*
X0350874Y0076388D02*
X0349527Y0076388D01*
X0349601Y0075390D02*
X0350801Y0075390D01*
X0350801Y0074391D02*
X0349601Y0074391D01*
X0349601Y0073393D02*
X0350801Y0073393D01*
X0351076Y0072394D02*
X0349325Y0072394D01*
X0348327Y0071396D02*
X0352075Y0071396D01*
X0353073Y0070397D02*
X0347328Y0070397D01*
X0343073Y0070397D02*
X0337328Y0070397D01*
X0337023Y0070092D02*
X0339601Y0072670D01*
X0339601Y0076315D01*
X0337023Y0078892D01*
X0333378Y0078892D01*
X0330801Y0076315D01*
X0330801Y0072670D01*
X0333378Y0070092D01*
X0337023Y0070092D01*
X0338327Y0071396D02*
X0342075Y0071396D01*
X0341076Y0072394D02*
X0339325Y0072394D01*
X0339601Y0073393D02*
X0340801Y0073393D01*
X0340801Y0074391D02*
X0339601Y0074391D01*
X0339601Y0075390D02*
X0340801Y0075390D01*
X0340874Y0076388D02*
X0339527Y0076388D01*
X0338529Y0077387D02*
X0341873Y0077387D01*
X0342872Y0078385D02*
X0337530Y0078385D01*
X0332872Y0078385D02*
X0327530Y0078385D01*
X0327023Y0078892D02*
X0323378Y0078892D01*
X0320801Y0076315D01*
X0320801Y0072670D01*
X0323378Y0070092D01*
X0327023Y0070092D01*
X0329601Y0072670D01*
X0329601Y0076315D01*
X0327023Y0078892D01*
X0328529Y0077387D02*
X0331873Y0077387D01*
X0330874Y0076388D02*
X0329527Y0076388D01*
X0329601Y0075390D02*
X0330801Y0075390D01*
X0330801Y0074391D02*
X0329601Y0074391D01*
X0329601Y0073393D02*
X0330801Y0073393D01*
X0331076Y0072394D02*
X0329325Y0072394D01*
X0328327Y0071396D02*
X0332075Y0071396D01*
X0333073Y0070397D02*
X0327328Y0070397D01*
X0323073Y0070397D02*
X0307328Y0070397D01*
X0307023Y0070092D02*
X0309601Y0072670D01*
X0309601Y0076315D01*
X0307023Y0078892D01*
X0303378Y0078892D01*
X0300801Y0076315D01*
X0300801Y0072670D01*
X0303378Y0070092D01*
X0307023Y0070092D01*
X0308327Y0071396D02*
X0322075Y0071396D01*
X0321076Y0072394D02*
X0309325Y0072394D01*
X0309601Y0073393D02*
X0320801Y0073393D01*
X0320801Y0074391D02*
X0309601Y0074391D01*
X0309601Y0075390D02*
X0320801Y0075390D01*
X0320874Y0076388D02*
X0309527Y0076388D01*
X0308529Y0077387D02*
X0321873Y0077387D01*
X0322872Y0078385D02*
X0307530Y0078385D01*
X0302872Y0078385D02*
X0298096Y0078385D01*
X0297189Y0079292D02*
X0300001Y0076480D01*
X0300001Y0074976D01*
X0295685Y0074976D01*
X0295685Y0074008D01*
X0300001Y0074008D01*
X0300001Y0072504D01*
X0297189Y0069692D01*
X0295685Y0069692D01*
X0295685Y0074008D01*
X0294717Y0074008D01*
X0294717Y0069692D01*
X0293213Y0069692D01*
X0290401Y0072504D01*
X0290401Y0074008D01*
X0294716Y0074008D01*
X0294716Y0074976D01*
X0290401Y0074976D01*
X0290401Y0076480D01*
X0293213Y0079292D01*
X0294717Y0079292D01*
X0294717Y0074976D01*
X0295685Y0074976D01*
X0295685Y0079292D01*
X0297189Y0079292D01*
X0295685Y0078385D02*
X0294717Y0078385D01*
X0294717Y0077387D02*
X0295685Y0077387D01*
X0295685Y0076388D02*
X0294717Y0076388D01*
X0294717Y0075390D02*
X0295685Y0075390D01*
X0295685Y0074391D02*
X0300801Y0074391D01*
X0300801Y0073393D02*
X0300001Y0073393D01*
X0299891Y0072394D02*
X0301076Y0072394D01*
X0302075Y0071396D02*
X0298893Y0071396D01*
X0297894Y0070397D02*
X0303073Y0070397D01*
X0300801Y0075390D02*
X0300001Y0075390D01*
X0300001Y0076388D02*
X0300874Y0076388D01*
X0301873Y0077387D02*
X0299094Y0077387D01*
X0294716Y0074391D02*
X0285685Y0074391D01*
X0285685Y0074008D02*
X0285685Y0074976D01*
X0290001Y0074976D01*
X0290001Y0076480D01*
X0287189Y0079292D01*
X0285685Y0079292D01*
X0285685Y0074976D01*
X0284717Y0074976D01*
X0284716Y0074976D02*
X0284716Y0074008D01*
X0280401Y0074008D01*
X0280401Y0072504D01*
X0283213Y0069692D01*
X0284717Y0069692D01*
X0284717Y0074008D01*
X0285685Y0074008D01*
X0290001Y0074008D01*
X0290001Y0072504D01*
X0287189Y0069692D01*
X0285685Y0069692D01*
X0285685Y0074008D01*
X0285685Y0073393D02*
X0284717Y0073393D01*
X0284716Y0074391D02*
X0279601Y0074391D01*
X0280401Y0074976D02*
X0284716Y0074976D01*
X0284717Y0074976D02*
X0284717Y0079292D01*
X0283213Y0079292D01*
X0280401Y0076480D01*
X0280401Y0074976D01*
X0280401Y0075390D02*
X0279601Y0075390D01*
X0279527Y0076388D02*
X0280401Y0076388D01*
X0281307Y0077387D02*
X0278529Y0077387D01*
X0277530Y0078385D02*
X0282306Y0078385D01*
X0284717Y0078385D02*
X0285685Y0078385D01*
X0285685Y0077387D02*
X0284717Y0077387D01*
X0284717Y0076388D02*
X0285685Y0076388D01*
X0285685Y0075390D02*
X0284717Y0075390D01*
X0284717Y0072394D02*
X0285685Y0072394D01*
X0285685Y0071396D02*
X0284717Y0071396D01*
X0284717Y0070397D02*
X0285685Y0070397D01*
X0287894Y0070397D02*
X0292507Y0070397D01*
X0291509Y0071396D02*
X0288893Y0071396D01*
X0289891Y0072394D02*
X0290510Y0072394D01*
X0290401Y0073393D02*
X0290001Y0073393D01*
X0290001Y0075390D02*
X0290401Y0075390D01*
X0290401Y0076388D02*
X0290001Y0076388D01*
X0289094Y0077387D02*
X0291307Y0077387D01*
X0292306Y0078385D02*
X0288096Y0078385D01*
X0294717Y0073393D02*
X0295685Y0073393D01*
X0295685Y0072394D02*
X0294717Y0072394D01*
X0294717Y0071396D02*
X0295685Y0071396D01*
X0295685Y0070397D02*
X0294717Y0070397D01*
X0282507Y0070397D02*
X0277328Y0070397D01*
X0278327Y0071396D02*
X0281509Y0071396D01*
X0280510Y0072394D02*
X0279325Y0072394D01*
X0279601Y0073393D02*
X0280401Y0073393D01*
X0273073Y0070397D02*
X0267328Y0070397D01*
X0267180Y0069399D02*
X0273222Y0069399D01*
X0273222Y0068400D02*
X0267180Y0068400D01*
X0267180Y0067402D02*
X0273222Y0067402D01*
X0273222Y0066403D02*
X0267180Y0066403D01*
X0267180Y0065405D02*
X0273222Y0065405D01*
X0273222Y0064406D02*
X0267180Y0064406D01*
X0267180Y0063408D02*
X0273222Y0063408D01*
X0273222Y0062409D02*
X0267180Y0062409D01*
X0267180Y0061411D02*
X0273222Y0061411D01*
X0273222Y0060412D02*
X0267180Y0060412D01*
X0267180Y0059414D02*
X0273222Y0059414D01*
X0273222Y0058415D02*
X0267180Y0058415D01*
X0267180Y0057417D02*
X0273222Y0057417D01*
X0273222Y0056418D02*
X0267180Y0056418D01*
X0267463Y0055420D02*
X0272939Y0055420D01*
X0272421Y0054421D02*
X0267980Y0054421D01*
X0268064Y0053423D02*
X0272338Y0053423D01*
X0272623Y0052424D02*
X0267779Y0052424D01*
X0262780Y0052424D02*
X0246146Y0052424D01*
X0245147Y0053423D02*
X0262495Y0053423D01*
X0262579Y0054421D02*
X0244149Y0054421D01*
X0243150Y0055420D02*
X0263096Y0055420D01*
X0276723Y0045176D02*
X0306312Y0045176D01*
X0312128Y0039359D01*
X0310220Y0039359D01*
X0307409Y0036547D01*
X0307409Y0032571D01*
X0307683Y0032296D01*
X0306587Y0031200D01*
X0305650Y0030263D01*
X0305650Y0026906D01*
X0304197Y0028359D01*
X0300220Y0028359D01*
X0297409Y0025547D01*
X0297409Y0021571D01*
X0300220Y0018759D01*
X0304197Y0018759D01*
X0305650Y0020212D01*
X0305650Y0010530D01*
X0304890Y0009770D01*
X0304466Y0008747D01*
X0304466Y0007639D01*
X0304890Y0006616D01*
X0305153Y0006353D01*
X0288704Y0006353D01*
X0282928Y0012130D01*
X0282928Y0021116D01*
X0283388Y0021576D01*
X0283812Y0022600D01*
X0283812Y0023707D01*
X0283388Y0024731D01*
X0282605Y0025514D01*
X0281581Y0025938D01*
X0280474Y0025938D01*
X0279450Y0025514D01*
X0278667Y0024731D01*
X0278243Y0023707D01*
X0278243Y0022600D01*
X0278667Y0021576D01*
X0279128Y0021116D01*
X0279128Y0010556D01*
X0285888Y0003795D01*
X0270262Y0003795D01*
X0277022Y0010556D01*
X0277022Y0028990D01*
X0277482Y0029450D01*
X0277906Y0030474D01*
X0277906Y0031581D01*
X0277482Y0032605D01*
X0277022Y0033065D01*
X0277022Y0040801D01*
X0277482Y0041261D01*
X0277906Y0042285D01*
X0277906Y0043392D01*
X0277482Y0044416D01*
X0276723Y0045176D01*
X0277462Y0044436D02*
X0307051Y0044436D01*
X0308050Y0043437D02*
X0277888Y0043437D01*
X0277906Y0042439D02*
X0309048Y0042439D01*
X0310047Y0041440D02*
X0277557Y0041440D01*
X0277022Y0040442D02*
X0311045Y0040442D01*
X0312044Y0039443D02*
X0304678Y0039443D01*
X0304363Y0039759D02*
X0302709Y0039759D01*
X0302709Y0035059D01*
X0307409Y0035059D01*
X0307409Y0036713D01*
X0304363Y0039759D01*
X0302709Y0039443D02*
X0301709Y0039443D01*
X0301709Y0039759D02*
X0300055Y0039759D01*
X0297009Y0036713D01*
X0297009Y0035059D01*
X0301709Y0035059D01*
X0301709Y0039759D01*
X0301709Y0038445D02*
X0302709Y0038445D01*
X0302709Y0037446D02*
X0301709Y0037446D01*
X0301709Y0036448D02*
X0302709Y0036448D01*
X0302709Y0035449D02*
X0301709Y0035449D01*
X0301709Y0035059D02*
X0302709Y0035059D01*
X0302709Y0034059D01*
X0307409Y0034059D01*
X0307409Y0032405D01*
X0304363Y0029359D01*
X0302709Y0029359D01*
X0302709Y0034059D01*
X0301709Y0034059D01*
X0301709Y0029359D01*
X0300055Y0029359D01*
X0297009Y0032405D01*
X0297009Y0034059D01*
X0301709Y0034059D01*
X0301709Y0035059D01*
X0301709Y0034451D02*
X0277022Y0034451D01*
X0277022Y0035449D02*
X0297009Y0035449D01*
X0297009Y0036448D02*
X0277022Y0036448D01*
X0277022Y0037446D02*
X0297742Y0037446D01*
X0298741Y0038445D02*
X0277022Y0038445D01*
X0277022Y0039443D02*
X0299739Y0039443D01*
X0302709Y0034451D02*
X0307409Y0034451D01*
X0307409Y0035449D02*
X0307409Y0035449D01*
X0307409Y0036448D02*
X0307409Y0036448D01*
X0306675Y0037446D02*
X0308308Y0037446D01*
X0309306Y0038445D02*
X0305677Y0038445D01*
X0307409Y0033452D02*
X0307409Y0033452D01*
X0307409Y0032454D02*
X0307526Y0032454D01*
X0306842Y0031455D02*
X0306459Y0031455D01*
X0305844Y0030457D02*
X0305460Y0030457D01*
X0305650Y0029458D02*
X0304462Y0029458D01*
X0305650Y0028460D02*
X0277022Y0028460D01*
X0277022Y0027461D02*
X0299323Y0027461D01*
X0298324Y0026463D02*
X0277022Y0026463D01*
X0277022Y0025464D02*
X0279401Y0025464D01*
X0278557Y0024466D02*
X0277022Y0024466D01*
X0277022Y0023467D02*
X0278243Y0023467D01*
X0278298Y0022469D02*
X0277022Y0022469D01*
X0277022Y0021470D02*
X0278773Y0021470D01*
X0279128Y0020472D02*
X0277022Y0020472D01*
X0277022Y0019473D02*
X0279128Y0019473D01*
X0279128Y0018475D02*
X0277022Y0018475D01*
X0277022Y0017476D02*
X0279128Y0017476D01*
X0279128Y0016478D02*
X0277022Y0016478D01*
X0277022Y0015479D02*
X0279128Y0015479D01*
X0279128Y0014481D02*
X0277022Y0014481D01*
X0277022Y0013482D02*
X0279128Y0013482D01*
X0279128Y0012484D02*
X0277022Y0012484D01*
X0277022Y0011485D02*
X0279128Y0011485D01*
X0279196Y0010487D02*
X0276953Y0010487D01*
X0275955Y0009488D02*
X0280195Y0009488D01*
X0281193Y0008490D02*
X0274956Y0008490D01*
X0273958Y0007491D02*
X0282192Y0007491D01*
X0283191Y0006493D02*
X0272959Y0006493D01*
X0271961Y0005494D02*
X0284189Y0005494D01*
X0285188Y0004496D02*
X0270962Y0004496D01*
X0268584Y0007491D02*
X0199723Y0007491D01*
X0199784Y0008490D02*
X0269582Y0008490D01*
X0270581Y0009488D02*
X0199477Y0009488D01*
X0198644Y0010487D02*
X0271579Y0010487D01*
X0272578Y0011485D02*
X0198600Y0011485D01*
X0198600Y0012484D02*
X0273222Y0012484D01*
X0273222Y0013482D02*
X0198600Y0013482D01*
X0198600Y0014481D02*
X0273222Y0014481D01*
X0273222Y0015479D02*
X0198600Y0015479D01*
X0198600Y0016478D02*
X0208669Y0016478D01*
X0207671Y0017476D02*
X0198600Y0017476D01*
X0198600Y0018475D02*
X0206672Y0018475D01*
X0205673Y0019473D02*
X0204675Y0019473D01*
X0207000Y0020409D02*
X0210161Y0017248D01*
X0232996Y0017248D01*
X0236933Y0021185D01*
X0236933Y0026303D01*
X0241972Y0031343D01*
X0241972Y0034559D01*
X0237000Y0037000D02*
X0237000Y0031500D01*
X0231972Y0026472D01*
X0231972Y0023559D01*
X0236485Y0018475D02*
X0273222Y0018475D01*
X0273222Y0019473D02*
X0254675Y0019473D01*
X0253961Y0018759D02*
X0256772Y0021571D01*
X0256772Y0025547D01*
X0253961Y0028359D01*
X0249984Y0028359D01*
X0247172Y0025547D01*
X0247172Y0021571D01*
X0249984Y0018759D01*
X0253961Y0018759D01*
X0255673Y0020472D02*
X0273222Y0020472D01*
X0273222Y0021470D02*
X0256672Y0021470D01*
X0256772Y0022469D02*
X0273222Y0022469D01*
X0273222Y0023467D02*
X0256772Y0023467D01*
X0256772Y0024466D02*
X0273222Y0024466D01*
X0273222Y0025464D02*
X0256772Y0025464D01*
X0255857Y0026463D02*
X0273222Y0026463D01*
X0273222Y0027461D02*
X0254858Y0027461D01*
X0254226Y0029458D02*
X0262916Y0029458D01*
X0262502Y0030457D02*
X0255224Y0030457D01*
X0256223Y0031455D02*
X0262495Y0031455D01*
X0262857Y0032454D02*
X0257172Y0032454D01*
X0257172Y0033452D02*
X0263380Y0033452D01*
X0263380Y0034451D02*
X0252472Y0034451D01*
X0252472Y0035059D02*
X0257172Y0035059D01*
X0257172Y0036713D01*
X0254126Y0039759D01*
X0252472Y0039759D01*
X0252472Y0035059D01*
X0252472Y0035449D02*
X0251472Y0035449D01*
X0251472Y0036448D02*
X0252472Y0036448D01*
X0252472Y0037446D02*
X0251472Y0037446D01*
X0251472Y0038445D02*
X0252472Y0038445D01*
X0252472Y0039443D02*
X0251472Y0039443D01*
X0249503Y0039443D02*
X0247315Y0039443D01*
X0248314Y0038445D02*
X0248504Y0038445D01*
X0247000Y0037496D02*
X0237720Y0046776D01*
X0211146Y0046776D01*
X0205240Y0052681D01*
X0181618Y0052681D01*
X0178665Y0055634D01*
X0178665Y0186933D01*
X0192051Y0200319D01*
X0261736Y0200319D01*
X0262917Y0199138D01*
X0261736Y0195988D02*
X0264492Y0195988D01*
X0267642Y0199138D01*
X0270398Y0199138D01*
X0275122Y0203862D01*
X0278665Y0203862D01*
X0277811Y0201202D02*
X0274725Y0201202D01*
X0273726Y0200204D02*
X0279013Y0200204D01*
X0279519Y0201202D02*
X0280011Y0201202D01*
X0280941Y0202201D02*
X0281010Y0202201D01*
X0281404Y0203199D02*
X0282008Y0203199D01*
X0281450Y0204198D02*
X0283007Y0204198D01*
X0284005Y0205196D02*
X0281126Y0205196D01*
X0282573Y0206195D02*
X0285004Y0206195D01*
X0286002Y0207193D02*
X0283233Y0207193D01*
X0278692Y0210189D02*
X0140724Y0210189D01*
X0141722Y0209190D02*
X0262439Y0209190D01*
X0262498Y0209249D02*
X0262498Y0209249D01*
X0261441Y0208192D02*
X0142721Y0208192D01*
X0138080Y0205196D02*
X0112848Y0205196D01*
X0114222Y0206195D02*
X0137081Y0206195D01*
X0136083Y0207193D02*
X0115352Y0207193D01*
X0115080Y0206818D02*
X0115080Y0206818D01*
X0115080Y0206818D01*
X0116078Y0208192D02*
X0135084Y0208192D01*
X0134086Y0209190D02*
X0116803Y0209190D01*
X0117222Y0210189D02*
X0133087Y0210189D01*
X0132089Y0211187D02*
X0117546Y0211187D01*
X0117870Y0212186D02*
X0131090Y0212186D01*
X0130092Y0213184D02*
X0117968Y0213184D01*
X0117968Y0214183D02*
X0129093Y0214183D01*
X0128095Y0215181D02*
X0117968Y0215181D01*
X0117968Y0216180D02*
X0127096Y0216180D01*
X0126098Y0217178D02*
X0117968Y0217178D01*
X0117968Y0218177D02*
X0125386Y0218177D01*
X0125178Y0219175D02*
X0117968Y0219175D01*
X0117968Y0220174D02*
X0125178Y0220174D01*
X0125178Y0221172D02*
X0117968Y0221172D01*
X0117968Y0222171D02*
X0125178Y0222171D01*
X0125178Y0223170D02*
X0117968Y0223170D01*
X0117968Y0224168D02*
X0125178Y0224168D01*
X0125178Y0225167D02*
X0117968Y0225167D01*
X0117968Y0226165D02*
X0125178Y0226165D01*
X0125178Y0227164D02*
X0117968Y0227164D01*
X0117968Y0228162D02*
X0125178Y0228162D01*
X0125178Y0229161D02*
X0117968Y0229161D01*
X0117968Y0230159D02*
X0125178Y0230159D01*
X0125178Y0231158D02*
X0117968Y0231158D01*
X0117968Y0232156D02*
X0125178Y0232156D01*
X0125178Y0233155D02*
X0117968Y0233155D01*
X0117968Y0234153D02*
X0125178Y0234153D01*
X0125178Y0235152D02*
X0117968Y0235152D01*
X0117968Y0236150D02*
X0125178Y0236150D01*
X0125178Y0237149D02*
X0117968Y0237149D01*
X0117968Y0238147D02*
X0125178Y0238147D01*
X0125178Y0239146D02*
X0117968Y0239146D01*
X0117968Y0240144D02*
X0125178Y0240144D01*
X0125178Y0241143D02*
X0117968Y0241143D01*
X0117968Y0242141D02*
X0125178Y0242141D01*
X0125178Y0243140D02*
X0117968Y0243140D01*
X0117968Y0244138D02*
X0125178Y0244138D01*
X0125178Y0245137D02*
X0117968Y0245137D01*
X0117968Y0246135D02*
X0125178Y0246135D01*
X0125178Y0247134D02*
X0117968Y0247134D01*
X0117968Y0248132D02*
X0125178Y0248132D01*
X0125442Y0249131D02*
X0117968Y0249131D01*
X0117968Y0250129D02*
X0126232Y0250129D01*
X0127231Y0251128D02*
X0117968Y0251128D01*
X0117968Y0252126D02*
X0128229Y0252126D01*
X0129228Y0253125D02*
X0117968Y0253125D01*
X0117968Y0254123D02*
X0130226Y0254123D01*
X0131225Y0255122D02*
X0117968Y0255122D01*
X0117968Y0256120D02*
X0132223Y0256120D01*
X0133222Y0257119D02*
X0117968Y0257119D01*
X0117968Y0258117D02*
X0134220Y0258117D01*
X0135219Y0259116D02*
X0117968Y0259116D01*
X0117968Y0260114D02*
X0135440Y0260114D01*
X0135414Y0261113D02*
X0117968Y0261113D01*
X0117968Y0262111D02*
X0135414Y0262111D01*
X0135664Y0263110D02*
X0117968Y0263110D01*
X0117968Y0264108D02*
X0136077Y0264108D01*
X0136755Y0265107D02*
X0117968Y0265107D01*
X0117968Y0266105D02*
X0137754Y0266105D01*
X0139886Y0267104D02*
X0118007Y0267104D01*
X0118236Y0268103D02*
X0196589Y0268103D01*
X0197378Y0268892D02*
X0194801Y0266315D01*
X0194801Y0262670D01*
X0197378Y0260092D01*
X0201023Y0260092D01*
X0203601Y0262670D01*
X0203601Y0266315D01*
X0201023Y0268892D01*
X0197378Y0268892D01*
X0195590Y0267104D02*
X0142641Y0267104D01*
X0144774Y0266105D02*
X0194801Y0266105D01*
X0194801Y0265107D02*
X0145772Y0265107D01*
X0146450Y0264108D02*
X0194801Y0264108D01*
X0194801Y0263110D02*
X0146864Y0263110D01*
X0147114Y0262111D02*
X0195359Y0262111D01*
X0196357Y0261113D02*
X0147114Y0261113D01*
X0147087Y0260114D02*
X0197356Y0260114D01*
X0201046Y0260114D02*
X0207356Y0260114D01*
X0207378Y0260092D02*
X0211023Y0260092D01*
X0213601Y0262670D01*
X0213601Y0266315D01*
X0211023Y0268892D01*
X0207378Y0268892D01*
X0204801Y0266315D01*
X0204801Y0262670D01*
X0207378Y0260092D01*
X0206357Y0261113D02*
X0202044Y0261113D01*
X0203043Y0262111D02*
X0205359Y0262111D01*
X0204801Y0263110D02*
X0203601Y0263110D01*
X0203601Y0264108D02*
X0204801Y0264108D01*
X0204801Y0265107D02*
X0203601Y0265107D01*
X0203601Y0266105D02*
X0204801Y0266105D01*
X0205590Y0267104D02*
X0202811Y0267104D01*
X0201813Y0268103D02*
X0206589Y0268103D01*
X0211813Y0268103D02*
X0216589Y0268103D01*
X0215590Y0267104D02*
X0212811Y0267104D01*
X0213601Y0266105D02*
X0214801Y0266105D01*
X0214801Y0265107D02*
X0213601Y0265107D01*
X0213601Y0264108D02*
X0214801Y0264108D01*
X0214801Y0263110D02*
X0213601Y0263110D01*
X0213043Y0262111D02*
X0215359Y0262111D01*
X0216357Y0261113D02*
X0212044Y0261113D01*
X0211046Y0260114D02*
X0217356Y0260114D01*
X0232379Y0268103D02*
X0236589Y0268103D01*
X0235590Y0267104D02*
X0233377Y0267104D01*
X0234001Y0266105D02*
X0234801Y0266105D01*
X0234801Y0265107D02*
X0234001Y0265107D01*
X0241813Y0268103D02*
X0246589Y0268103D01*
X0247378Y0268892D02*
X0244801Y0266315D01*
X0244801Y0262670D01*
X0247378Y0260092D01*
X0251023Y0260092D01*
X0253601Y0262670D01*
X0253601Y0266315D01*
X0251023Y0268892D01*
X0247378Y0268892D01*
X0245590Y0267104D02*
X0242811Y0267104D01*
X0243601Y0266105D02*
X0244801Y0266105D01*
X0244801Y0265107D02*
X0243601Y0265107D01*
X0243601Y0264108D02*
X0244801Y0264108D01*
X0244801Y0263110D02*
X0243601Y0263110D01*
X0243043Y0262111D02*
X0245359Y0262111D01*
X0246357Y0261113D02*
X0242044Y0261113D01*
X0241046Y0260114D02*
X0247356Y0260114D01*
X0251046Y0260114D02*
X0257356Y0260114D01*
X0257378Y0260092D02*
X0261023Y0260092D01*
X0263601Y0262670D01*
X0263601Y0266315D01*
X0261023Y0268892D01*
X0257378Y0268892D01*
X0254801Y0266315D01*
X0254801Y0262670D01*
X0257378Y0260092D01*
X0256357Y0261113D02*
X0252044Y0261113D01*
X0253043Y0262111D02*
X0255359Y0262111D01*
X0254801Y0263110D02*
X0253601Y0263110D01*
X0253601Y0264108D02*
X0254801Y0264108D01*
X0254801Y0265107D02*
X0253601Y0265107D01*
X0253601Y0266105D02*
X0254801Y0266105D01*
X0255590Y0267104D02*
X0252811Y0267104D01*
X0251813Y0268103D02*
X0256589Y0268103D01*
X0261813Y0268103D02*
X0266589Y0268103D01*
X0267378Y0268892D02*
X0264801Y0266315D01*
X0264801Y0262670D01*
X0267378Y0260092D01*
X0271023Y0260092D01*
X0273601Y0262670D01*
X0273601Y0266315D01*
X0271023Y0268892D01*
X0267378Y0268892D01*
X0265590Y0267104D02*
X0262811Y0267104D01*
X0263601Y0266105D02*
X0264801Y0266105D01*
X0264801Y0265107D02*
X0263601Y0265107D01*
X0263601Y0264108D02*
X0264801Y0264108D01*
X0264801Y0263110D02*
X0263601Y0263110D01*
X0263043Y0262111D02*
X0265359Y0262111D01*
X0266357Y0261113D02*
X0262044Y0261113D01*
X0261046Y0260114D02*
X0267356Y0260114D01*
X0271046Y0260114D02*
X0277356Y0260114D01*
X0277378Y0260092D02*
X0281023Y0260092D01*
X0283601Y0262670D01*
X0283601Y0266315D01*
X0281023Y0268892D01*
X0277378Y0268892D01*
X0274801Y0266315D01*
X0274801Y0262670D01*
X0277378Y0260092D01*
X0276357Y0261113D02*
X0272044Y0261113D01*
X0273043Y0262111D02*
X0275359Y0262111D01*
X0274801Y0263110D02*
X0273601Y0263110D01*
X0273601Y0264108D02*
X0274801Y0264108D01*
X0274801Y0265107D02*
X0273601Y0265107D01*
X0273601Y0266105D02*
X0274801Y0266105D01*
X0275590Y0267104D02*
X0272811Y0267104D01*
X0271813Y0268103D02*
X0276589Y0268103D01*
X0281813Y0268103D02*
X0286589Y0268103D01*
X0287378Y0268892D02*
X0284801Y0266315D01*
X0284801Y0262670D01*
X0287378Y0260092D01*
X0291023Y0260092D01*
X0293601Y0262670D01*
X0293601Y0266315D01*
X0291023Y0268892D01*
X0287378Y0268892D01*
X0285590Y0267104D02*
X0282811Y0267104D01*
X0283601Y0266105D02*
X0284801Y0266105D01*
X0284801Y0265107D02*
X0283601Y0265107D01*
X0283601Y0264108D02*
X0284801Y0264108D01*
X0284801Y0263110D02*
X0283601Y0263110D01*
X0283043Y0262111D02*
X0285359Y0262111D01*
X0286357Y0261113D02*
X0282044Y0261113D01*
X0281046Y0260114D02*
X0287356Y0260114D01*
X0291046Y0260114D02*
X0303356Y0260114D01*
X0303378Y0260092D02*
X0307023Y0260092D01*
X0309601Y0262670D01*
X0309601Y0266315D01*
X0307023Y0268892D01*
X0303378Y0268892D01*
X0300801Y0266315D01*
X0300801Y0262670D01*
X0303378Y0260092D01*
X0302357Y0261113D02*
X0292044Y0261113D01*
X0293043Y0262111D02*
X0301359Y0262111D01*
X0300801Y0263110D02*
X0293601Y0263110D01*
X0293601Y0264108D02*
X0300801Y0264108D01*
X0300801Y0265107D02*
X0293601Y0265107D01*
X0293601Y0266105D02*
X0300801Y0266105D01*
X0301590Y0267104D02*
X0292811Y0267104D01*
X0291813Y0268103D02*
X0302589Y0268103D01*
X0307813Y0268103D02*
X0312589Y0268103D01*
X0313378Y0268892D02*
X0310801Y0266315D01*
X0310801Y0262670D01*
X0313378Y0260092D01*
X0317023Y0260092D01*
X0319601Y0262670D01*
X0319601Y0266315D01*
X0317023Y0268892D01*
X0313378Y0268892D01*
X0311590Y0267104D02*
X0308811Y0267104D01*
X0309601Y0266105D02*
X0310801Y0266105D01*
X0310801Y0265107D02*
X0309601Y0265107D01*
X0309601Y0264108D02*
X0310801Y0264108D01*
X0310801Y0263110D02*
X0309601Y0263110D01*
X0309043Y0262111D02*
X0311359Y0262111D01*
X0312357Y0261113D02*
X0308044Y0261113D01*
X0307046Y0260114D02*
X0313356Y0260114D01*
X0317046Y0260114D02*
X0323356Y0260114D01*
X0323378Y0260092D02*
X0327023Y0260092D01*
X0329601Y0262670D01*
X0329601Y0266315D01*
X0327023Y0268892D01*
X0323378Y0268892D01*
X0320801Y0266315D01*
X0320801Y0262670D01*
X0323378Y0260092D01*
X0322357Y0261113D02*
X0318044Y0261113D01*
X0319043Y0262111D02*
X0321359Y0262111D01*
X0320801Y0263110D02*
X0319601Y0263110D01*
X0319601Y0264108D02*
X0320801Y0264108D01*
X0320801Y0265107D02*
X0319601Y0265107D01*
X0319601Y0266105D02*
X0320801Y0266105D01*
X0321590Y0267104D02*
X0318811Y0267104D01*
X0317813Y0268103D02*
X0322589Y0268103D01*
X0327813Y0268103D02*
X0332589Y0268103D01*
X0333378Y0268892D02*
X0330801Y0266315D01*
X0330801Y0262670D01*
X0333378Y0260092D01*
X0337023Y0260092D01*
X0339601Y0262670D01*
X0339601Y0266315D01*
X0337023Y0268892D01*
X0333378Y0268892D01*
X0331590Y0267104D02*
X0328811Y0267104D01*
X0329601Y0266105D02*
X0330801Y0266105D01*
X0330801Y0265107D02*
X0329601Y0265107D01*
X0329601Y0264108D02*
X0330801Y0264108D01*
X0330801Y0263110D02*
X0329601Y0263110D01*
X0329043Y0262111D02*
X0331359Y0262111D01*
X0332357Y0261113D02*
X0328044Y0261113D01*
X0327046Y0260114D02*
X0333356Y0260114D01*
X0337046Y0260114D02*
X0343356Y0260114D01*
X0343378Y0260092D02*
X0347023Y0260092D01*
X0349601Y0262670D01*
X0349601Y0266315D01*
X0347023Y0268892D01*
X0343378Y0268892D01*
X0340801Y0266315D01*
X0340801Y0262670D01*
X0343378Y0260092D01*
X0342357Y0261113D02*
X0338044Y0261113D01*
X0339043Y0262111D02*
X0341359Y0262111D01*
X0340801Y0263110D02*
X0339601Y0263110D01*
X0339601Y0264108D02*
X0340801Y0264108D01*
X0340801Y0265107D02*
X0339601Y0265107D01*
X0339601Y0266105D02*
X0340801Y0266105D01*
X0341590Y0267104D02*
X0338811Y0267104D01*
X0337813Y0268103D02*
X0342589Y0268103D01*
X0347813Y0268103D02*
X0352589Y0268103D01*
X0353378Y0268892D02*
X0350801Y0266315D01*
X0350801Y0262670D01*
X0353378Y0260092D01*
X0357023Y0260092D01*
X0359601Y0262670D01*
X0359601Y0266315D01*
X0357023Y0268892D01*
X0353378Y0268892D01*
X0351590Y0267104D02*
X0348811Y0267104D01*
X0349601Y0266105D02*
X0350801Y0266105D01*
X0350801Y0265107D02*
X0349601Y0265107D01*
X0349601Y0264108D02*
X0350801Y0264108D01*
X0350801Y0263110D02*
X0349601Y0263110D01*
X0349043Y0262111D02*
X0351359Y0262111D01*
X0352357Y0261113D02*
X0348044Y0261113D01*
X0347046Y0260114D02*
X0353356Y0260114D01*
X0357046Y0260114D02*
X0358560Y0260114D01*
X0358044Y0261113D02*
X0359559Y0261113D01*
X0359043Y0262111D02*
X0360557Y0262111D01*
X0360801Y0263110D02*
X0359601Y0263110D01*
X0359601Y0264108D02*
X0360801Y0264108D01*
X0360801Y0265107D02*
X0359601Y0265107D01*
X0359601Y0266105D02*
X0360801Y0266105D01*
X0361590Y0267104D02*
X0358811Y0267104D01*
X0357813Y0268103D02*
X0362589Y0268103D01*
X0357562Y0259116D02*
X0146673Y0259116D01*
X0146260Y0258117D02*
X0356563Y0258117D01*
X0355565Y0257119D02*
X0145313Y0257119D01*
X0143943Y0256120D02*
X0354566Y0256120D01*
X0353568Y0255122D02*
X0138862Y0255122D01*
X0137863Y0254123D02*
X0352569Y0254123D01*
X0351571Y0253125D02*
X0136864Y0253125D01*
X0135866Y0252126D02*
X0350572Y0252126D01*
X0349574Y0251128D02*
X0134867Y0251128D01*
X0133869Y0250129D02*
X0348575Y0250129D01*
X0347577Y0249131D02*
X0132870Y0249131D01*
X0131872Y0248132D02*
X0346578Y0248132D01*
X0345963Y0247134D02*
X0144283Y0247134D01*
X0145625Y0246135D02*
X0345963Y0246135D01*
X0345963Y0245137D02*
X0146461Y0245137D01*
X0147014Y0244138D02*
X0345963Y0244138D01*
X0345963Y0243140D02*
X0147354Y0243140D01*
X0141764Y0243140D02*
X0140764Y0243140D01*
X0140764Y0244138D02*
X0141764Y0244138D01*
X0141764Y0245137D02*
X0140764Y0245137D01*
X0140764Y0246135D02*
X0141764Y0246135D01*
X0141764Y0247134D02*
X0140764Y0247134D01*
X0138245Y0247134D02*
X0130873Y0247134D01*
X0130578Y0246135D02*
X0136903Y0246135D01*
X0136066Y0245137D02*
X0130578Y0245137D01*
X0130578Y0244138D02*
X0135513Y0244138D01*
X0135174Y0243140D02*
X0130578Y0243140D01*
X0140764Y0240144D02*
X0141764Y0240144D01*
X0141764Y0239146D02*
X0140764Y0239146D01*
X0140764Y0238147D02*
X0141764Y0238147D01*
X0141764Y0237149D02*
X0140764Y0237149D01*
X0140764Y0236150D02*
X0141764Y0236150D01*
X0147114Y0227164D02*
X0348523Y0227164D01*
X0349731Y0222171D02*
X0360737Y0222171D01*
X0360186Y0212186D02*
X0328652Y0212186D01*
X0327654Y0211187D02*
X0359338Y0211187D01*
X0358834Y0210189D02*
X0326655Y0210189D01*
X0325657Y0209190D02*
X0358573Y0209190D01*
X0358623Y0207193D02*
X0323660Y0207193D01*
X0323479Y0206195D02*
X0358967Y0206195D01*
X0359569Y0205196D02*
X0323479Y0205196D01*
X0323930Y0204198D02*
X0360573Y0204198D01*
X0363205Y0204198D02*
X0364205Y0204198D01*
X0364205Y0205196D02*
X0363205Y0205196D01*
X0363205Y0206195D02*
X0364205Y0206195D01*
X0364205Y0207193D02*
X0363205Y0207193D01*
X0363205Y0208192D02*
X0324658Y0208192D01*
X0319679Y0205196D02*
X0289379Y0205196D01*
X0288381Y0204198D02*
X0305448Y0204198D01*
X0304449Y0203199D02*
X0287382Y0203199D01*
X0286384Y0202201D02*
X0303451Y0202201D01*
X0302452Y0201202D02*
X0285385Y0201202D01*
X0284387Y0200204D02*
X0300203Y0200204D01*
X0299628Y0199205D02*
X0283388Y0199205D01*
X0282390Y0198207D02*
X0299503Y0198207D01*
X0299747Y0197208D02*
X0281391Y0197208D01*
X0280393Y0196210D02*
X0300491Y0196210D01*
X0304914Y0192216D02*
X0287457Y0192216D01*
X0288455Y0191217D02*
X0303915Y0191217D01*
X0303862Y0188902D02*
X0288508Y0188902D01*
X0284177Y0193232D01*
X0281421Y0193232D01*
X0279059Y0190870D01*
X0275516Y0190870D01*
X0263311Y0178665D01*
X0262616Y0180234D02*
X0229376Y0180234D01*
X0229789Y0181232D02*
X0263615Y0181232D01*
X0264613Y0182231D02*
X0229961Y0182231D01*
X0229961Y0183229D02*
X0265612Y0183229D01*
X0266611Y0184228D02*
X0229684Y0184228D01*
X0229270Y0185226D02*
X0267609Y0185226D01*
X0268608Y0186225D02*
X0228327Y0186225D01*
X0213774Y0187223D02*
X0207547Y0187223D01*
X0208893Y0186225D02*
X0211995Y0186225D01*
X0211053Y0185226D02*
X0209661Y0185226D01*
X0210101Y0184228D02*
X0210639Y0184228D01*
X0210361Y0183229D02*
X0210327Y0183229D01*
X0196615Y0192216D02*
X0188967Y0192216D01*
X0189965Y0193214D02*
X0268874Y0193214D01*
X0269872Y0194213D02*
X0190964Y0194213D01*
X0191962Y0195211D02*
X0260250Y0195211D01*
X0259252Y0196210D02*
X0192961Y0196210D01*
X0192839Y0198350D02*
X0259374Y0198350D01*
X0261736Y0195988D01*
X0265978Y0195211D02*
X0270871Y0195211D01*
X0271869Y0196210D02*
X0266976Y0196210D01*
X0267975Y0197208D02*
X0272868Y0197208D01*
X0271729Y0198207D02*
X0277016Y0198207D01*
X0278014Y0199205D02*
X0272728Y0199205D01*
X0271998Y0198475D02*
X0271998Y0198475D01*
X0268429Y0202287D02*
X0191264Y0202287D01*
X0176697Y0187720D01*
X0176697Y0054650D01*
X0180634Y0050713D01*
X0203272Y0050713D01*
X0209177Y0044807D01*
X0229193Y0044807D01*
X0237000Y0037000D01*
X0231972Y0039059D02*
X0231972Y0034559D01*
X0231972Y0039059D02*
X0228193Y0042839D01*
X0208193Y0042839D01*
X0202287Y0048744D01*
X0179650Y0048744D01*
X0174728Y0053665D01*
X0174728Y0188508D01*
X0190476Y0204256D01*
X0264098Y0204256D01*
X0265280Y0205437D01*
X0275723Y0202201D02*
X0276389Y0202201D01*
X0285459Y0194213D02*
X0306911Y0194213D01*
X0305912Y0193214D02*
X0286458Y0193214D01*
X0282602Y0190083D02*
X0281421Y0188902D01*
X0275909Y0188902D01*
X0265280Y0178272D01*
X0265280Y0134571D01*
X0218035Y0087327D01*
X0218035Y0062524D01*
X0213114Y0057602D01*
X0209546Y0057417D02*
X0195584Y0057417D01*
X0196118Y0056418D02*
X0209546Y0056418D01*
X0209546Y0055420D02*
X0196213Y0055420D01*
X0195940Y0054421D02*
X0209546Y0054421D01*
X0209546Y0053423D02*
X0206761Y0053423D01*
X0206840Y0053344D02*
X0206840Y0053344D01*
X0207760Y0052424D02*
X0209546Y0052424D01*
X0210138Y0051426D02*
X0208758Y0051426D01*
X0209757Y0050427D02*
X0211137Y0050427D01*
X0210755Y0049429D02*
X0212135Y0049429D01*
X0211754Y0048430D02*
X0239709Y0048430D01*
X0239327Y0047432D02*
X0240707Y0047432D01*
X0240326Y0046433D02*
X0241706Y0046433D01*
X0241324Y0045434D02*
X0242704Y0045434D01*
X0242323Y0044436D02*
X0262939Y0044436D01*
X0262514Y0043437D02*
X0243321Y0043437D01*
X0244320Y0042439D02*
X0262495Y0042439D01*
X0262845Y0041440D02*
X0245318Y0041440D01*
X0246317Y0040442D02*
X0263380Y0040442D01*
X0263380Y0039443D02*
X0254442Y0039443D01*
X0255440Y0038445D02*
X0263380Y0038445D01*
X0263380Y0037446D02*
X0256439Y0037446D01*
X0257172Y0036448D02*
X0263380Y0036448D01*
X0263380Y0035449D02*
X0257172Y0035449D01*
X0252472Y0033452D02*
X0251472Y0033452D01*
X0251472Y0032454D02*
X0252472Y0032454D01*
X0252472Y0031455D02*
X0251472Y0031455D01*
X0251472Y0030457D02*
X0252472Y0030457D01*
X0252472Y0029458D02*
X0251472Y0029458D01*
X0249719Y0029458D02*
X0248600Y0029458D01*
X0248600Y0028460D02*
X0264203Y0028460D01*
X0266356Y0028460D02*
X0273222Y0028460D01*
X0272758Y0029458D02*
X0267643Y0029458D01*
X0268057Y0030457D02*
X0272345Y0030457D01*
X0272338Y0031455D02*
X0268064Y0031455D01*
X0267702Y0032454D02*
X0272699Y0032454D01*
X0273222Y0033452D02*
X0267180Y0033452D01*
X0267180Y0034451D02*
X0273222Y0034451D01*
X0273222Y0035449D02*
X0267180Y0035449D01*
X0267180Y0036448D02*
X0273222Y0036448D01*
X0273222Y0037446D02*
X0267180Y0037446D01*
X0267180Y0038445D02*
X0273222Y0038445D01*
X0273222Y0039443D02*
X0267180Y0039443D01*
X0267180Y0040442D02*
X0273222Y0040442D01*
X0272688Y0041440D02*
X0267714Y0041440D01*
X0268064Y0042439D02*
X0272338Y0042439D01*
X0272356Y0043437D02*
X0268045Y0043437D01*
X0267620Y0044436D02*
X0272782Y0044436D01*
X0277022Y0033452D02*
X0297009Y0033452D01*
X0297009Y0032454D02*
X0277545Y0032454D01*
X0277906Y0031455D02*
X0297958Y0031455D01*
X0298957Y0030457D02*
X0277899Y0030457D01*
X0277486Y0029458D02*
X0299955Y0029458D01*
X0301709Y0029458D02*
X0302709Y0029458D01*
X0302709Y0030457D02*
X0301709Y0030457D01*
X0301709Y0031455D02*
X0302709Y0031455D01*
X0302709Y0032454D02*
X0301709Y0032454D01*
X0301709Y0033452D02*
X0302709Y0033452D01*
X0307250Y0029600D02*
X0307250Y0023250D01*
X0307250Y0029100D01*
X0307250Y0008193D01*
X0304773Y0009488D02*
X0285569Y0009488D01*
X0286567Y0008490D02*
X0304466Y0008490D01*
X0304527Y0007491D02*
X0287566Y0007491D01*
X0288565Y0006493D02*
X0305013Y0006493D01*
X0305606Y0010487D02*
X0284570Y0010487D01*
X0283572Y0011485D02*
X0305650Y0011485D01*
X0305650Y0012484D02*
X0282928Y0012484D01*
X0282928Y0013482D02*
X0305650Y0013482D01*
X0305650Y0014481D02*
X0282928Y0014481D01*
X0282928Y0015479D02*
X0305650Y0015479D01*
X0305650Y0016478D02*
X0282928Y0016478D01*
X0282928Y0017476D02*
X0305650Y0017476D01*
X0305650Y0018475D02*
X0282928Y0018475D01*
X0282928Y0019473D02*
X0299506Y0019473D01*
X0298508Y0020472D02*
X0282928Y0020472D01*
X0283282Y0021470D02*
X0297509Y0021470D01*
X0297409Y0022469D02*
X0283758Y0022469D01*
X0283812Y0023467D02*
X0297409Y0023467D01*
X0297409Y0024466D02*
X0283498Y0024466D01*
X0282654Y0025464D02*
X0297409Y0025464D01*
X0305095Y0027461D02*
X0305650Y0027461D01*
X0307250Y0029600D02*
X0312209Y0034559D01*
X0314895Y0030457D02*
X0315650Y0030457D01*
X0315650Y0029458D02*
X0309371Y0029458D01*
X0308850Y0028460D02*
X0315650Y0028460D01*
X0316044Y0027461D02*
X0315095Y0027461D01*
X0316093Y0026463D02*
X0317042Y0026463D01*
X0317009Y0025464D02*
X0317409Y0025464D01*
X0317409Y0024466D02*
X0317009Y0024466D01*
X0317009Y0023467D02*
X0317409Y0023467D01*
X0317409Y0022469D02*
X0317009Y0022469D01*
X0316908Y0021470D02*
X0317509Y0021470D01*
X0318508Y0020472D02*
X0315910Y0020472D01*
X0314911Y0019473D02*
X0319506Y0019473D01*
X0312209Y0023559D02*
X0312209Y0012327D01*
X0309674Y0013482D02*
X0308850Y0013482D01*
X0308850Y0012484D02*
X0309424Y0012484D01*
X0309544Y0011485D02*
X0308850Y0011485D01*
X0308894Y0010487D02*
X0310111Y0010487D01*
X0309727Y0009488D02*
X0360309Y0009488D01*
X0360309Y0010487D02*
X0314306Y0010487D01*
X0310034Y0008490D02*
X0360133Y0008490D01*
X0359135Y0007491D02*
X0309973Y0007491D01*
X0309487Y0006493D02*
X0358136Y0006493D01*
X0361513Y0004496D02*
X0382599Y0004496D01*
X0382906Y0005494D02*
X0362512Y0005494D01*
X0363510Y0006493D02*
X0382906Y0006493D01*
X0382906Y0007491D02*
X0364109Y0007491D01*
X0364109Y0008490D02*
X0382906Y0008490D01*
X0382906Y0009488D02*
X0364109Y0009488D01*
X0364109Y0010487D02*
X0382906Y0010487D01*
X0382906Y0011485D02*
X0364109Y0011485D01*
X0364109Y0012484D02*
X0382906Y0012484D01*
X0382906Y0013482D02*
X0364109Y0013482D01*
X0364109Y0014481D02*
X0382906Y0014481D01*
X0382906Y0015479D02*
X0364109Y0015479D01*
X0364109Y0016478D02*
X0382906Y0016478D01*
X0382906Y0017476D02*
X0364109Y0017476D01*
X0364109Y0018475D02*
X0382906Y0018475D01*
X0382906Y0019473D02*
X0364911Y0019473D01*
X0365910Y0020472D02*
X0382906Y0020472D01*
X0382906Y0021470D02*
X0366908Y0021470D01*
X0367009Y0022469D02*
X0382906Y0022469D01*
X0382906Y0023467D02*
X0367009Y0023467D01*
X0367009Y0024466D02*
X0382906Y0024466D01*
X0382906Y0025464D02*
X0367009Y0025464D01*
X0366093Y0026463D02*
X0382906Y0026463D01*
X0382906Y0027461D02*
X0365095Y0027461D01*
X0364109Y0028460D02*
X0382906Y0028460D01*
X0382906Y0029458D02*
X0364109Y0029458D01*
X0364895Y0030457D02*
X0382906Y0030457D01*
X0382906Y0031455D02*
X0365893Y0031455D01*
X0366892Y0032454D02*
X0382906Y0032454D01*
X0382906Y0033452D02*
X0367009Y0033452D01*
X0367009Y0034451D02*
X0382906Y0034451D01*
X0382906Y0035449D02*
X0367009Y0035449D01*
X0367009Y0036448D02*
X0382906Y0036448D01*
X0382906Y0037446D02*
X0366110Y0037446D01*
X0365111Y0038445D02*
X0382906Y0038445D01*
X0382906Y0051426D02*
X0334993Y0051426D01*
X0334840Y0052424D02*
X0382906Y0052424D01*
X0359306Y0038445D02*
X0355111Y0038445D01*
X0356110Y0037446D02*
X0358308Y0037446D01*
X0357409Y0036448D02*
X0357009Y0036448D01*
X0357009Y0035449D02*
X0357409Y0035449D01*
X0357409Y0034451D02*
X0357009Y0034451D01*
X0357009Y0033452D02*
X0357409Y0033452D01*
X0357526Y0032454D02*
X0356892Y0032454D01*
X0355893Y0031455D02*
X0358524Y0031455D01*
X0359523Y0030457D02*
X0354895Y0030457D01*
X0355095Y0027461D02*
X0359323Y0027461D01*
X0358324Y0026463D02*
X0356093Y0026463D01*
X0357009Y0025464D02*
X0357409Y0025464D01*
X0357409Y0024466D02*
X0357009Y0024466D01*
X0357009Y0023467D02*
X0357409Y0023467D01*
X0357409Y0022469D02*
X0357009Y0022469D01*
X0356908Y0021470D02*
X0357509Y0021470D01*
X0358508Y0020472D02*
X0355910Y0020472D01*
X0354911Y0019473D02*
X0359506Y0019473D01*
X0342209Y0023559D02*
X0341067Y0022417D01*
X0341067Y0014295D01*
X0310609Y0015479D02*
X0308850Y0015479D01*
X0308850Y0014481D02*
X0310425Y0014481D01*
X0310609Y0016478D02*
X0308850Y0016478D01*
X0308850Y0017476D02*
X0310609Y0017476D01*
X0310609Y0018475D02*
X0308850Y0018475D01*
X0308850Y0019473D02*
X0309506Y0019473D01*
X0305650Y0019473D02*
X0304911Y0019473D01*
X0308850Y0027461D02*
X0309323Y0027461D01*
X0273222Y0017476D02*
X0235487Y0017476D01*
X0234488Y0016478D02*
X0273222Y0016478D01*
X0267585Y0006493D02*
X0199237Y0006493D01*
X0197000Y0008193D02*
X0197000Y0029087D01*
X0197000Y0028000D01*
X0197000Y0029587D01*
X0201972Y0034559D01*
X0197172Y0033452D02*
X0197172Y0033452D01*
X0197172Y0032454D02*
X0197289Y0032454D01*
X0196606Y0031455D02*
X0196223Y0031455D01*
X0195607Y0030457D02*
X0195224Y0030457D01*
X0195400Y0027461D02*
X0194858Y0027461D01*
X0189086Y0027461D02*
X0003795Y0027461D01*
X0003795Y0026463D02*
X0188088Y0026463D01*
X0187172Y0025464D02*
X0003795Y0025464D01*
X0003795Y0024466D02*
X0187172Y0024466D01*
X0187172Y0023467D02*
X0003795Y0023467D01*
X0003795Y0022469D02*
X0187172Y0022469D01*
X0187273Y0021470D02*
X0003795Y0021470D01*
X0003795Y0020472D02*
X0188272Y0020472D01*
X0189270Y0019473D02*
X0013938Y0019473D01*
X0016262Y0018475D02*
X0190545Y0018475D01*
X0190545Y0017476D02*
X0017261Y0017476D01*
X0018259Y0016478D02*
X0190545Y0016478D01*
X0190545Y0015479D02*
X0018835Y0015479D01*
X0019248Y0014481D02*
X0190545Y0014481D01*
X0190545Y0013482D02*
X0019662Y0013482D01*
X0019799Y0012484D02*
X0190545Y0012484D01*
X0190545Y0011485D02*
X0019799Y0011485D01*
X0019799Y0010487D02*
X0190545Y0010487D01*
X0190545Y0009488D02*
X0019650Y0009488D01*
X0019236Y0008490D02*
X0190545Y0008490D01*
X0190545Y0007491D02*
X0018822Y0007491D01*
X0018229Y0006493D02*
X0190671Y0006493D01*
X0191669Y0005494D02*
X0017231Y0005494D01*
X0016232Y0004496D02*
X0192668Y0004496D01*
X0198600Y0019473D02*
X0199270Y0019473D01*
X0207000Y0020409D02*
X0207000Y0037000D01*
X0203130Y0040870D01*
X0198350Y0040870D01*
X0200319Y0043823D02*
X0199335Y0044807D01*
X0200319Y0043823D02*
X0203272Y0043823D01*
X0206224Y0040870D01*
X0215031Y0040870D01*
X0217000Y0038902D01*
X0217000Y0030500D01*
X0217000Y0029031D01*
X0217000Y0028531D01*
X0221972Y0023559D01*
X0237484Y0019473D02*
X0239270Y0019473D01*
X0241972Y0023559D02*
X0247000Y0028587D01*
X0247000Y0037496D01*
X0248600Y0030457D02*
X0248721Y0030457D01*
X0249086Y0027461D02*
X0248137Y0027461D01*
X0248088Y0026463D02*
X0247139Y0026463D01*
X0247172Y0025464D02*
X0246772Y0025464D01*
X0246772Y0024466D02*
X0247172Y0024466D01*
X0247172Y0023467D02*
X0246772Y0023467D01*
X0246772Y0022469D02*
X0247172Y0022469D01*
X0247273Y0021470D02*
X0246672Y0021470D01*
X0245673Y0020472D02*
X0248272Y0020472D01*
X0249270Y0019473D02*
X0244675Y0019473D01*
X0209546Y0058415D02*
X0193990Y0058415D01*
X0192868Y0058415D02*
X0182234Y0058415D01*
X0182234Y0057417D02*
X0191274Y0057417D01*
X0190740Y0056418D02*
X0183097Y0056418D01*
X0182602Y0054650D02*
X0192445Y0054650D01*
X0193429Y0055634D01*
X0182602Y0054650D02*
X0180634Y0056618D01*
X0180634Y0186146D01*
X0192839Y0198350D01*
X0195617Y0191217D02*
X0187968Y0191217D01*
X0186970Y0190219D02*
X0194618Y0190219D01*
X0193620Y0189220D02*
X0185971Y0189220D01*
X0184973Y0188222D02*
X0193301Y0188222D01*
X0179409Y0198207D02*
X0161227Y0198207D01*
X0162226Y0197208D02*
X0178410Y0197208D01*
X0177412Y0196210D02*
X0162684Y0196210D01*
X0163032Y0195211D02*
X0176413Y0195211D01*
X0175415Y0194213D02*
X0163032Y0194213D01*
X0162931Y0193214D02*
X0174416Y0193214D01*
X0173417Y0192216D02*
X0162517Y0192216D01*
X0161824Y0191217D02*
X0172419Y0191217D01*
X0171420Y0190219D02*
X0160648Y0190219D01*
X0155816Y0190219D02*
X0151305Y0190219D01*
X0151620Y0190447D02*
X0152199Y0191026D01*
X0152680Y0191688D01*
X0153051Y0192417D01*
X0153304Y0193196D01*
X0153418Y0193913D01*
X0148732Y0193913D01*
X0148732Y0189228D01*
X0149450Y0189341D01*
X0150228Y0189594D01*
X0150958Y0189966D01*
X0151620Y0190447D01*
X0152338Y0191217D02*
X0154640Y0191217D01*
X0153947Y0192216D02*
X0152949Y0192216D01*
X0153307Y0193214D02*
X0153534Y0193214D01*
X0153432Y0194213D02*
X0148732Y0194213D01*
X0148732Y0193913D02*
X0148732Y0194913D01*
X0153418Y0194913D01*
X0153304Y0195631D01*
X0153051Y0196409D01*
X0152680Y0197139D01*
X0152199Y0197801D01*
X0151620Y0198380D01*
X0150958Y0198861D01*
X0150228Y0199232D01*
X0149450Y0199485D01*
X0148732Y0199599D01*
X0148732Y0194913D01*
X0147732Y0194913D01*
X0147732Y0193913D01*
X0148732Y0193913D01*
X0148732Y0193214D02*
X0147732Y0193214D01*
X0147732Y0193913D02*
X0147732Y0189228D01*
X0147015Y0189341D01*
X0146236Y0189594D01*
X0145507Y0189966D01*
X0144845Y0190447D01*
X0144266Y0191026D01*
X0143785Y0191688D01*
X0143413Y0192417D01*
X0143160Y0193196D01*
X0143047Y0193913D01*
X0147732Y0193913D01*
X0147732Y0194213D02*
X0143032Y0194213D01*
X0143047Y0194913D02*
X0147732Y0194913D01*
X0147732Y0199599D01*
X0147015Y0199485D01*
X0146236Y0199232D01*
X0145507Y0198861D01*
X0144845Y0198380D01*
X0144266Y0197801D01*
X0143785Y0197139D01*
X0143413Y0196409D01*
X0143160Y0195631D01*
X0143047Y0194913D01*
X0143032Y0195211D02*
X0143094Y0195211D01*
X0143032Y0195368D02*
X0142302Y0197132D01*
X0140951Y0198483D01*
X0139187Y0199213D01*
X0137277Y0199213D01*
X0135513Y0198483D01*
X0134163Y0197132D01*
X0133432Y0195368D01*
X0133432Y0193459D01*
X0134163Y0191694D01*
X0135513Y0190344D01*
X0137277Y0189613D01*
X0139187Y0189613D01*
X0140951Y0190344D01*
X0142302Y0191694D01*
X0143032Y0193459D01*
X0143032Y0195368D01*
X0143348Y0196210D02*
X0142684Y0196210D01*
X0142226Y0197208D02*
X0143835Y0197208D01*
X0144672Y0198207D02*
X0141227Y0198207D01*
X0139207Y0199205D02*
X0146183Y0199205D01*
X0147732Y0199205D02*
X0148732Y0199205D01*
X0148732Y0198207D02*
X0147732Y0198207D01*
X0147732Y0197208D02*
X0148732Y0197208D01*
X0148732Y0196210D02*
X0147732Y0196210D01*
X0147732Y0195211D02*
X0148732Y0195211D01*
X0148732Y0192216D02*
X0147732Y0192216D01*
X0147732Y0191217D02*
X0148732Y0191217D01*
X0148732Y0190219D02*
X0147732Y0190219D01*
X0145159Y0190219D02*
X0140648Y0190219D01*
X0141824Y0191217D02*
X0144127Y0191217D01*
X0143516Y0192216D02*
X0142517Y0192216D01*
X0142931Y0193214D02*
X0143157Y0193214D01*
X0135816Y0190219D02*
X0130648Y0190219D01*
X0130951Y0190344D02*
X0129187Y0189613D01*
X0127277Y0189613D01*
X0125513Y0190344D01*
X0124163Y0191694D01*
X0123432Y0193459D01*
X0123432Y0195368D01*
X0124163Y0197132D01*
X0125513Y0198483D01*
X0127277Y0199213D01*
X0129187Y0199213D01*
X0130951Y0198483D01*
X0132302Y0197132D01*
X0133032Y0195368D01*
X0133032Y0193459D01*
X0132302Y0191694D01*
X0130951Y0190344D01*
X0131824Y0191217D02*
X0134640Y0191217D01*
X0133947Y0192216D02*
X0132517Y0192216D01*
X0132931Y0193214D02*
X0133534Y0193214D01*
X0133432Y0194213D02*
X0133032Y0194213D01*
X0133032Y0195211D02*
X0133432Y0195211D01*
X0133781Y0196210D02*
X0132684Y0196210D01*
X0132226Y0197208D02*
X0134239Y0197208D01*
X0135237Y0198207D02*
X0131227Y0198207D01*
X0129207Y0199205D02*
X0137258Y0199205D01*
X0140077Y0203199D02*
X0006674Y0203199D01*
X0005361Y0202201D02*
X0149343Y0202201D01*
X0150342Y0201202D02*
X0004635Y0201202D01*
X0004183Y0200204D02*
X0151340Y0200204D01*
X0152339Y0199205D02*
X0150282Y0199205D01*
X0151793Y0198207D02*
X0153337Y0198207D01*
X0152629Y0197208D02*
X0154239Y0197208D01*
X0153781Y0196210D02*
X0153116Y0196210D01*
X0153371Y0195211D02*
X0153432Y0195211D01*
X0158977Y0200204D02*
X0181406Y0200204D01*
X0182404Y0201202D02*
X0157978Y0201202D01*
X0156980Y0202201D02*
X0183403Y0202201D01*
X0184401Y0203199D02*
X0155981Y0203199D01*
X0154983Y0204198D02*
X0185400Y0204198D01*
X0186398Y0205196D02*
X0153984Y0205196D01*
X0152986Y0206195D02*
X0187397Y0206195D01*
X0188395Y0207193D02*
X0151987Y0207193D01*
X0159975Y0199205D02*
X0180407Y0199205D01*
X0171160Y0189220D02*
X0003795Y0189220D01*
X0003795Y0188222D02*
X0171160Y0188222D01*
X0171160Y0187223D02*
X0003795Y0187223D01*
X0003795Y0186225D02*
X0171160Y0186225D01*
X0171160Y0185226D02*
X0003795Y0185226D01*
X0003795Y0184228D02*
X0171160Y0184228D01*
X0171160Y0183229D02*
X0003795Y0183229D01*
X0003795Y0182231D02*
X0171160Y0182231D01*
X0171160Y0181232D02*
X0003795Y0181232D01*
X0003795Y0180234D02*
X0171160Y0180234D01*
X0171160Y0179235D02*
X0003795Y0179235D01*
X0003795Y0178237D02*
X0171160Y0178237D01*
X0171160Y0177238D02*
X0003795Y0177238D01*
X0003795Y0176239D02*
X0171160Y0176239D01*
X0171160Y0175241D02*
X0003795Y0175241D01*
X0003795Y0174242D02*
X0171160Y0174242D01*
X0171160Y0173244D02*
X0003795Y0173244D01*
X0003795Y0172245D02*
X0171160Y0172245D01*
X0171160Y0171247D02*
X0003795Y0171247D01*
X0003795Y0170248D02*
X0171160Y0170248D01*
X0171160Y0169250D02*
X0003795Y0169250D01*
X0003795Y0168251D02*
X0171160Y0168251D01*
X0171160Y0167253D02*
X0003795Y0167253D01*
X0003795Y0166254D02*
X0171160Y0166254D01*
X0171160Y0165256D02*
X0003795Y0165256D01*
X0003795Y0164257D02*
X0171160Y0164257D01*
X0171160Y0163259D02*
X0003795Y0163259D01*
X0003795Y0162260D02*
X0171160Y0162260D01*
X0171160Y0161262D02*
X0003795Y0161262D01*
X0003795Y0160263D02*
X0171160Y0160263D01*
X0171160Y0159265D02*
X0003795Y0159265D01*
X0003795Y0136299D02*
X0047646Y0136299D01*
X0046723Y0135301D02*
X0003795Y0135301D01*
X0003795Y0134302D02*
X0046309Y0134302D01*
X0046069Y0133303D02*
X0003795Y0133303D01*
X0003795Y0132305D02*
X0046069Y0132305D01*
X0046069Y0131306D02*
X0003795Y0131306D01*
X0003795Y0130308D02*
X0046069Y0130308D01*
X0046069Y0129309D02*
X0003795Y0129309D01*
X0003795Y0128311D02*
X0046069Y0128311D01*
X0046069Y0127312D02*
X0003795Y0127312D01*
X0003795Y0126314D02*
X0046069Y0126314D01*
X0046069Y0125315D02*
X0029018Y0125315D01*
X0029052Y0125301D02*
X0027779Y0125828D01*
X0026402Y0125828D01*
X0025129Y0125301D01*
X0024155Y0124327D01*
X0023628Y0123055D01*
X0023628Y0121677D01*
X0024155Y0120405D01*
X0025129Y0119431D01*
X0026402Y0118904D01*
X0027779Y0118904D01*
X0029052Y0119431D01*
X0030026Y0120405D01*
X0030553Y0121677D01*
X0030553Y0123055D01*
X0030026Y0124327D01*
X0029052Y0125301D01*
X0030030Y0124317D02*
X0046265Y0124317D01*
X0046678Y0123318D02*
X0030444Y0123318D01*
X0030553Y0122320D02*
X0047539Y0122320D01*
X0047613Y0121321D02*
X0030405Y0121321D01*
X0029944Y0120323D02*
X0047613Y0120323D01*
X0047613Y0119324D02*
X0028794Y0119324D01*
X0025387Y0119324D02*
X0003795Y0119324D01*
X0003795Y0118326D02*
X0047613Y0118326D01*
X0047613Y0117327D02*
X0003795Y0117327D01*
X0003795Y0116329D02*
X0047613Y0116329D01*
X0047613Y0115330D02*
X0003795Y0115330D01*
X0003795Y0114332D02*
X0047613Y0114332D01*
X0047613Y0113333D02*
X0003795Y0113333D01*
X0003795Y0112335D02*
X0047613Y0112335D01*
X0047613Y0111336D02*
X0003795Y0111336D01*
X0003795Y0110338D02*
X0047613Y0110338D01*
X0047613Y0109339D02*
X0003795Y0109339D01*
X0003795Y0108341D02*
X0047613Y0108341D01*
X0047613Y0107342D02*
X0003795Y0107342D01*
X0003795Y0106344D02*
X0047613Y0106344D01*
X0047613Y0105345D02*
X0003795Y0105345D01*
X0003795Y0104347D02*
X0047613Y0104347D01*
X0047613Y0103348D02*
X0003795Y0103348D01*
X0003795Y0102350D02*
X0047613Y0102350D01*
X0047613Y0101351D02*
X0003795Y0101351D01*
X0003795Y0100353D02*
X0047613Y0100353D01*
X0047613Y0099354D02*
X0003795Y0099354D01*
X0003795Y0098356D02*
X0047613Y0098356D01*
X0047613Y0097357D02*
X0003795Y0097357D01*
X0003795Y0096359D02*
X0047613Y0096359D01*
X0047613Y0095360D02*
X0003795Y0095360D01*
X0003795Y0094362D02*
X0047613Y0094362D01*
X0047613Y0093363D02*
X0003795Y0093363D01*
X0003795Y0092365D02*
X0047613Y0092365D01*
X0047613Y0091366D02*
X0003795Y0091366D01*
X0003795Y0090368D02*
X0047613Y0090368D01*
X0047613Y0089369D02*
X0003795Y0089369D01*
X0003795Y0088370D02*
X0047613Y0088370D01*
X0047613Y0087372D02*
X0003795Y0087372D01*
X0003795Y0086373D02*
X0047613Y0086373D01*
X0047613Y0085375D02*
X0003795Y0085375D01*
X0003795Y0084376D02*
X0047613Y0084376D01*
X0047613Y0083378D02*
X0003795Y0083378D01*
X0003795Y0082379D02*
X0047613Y0082379D01*
X0047613Y0081381D02*
X0029709Y0081381D01*
X0030833Y0080382D02*
X0047613Y0080382D01*
X0047613Y0079384D02*
X0031537Y0079384D01*
X0031951Y0078385D02*
X0047613Y0078385D01*
X0047613Y0077387D02*
X0032091Y0077387D01*
X0032091Y0076388D02*
X0047613Y0076388D01*
X0047613Y0075390D02*
X0032091Y0075390D01*
X0032091Y0074391D02*
X0047613Y0074391D01*
X0047613Y0073393D02*
X0032091Y0073393D01*
X0032234Y0072394D02*
X0047613Y0072394D01*
X0047613Y0071396D02*
X0033232Y0071396D01*
X0033894Y0070397D02*
X0047613Y0070397D01*
X0047613Y0069399D02*
X0034128Y0069399D01*
X0034128Y0068400D02*
X0047613Y0068400D01*
X0047613Y0067402D02*
X0034128Y0067402D01*
X0034128Y0066403D02*
X0047613Y0066403D01*
X0047613Y0065405D02*
X0034128Y0065405D01*
X0027928Y0063408D02*
X0003795Y0063408D01*
X0003795Y0064406D02*
X0025727Y0064406D01*
X0023868Y0065405D02*
X0003795Y0065405D01*
X0003795Y0066403D02*
X0022870Y0066403D01*
X0022446Y0067402D02*
X0003795Y0067402D01*
X0003795Y0068400D02*
X0022091Y0068400D01*
X0022091Y0069399D02*
X0003795Y0069399D01*
X0003795Y0070397D02*
X0022091Y0070397D01*
X0022091Y0071396D02*
X0003795Y0071396D01*
X0003795Y0072394D02*
X0022091Y0072394D01*
X0022091Y0073393D02*
X0003795Y0073393D01*
X0003795Y0074391D02*
X0022091Y0074391D01*
X0022091Y0075390D02*
X0003795Y0075390D01*
X0003795Y0076388D02*
X0022091Y0076388D01*
X0022091Y0077387D02*
X0003795Y0077387D01*
X0003795Y0078385D02*
X0022230Y0078385D01*
X0022644Y0079384D02*
X0003795Y0079384D01*
X0003795Y0080382D02*
X0023348Y0080382D01*
X0024472Y0081381D02*
X0003795Y0081381D01*
X0003795Y0062409D02*
X0027928Y0062409D01*
X0027928Y0061411D02*
X0003795Y0061411D01*
X0003795Y0060412D02*
X0027928Y0060412D01*
X0027928Y0059414D02*
X0003795Y0059414D01*
X0003795Y0058415D02*
X0027928Y0058415D01*
X0027928Y0057417D02*
X0003795Y0057417D01*
X0003795Y0056418D02*
X0027928Y0056418D01*
X0027928Y0055420D02*
X0003795Y0055420D01*
X0003795Y0054421D02*
X0027928Y0054421D01*
X0027928Y0053423D02*
X0003795Y0053423D01*
X0003795Y0052424D02*
X0027928Y0052424D01*
X0027928Y0051426D02*
X0003795Y0051426D01*
X0003795Y0050427D02*
X0027928Y0050427D01*
X0027928Y0049429D02*
X0003795Y0049429D01*
X0003795Y0048430D02*
X0027928Y0048430D01*
X0027928Y0047432D02*
X0003795Y0047432D01*
X0003795Y0046433D02*
X0027928Y0046433D01*
X0027319Y0045434D02*
X0003795Y0045434D01*
X0003795Y0044436D02*
X0026320Y0044436D01*
X0025759Y0043437D02*
X0003795Y0043437D01*
X0003795Y0042439D02*
X0025345Y0042439D01*
X0025178Y0041440D02*
X0003795Y0041440D01*
X0003795Y0040442D02*
X0025178Y0040442D01*
X0025286Y0039443D02*
X0003795Y0039443D01*
X0003795Y0038445D02*
X0025700Y0038445D01*
X0026178Y0037446D02*
X0003795Y0037446D01*
X0003795Y0036448D02*
X0027177Y0036448D01*
X0009062Y0019473D02*
X0003795Y0019473D01*
X0003795Y0018475D02*
X0006738Y0018475D01*
X0005739Y0017476D02*
X0003795Y0017476D01*
X0003795Y0016478D02*
X0004741Y0016478D01*
X0004165Y0015479D02*
X0003795Y0015479D01*
X0104094Y0035449D02*
X0118451Y0035449D01*
X0118303Y0035525D02*
X0119180Y0035078D01*
X0120115Y0034774D01*
X0121079Y0034621D01*
X0121079Y0040370D01*
X0122079Y0040370D01*
X0122079Y0041370D01*
X0127827Y0041370D01*
X0127675Y0042334D01*
X0127371Y0043269D01*
X0126924Y0044146D01*
X0126346Y0044942D01*
X0125650Y0045637D01*
X0124854Y0046216D01*
X0123978Y0046662D01*
X0123042Y0046966D01*
X0122079Y0047119D01*
X0122079Y0041370D01*
X0121079Y0041370D01*
X0121079Y0047119D01*
X0120115Y0046966D01*
X0119180Y0046662D01*
X0118303Y0046216D01*
X0117507Y0045637D01*
X0116812Y0044942D01*
X0116233Y0044146D01*
X0115787Y0043269D01*
X0115483Y0042334D01*
X0115330Y0041370D01*
X0121079Y0041370D01*
X0121079Y0040370D01*
X0115330Y0040370D01*
X0115483Y0039407D01*
X0115787Y0038471D01*
X0116233Y0037594D01*
X0116812Y0036798D01*
X0117507Y0036103D01*
X0118303Y0035525D01*
X0117162Y0036448D02*
X0105745Y0036448D01*
X0106743Y0037446D02*
X0116341Y0037446D01*
X0115800Y0038445D02*
X0107221Y0038445D01*
X0107635Y0039443D02*
X0115477Y0039443D01*
X0115341Y0041440D02*
X0107744Y0041440D01*
X0107744Y0040442D02*
X0121079Y0040442D01*
X0121079Y0041440D02*
X0122079Y0041440D01*
X0122079Y0040442D02*
X0135414Y0040442D01*
X0135414Y0041440D02*
X0127816Y0041440D01*
X0127641Y0042439D02*
X0135414Y0042439D01*
X0135414Y0043437D02*
X0127285Y0043437D01*
X0126713Y0044436D02*
X0135414Y0044436D01*
X0135414Y0045434D02*
X0125853Y0045434D01*
X0124428Y0046433D02*
X0135771Y0046433D01*
X0135414Y0039443D02*
X0127681Y0039443D01*
X0127675Y0039407D02*
X0127827Y0040370D01*
X0122079Y0040370D01*
X0122079Y0034621D01*
X0123042Y0034774D01*
X0123978Y0035078D01*
X0124854Y0035525D01*
X0125650Y0036103D01*
X0126346Y0036798D01*
X0126924Y0037594D01*
X0127371Y0038471D01*
X0127675Y0039407D01*
X0127358Y0038445D02*
X0135414Y0038445D01*
X0135414Y0037446D02*
X0126817Y0037446D01*
X0125995Y0036448D02*
X0135414Y0036448D01*
X0135629Y0035449D02*
X0124707Y0035449D01*
X0122079Y0035449D02*
X0121079Y0035449D01*
X0121079Y0036448D02*
X0122079Y0036448D01*
X0122079Y0037446D02*
X0121079Y0037446D01*
X0121079Y0038445D02*
X0122079Y0038445D01*
X0122079Y0039443D02*
X0121079Y0039443D01*
X0121079Y0042439D02*
X0122079Y0042439D01*
X0122079Y0043437D02*
X0121079Y0043437D01*
X0121079Y0044436D02*
X0122079Y0044436D01*
X0122079Y0045434D02*
X0121079Y0045434D01*
X0121079Y0046433D02*
X0122079Y0046433D01*
X0118730Y0046433D02*
X0103750Y0046433D01*
X0105602Y0045434D02*
X0117304Y0045434D01*
X0116444Y0044436D02*
X0106601Y0044436D01*
X0107162Y0043437D02*
X0115872Y0043437D01*
X0115517Y0042439D02*
X0107576Y0042439D01*
X0182234Y0059414D02*
X0209710Y0059414D01*
X0210708Y0060412D02*
X0182234Y0060412D01*
X0182234Y0061411D02*
X0211707Y0061411D01*
X0212706Y0062409D02*
X0182234Y0062409D01*
X0182234Y0063408D02*
X0213704Y0063408D01*
X0214467Y0064406D02*
X0182234Y0064406D01*
X0182234Y0065405D02*
X0214467Y0065405D01*
X0214467Y0066403D02*
X0182234Y0066403D01*
X0182234Y0067402D02*
X0214467Y0067402D01*
X0214467Y0068400D02*
X0182234Y0068400D01*
X0182234Y0069399D02*
X0214467Y0069399D01*
X0214467Y0070397D02*
X0182234Y0070397D01*
X0182234Y0071396D02*
X0214467Y0071396D01*
X0214467Y0072394D02*
X0182234Y0072394D01*
X0182234Y0073393D02*
X0214467Y0073393D01*
X0214467Y0074391D02*
X0182234Y0074391D01*
X0182234Y0075390D02*
X0214467Y0075390D01*
X0214467Y0076388D02*
X0182234Y0076388D01*
X0182234Y0077387D02*
X0214467Y0077387D01*
X0214467Y0078385D02*
X0182234Y0078385D01*
X0182234Y0079384D02*
X0214467Y0079384D01*
X0214467Y0080382D02*
X0182234Y0080382D01*
X0182234Y0081381D02*
X0214467Y0081381D01*
X0214467Y0082379D02*
X0182234Y0082379D01*
X0182234Y0083378D02*
X0214467Y0083378D01*
X0214467Y0084376D02*
X0182234Y0084376D01*
X0182234Y0085375D02*
X0214467Y0085375D01*
X0214467Y0086373D02*
X0182234Y0086373D01*
X0182234Y0087372D02*
X0214467Y0087372D01*
X0214467Y0088370D02*
X0182234Y0088370D01*
X0182234Y0089369D02*
X0215453Y0089369D01*
X0215404Y0089320D02*
X0215404Y0089320D01*
X0216451Y0090368D02*
X0182234Y0090368D01*
X0182234Y0091366D02*
X0217450Y0091366D01*
X0218448Y0092365D02*
X0182234Y0092365D01*
X0182234Y0093363D02*
X0219447Y0093363D01*
X0220445Y0094362D02*
X0182234Y0094362D01*
X0182234Y0095360D02*
X0221444Y0095360D01*
X0222442Y0096359D02*
X0182234Y0096359D01*
X0182234Y0097357D02*
X0223441Y0097357D01*
X0224439Y0098356D02*
X0182234Y0098356D01*
X0182234Y0099354D02*
X0225438Y0099354D01*
X0226436Y0100353D02*
X0182234Y0100353D01*
X0182234Y0101351D02*
X0227435Y0101351D01*
X0228433Y0102350D02*
X0182234Y0102350D01*
X0182234Y0103348D02*
X0229432Y0103348D01*
X0230430Y0104347D02*
X0182234Y0104347D01*
X0182234Y0105345D02*
X0231429Y0105345D01*
X0232427Y0106344D02*
X0182234Y0106344D01*
X0182234Y0107342D02*
X0233426Y0107342D01*
X0234424Y0108341D02*
X0182234Y0108341D01*
X0182234Y0109339D02*
X0235423Y0109339D01*
X0236421Y0110338D02*
X0182234Y0110338D01*
X0182234Y0111336D02*
X0237420Y0111336D01*
X0238418Y0112335D02*
X0182234Y0112335D01*
X0182234Y0113333D02*
X0239417Y0113333D01*
X0240416Y0114332D02*
X0182234Y0114332D01*
X0182234Y0115330D02*
X0241414Y0115330D01*
X0242413Y0116329D02*
X0182234Y0116329D01*
X0182234Y0117327D02*
X0243411Y0117327D01*
X0244410Y0118326D02*
X0182234Y0118326D01*
X0182234Y0119324D02*
X0245408Y0119324D01*
X0246407Y0120323D02*
X0182234Y0120323D01*
X0182234Y0121321D02*
X0247405Y0121321D01*
X0248404Y0122320D02*
X0182234Y0122320D01*
X0182234Y0123318D02*
X0249402Y0123318D01*
X0250401Y0124317D02*
X0182234Y0124317D01*
X0182234Y0125315D02*
X0251399Y0125315D01*
X0252398Y0126314D02*
X0182234Y0126314D01*
X0182234Y0127312D02*
X0253396Y0127312D01*
X0254395Y0128311D02*
X0182234Y0128311D01*
X0182234Y0129309D02*
X0199674Y0129309D01*
X0198947Y0130308D02*
X0182234Y0130308D01*
X0182234Y0131306D02*
X0198716Y0131306D01*
X0198852Y0132305D02*
X0182234Y0132305D01*
X0182234Y0133303D02*
X0199445Y0133303D01*
X0199600Y0134302D02*
X0182234Y0134302D01*
X0182234Y0135301D02*
X0199600Y0135301D01*
X0199600Y0136299D02*
X0182234Y0136299D01*
X0182234Y0137298D02*
X0199600Y0137298D01*
X0199600Y0138296D02*
X0182234Y0138296D01*
X0182234Y0139295D02*
X0200584Y0139295D01*
X0201582Y0140293D02*
X0182234Y0140293D01*
X0182234Y0141292D02*
X0202581Y0141292D01*
X0203579Y0142290D02*
X0182234Y0142290D01*
X0182234Y0143289D02*
X0204578Y0143289D01*
X0205577Y0144287D02*
X0182234Y0144287D01*
X0182234Y0145286D02*
X0206575Y0145286D01*
X0207574Y0146284D02*
X0182234Y0146284D01*
X0182234Y0147283D02*
X0208572Y0147283D01*
X0209571Y0148281D02*
X0182234Y0148281D01*
X0182234Y0149280D02*
X0210569Y0149280D01*
X0211568Y0150278D02*
X0182234Y0150278D01*
X0203961Y0137298D02*
X0261711Y0137298D01*
X0261711Y0138296D02*
X0204959Y0138296D01*
X0205958Y0139295D02*
X0261711Y0139295D01*
X0261711Y0140293D02*
X0206956Y0140293D01*
X0207955Y0141292D02*
X0261711Y0141292D01*
X0261711Y0142290D02*
X0208953Y0142290D01*
X0209952Y0143289D02*
X0261711Y0143289D01*
X0261711Y0144287D02*
X0210950Y0144287D01*
X0211949Y0145286D02*
X0261711Y0145286D01*
X0261711Y0146284D02*
X0212948Y0146284D01*
X0203400Y0136299D02*
X0261711Y0136299D01*
X0261384Y0135301D02*
X0203400Y0135301D01*
X0203400Y0134302D02*
X0260386Y0134302D01*
X0259387Y0133303D02*
X0203555Y0133303D01*
X0204148Y0132305D02*
X0258389Y0132305D01*
X0257390Y0131306D02*
X0204284Y0131306D01*
X0204052Y0130308D02*
X0256392Y0130308D01*
X0255393Y0129309D02*
X0203326Y0129309D01*
X0255043Y0110555D02*
X0275122Y0130634D01*
X0275122Y0136539D01*
X0282209Y0143626D01*
X0321972Y0143626D01*
X0342839Y0164492D01*
X0344413Y0164492D01*
X0346916Y0163259D02*
X0370901Y0163259D01*
X0370901Y0164257D02*
X0347198Y0164257D01*
X0347111Y0165256D02*
X0370901Y0165256D01*
X0370901Y0166254D02*
X0346589Y0166254D01*
X0345024Y0167253D02*
X0371673Y0167253D01*
X0371144Y0162260D02*
X0346119Y0162260D01*
X0341871Y0161262D02*
X0372143Y0161262D01*
X0373141Y0160263D02*
X0340872Y0160263D01*
X0339874Y0159265D02*
X0392906Y0159265D01*
X0392906Y0160263D02*
X0388826Y0160263D01*
X0387855Y0159292D02*
X0390901Y0162338D01*
X0390901Y0163992D01*
X0386201Y0163992D01*
X0386201Y0164992D01*
X0390901Y0164992D01*
X0390901Y0166646D01*
X0387855Y0169692D01*
X0386201Y0169692D01*
X0386201Y0164992D01*
X0385201Y0164992D01*
X0385201Y0169692D01*
X0383547Y0169692D01*
X0380501Y0166646D01*
X0380501Y0164992D01*
X0385201Y0164992D01*
X0385201Y0163992D01*
X0386201Y0163992D01*
X0386201Y0159292D01*
X0387855Y0159292D01*
X0386201Y0160263D02*
X0385201Y0160263D01*
X0385201Y0159292D02*
X0383547Y0159292D01*
X0380501Y0162338D01*
X0380501Y0163992D01*
X0385201Y0163992D01*
X0385201Y0159292D01*
X0385201Y0161262D02*
X0386201Y0161262D01*
X0386201Y0162260D02*
X0385201Y0162260D01*
X0385201Y0163259D02*
X0386201Y0163259D01*
X0386201Y0164257D02*
X0392906Y0164257D01*
X0392906Y0163259D02*
X0390901Y0163259D01*
X0390823Y0162260D02*
X0392906Y0162260D01*
X0392906Y0161262D02*
X0389824Y0161262D01*
X0390901Y0165256D02*
X0392906Y0165256D01*
X0392906Y0166254D02*
X0390901Y0166254D01*
X0390294Y0167253D02*
X0392906Y0167253D01*
X0392906Y0168251D02*
X0389295Y0168251D01*
X0388297Y0169250D02*
X0392906Y0169250D01*
X0392906Y0170248D02*
X0388245Y0170248D01*
X0389244Y0171247D02*
X0392906Y0171247D01*
X0392906Y0172245D02*
X0390242Y0172245D01*
X0390501Y0173244D02*
X0392906Y0173244D01*
X0392906Y0174242D02*
X0390501Y0174242D01*
X0390501Y0175241D02*
X0392906Y0175241D01*
X0392906Y0176239D02*
X0390501Y0176239D01*
X0389743Y0177238D02*
X0392906Y0177238D01*
X0392906Y0178237D02*
X0388745Y0178237D01*
X0387746Y0179235D02*
X0392906Y0179235D01*
X0392906Y0180234D02*
X0388230Y0180234D01*
X0389229Y0181232D02*
X0392906Y0181232D01*
X0392906Y0182231D02*
X0390227Y0182231D01*
X0390501Y0183229D02*
X0392906Y0183229D01*
X0392906Y0184228D02*
X0390501Y0184228D01*
X0390501Y0185226D02*
X0392906Y0185226D01*
X0392906Y0186225D02*
X0390501Y0186225D01*
X0389758Y0187223D02*
X0392906Y0187223D01*
X0392906Y0188222D02*
X0388759Y0188222D01*
X0387761Y0189220D02*
X0392906Y0189220D01*
X0392906Y0194213D02*
X0366856Y0194213D01*
X0367852Y0195211D02*
X0392906Y0195211D01*
X0392906Y0196210D02*
X0386971Y0196210D01*
X0389382Y0197208D02*
X0392906Y0197208D01*
X0392906Y0198207D02*
X0390731Y0198207D01*
X0391730Y0199205D02*
X0392906Y0199205D01*
X0392906Y0200204D02*
X0392486Y0200204D01*
X0392900Y0201202D02*
X0392906Y0201202D01*
X0383588Y0196210D02*
X0368450Y0196210D01*
X0368789Y0197208D02*
X0381178Y0197208D01*
X0378286Y0189220D02*
X0377761Y0189220D01*
X0378759Y0188222D02*
X0379284Y0188222D01*
X0375701Y0184492D02*
X0375701Y0183969D01*
X0365280Y0173547D01*
X0344020Y0173547D01*
X0320398Y0149925D01*
X0298744Y0149925D01*
X0288508Y0160161D01*
X0288508Y0164886D01*
X0286933Y0166461D01*
X0289717Y0166254D02*
X0319473Y0166254D01*
X0320072Y0167253D02*
X0289619Y0167253D01*
X0289080Y0168251D02*
X0320072Y0168251D01*
X0318474Y0165256D02*
X0290108Y0165256D01*
X0290108Y0164257D02*
X0317476Y0164257D01*
X0316477Y0163259D02*
X0290108Y0163259D01*
X0290108Y0162260D02*
X0315479Y0162260D01*
X0314480Y0161262D02*
X0290108Y0161262D01*
X0290669Y0160263D02*
X0313482Y0160263D01*
X0312483Y0159265D02*
X0291667Y0159265D01*
X0292666Y0158266D02*
X0311485Y0158266D01*
X0310486Y0157268D02*
X0301638Y0157268D01*
X0297818Y0157268D02*
X0293664Y0157268D01*
X0294663Y0156269D02*
X0297141Y0156269D01*
X0296944Y0155271D02*
X0295661Y0155271D01*
X0296660Y0154272D02*
X0297116Y0154272D01*
X0297658Y0153274D02*
X0297757Y0153274D01*
X0298657Y0152275D02*
X0320485Y0152275D01*
X0321483Y0153274D02*
X0301699Y0153274D01*
X0312865Y0154272D02*
X0322482Y0154272D01*
X0323480Y0155271D02*
X0313863Y0155271D01*
X0314862Y0156269D02*
X0324479Y0156269D01*
X0325477Y0157268D02*
X0315860Y0157268D01*
X0316859Y0158266D02*
X0326476Y0158266D01*
X0327474Y0159265D02*
X0317857Y0159265D01*
X0318856Y0160263D02*
X0328473Y0160263D01*
X0329472Y0161262D02*
X0319854Y0161262D01*
X0320853Y0162260D02*
X0330470Y0162260D01*
X0331469Y0163259D02*
X0321851Y0163259D01*
X0322850Y0164257D02*
X0332467Y0164257D01*
X0333466Y0165256D02*
X0323848Y0165256D01*
X0323872Y0166254D02*
X0334464Y0166254D01*
X0335463Y0167253D02*
X0323872Y0167253D01*
X0323872Y0168251D02*
X0336461Y0168251D01*
X0337460Y0169250D02*
X0323872Y0169250D01*
X0323872Y0170248D02*
X0338458Y0170248D01*
X0339457Y0171247D02*
X0323872Y0171247D01*
X0323872Y0172245D02*
X0340455Y0172245D01*
X0331330Y0173244D02*
X0323872Y0173244D01*
X0323872Y0177238D02*
X0330781Y0177238D01*
X0323872Y0182231D02*
X0371174Y0182231D01*
X0370901Y0183229D02*
X0323872Y0183229D01*
X0323872Y0184228D02*
X0370901Y0184228D01*
X0370901Y0185226D02*
X0323872Y0185226D01*
X0323872Y0186225D02*
X0370901Y0186225D01*
X0371644Y0187223D02*
X0323872Y0187223D01*
X0323872Y0188222D02*
X0372642Y0188222D01*
X0373641Y0189220D02*
X0323872Y0189220D01*
X0323872Y0190219D02*
X0332535Y0190219D01*
X0331537Y0191217D02*
X0323872Y0191217D01*
X0323872Y0192216D02*
X0330538Y0192216D01*
X0329540Y0193214D02*
X0323872Y0193214D01*
X0323872Y0194213D02*
X0328541Y0194213D01*
X0327543Y0195211D02*
X0323872Y0195211D01*
X0323872Y0196210D02*
X0326544Y0196210D01*
X0325546Y0197208D02*
X0323833Y0197208D01*
X0324547Y0198207D02*
X0322835Y0198207D01*
X0323549Y0199205D02*
X0321836Y0199205D01*
X0322550Y0200204D02*
X0320838Y0200204D01*
X0321552Y0201202D02*
X0319839Y0201202D01*
X0320553Y0202201D02*
X0318841Y0202201D01*
X0319679Y0203199D02*
X0317842Y0203199D01*
X0316844Y0204198D02*
X0319679Y0204198D01*
X0315464Y0200204D02*
X0306828Y0200204D01*
X0310555Y0195594D02*
X0303862Y0188902D01*
X0312784Y0183229D02*
X0280348Y0183229D01*
X0277532Y0177238D02*
X0320072Y0177238D01*
X0320072Y0176239D02*
X0276534Y0176239D01*
X0310555Y0195594D02*
X0310752Y0195594D01*
X0330920Y0197208D02*
X0358621Y0197208D01*
X0358959Y0196210D02*
X0331918Y0196210D01*
X0332917Y0195211D02*
X0359558Y0195211D01*
X0360553Y0194213D02*
X0333915Y0194213D01*
X0334914Y0193214D02*
X0362893Y0193214D01*
X0385701Y0174492D02*
X0385701Y0174283D01*
X0381028Y0169610D01*
X0381931Y0168251D02*
X0382106Y0168251D01*
X0382930Y0169250D02*
X0383105Y0169250D01*
X0385201Y0169250D02*
X0386201Y0169250D01*
X0386201Y0168251D02*
X0385201Y0168251D01*
X0385201Y0167253D02*
X0386201Y0167253D01*
X0386201Y0166254D02*
X0385201Y0166254D01*
X0385201Y0165256D02*
X0386201Y0165256D01*
X0385201Y0164257D02*
X0380501Y0164257D01*
X0380501Y0163259D02*
X0380501Y0163259D01*
X0380579Y0162260D02*
X0380257Y0162260D01*
X0379259Y0161262D02*
X0381577Y0161262D01*
X0382576Y0160263D02*
X0378260Y0160263D01*
X0380501Y0165256D02*
X0380501Y0165256D01*
X0380501Y0166254D02*
X0380501Y0166254D01*
X0381108Y0167253D02*
X0379728Y0167253D01*
X0392906Y0158266D02*
X0338875Y0158266D01*
X0337877Y0157268D02*
X0392906Y0157268D01*
X0392906Y0156269D02*
X0336878Y0156269D01*
X0335880Y0155271D02*
X0392906Y0155271D01*
X0392906Y0154272D02*
X0334881Y0154272D01*
X0333883Y0153274D02*
X0392906Y0153274D01*
X0392906Y0152275D02*
X0332884Y0152275D01*
X0331886Y0151277D02*
X0392906Y0151277D01*
X0392906Y0150278D02*
X0330887Y0150278D01*
X0329889Y0149280D02*
X0392906Y0149280D01*
X0392906Y0148281D02*
X0328890Y0148281D01*
X0327892Y0147283D02*
X0392906Y0147283D01*
X0392906Y0146284D02*
X0326893Y0146284D01*
X0325895Y0145286D02*
X0392906Y0145286D01*
X0392906Y0144287D02*
X0324896Y0144287D01*
X0323898Y0143289D02*
X0392906Y0143289D01*
X0392906Y0142290D02*
X0322899Y0142290D01*
X0321060Y0138533D02*
X0314074Y0138533D01*
X0313313Y0139293D01*
X0312290Y0139717D01*
X0311182Y0139717D01*
X0310159Y0139293D01*
X0309376Y0138510D01*
X0308952Y0137487D01*
X0308952Y0136379D01*
X0309376Y0135356D01*
X0310159Y0134573D01*
X0311182Y0134149D01*
X0312290Y0134149D01*
X0313313Y0134573D01*
X0314074Y0135333D01*
X0319735Y0135333D01*
X0324306Y0130762D01*
X0324306Y0129686D01*
X0324730Y0128663D01*
X0325513Y0127880D01*
X0326537Y0127456D01*
X0327644Y0127456D01*
X0328668Y0127880D01*
X0329451Y0128663D01*
X0329875Y0129686D01*
X0329875Y0130794D01*
X0329451Y0131817D01*
X0328668Y0132601D01*
X0327644Y0133024D01*
X0326569Y0133024D01*
X0321060Y0138533D01*
X0321297Y0138296D02*
X0392906Y0138296D01*
X0392906Y0137298D02*
X0322296Y0137298D01*
X0323294Y0136299D02*
X0392906Y0136299D01*
X0392906Y0135301D02*
X0324293Y0135301D01*
X0325291Y0134302D02*
X0392906Y0134302D01*
X0392906Y0133303D02*
X0326290Y0133303D01*
X0328963Y0132305D02*
X0392906Y0132305D01*
X0392906Y0131306D02*
X0329663Y0131306D01*
X0329875Y0130308D02*
X0392906Y0130308D01*
X0392906Y0129309D02*
X0329719Y0129309D01*
X0329099Y0128311D02*
X0392906Y0128311D01*
X0392906Y0127312D02*
X0326475Y0127312D01*
X0326305Y0127482D02*
X0327089Y0126699D01*
X0327513Y0125676D01*
X0327513Y0124568D01*
X0327089Y0123545D01*
X0326305Y0122762D01*
X0325282Y0122338D01*
X0324175Y0122338D01*
X0323151Y0122762D01*
X0322368Y0123545D01*
X0321944Y0124568D01*
X0321944Y0125644D01*
X0317373Y0130215D01*
X0308711Y0130215D01*
X0307774Y0131152D01*
X0303837Y0135089D01*
X0303837Y0136564D01*
X0303077Y0137324D01*
X0302653Y0138348D01*
X0302653Y0139455D01*
X0303077Y0140479D01*
X0303860Y0141262D01*
X0304883Y0141686D01*
X0305991Y0141686D01*
X0307014Y0141262D01*
X0307797Y0140479D01*
X0308221Y0139455D01*
X0308221Y0138348D01*
X0307797Y0137324D01*
X0307037Y0136564D01*
X0307037Y0136415D01*
X0310037Y0133415D01*
X0318698Y0133415D01*
X0324207Y0127906D01*
X0325282Y0127906D01*
X0326305Y0127482D01*
X0325082Y0128311D02*
X0323802Y0128311D01*
X0324462Y0129309D02*
X0322804Y0129309D01*
X0321805Y0130308D02*
X0324306Y0130308D01*
X0323761Y0131306D02*
X0320807Y0131306D01*
X0319808Y0132305D02*
X0322763Y0132305D01*
X0321764Y0133303D02*
X0318810Y0133303D01*
X0318035Y0131815D02*
X0324728Y0125122D01*
X0327248Y0126314D02*
X0392906Y0126314D01*
X0392906Y0125315D02*
X0327513Y0125315D01*
X0327408Y0124317D02*
X0392906Y0124317D01*
X0392906Y0123318D02*
X0326862Y0123318D01*
X0322594Y0123318D02*
X0270069Y0123318D01*
X0269071Y0122320D02*
X0392906Y0122320D01*
X0392906Y0121321D02*
X0268072Y0121321D01*
X0267074Y0120323D02*
X0392906Y0120323D01*
X0392906Y0119324D02*
X0266075Y0119324D01*
X0265077Y0118326D02*
X0392906Y0118326D01*
X0392906Y0117327D02*
X0264078Y0117327D01*
X0263080Y0116329D02*
X0392906Y0116329D01*
X0392906Y0115330D02*
X0262081Y0115330D01*
X0261083Y0114332D02*
X0392906Y0114332D01*
X0392906Y0113333D02*
X0260084Y0113333D01*
X0259086Y0112335D02*
X0392906Y0112335D01*
X0392906Y0111336D02*
X0258087Y0111336D01*
X0257089Y0110338D02*
X0392906Y0110338D01*
X0392906Y0109339D02*
X0256643Y0109339D01*
X0256643Y0108341D02*
X0392906Y0108341D01*
X0392906Y0107342D02*
X0256643Y0107342D01*
X0256643Y0106344D02*
X0392906Y0106344D01*
X0392906Y0105345D02*
X0256643Y0105345D01*
X0256643Y0104347D02*
X0392906Y0104347D01*
X0392906Y0103348D02*
X0256643Y0103348D01*
X0256643Y0102350D02*
X0382562Y0102350D01*
X0380402Y0101351D02*
X0256643Y0101351D01*
X0256643Y0100353D02*
X0379403Y0100353D01*
X0378405Y0099354D02*
X0256643Y0099354D01*
X0256643Y0098356D02*
X0377897Y0098356D01*
X0377483Y0097357D02*
X0256643Y0097357D01*
X0256643Y0096359D02*
X0377070Y0096359D01*
X0376980Y0095360D02*
X0256643Y0095360D01*
X0256643Y0094362D02*
X0376980Y0094362D01*
X0376980Y0093363D02*
X0256643Y0093363D01*
X0256643Y0092365D02*
X0377178Y0092365D01*
X0377591Y0091366D02*
X0256643Y0091366D01*
X0256643Y0090368D02*
X0378005Y0090368D01*
X0378666Y0089369D02*
X0256643Y0089369D01*
X0256643Y0088370D02*
X0379664Y0088370D01*
X0380782Y0087372D02*
X0256643Y0087372D01*
X0256643Y0086373D02*
X0383193Y0086373D01*
X0387366Y0086373D02*
X0392906Y0086373D01*
X0392906Y0087372D02*
X0389777Y0087372D01*
X0390895Y0088370D02*
X0392906Y0088370D01*
X0392906Y0089369D02*
X0391893Y0089369D01*
X0392554Y0090368D02*
X0392906Y0090368D01*
X0392838Y0085375D02*
X0256643Y0085375D01*
X0256643Y0084376D02*
X0391839Y0084376D01*
X0390841Y0083378D02*
X0256643Y0083378D01*
X0256643Y0082379D02*
X0389842Y0082379D01*
X0388844Y0081381D02*
X0256643Y0081381D01*
X0256643Y0080382D02*
X0387845Y0080382D01*
X0386847Y0079384D02*
X0256643Y0079384D01*
X0257530Y0078385D02*
X0262872Y0078385D01*
X0261873Y0077387D02*
X0258529Y0077387D01*
X0259527Y0076388D02*
X0260874Y0076388D01*
X0260801Y0075390D02*
X0259601Y0075390D01*
X0259601Y0074391D02*
X0260801Y0074391D01*
X0260801Y0073393D02*
X0259601Y0073393D01*
X0259325Y0072394D02*
X0261076Y0072394D01*
X0262075Y0071396D02*
X0258327Y0071396D01*
X0257328Y0070397D02*
X0263073Y0070397D01*
X0268327Y0071396D02*
X0272075Y0071396D01*
X0271076Y0072394D02*
X0269325Y0072394D01*
X0269601Y0073393D02*
X0270801Y0073393D01*
X0270801Y0074391D02*
X0269601Y0074391D01*
X0269601Y0075390D02*
X0270801Y0075390D01*
X0270874Y0076388D02*
X0269527Y0076388D01*
X0268529Y0077387D02*
X0271873Y0077387D01*
X0272872Y0078385D02*
X0267530Y0078385D01*
X0255201Y0074492D02*
X0255043Y0074650D01*
X0255043Y0110555D01*
X0271068Y0124317D02*
X0322048Y0124317D01*
X0321944Y0125315D02*
X0272066Y0125315D01*
X0273065Y0126314D02*
X0321274Y0126314D01*
X0320275Y0127312D02*
X0274063Y0127312D01*
X0275062Y0128311D02*
X0319277Y0128311D01*
X0318278Y0129309D02*
X0276060Y0129309D01*
X0276722Y0130308D02*
X0308618Y0130308D01*
X0307620Y0131306D02*
X0276722Y0131306D01*
X0276722Y0132305D02*
X0306621Y0132305D01*
X0305623Y0133303D02*
X0276722Y0133303D01*
X0276722Y0134302D02*
X0304624Y0134302D01*
X0303837Y0135301D02*
X0276722Y0135301D01*
X0277144Y0136299D02*
X0303837Y0136299D01*
X0303104Y0137298D02*
X0278143Y0137298D01*
X0279141Y0138296D02*
X0302674Y0138296D01*
X0302653Y0139295D02*
X0280140Y0139295D01*
X0281138Y0140293D02*
X0303000Y0140293D01*
X0303931Y0141292D02*
X0282137Y0141292D01*
X0305437Y0138902D02*
X0305437Y0135752D01*
X0309374Y0131815D01*
X0318035Y0131815D01*
X0320766Y0134302D02*
X0312660Y0134302D01*
X0314041Y0135301D02*
X0319767Y0135301D01*
X0320398Y0136933D02*
X0327091Y0130240D01*
X0320398Y0136933D02*
X0311736Y0136933D01*
X0310813Y0134302D02*
X0309150Y0134302D01*
X0309431Y0135301D02*
X0308151Y0135301D01*
X0308985Y0136299D02*
X0307153Y0136299D01*
X0307770Y0137298D02*
X0308952Y0137298D01*
X0309287Y0138296D02*
X0308200Y0138296D01*
X0308221Y0139295D02*
X0310162Y0139295D01*
X0307874Y0140293D02*
X0392906Y0140293D01*
X0392906Y0139295D02*
X0313311Y0139295D01*
X0306943Y0141292D02*
X0392906Y0141292D01*
X0392906Y0102350D02*
X0387997Y0102350D01*
X0390157Y0101351D02*
X0392906Y0101351D01*
X0392906Y0100353D02*
X0391156Y0100353D01*
X0392154Y0099354D02*
X0392906Y0099354D01*
X0392906Y0098356D02*
X0392662Y0098356D01*
X0326669Y0216180D02*
X0146527Y0216180D01*
X0147114Y0217178D02*
X0327063Y0217178D01*
X0328222Y0218177D02*
X0147114Y0218177D01*
X0139078Y0204198D02*
X0110237Y0204198D01*
X0124239Y0197208D02*
X0003795Y0197208D01*
X0003795Y0196210D02*
X0123781Y0196210D01*
X0123432Y0195211D02*
X0003795Y0195211D01*
X0003795Y0194213D02*
X0123432Y0194213D01*
X0123534Y0193214D02*
X0003795Y0193214D01*
X0003795Y0192216D02*
X0123947Y0192216D01*
X0124640Y0191217D02*
X0003795Y0191217D01*
X0003795Y0190219D02*
X0125816Y0190219D01*
X0125237Y0198207D02*
X0003795Y0198207D01*
X0003863Y0199205D02*
X0127258Y0199205D01*
X0092551Y0153075D02*
X0097957Y0147669D01*
X0097957Y0113705D01*
X0103862Y0107799D01*
X0139295Y0107799D01*
X0103055Y0106344D02*
X0095070Y0106344D01*
X0093792Y0107342D02*
X0102056Y0107342D01*
X0101058Y0108341D02*
X0093665Y0108341D01*
X0095604Y0109339D02*
X0100059Y0109339D01*
X0099061Y0110338D02*
X0096602Y0110338D01*
X0097027Y0111336D02*
X0098062Y0111336D01*
X0096357Y0128311D02*
X0093593Y0128311D01*
X0095574Y0129309D02*
X0096357Y0129309D01*
X0096357Y0136299D02*
X0096115Y0136299D01*
X0096357Y0137298D02*
X0094900Y0137298D01*
X0096357Y0138296D02*
X0092557Y0138296D01*
X0094559Y0139295D02*
X0096357Y0139295D01*
X0096357Y0140293D02*
X0095558Y0140293D01*
X0096008Y0141292D02*
X0096357Y0141292D01*
X0096351Y0142290D02*
X0096357Y0142290D01*
X0096351Y0143289D02*
X0096357Y0143289D01*
X0096357Y0144287D02*
X0096245Y0144287D01*
X0096357Y0145286D02*
X0095831Y0145286D01*
X0096357Y0146284D02*
X0095130Y0146284D01*
X0096081Y0147283D02*
X0093936Y0147283D01*
X0093521Y0148281D02*
X0095082Y0148281D01*
X0025164Y0125315D02*
X0003795Y0125315D01*
X0003795Y0124317D02*
X0024151Y0124317D01*
X0023738Y0123318D02*
X0003795Y0123318D01*
X0003795Y0122320D02*
X0023628Y0122320D01*
X0023776Y0121321D02*
X0003795Y0121321D01*
X0003795Y0120323D02*
X0024238Y0120323D01*
D21*
X0021185Y0119610D03*
X0040870Y0111736D03*
X0056618Y0111736D03*
X0021185Y0099925D03*
X0021185Y0060555D03*
X0021185Y0040870D03*
X0021185Y0021185D03*
X0040870Y0021185D03*
X0060555Y0021185D03*
X0080240Y0021185D03*
X0099925Y0021185D03*
X0119610Y0021185D03*
X0139295Y0021185D03*
X0158980Y0021185D03*
X0158980Y0040870D03*
X0149138Y0052681D03*
X0141264Y0064492D03*
X0133390Y0062524D03*
X0133390Y0068429D03*
X0119610Y0070398D03*
X0109768Y0056618D03*
X0145201Y0088114D03*
X0158980Y0080240D03*
X0167839Y0095004D03*
X0183587Y0095004D03*
X0198350Y0099925D03*
X0194413Y0111736D03*
X0183587Y0111736D03*
X0162917Y0122563D03*
X0158980Y0139295D03*
X0139295Y0139295D03*
X0135358Y0131421D03*
X0139689Y0124728D03*
X0135358Y0111736D03*
X0139295Y0107799D03*
X0153075Y0104256D03*
X0119610Y0103862D03*
X0119610Y0111736D03*
X0104846Y0118626D03*
X0076303Y0150122D03*
X0080240Y0158980D03*
X0060555Y0158980D03*
X0040870Y0158980D03*
X0021185Y0158980D03*
X0021185Y0139295D03*
X0021185Y0178665D03*
X0040870Y0178665D03*
X0060555Y0178665D03*
X0080240Y0178665D03*
X0099925Y0178665D03*
X0119610Y0178665D03*
X0139295Y0178665D03*
X0158980Y0178665D03*
X0185752Y0179059D03*
X0158980Y0158980D03*
X0137720Y0160555D03*
X0119610Y0158980D03*
X0099925Y0158980D03*
X0093035Y0196382D03*
X0076303Y0198350D03*
X0060555Y0198350D03*
X0040870Y0198350D03*
X0021185Y0198350D03*
X0119610Y0206224D03*
X0184571Y0240870D03*
X0194413Y0225909D03*
X0200713Y0211343D03*
X0231421Y0238508D03*
X0262130Y0212130D03*
X0265280Y0205437D03*
X0268429Y0202287D03*
X0262917Y0199138D03*
X0258193Y0194807D03*
X0261736Y0183783D03*
X0253075Y0176697D03*
X0258193Y0173941D03*
X0277484Y0160949D03*
X0285358Y0162524D03*
X0286933Y0166461D03*
X0282209Y0169610D03*
X0292051Y0161736D03*
X0299728Y0155240D03*
X0301106Y0170988D03*
X0304650Y0174531D03*
X0308193Y0170988D03*
X0308193Y0178075D03*
X0301106Y0178075D03*
X0314886Y0187720D03*
X0312524Y0191264D03*
X0310752Y0195594D03*
X0306618Y0198154D03*
X0302287Y0198350D03*
X0292051Y0203075D03*
X0287720Y0210949D03*
X0280634Y0208193D03*
X0278665Y0203862D03*
X0282602Y0190083D03*
X0278862Y0180831D03*
X0249531Y0158980D03*
X0237720Y0167248D03*
X0210161Y0153862D03*
X0185358Y0151106D03*
X0201500Y0131421D03*
X0212917Y0129059D03*
X0233390Y0127878D03*
X0249531Y0139295D03*
X0279846Y0147563D03*
X0293232Y0129059D03*
X0305437Y0138902D03*
X0311736Y0136933D03*
X0327091Y0130240D03*
X0324728Y0125122D03*
X0296776Y0111736D03*
X0273154Y0107799D03*
X0259374Y0103469D03*
X0250713Y0103075D03*
X0250319Y0094020D03*
X0258980Y0094020D03*
X0281028Y0092051D03*
X0316461Y0092051D03*
X0315280Y0073941D03*
X0326303Y0050713D03*
X0332209Y0051500D03*
X0341067Y0043823D03*
X0355831Y0040870D03*
X0355831Y0060555D03*
X0353862Y0015280D03*
X0341067Y0014295D03*
X0312209Y0012327D03*
X0307250Y0008193D03*
X0286933Y0021185D03*
X0281028Y0023154D03*
X0286933Y0031028D03*
X0275122Y0031028D03*
X0265280Y0031028D03*
X0267248Y0021185D03*
X0279059Y0005437D03*
X0281028Y0042839D03*
X0275122Y0042839D03*
X0270398Y0042839D03*
X0265280Y0042839D03*
X0260949Y0042839D03*
X0265280Y0053665D03*
X0275122Y0053665D03*
X0281028Y0054650D03*
X0253469Y0054650D03*
X0220988Y0055634D03*
X0216067Y0055634D03*
X0202287Y0056618D03*
X0193429Y0055634D03*
X0199335Y0044807D03*
X0178665Y0040870D03*
X0168823Y0053469D03*
X0164886Y0058587D03*
X0164886Y0064492D03*
X0198350Y0080240D03*
X0202287Y0068429D03*
X0219610Y0099531D03*
X0214098Y0111736D03*
X0232602Y0110161D03*
X0326697Y0164886D03*
X0329846Y0171185D03*
X0332996Y0175516D03*
X0344413Y0164492D03*
X0360161Y0149531D03*
X0359768Y0127484D03*
X0373547Y0109768D03*
X0387327Y0131421D03*
X0351894Y0182602D03*
X0325909Y0190083D03*
X0326303Y0205437D03*
X0323154Y0215673D03*
X0329453Y0215673D03*
X0347563Y0223941D03*
X0347563Y0233783D03*
X0335752Y0230634D03*
X0299531Y0214492D03*
X0291657Y0236933D03*
X0374728Y0245594D03*
X0381618Y0195201D03*
X0152287Y0260555D03*
X0206224Y0015280D03*
X0197000Y0008193D03*
D22*
X0195398Y0004453D02*
X0268232Y0004453D01*
X0275122Y0011343D01*
X0275122Y0031028D01*
X0275122Y0042839D01*
X0265280Y0042839D02*
X0265280Y0031028D01*
X0281028Y0023154D02*
X0281028Y0011343D01*
X0287917Y0004453D01*
X0358783Y0004453D01*
X0362209Y0007878D01*
X0362209Y0023559D01*
X0362209Y0034559D01*
X0275122Y0053665D02*
X0275122Y0074413D01*
X0275201Y0074492D01*
X0265280Y0074413D02*
X0265280Y0053665D01*
X0265280Y0074413D02*
X0265201Y0074492D01*
X0192445Y0023087D02*
X0191972Y0023559D01*
X0192445Y0023087D02*
X0192445Y0007406D01*
X0195398Y0004453D01*
X0201500Y0131421D02*
X0201500Y0137524D01*
X0213114Y0149138D01*
X0229846Y0149138D01*
X0233783Y0153075D01*
X0233783Y0164886D01*
X0221972Y0176697D01*
X0253075Y0176697D01*
X0269610Y0191264D02*
X0198350Y0191264D01*
X0195201Y0188114D01*
X0195201Y0182642D01*
X0195161Y0182602D01*
X0195161Y0172917D01*
X0205161Y0162917D01*
X0217130Y0176697D02*
X0221972Y0176697D01*
X0217130Y0176697D02*
X0215161Y0178665D01*
X0215161Y0182602D01*
X0269610Y0191264D02*
X0274335Y0195988D01*
X0277484Y0195988D01*
X0289295Y0207799D01*
X0321579Y0207799D01*
X0329453Y0215673D01*
X0321579Y0207799D02*
X0321579Y0203862D01*
X0334177Y0191264D01*
X0378929Y0191264D01*
X0385701Y0184492D01*
X0321972Y0175516D02*
X0321972Y0166067D01*
X0311146Y0155240D01*
X0299728Y0155240D01*
X0321972Y0175516D02*
X0321972Y0196382D01*
X0315673Y0202681D01*
X0306618Y0202681D01*
X0302287Y0198350D01*
D23*
X0158232Y0197130D02*
X0158232Y0194413D01*
X0158232Y0197130D02*
X0150319Y0205043D01*
X0142051Y0205043D01*
X0127878Y0219217D01*
X0127878Y0247957D01*
X0141264Y0261343D01*
D24*
X0050713Y0129256D02*
X0050713Y0040870D01*
X0070398Y0040870D02*
X0070398Y0069217D01*
X0074335Y0073154D01*
X0031028Y0069217D02*
X0031028Y0040870D01*
X0031028Y0069217D02*
X0027091Y0073154D01*
M02*
