G75*
%MOIN*%
%OFA0B0*%
%FSLAX25Y25*%
%IPPOS*%
%LPD*%
%AMOC8*
5,1,8,0,0,1.08239X$1,22.5*
%
%ADD10C,0.00591*%
%ADD11C,0.00500*%
%ADD12C,0.00800*%
%ADD13C,0.01100*%
%ADD14C,0.00000*%
%ADD15C,0.00600*%
%ADD16C,0.00866*%
%ADD17C,0.01000*%
%ADD18C,0.01181*%
%ADD19C,0.00400*%
D10*
X0001500Y0005437D02*
X0001500Y0198350D01*
X0001502Y0198540D01*
X0001509Y0198730D01*
X0001521Y0198920D01*
X0001537Y0199110D01*
X0001557Y0199299D01*
X0001583Y0199488D01*
X0001612Y0199676D01*
X0001647Y0199863D01*
X0001686Y0200049D01*
X0001729Y0200234D01*
X0001777Y0200419D01*
X0001829Y0200602D01*
X0001885Y0200783D01*
X0001946Y0200963D01*
X0002012Y0201142D01*
X0002081Y0201319D01*
X0002155Y0201495D01*
X0002233Y0201668D01*
X0002316Y0201840D01*
X0002402Y0202009D01*
X0002492Y0202177D01*
X0002587Y0202342D01*
X0002685Y0202505D01*
X0002788Y0202665D01*
X0002894Y0202823D01*
X0003004Y0202978D01*
X0003117Y0203131D01*
X0003235Y0203281D01*
X0003356Y0203427D01*
X0003480Y0203571D01*
X0003608Y0203712D01*
X0003739Y0203850D01*
X0003874Y0203985D01*
X0004012Y0204116D01*
X0004153Y0204244D01*
X0004297Y0204368D01*
X0004443Y0204489D01*
X0004593Y0204607D01*
X0004746Y0204720D01*
X0004901Y0204830D01*
X0005059Y0204936D01*
X0005219Y0205039D01*
X0005382Y0205137D01*
X0005547Y0205232D01*
X0005715Y0205322D01*
X0005884Y0205408D01*
X0006056Y0205491D01*
X0006229Y0205569D01*
X0006405Y0205643D01*
X0006582Y0205712D01*
X0006761Y0205778D01*
X0006941Y0205839D01*
X0007122Y0205895D01*
X0007305Y0205947D01*
X0007490Y0205995D01*
X0007675Y0206038D01*
X0007861Y0206077D01*
X0008048Y0206112D01*
X0008236Y0206141D01*
X0008425Y0206167D01*
X0008614Y0206187D01*
X0008804Y0206203D01*
X0008994Y0206215D01*
X0009184Y0206222D01*
X0009374Y0206224D01*
X0107799Y0206224D01*
X0117642Y0202287D02*
X0168823Y0202287D01*
X0168947Y0202285D01*
X0169070Y0202279D01*
X0169194Y0202270D01*
X0169316Y0202256D01*
X0169439Y0202239D01*
X0169561Y0202217D01*
X0169682Y0202192D01*
X0169802Y0202163D01*
X0169921Y0202131D01*
X0170040Y0202094D01*
X0170157Y0202054D01*
X0170272Y0202011D01*
X0170387Y0201963D01*
X0170499Y0201912D01*
X0170610Y0201858D01*
X0170720Y0201800D01*
X0170827Y0201739D01*
X0170933Y0201674D01*
X0171036Y0201606D01*
X0171137Y0201535D01*
X0171236Y0201461D01*
X0171333Y0201384D01*
X0171427Y0201303D01*
X0171518Y0201220D01*
X0171607Y0201134D01*
X0171693Y0201045D01*
X0171776Y0200954D01*
X0171857Y0200860D01*
X0171934Y0200763D01*
X0172008Y0200664D01*
X0172079Y0200563D01*
X0172147Y0200460D01*
X0172212Y0200354D01*
X0172273Y0200247D01*
X0172331Y0200137D01*
X0172385Y0200026D01*
X0172436Y0199914D01*
X0172484Y0199799D01*
X0172527Y0199684D01*
X0172567Y0199567D01*
X0172604Y0199448D01*
X0172636Y0199329D01*
X0172665Y0199209D01*
X0172690Y0199088D01*
X0172712Y0198966D01*
X0172729Y0198843D01*
X0172743Y0198721D01*
X0172752Y0198597D01*
X0172758Y0198474D01*
X0172760Y0198350D01*
X0172760Y0135358D01*
X0172758Y0135234D01*
X0172752Y0135111D01*
X0172743Y0134987D01*
X0172729Y0134865D01*
X0172712Y0134742D01*
X0172690Y0134620D01*
X0172665Y0134499D01*
X0172636Y0134379D01*
X0172604Y0134260D01*
X0172567Y0134141D01*
X0172527Y0134024D01*
X0172484Y0133909D01*
X0172436Y0133794D01*
X0172385Y0133682D01*
X0172331Y0133571D01*
X0172273Y0133461D01*
X0172212Y0133354D01*
X0172147Y0133248D01*
X0172079Y0133145D01*
X0172008Y0133044D01*
X0171934Y0132945D01*
X0171857Y0132848D01*
X0171776Y0132754D01*
X0171693Y0132663D01*
X0171607Y0132574D01*
X0171518Y0132488D01*
X0171427Y0132405D01*
X0171333Y0132324D01*
X0171236Y0132247D01*
X0171137Y0132173D01*
X0171036Y0132102D01*
X0170933Y0132034D01*
X0170827Y0131969D01*
X0170720Y0131908D01*
X0170610Y0131850D01*
X0170499Y0131796D01*
X0170387Y0131745D01*
X0170272Y0131697D01*
X0170157Y0131654D01*
X0170040Y0131614D01*
X0169921Y0131577D01*
X0169802Y0131545D01*
X0169682Y0131516D01*
X0169561Y0131491D01*
X0169439Y0131469D01*
X0169316Y0131452D01*
X0169194Y0131438D01*
X0169070Y0131429D01*
X0168947Y0131423D01*
X0168823Y0131421D01*
X0117642Y0131421D01*
X0117518Y0131423D01*
X0117395Y0131429D01*
X0117271Y0131438D01*
X0117149Y0131452D01*
X0117026Y0131469D01*
X0116904Y0131491D01*
X0116783Y0131516D01*
X0116663Y0131545D01*
X0116544Y0131577D01*
X0116425Y0131614D01*
X0116308Y0131654D01*
X0116193Y0131697D01*
X0116078Y0131745D01*
X0115966Y0131796D01*
X0115855Y0131850D01*
X0115745Y0131908D01*
X0115638Y0131969D01*
X0115532Y0132034D01*
X0115429Y0132102D01*
X0115328Y0132173D01*
X0115229Y0132247D01*
X0115132Y0132324D01*
X0115038Y0132405D01*
X0114947Y0132488D01*
X0114858Y0132574D01*
X0114772Y0132663D01*
X0114689Y0132754D01*
X0114608Y0132848D01*
X0114531Y0132945D01*
X0114457Y0133044D01*
X0114386Y0133145D01*
X0114318Y0133248D01*
X0114253Y0133354D01*
X0114192Y0133461D01*
X0114134Y0133571D01*
X0114080Y0133682D01*
X0114029Y0133794D01*
X0113981Y0133909D01*
X0113938Y0134024D01*
X0113898Y0134141D01*
X0113861Y0134260D01*
X0113829Y0134379D01*
X0113800Y0134499D01*
X0113775Y0134620D01*
X0113753Y0134742D01*
X0113736Y0134865D01*
X0113722Y0134987D01*
X0113713Y0135111D01*
X0113707Y0135234D01*
X0113705Y0135358D01*
X0113705Y0198350D01*
X0113707Y0198474D01*
X0113713Y0198597D01*
X0113722Y0198721D01*
X0113736Y0198843D01*
X0113753Y0198966D01*
X0113775Y0199088D01*
X0113800Y0199209D01*
X0113829Y0199329D01*
X0113861Y0199448D01*
X0113898Y0199567D01*
X0113938Y0199684D01*
X0113981Y0199799D01*
X0114029Y0199914D01*
X0114080Y0200026D01*
X0114134Y0200137D01*
X0114192Y0200247D01*
X0114253Y0200354D01*
X0114318Y0200460D01*
X0114386Y0200563D01*
X0114457Y0200664D01*
X0114531Y0200763D01*
X0114608Y0200860D01*
X0114689Y0200954D01*
X0114772Y0201045D01*
X0114858Y0201134D01*
X0114947Y0201220D01*
X0115038Y0201303D01*
X0115132Y0201384D01*
X0115229Y0201461D01*
X0115328Y0201535D01*
X0115429Y0201606D01*
X0115532Y0201674D01*
X0115638Y0201739D01*
X0115745Y0201800D01*
X0115855Y0201858D01*
X0115966Y0201912D01*
X0116078Y0201963D01*
X0116193Y0202011D01*
X0116308Y0202054D01*
X0116425Y0202094D01*
X0116544Y0202131D01*
X0116663Y0202163D01*
X0116783Y0202192D01*
X0116904Y0202217D01*
X0117026Y0202239D01*
X0117149Y0202256D01*
X0117271Y0202270D01*
X0117395Y0202279D01*
X0117518Y0202285D01*
X0117642Y0202287D01*
X0115673Y0214098D02*
X0115673Y0266618D01*
X0115675Y0266808D01*
X0115682Y0266998D01*
X0115694Y0267188D01*
X0115710Y0267378D01*
X0115730Y0267567D01*
X0115756Y0267756D01*
X0115785Y0267944D01*
X0115820Y0268131D01*
X0115859Y0268317D01*
X0115902Y0268502D01*
X0115950Y0268687D01*
X0116002Y0268870D01*
X0116058Y0269051D01*
X0116119Y0269231D01*
X0116185Y0269410D01*
X0116254Y0269587D01*
X0116328Y0269763D01*
X0116406Y0269936D01*
X0116489Y0270108D01*
X0116575Y0270277D01*
X0116665Y0270445D01*
X0116760Y0270610D01*
X0116858Y0270773D01*
X0116961Y0270933D01*
X0117067Y0271091D01*
X0117177Y0271246D01*
X0117290Y0271399D01*
X0117408Y0271549D01*
X0117529Y0271695D01*
X0117653Y0271839D01*
X0117781Y0271980D01*
X0117912Y0272118D01*
X0118047Y0272253D01*
X0118185Y0272384D01*
X0118326Y0272512D01*
X0118470Y0272636D01*
X0118616Y0272757D01*
X0118766Y0272875D01*
X0118919Y0272988D01*
X0119074Y0273098D01*
X0119232Y0273204D01*
X0119392Y0273307D01*
X0119555Y0273405D01*
X0119720Y0273500D01*
X0119888Y0273590D01*
X0120057Y0273676D01*
X0120229Y0273759D01*
X0120402Y0273837D01*
X0120578Y0273911D01*
X0120755Y0273980D01*
X0120934Y0274046D01*
X0121114Y0274107D01*
X0121295Y0274163D01*
X0121478Y0274215D01*
X0121663Y0274263D01*
X0121848Y0274306D01*
X0122034Y0274345D01*
X0122221Y0274380D01*
X0122409Y0274409D01*
X0122598Y0274435D01*
X0122787Y0274455D01*
X0122977Y0274471D01*
X0123167Y0274483D01*
X0123357Y0274490D01*
X0123547Y0274492D01*
X0379201Y0274492D01*
X0385201Y0268492D01*
X0385201Y0223492D01*
X0395201Y0213492D01*
X0395201Y0084492D01*
X0385201Y0074492D01*
X0385201Y0005437D01*
X0385199Y0005313D01*
X0385193Y0005190D01*
X0385184Y0005066D01*
X0385170Y0004944D01*
X0385153Y0004821D01*
X0385131Y0004699D01*
X0385106Y0004578D01*
X0385077Y0004458D01*
X0385045Y0004339D01*
X0385008Y0004220D01*
X0384968Y0004103D01*
X0384925Y0003988D01*
X0384877Y0003873D01*
X0384826Y0003761D01*
X0384772Y0003650D01*
X0384714Y0003540D01*
X0384653Y0003433D01*
X0384588Y0003327D01*
X0384520Y0003224D01*
X0384449Y0003123D01*
X0384375Y0003024D01*
X0384298Y0002927D01*
X0384217Y0002833D01*
X0384134Y0002742D01*
X0384048Y0002653D01*
X0383959Y0002567D01*
X0383868Y0002484D01*
X0383774Y0002403D01*
X0383677Y0002326D01*
X0383578Y0002252D01*
X0383477Y0002181D01*
X0383374Y0002113D01*
X0383268Y0002048D01*
X0383161Y0001987D01*
X0383051Y0001929D01*
X0382940Y0001875D01*
X0382828Y0001824D01*
X0382713Y0001776D01*
X0382598Y0001733D01*
X0382481Y0001693D01*
X0382362Y0001656D01*
X0382243Y0001624D01*
X0382123Y0001595D01*
X0382002Y0001570D01*
X0381880Y0001548D01*
X0381757Y0001531D01*
X0381635Y0001517D01*
X0381511Y0001508D01*
X0381388Y0001502D01*
X0381264Y0001500D01*
X0005437Y0001500D01*
X0005313Y0001502D01*
X0005190Y0001508D01*
X0005066Y0001517D01*
X0004944Y0001531D01*
X0004821Y0001548D01*
X0004699Y0001570D01*
X0004578Y0001595D01*
X0004458Y0001624D01*
X0004339Y0001656D01*
X0004220Y0001693D01*
X0004103Y0001733D01*
X0003988Y0001776D01*
X0003873Y0001824D01*
X0003761Y0001875D01*
X0003650Y0001929D01*
X0003540Y0001987D01*
X0003433Y0002048D01*
X0003327Y0002113D01*
X0003224Y0002181D01*
X0003123Y0002252D01*
X0003024Y0002326D01*
X0002927Y0002403D01*
X0002833Y0002484D01*
X0002742Y0002567D01*
X0002653Y0002653D01*
X0002567Y0002742D01*
X0002484Y0002833D01*
X0002403Y0002927D01*
X0002326Y0003024D01*
X0002252Y0003123D01*
X0002181Y0003224D01*
X0002113Y0003327D01*
X0002048Y0003433D01*
X0001987Y0003540D01*
X0001929Y0003650D01*
X0001875Y0003761D01*
X0001824Y0003873D01*
X0001776Y0003988D01*
X0001733Y0004103D01*
X0001693Y0004220D01*
X0001656Y0004339D01*
X0001624Y0004458D01*
X0001595Y0004578D01*
X0001570Y0004699D01*
X0001548Y0004821D01*
X0001531Y0004944D01*
X0001517Y0005066D01*
X0001508Y0005190D01*
X0001502Y0005313D01*
X0001500Y0005437D01*
X0180634Y0103862D02*
X0180634Y0166854D01*
X0180636Y0166978D01*
X0180642Y0167101D01*
X0180651Y0167225D01*
X0180665Y0167347D01*
X0180682Y0167470D01*
X0180704Y0167592D01*
X0180729Y0167713D01*
X0180758Y0167833D01*
X0180790Y0167952D01*
X0180827Y0168071D01*
X0180867Y0168188D01*
X0180910Y0168303D01*
X0180958Y0168418D01*
X0181009Y0168530D01*
X0181063Y0168641D01*
X0181121Y0168751D01*
X0181182Y0168858D01*
X0181247Y0168964D01*
X0181315Y0169067D01*
X0181386Y0169168D01*
X0181460Y0169267D01*
X0181537Y0169364D01*
X0181618Y0169458D01*
X0181701Y0169549D01*
X0181787Y0169638D01*
X0181876Y0169724D01*
X0181967Y0169807D01*
X0182061Y0169888D01*
X0182158Y0169965D01*
X0182257Y0170039D01*
X0182358Y0170110D01*
X0182461Y0170178D01*
X0182567Y0170243D01*
X0182674Y0170304D01*
X0182784Y0170362D01*
X0182895Y0170416D01*
X0183007Y0170467D01*
X0183122Y0170515D01*
X0183237Y0170558D01*
X0183354Y0170598D01*
X0183473Y0170635D01*
X0183592Y0170667D01*
X0183712Y0170696D01*
X0183833Y0170721D01*
X0183955Y0170743D01*
X0184078Y0170760D01*
X0184200Y0170774D01*
X0184324Y0170783D01*
X0184447Y0170789D01*
X0184571Y0170791D01*
X0235752Y0170791D01*
X0235876Y0170789D01*
X0235999Y0170783D01*
X0236123Y0170774D01*
X0236245Y0170760D01*
X0236368Y0170743D01*
X0236490Y0170721D01*
X0236611Y0170696D01*
X0236731Y0170667D01*
X0236850Y0170635D01*
X0236969Y0170598D01*
X0237086Y0170558D01*
X0237201Y0170515D01*
X0237316Y0170467D01*
X0237428Y0170416D01*
X0237539Y0170362D01*
X0237649Y0170304D01*
X0237756Y0170243D01*
X0237862Y0170178D01*
X0237965Y0170110D01*
X0238066Y0170039D01*
X0238165Y0169965D01*
X0238262Y0169888D01*
X0238356Y0169807D01*
X0238447Y0169724D01*
X0238536Y0169638D01*
X0238622Y0169549D01*
X0238705Y0169458D01*
X0238786Y0169364D01*
X0238863Y0169267D01*
X0238937Y0169168D01*
X0239008Y0169067D01*
X0239076Y0168964D01*
X0239141Y0168858D01*
X0239202Y0168751D01*
X0239260Y0168641D01*
X0239314Y0168530D01*
X0239365Y0168418D01*
X0239413Y0168303D01*
X0239456Y0168188D01*
X0239496Y0168071D01*
X0239533Y0167952D01*
X0239565Y0167833D01*
X0239594Y0167713D01*
X0239619Y0167592D01*
X0239641Y0167470D01*
X0239658Y0167347D01*
X0239672Y0167225D01*
X0239681Y0167101D01*
X0239687Y0166978D01*
X0239689Y0166854D01*
X0239689Y0103862D01*
X0239687Y0103738D01*
X0239681Y0103615D01*
X0239672Y0103491D01*
X0239658Y0103369D01*
X0239641Y0103246D01*
X0239619Y0103124D01*
X0239594Y0103003D01*
X0239565Y0102883D01*
X0239533Y0102764D01*
X0239496Y0102645D01*
X0239456Y0102528D01*
X0239413Y0102413D01*
X0239365Y0102298D01*
X0239314Y0102186D01*
X0239260Y0102075D01*
X0239202Y0101965D01*
X0239141Y0101858D01*
X0239076Y0101752D01*
X0239008Y0101649D01*
X0238937Y0101548D01*
X0238863Y0101449D01*
X0238786Y0101352D01*
X0238705Y0101258D01*
X0238622Y0101167D01*
X0238536Y0101078D01*
X0238447Y0100992D01*
X0238356Y0100909D01*
X0238262Y0100828D01*
X0238165Y0100751D01*
X0238066Y0100677D01*
X0237965Y0100606D01*
X0237862Y0100538D01*
X0237756Y0100473D01*
X0237649Y0100412D01*
X0237539Y0100354D01*
X0237428Y0100300D01*
X0237316Y0100249D01*
X0237201Y0100201D01*
X0237086Y0100158D01*
X0236969Y0100118D01*
X0236850Y0100081D01*
X0236731Y0100049D01*
X0236611Y0100020D01*
X0236490Y0099995D01*
X0236368Y0099973D01*
X0236245Y0099956D01*
X0236123Y0099942D01*
X0235999Y0099933D01*
X0235876Y0099927D01*
X0235752Y0099925D01*
X0184571Y0099925D01*
X0184447Y0099927D01*
X0184324Y0099933D01*
X0184200Y0099942D01*
X0184078Y0099956D01*
X0183955Y0099973D01*
X0183833Y0099995D01*
X0183712Y0100020D01*
X0183592Y0100049D01*
X0183473Y0100081D01*
X0183354Y0100118D01*
X0183237Y0100158D01*
X0183122Y0100201D01*
X0183007Y0100249D01*
X0182895Y0100300D01*
X0182784Y0100354D01*
X0182674Y0100412D01*
X0182567Y0100473D01*
X0182461Y0100538D01*
X0182358Y0100606D01*
X0182257Y0100677D01*
X0182158Y0100751D01*
X0182061Y0100828D01*
X0181967Y0100909D01*
X0181876Y0100992D01*
X0181787Y0101078D01*
X0181701Y0101167D01*
X0181618Y0101258D01*
X0181537Y0101352D01*
X0181460Y0101449D01*
X0181386Y0101548D01*
X0181315Y0101649D01*
X0181247Y0101752D01*
X0181182Y0101858D01*
X0181121Y0101965D01*
X0181063Y0102075D01*
X0181009Y0102186D01*
X0180958Y0102298D01*
X0180910Y0102413D01*
X0180867Y0102528D01*
X0180827Y0102645D01*
X0180790Y0102764D01*
X0180758Y0102883D01*
X0180729Y0103003D01*
X0180704Y0103124D01*
X0180682Y0103246D01*
X0180665Y0103369D01*
X0180651Y0103491D01*
X0180642Y0103615D01*
X0180636Y0103738D01*
X0180634Y0103862D01*
X0184571Y0174728D02*
X0235752Y0174728D01*
X0235876Y0174730D01*
X0235999Y0174736D01*
X0236123Y0174745D01*
X0236245Y0174759D01*
X0236368Y0174776D01*
X0236490Y0174798D01*
X0236611Y0174823D01*
X0236731Y0174852D01*
X0236850Y0174884D01*
X0236969Y0174921D01*
X0237086Y0174961D01*
X0237201Y0175004D01*
X0237316Y0175052D01*
X0237428Y0175103D01*
X0237539Y0175157D01*
X0237649Y0175215D01*
X0237756Y0175276D01*
X0237862Y0175341D01*
X0237965Y0175409D01*
X0238066Y0175480D01*
X0238165Y0175554D01*
X0238262Y0175631D01*
X0238356Y0175712D01*
X0238447Y0175795D01*
X0238536Y0175881D01*
X0238622Y0175970D01*
X0238705Y0176061D01*
X0238786Y0176155D01*
X0238863Y0176252D01*
X0238937Y0176351D01*
X0239008Y0176452D01*
X0239076Y0176555D01*
X0239141Y0176661D01*
X0239202Y0176768D01*
X0239260Y0176878D01*
X0239314Y0176989D01*
X0239365Y0177101D01*
X0239413Y0177216D01*
X0239456Y0177331D01*
X0239496Y0177448D01*
X0239533Y0177567D01*
X0239565Y0177686D01*
X0239594Y0177806D01*
X0239619Y0177927D01*
X0239641Y0178049D01*
X0239658Y0178172D01*
X0239672Y0178294D01*
X0239681Y0178418D01*
X0239687Y0178541D01*
X0239689Y0178665D01*
X0239689Y0241657D01*
X0239687Y0241781D01*
X0239681Y0241904D01*
X0239672Y0242028D01*
X0239658Y0242150D01*
X0239641Y0242273D01*
X0239619Y0242395D01*
X0239594Y0242516D01*
X0239565Y0242636D01*
X0239533Y0242755D01*
X0239496Y0242874D01*
X0239456Y0242991D01*
X0239413Y0243106D01*
X0239365Y0243221D01*
X0239314Y0243333D01*
X0239260Y0243444D01*
X0239202Y0243554D01*
X0239141Y0243661D01*
X0239076Y0243767D01*
X0239008Y0243870D01*
X0238937Y0243971D01*
X0238863Y0244070D01*
X0238786Y0244167D01*
X0238705Y0244261D01*
X0238622Y0244352D01*
X0238536Y0244441D01*
X0238447Y0244527D01*
X0238356Y0244610D01*
X0238262Y0244691D01*
X0238165Y0244768D01*
X0238066Y0244842D01*
X0237965Y0244913D01*
X0237862Y0244981D01*
X0237756Y0245046D01*
X0237649Y0245107D01*
X0237539Y0245165D01*
X0237428Y0245219D01*
X0237316Y0245270D01*
X0237201Y0245318D01*
X0237086Y0245361D01*
X0236969Y0245401D01*
X0236850Y0245438D01*
X0236731Y0245470D01*
X0236611Y0245499D01*
X0236490Y0245524D01*
X0236368Y0245546D01*
X0236245Y0245563D01*
X0236123Y0245577D01*
X0235999Y0245586D01*
X0235876Y0245592D01*
X0235752Y0245594D01*
X0184571Y0245594D01*
X0184447Y0245592D01*
X0184324Y0245586D01*
X0184200Y0245577D01*
X0184078Y0245563D01*
X0183955Y0245546D01*
X0183833Y0245524D01*
X0183712Y0245499D01*
X0183592Y0245470D01*
X0183473Y0245438D01*
X0183354Y0245401D01*
X0183237Y0245361D01*
X0183122Y0245318D01*
X0183007Y0245270D01*
X0182895Y0245219D01*
X0182784Y0245165D01*
X0182674Y0245107D01*
X0182567Y0245046D01*
X0182461Y0244981D01*
X0182358Y0244913D01*
X0182257Y0244842D01*
X0182158Y0244768D01*
X0182061Y0244691D01*
X0181967Y0244610D01*
X0181876Y0244527D01*
X0181787Y0244441D01*
X0181701Y0244352D01*
X0181618Y0244261D01*
X0181537Y0244167D01*
X0181460Y0244070D01*
X0181386Y0243971D01*
X0181315Y0243870D01*
X0181247Y0243767D01*
X0181182Y0243661D01*
X0181121Y0243554D01*
X0181063Y0243444D01*
X0181009Y0243333D01*
X0180958Y0243221D01*
X0180910Y0243106D01*
X0180867Y0242991D01*
X0180827Y0242874D01*
X0180790Y0242755D01*
X0180758Y0242636D01*
X0180729Y0242516D01*
X0180704Y0242395D01*
X0180682Y0242273D01*
X0180665Y0242150D01*
X0180651Y0242028D01*
X0180642Y0241904D01*
X0180636Y0241781D01*
X0180634Y0241657D01*
X0180634Y0178665D01*
X0180636Y0178541D01*
X0180642Y0178418D01*
X0180651Y0178294D01*
X0180665Y0178172D01*
X0180682Y0178049D01*
X0180704Y0177927D01*
X0180729Y0177806D01*
X0180758Y0177686D01*
X0180790Y0177567D01*
X0180827Y0177448D01*
X0180867Y0177331D01*
X0180910Y0177216D01*
X0180958Y0177101D01*
X0181009Y0176989D01*
X0181063Y0176878D01*
X0181121Y0176768D01*
X0181182Y0176661D01*
X0181247Y0176555D01*
X0181315Y0176452D01*
X0181386Y0176351D01*
X0181460Y0176252D01*
X0181537Y0176155D01*
X0181618Y0176061D01*
X0181701Y0175970D01*
X0181787Y0175881D01*
X0181876Y0175795D01*
X0181967Y0175712D01*
X0182061Y0175631D01*
X0182158Y0175554D01*
X0182257Y0175480D01*
X0182358Y0175409D01*
X0182461Y0175341D01*
X0182567Y0175276D01*
X0182674Y0175215D01*
X0182784Y0175157D01*
X0182895Y0175103D01*
X0183007Y0175052D01*
X0183122Y0175004D01*
X0183237Y0174961D01*
X0183354Y0174921D01*
X0183473Y0174884D01*
X0183592Y0174852D01*
X0183712Y0174823D01*
X0183833Y0174798D01*
X0183955Y0174776D01*
X0184078Y0174759D01*
X0184200Y0174745D01*
X0184324Y0174736D01*
X0184447Y0174730D01*
X0184571Y0174728D01*
X0115673Y0214098D02*
X0115671Y0213908D01*
X0115664Y0213718D01*
X0115652Y0213528D01*
X0115636Y0213338D01*
X0115616Y0213149D01*
X0115590Y0212960D01*
X0115561Y0212772D01*
X0115526Y0212585D01*
X0115487Y0212399D01*
X0115444Y0212214D01*
X0115396Y0212029D01*
X0115344Y0211846D01*
X0115288Y0211665D01*
X0115227Y0211485D01*
X0115161Y0211306D01*
X0115092Y0211129D01*
X0115018Y0210953D01*
X0114940Y0210780D01*
X0114857Y0210608D01*
X0114771Y0210439D01*
X0114681Y0210271D01*
X0114586Y0210106D01*
X0114488Y0209943D01*
X0114385Y0209783D01*
X0114279Y0209625D01*
X0114169Y0209470D01*
X0114056Y0209317D01*
X0113938Y0209167D01*
X0113817Y0209021D01*
X0113693Y0208877D01*
X0113565Y0208736D01*
X0113434Y0208598D01*
X0113299Y0208463D01*
X0113161Y0208332D01*
X0113020Y0208204D01*
X0112876Y0208080D01*
X0112730Y0207959D01*
X0112580Y0207841D01*
X0112427Y0207728D01*
X0112272Y0207618D01*
X0112114Y0207512D01*
X0111954Y0207409D01*
X0111791Y0207311D01*
X0111626Y0207216D01*
X0111458Y0207126D01*
X0111289Y0207040D01*
X0111117Y0206957D01*
X0110944Y0206879D01*
X0110768Y0206805D01*
X0110591Y0206736D01*
X0110412Y0206670D01*
X0110232Y0206609D01*
X0110051Y0206553D01*
X0109868Y0206501D01*
X0109683Y0206453D01*
X0109498Y0206410D01*
X0109312Y0206371D01*
X0109125Y0206336D01*
X0108937Y0206307D01*
X0108748Y0206281D01*
X0108559Y0206261D01*
X0108369Y0206245D01*
X0108179Y0206233D01*
X0107989Y0206226D01*
X0107799Y0206224D01*
D11*
X0146354Y0185351D02*
X0146354Y0184000D01*
X0149056Y0184000D01*
X0149056Y0185351D01*
X0148606Y0185802D01*
X0146804Y0185802D01*
X0146354Y0185351D01*
X0146354Y0182855D02*
X0149056Y0182855D01*
X0146354Y0181054D01*
X0149056Y0181054D01*
X0148606Y0179909D02*
X0147705Y0179909D01*
X0147705Y0179008D01*
X0146804Y0178107D02*
X0148606Y0178107D01*
X0149056Y0178558D01*
X0149056Y0179458D01*
X0148606Y0179909D01*
X0146804Y0179909D02*
X0146354Y0179458D01*
X0146354Y0178558D01*
X0146804Y0178107D01*
X0156354Y0179089D02*
X0158156Y0179089D01*
X0159056Y0179990D01*
X0158156Y0180891D01*
X0156354Y0180891D01*
X0156354Y0182036D02*
X0156354Y0182937D01*
X0156354Y0182486D02*
X0159056Y0182486D01*
X0159056Y0182036D02*
X0159056Y0182937D01*
X0159056Y0184000D02*
X0156354Y0184000D01*
X0159056Y0185802D01*
X0156354Y0185802D01*
X0194335Y0190569D02*
X0196137Y0190569D01*
X0197037Y0191470D01*
X0196137Y0192370D01*
X0194335Y0192370D01*
X0194335Y0193515D02*
X0194335Y0194416D01*
X0194335Y0193966D02*
X0197037Y0193966D01*
X0197037Y0194416D02*
X0197037Y0193515D01*
X0197037Y0195480D02*
X0194335Y0195480D01*
X0197037Y0197281D01*
X0194335Y0197281D01*
X0204335Y0197813D02*
X0204335Y0196462D01*
X0207037Y0196462D01*
X0207037Y0197813D01*
X0206587Y0198263D01*
X0204785Y0198263D01*
X0204335Y0197813D01*
X0204335Y0195317D02*
X0207037Y0195317D01*
X0204335Y0193515D01*
X0207037Y0193515D01*
X0206587Y0192370D02*
X0205686Y0192370D01*
X0205686Y0191470D01*
X0204785Y0192370D02*
X0204335Y0191920D01*
X0204335Y0191019D01*
X0204785Y0190569D01*
X0206587Y0190569D01*
X0207037Y0191019D01*
X0207037Y0191920D01*
X0206587Y0192370D01*
X0213115Y0192078D02*
X0213565Y0192528D01*
X0214015Y0192528D01*
X0214466Y0192078D01*
X0214916Y0192528D01*
X0215367Y0192528D01*
X0215817Y0192078D01*
X0215817Y0191177D01*
X0215367Y0190726D01*
X0214466Y0191627D02*
X0214466Y0192078D01*
X0213115Y0192078D02*
X0213115Y0191177D01*
X0213565Y0190726D01*
X0213115Y0193673D02*
X0214916Y0193673D01*
X0215817Y0194574D01*
X0214916Y0195474D01*
X0213115Y0195474D01*
X0213565Y0196619D02*
X0213115Y0197070D01*
X0213115Y0197971D01*
X0213565Y0198421D01*
X0214015Y0198421D01*
X0214466Y0197971D01*
X0214916Y0198421D01*
X0215367Y0198421D01*
X0215817Y0197971D01*
X0215817Y0197070D01*
X0215367Y0196619D01*
X0214466Y0197520D02*
X0214466Y0197971D01*
X0213734Y0154306D02*
X0213283Y0153855D01*
X0213283Y0152504D01*
X0215985Y0152504D01*
X0215985Y0153855D01*
X0215535Y0154306D01*
X0213734Y0154306D01*
X0213283Y0151359D02*
X0215985Y0151359D01*
X0213283Y0149558D01*
X0215985Y0149558D01*
X0215535Y0148413D02*
X0214634Y0148413D01*
X0214634Y0147512D01*
X0213734Y0146611D02*
X0215535Y0146611D01*
X0215985Y0147062D01*
X0215985Y0147962D01*
X0215535Y0148413D01*
X0213734Y0148413D02*
X0213283Y0147962D01*
X0213283Y0147062D01*
X0213734Y0146611D01*
X0206419Y0146510D02*
X0205968Y0146060D01*
X0206419Y0146510D02*
X0206419Y0147411D01*
X0205968Y0147862D01*
X0205067Y0147862D01*
X0204617Y0147411D01*
X0204617Y0146961D01*
X0205067Y0146060D01*
X0203716Y0146060D01*
X0203716Y0147862D01*
X0203716Y0149007D02*
X0205518Y0149007D01*
X0206419Y0149907D01*
X0205518Y0150808D01*
X0203716Y0150808D01*
X0204167Y0151953D02*
X0203716Y0152403D01*
X0203716Y0153304D01*
X0204167Y0153755D01*
X0205968Y0151953D01*
X0206419Y0152403D01*
X0206419Y0153304D01*
X0205968Y0153755D01*
X0204167Y0153755D01*
X0204167Y0151953D02*
X0205968Y0151953D01*
X0223283Y0151441D02*
X0223283Y0150540D01*
X0223283Y0150990D02*
X0225985Y0150990D01*
X0225985Y0150540D02*
X0225985Y0151441D01*
X0225985Y0152504D02*
X0223283Y0152504D01*
X0225985Y0154306D01*
X0223283Y0154306D01*
X0223283Y0149395D02*
X0225085Y0149395D01*
X0225985Y0148494D01*
X0225085Y0147593D01*
X0223283Y0147593D01*
X0244248Y0092308D02*
X0244248Y0090506D01*
X0246951Y0090506D01*
X0246951Y0089361D02*
X0246951Y0087560D01*
X0244248Y0087560D01*
X0244248Y0089361D01*
X0245600Y0088461D02*
X0245600Y0087560D01*
X0245600Y0086415D02*
X0246050Y0085964D01*
X0246050Y0084613D01*
X0246951Y0084613D02*
X0244248Y0084613D01*
X0244248Y0085964D01*
X0244699Y0086415D01*
X0245600Y0086415D01*
X0246050Y0085514D02*
X0246951Y0086415D01*
X0246500Y0083468D02*
X0244699Y0083468D01*
X0244248Y0083018D01*
X0244248Y0082117D01*
X0244699Y0081667D01*
X0246500Y0081667D01*
X0246951Y0082117D01*
X0246951Y0083018D01*
X0246500Y0083468D01*
X0246951Y0080603D02*
X0246951Y0079702D01*
X0246951Y0080153D02*
X0244248Y0080153D01*
X0244248Y0080603D02*
X0244248Y0079702D01*
X0254248Y0079702D02*
X0254248Y0081054D01*
X0254699Y0081504D01*
X0255600Y0081504D01*
X0256050Y0081054D01*
X0256050Y0079702D01*
X0256951Y0079702D02*
X0254248Y0079702D01*
X0256050Y0080603D02*
X0256951Y0081504D01*
X0256500Y0082649D02*
X0256951Y0083099D01*
X0256951Y0084000D01*
X0256500Y0084450D01*
X0256050Y0084450D01*
X0255600Y0084000D01*
X0255600Y0083099D01*
X0255149Y0082649D01*
X0254699Y0082649D01*
X0254248Y0083099D01*
X0254248Y0084000D01*
X0254699Y0084450D01*
X0254248Y0085595D02*
X0254248Y0087397D01*
X0254248Y0086496D02*
X0256951Y0086496D01*
X0262271Y0081994D02*
X0262721Y0082444D01*
X0263622Y0082444D01*
X0264072Y0081994D01*
X0264072Y0081544D01*
X0263622Y0081093D01*
X0264072Y0080643D01*
X0264072Y0080193D01*
X0263622Y0079742D01*
X0262721Y0079742D01*
X0262271Y0080193D01*
X0263172Y0081093D02*
X0263622Y0081093D01*
X0265217Y0080643D02*
X0266118Y0079742D01*
X0267019Y0080643D01*
X0267019Y0082444D01*
X0268164Y0081994D02*
X0268614Y0082444D01*
X0269515Y0082444D01*
X0269965Y0081994D01*
X0269965Y0081544D01*
X0269515Y0081093D01*
X0269965Y0080643D01*
X0269965Y0080193D01*
X0269515Y0079742D01*
X0268614Y0079742D01*
X0268164Y0080193D01*
X0269065Y0081093D02*
X0269515Y0081093D01*
X0273271Y0081093D02*
X0274172Y0081544D01*
X0274622Y0081544D01*
X0275072Y0081093D01*
X0275072Y0080193D01*
X0274622Y0079742D01*
X0273721Y0079742D01*
X0273271Y0080193D01*
X0273271Y0081093D02*
X0273271Y0082444D01*
X0275072Y0082444D01*
X0276217Y0082444D02*
X0276217Y0080643D01*
X0277118Y0079742D01*
X0278019Y0080643D01*
X0278019Y0082444D01*
X0279164Y0081994D02*
X0279614Y0082444D01*
X0280515Y0082444D01*
X0280965Y0081994D01*
X0279164Y0080193D01*
X0279614Y0079742D01*
X0280515Y0079742D01*
X0280965Y0080193D01*
X0280965Y0081994D01*
X0279164Y0081994D02*
X0279164Y0080193D01*
X0285991Y0080193D02*
X0286441Y0079742D01*
X0287342Y0079742D01*
X0287792Y0080193D01*
X0287792Y0081093D01*
X0286891Y0081093D01*
X0285991Y0080193D02*
X0285991Y0081994D01*
X0286441Y0082444D01*
X0287342Y0082444D01*
X0287792Y0081994D01*
X0288937Y0082444D02*
X0290739Y0079742D01*
X0290739Y0082444D01*
X0291884Y0082444D02*
X0293235Y0082444D01*
X0293685Y0081994D01*
X0293685Y0080193D01*
X0293235Y0079742D01*
X0291884Y0079742D01*
X0291884Y0082444D01*
X0288937Y0082444D02*
X0288937Y0079742D01*
X0301771Y0080643D02*
X0302672Y0079742D01*
X0303572Y0080643D01*
X0303572Y0082444D01*
X0304717Y0082444D02*
X0305618Y0082444D01*
X0305168Y0082444D02*
X0305168Y0079742D01*
X0305618Y0079742D02*
X0304717Y0079742D01*
X0306682Y0079742D02*
X0306682Y0082444D01*
X0308483Y0079742D01*
X0308483Y0082444D01*
X0301771Y0082444D02*
X0301771Y0080643D01*
X0323951Y0081093D02*
X0325752Y0081093D01*
X0325752Y0081544D02*
X0325752Y0079742D01*
X0326897Y0080193D02*
X0327348Y0079742D01*
X0328248Y0079742D01*
X0328699Y0080193D01*
X0328699Y0081994D01*
X0326897Y0080193D01*
X0326897Y0081994D01*
X0327348Y0082444D01*
X0328248Y0082444D01*
X0328699Y0081994D01*
X0325752Y0081544D02*
X0324852Y0082444D01*
X0323951Y0081544D01*
X0323951Y0079742D01*
X0333951Y0079742D02*
X0333951Y0081544D01*
X0334852Y0082444D01*
X0335752Y0081544D01*
X0335752Y0079742D01*
X0336897Y0079742D02*
X0338699Y0079742D01*
X0337798Y0079742D02*
X0337798Y0082444D01*
X0336897Y0081544D01*
X0335752Y0081093D02*
X0333951Y0081093D01*
X0343951Y0081093D02*
X0345752Y0081093D01*
X0345752Y0081544D02*
X0345752Y0079742D01*
X0346897Y0079742D02*
X0348699Y0081544D01*
X0348699Y0081994D01*
X0348248Y0082444D01*
X0347348Y0082444D01*
X0346897Y0081994D01*
X0345752Y0081544D02*
X0344852Y0082444D01*
X0343951Y0081544D01*
X0343951Y0079742D01*
X0346897Y0079742D02*
X0348699Y0079742D01*
X0353951Y0079742D02*
X0353951Y0081544D01*
X0354852Y0082444D01*
X0355752Y0081544D01*
X0355752Y0079742D01*
X0356897Y0080193D02*
X0357348Y0079742D01*
X0358248Y0079742D01*
X0358699Y0080193D01*
X0358699Y0080643D01*
X0358248Y0081093D01*
X0357798Y0081093D01*
X0358248Y0081093D02*
X0358699Y0081544D01*
X0358699Y0081994D01*
X0358248Y0082444D01*
X0357348Y0082444D01*
X0356897Y0081994D01*
X0355752Y0081093D02*
X0353951Y0081093D01*
X0363951Y0081093D02*
X0365752Y0081093D01*
X0365752Y0081544D02*
X0365752Y0079742D01*
X0366897Y0081093D02*
X0368699Y0081093D01*
X0368248Y0079742D02*
X0368248Y0082444D01*
X0366897Y0081093D01*
X0365752Y0081544D02*
X0364852Y0082444D01*
X0363951Y0081544D01*
X0363951Y0079742D01*
X0373951Y0079742D02*
X0373951Y0081544D01*
X0374852Y0082444D01*
X0375752Y0081544D01*
X0375752Y0079742D01*
X0376897Y0080193D02*
X0377348Y0079742D01*
X0378248Y0079742D01*
X0378699Y0080193D01*
X0378699Y0081093D01*
X0378248Y0081544D01*
X0377798Y0081544D01*
X0376897Y0081093D01*
X0376897Y0082444D01*
X0378699Y0082444D01*
X0375752Y0081093D02*
X0373951Y0081093D01*
X0374243Y0154506D02*
X0373793Y0154956D01*
X0374243Y0154506D02*
X0375144Y0154506D01*
X0375595Y0154956D01*
X0375595Y0155407D01*
X0375144Y0155857D01*
X0374243Y0155857D01*
X0373793Y0156307D01*
X0373793Y0156758D01*
X0374243Y0157208D01*
X0375144Y0157208D01*
X0375595Y0156758D01*
X0376740Y0157208D02*
X0376740Y0154506D01*
X0376740Y0155407D02*
X0378091Y0155407D01*
X0378541Y0155857D01*
X0378541Y0156758D01*
X0378091Y0157208D01*
X0376740Y0157208D01*
X0372730Y0157208D02*
X0371829Y0157208D01*
X0372279Y0157208D02*
X0372279Y0154506D01*
X0371829Y0154506D02*
X0372730Y0154506D01*
X0366747Y0184377D02*
X0364945Y0184377D01*
X0365846Y0184377D02*
X0365846Y0187079D01*
X0364945Y0186178D01*
X0354485Y0197369D02*
X0354936Y0197819D01*
X0354936Y0199621D01*
X0354485Y0200071D01*
X0353134Y0200071D01*
X0353134Y0197369D01*
X0354485Y0197369D01*
X0351989Y0197369D02*
X0351989Y0200071D01*
X0350188Y0200071D02*
X0351989Y0197369D01*
X0350188Y0197369D02*
X0350188Y0200071D01*
X0349043Y0199621D02*
X0348592Y0200071D01*
X0347692Y0200071D01*
X0347241Y0199621D01*
X0347241Y0197819D01*
X0347692Y0197369D01*
X0348592Y0197369D01*
X0349043Y0197819D01*
X0349043Y0198720D01*
X0348142Y0198720D01*
X0348592Y0207369D02*
X0349043Y0207819D01*
X0348592Y0207369D02*
X0347692Y0207369D01*
X0347241Y0207819D01*
X0347241Y0209621D01*
X0347692Y0210071D01*
X0348592Y0210071D01*
X0349043Y0209621D01*
X0350188Y0210071D02*
X0351989Y0210071D01*
X0351088Y0210071D02*
X0351088Y0207369D01*
X0353134Y0207819D02*
X0353585Y0207369D01*
X0354485Y0207369D01*
X0354936Y0207819D01*
X0354936Y0208270D01*
X0354485Y0208720D01*
X0353585Y0208720D01*
X0353134Y0209170D01*
X0353134Y0209621D01*
X0353585Y0210071D01*
X0354485Y0210071D01*
X0354936Y0209621D01*
X0354485Y0217369D02*
X0353585Y0217369D01*
X0353134Y0217819D01*
X0354936Y0219621D01*
X0354936Y0217819D01*
X0354485Y0217369D01*
X0353134Y0217819D02*
X0353134Y0219621D01*
X0353585Y0220071D01*
X0354485Y0220071D01*
X0354936Y0219621D01*
X0351989Y0220071D02*
X0351989Y0218270D01*
X0351088Y0217369D01*
X0350188Y0218270D01*
X0350188Y0220071D01*
X0349043Y0220071D02*
X0347241Y0220071D01*
X0347241Y0218720D01*
X0348142Y0219170D01*
X0348592Y0219170D01*
X0349043Y0218720D01*
X0349043Y0217819D01*
X0348592Y0217369D01*
X0347692Y0217369D01*
X0347241Y0217819D01*
X0350188Y0227369D02*
X0350188Y0230071D01*
X0351539Y0230071D01*
X0351989Y0229621D01*
X0351989Y0228720D01*
X0351539Y0228270D01*
X0350188Y0228270D01*
X0351088Y0228270D02*
X0351989Y0227369D01*
X0353134Y0227369D02*
X0354936Y0230071D01*
X0353134Y0230071D02*
X0354936Y0227369D01*
X0354936Y0237369D02*
X0353134Y0240071D01*
X0351989Y0240071D02*
X0350188Y0240071D01*
X0351088Y0240071D02*
X0351088Y0237369D01*
X0353134Y0237369D02*
X0354936Y0240071D01*
X0354936Y0247369D02*
X0354035Y0248270D01*
X0354485Y0248270D02*
X0353134Y0248270D01*
X0353134Y0247369D02*
X0353134Y0250071D01*
X0354485Y0250071D01*
X0354936Y0249621D01*
X0354936Y0248720D01*
X0354485Y0248270D01*
X0351989Y0250071D02*
X0350188Y0250071D01*
X0351088Y0250071D02*
X0351088Y0247369D01*
X0349043Y0247819D02*
X0349043Y0249621D01*
X0348592Y0250071D01*
X0347241Y0250071D01*
X0347241Y0247369D01*
X0348592Y0247369D01*
X0349043Y0247819D01*
X0346355Y0256542D02*
X0345455Y0256542D01*
X0345004Y0256993D01*
X0345905Y0257893D02*
X0346355Y0257893D01*
X0346806Y0257443D01*
X0346806Y0256993D01*
X0346355Y0256542D01*
X0346355Y0257893D02*
X0346806Y0258344D01*
X0346806Y0258794D01*
X0346355Y0259244D01*
X0345455Y0259244D01*
X0345004Y0258794D01*
X0336806Y0257893D02*
X0335004Y0257893D01*
X0336355Y0259244D01*
X0336355Y0256542D01*
X0326806Y0256993D02*
X0326355Y0256542D01*
X0325455Y0256542D01*
X0325004Y0256993D01*
X0325004Y0257893D02*
X0325905Y0258344D01*
X0326355Y0258344D01*
X0326806Y0257893D01*
X0326806Y0256993D01*
X0325004Y0257893D02*
X0325004Y0259244D01*
X0326806Y0259244D01*
X0316806Y0259244D02*
X0315905Y0258794D01*
X0315004Y0257893D01*
X0316355Y0257893D01*
X0316806Y0257443D01*
X0316806Y0256993D01*
X0316355Y0256542D01*
X0315455Y0256542D01*
X0315004Y0256993D01*
X0315004Y0257893D01*
X0306806Y0258794D02*
X0305004Y0256993D01*
X0305004Y0256542D01*
X0305004Y0259244D02*
X0306806Y0259244D01*
X0306806Y0258794D01*
X0290806Y0258794D02*
X0290806Y0258344D01*
X0290355Y0257893D01*
X0289455Y0257893D01*
X0289004Y0258344D01*
X0289004Y0258794D01*
X0289455Y0259244D01*
X0290355Y0259244D01*
X0290806Y0258794D01*
X0290355Y0257893D02*
X0290806Y0257443D01*
X0290806Y0256993D01*
X0290355Y0256542D01*
X0289455Y0256542D01*
X0289004Y0256993D01*
X0289004Y0257443D01*
X0289455Y0257893D01*
X0280806Y0257893D02*
X0279455Y0257893D01*
X0279004Y0258344D01*
X0279004Y0258794D01*
X0279455Y0259244D01*
X0280355Y0259244D01*
X0280806Y0258794D01*
X0280806Y0256993D01*
X0280355Y0256542D01*
X0279455Y0256542D01*
X0279004Y0256993D01*
X0272806Y0256993D02*
X0272355Y0256542D01*
X0271455Y0256542D01*
X0271004Y0256993D01*
X0272806Y0258794D01*
X0272806Y0256993D01*
X0272806Y0258794D02*
X0272355Y0259244D01*
X0271455Y0259244D01*
X0271004Y0258794D01*
X0271004Y0256993D01*
X0269859Y0256542D02*
X0268058Y0256542D01*
X0268959Y0256542D02*
X0268959Y0259244D01*
X0268058Y0258344D01*
X0262806Y0256542D02*
X0261004Y0256542D01*
X0261905Y0256542D02*
X0261905Y0259244D01*
X0261004Y0258344D01*
X0259859Y0256542D02*
X0258058Y0256542D01*
X0258959Y0256542D02*
X0258959Y0259244D01*
X0258058Y0258344D01*
X0252806Y0258344D02*
X0251004Y0256542D01*
X0252806Y0256542D01*
X0252806Y0258344D02*
X0252806Y0258794D01*
X0252355Y0259244D01*
X0251455Y0259244D01*
X0251004Y0258794D01*
X0248959Y0259244D02*
X0248959Y0256542D01*
X0249859Y0256542D02*
X0248058Y0256542D01*
X0248058Y0258344D02*
X0248959Y0259244D01*
X0242806Y0258794D02*
X0242806Y0258344D01*
X0242355Y0257893D01*
X0242806Y0257443D01*
X0242806Y0256993D01*
X0242355Y0256542D01*
X0241455Y0256542D01*
X0241004Y0256993D01*
X0239859Y0256542D02*
X0238058Y0256542D01*
X0238959Y0256542D02*
X0238959Y0259244D01*
X0238058Y0258344D01*
X0241004Y0258794D02*
X0241455Y0259244D01*
X0242355Y0259244D01*
X0242806Y0258794D01*
X0242355Y0257893D02*
X0241905Y0257893D01*
X0230119Y0257465D02*
X0230119Y0258816D01*
X0229669Y0259266D01*
X0227867Y0259266D01*
X0227417Y0258816D01*
X0227417Y0257465D01*
X0230119Y0257465D01*
X0230119Y0256320D02*
X0227417Y0256320D01*
X0227417Y0254518D02*
X0230119Y0256320D01*
X0230119Y0254518D02*
X0227417Y0254518D01*
X0227867Y0253373D02*
X0227417Y0252923D01*
X0227417Y0252022D01*
X0227867Y0251572D01*
X0229669Y0251572D01*
X0230119Y0252022D01*
X0230119Y0252923D01*
X0229669Y0253373D01*
X0228768Y0253373D01*
X0228768Y0252473D01*
X0220151Y0252554D02*
X0217448Y0252554D01*
X0217448Y0253905D01*
X0217899Y0254356D01*
X0218800Y0254356D01*
X0219250Y0253905D01*
X0219250Y0252554D01*
X0219250Y0253455D02*
X0220151Y0254356D01*
X0219700Y0255501D02*
X0218800Y0255501D01*
X0218349Y0255951D01*
X0218349Y0256852D01*
X0218800Y0257302D01*
X0219250Y0257302D01*
X0219250Y0255501D01*
X0219700Y0255501D02*
X0220151Y0255951D01*
X0220151Y0256852D01*
X0220151Y0258897D02*
X0217899Y0258897D01*
X0217448Y0259348D01*
X0218800Y0259348D02*
X0218800Y0258447D01*
X0218800Y0251409D02*
X0218800Y0249608D01*
X0218349Y0249608D02*
X0217448Y0250508D01*
X0218349Y0251409D01*
X0220151Y0251409D01*
X0220151Y0249608D02*
X0218349Y0249608D01*
X0210151Y0252022D02*
X0209700Y0251572D01*
X0210151Y0252022D02*
X0210151Y0252923D01*
X0209700Y0253373D01*
X0209250Y0253373D01*
X0208800Y0252923D01*
X0208800Y0252022D01*
X0208349Y0251572D01*
X0207899Y0251572D01*
X0207448Y0252022D01*
X0207448Y0252923D01*
X0207899Y0253373D01*
X0207448Y0254518D02*
X0207448Y0255870D01*
X0207899Y0256320D01*
X0209700Y0256320D01*
X0210151Y0255870D01*
X0210151Y0254518D01*
X0207448Y0254518D01*
X0208349Y0257465D02*
X0207448Y0258366D01*
X0208349Y0259266D01*
X0210151Y0259266D01*
X0208800Y0259266D02*
X0208800Y0257465D01*
X0208349Y0257465D02*
X0210151Y0257465D01*
X0200151Y0257465D02*
X0200151Y0259266D01*
X0200151Y0257465D02*
X0197448Y0257465D01*
X0197899Y0256320D02*
X0197448Y0255870D01*
X0197448Y0254969D01*
X0197899Y0254518D01*
X0199700Y0254518D01*
X0200151Y0254969D01*
X0200151Y0255870D01*
X0199700Y0256320D01*
X0199700Y0253373D02*
X0200151Y0252923D01*
X0200151Y0252022D01*
X0199700Y0251572D01*
X0198800Y0252022D02*
X0198800Y0252923D01*
X0199250Y0253373D01*
X0199700Y0253373D01*
X0198800Y0252022D02*
X0198349Y0251572D01*
X0197899Y0251572D01*
X0197448Y0252022D01*
X0197448Y0252923D01*
X0197899Y0253373D01*
X0355004Y0256542D02*
X0356806Y0258344D01*
X0356806Y0258794D01*
X0356355Y0259244D01*
X0355455Y0259244D01*
X0355004Y0258794D01*
X0355004Y0256542D02*
X0356806Y0256542D01*
X0365004Y0256542D02*
X0366806Y0256542D01*
X0365905Y0256542D02*
X0365905Y0259244D01*
X0365004Y0258344D01*
X0375004Y0258794D02*
X0375004Y0256993D01*
X0376806Y0258794D01*
X0376806Y0256993D01*
X0376355Y0256542D01*
X0375455Y0256542D01*
X0375004Y0256993D01*
X0375004Y0258794D02*
X0375455Y0259244D01*
X0376355Y0259244D01*
X0376806Y0258794D01*
X0245600Y0091407D02*
X0245600Y0090506D01*
X0265217Y0082444D02*
X0265217Y0080643D01*
D12*
X0237320Y0107325D02*
X0236620Y0106624D01*
X0237320Y0107325D02*
X0237320Y0108726D01*
X0236620Y0109427D01*
X0235219Y0109427D01*
X0234518Y0108726D01*
X0234518Y0108026D01*
X0235219Y0106624D01*
X0233117Y0106624D01*
X0233117Y0109427D01*
X0233117Y0111228D02*
X0235919Y0111228D01*
X0237320Y0112630D01*
X0235919Y0114031D01*
X0233117Y0114031D01*
X0233817Y0115832D02*
X0233117Y0116533D01*
X0233117Y0117934D01*
X0233817Y0118635D01*
X0236620Y0115832D01*
X0237320Y0116533D01*
X0237320Y0117934D01*
X0236620Y0118635D01*
X0233817Y0118635D01*
X0233817Y0115832D02*
X0236620Y0115832D01*
X0237320Y0125040D02*
X0233117Y0125040D01*
X0233117Y0127142D01*
X0233817Y0127842D01*
X0235219Y0127842D01*
X0235919Y0127142D01*
X0235919Y0125040D01*
X0235219Y0129644D02*
X0236620Y0129644D01*
X0237320Y0130345D01*
X0237320Y0131746D01*
X0236620Y0132446D01*
X0235219Y0132446D01*
X0234518Y0131746D01*
X0234518Y0130345D01*
X0235219Y0129644D01*
X0234518Y0134248D02*
X0236620Y0134248D01*
X0237320Y0134949D01*
X0236620Y0135649D01*
X0237320Y0136350D01*
X0236620Y0137050D01*
X0234518Y0137050D01*
X0235219Y0138852D02*
X0234518Y0139552D01*
X0234518Y0140954D01*
X0235219Y0141654D01*
X0235919Y0141654D01*
X0235919Y0138852D01*
X0235219Y0138852D02*
X0236620Y0138852D01*
X0237320Y0139552D01*
X0237320Y0140954D01*
X0237320Y0143456D02*
X0234518Y0143456D01*
X0234518Y0144857D02*
X0234518Y0145558D01*
X0234518Y0144857D02*
X0235919Y0143456D01*
X0235919Y0147292D02*
X0235919Y0149394D01*
X0235219Y0150095D01*
X0233817Y0150095D01*
X0233117Y0149394D01*
X0233117Y0147292D01*
X0237320Y0147292D01*
X0236620Y0151896D02*
X0233817Y0151896D01*
X0233117Y0152597D01*
X0233117Y0153998D01*
X0233817Y0154699D01*
X0236620Y0154699D01*
X0237320Y0153998D01*
X0237320Y0152597D01*
X0236620Y0151896D01*
X0237320Y0156500D02*
X0233117Y0156500D01*
X0233117Y0158602D01*
X0233817Y0159303D01*
X0236620Y0159303D01*
X0237320Y0158602D01*
X0237320Y0156500D01*
X0230161Y0160417D02*
X0227661Y0157917D01*
X0222661Y0157917D01*
X0220161Y0160417D01*
X0217661Y0157917D01*
X0212661Y0157917D01*
X0210161Y0160417D01*
X0207661Y0157917D01*
X0202661Y0157917D01*
X0200161Y0160417D01*
X0197661Y0157917D01*
X0192661Y0157917D01*
X0190161Y0160417D01*
X0190161Y0165417D01*
X0192661Y0167917D01*
X0197661Y0167917D01*
X0200161Y0165417D01*
X0202661Y0167917D01*
X0207661Y0167917D01*
X0210161Y0165417D01*
X0212661Y0167917D01*
X0217661Y0167917D01*
X0220161Y0165417D01*
X0222661Y0167917D01*
X0227661Y0167917D01*
X0230161Y0165417D01*
X0230161Y0160417D01*
X0227661Y0177602D02*
X0222661Y0177602D01*
X0220161Y0180102D01*
X0217661Y0177602D01*
X0212661Y0177602D01*
X0210161Y0180102D01*
X0207661Y0177602D01*
X0202661Y0177602D01*
X0200161Y0180102D01*
X0197661Y0177602D01*
X0192661Y0177602D01*
X0190161Y0180102D01*
X0190161Y0185102D01*
X0192661Y0187602D01*
X0197661Y0187602D01*
X0200161Y0185102D01*
X0202661Y0187602D01*
X0207661Y0187602D01*
X0210161Y0185102D01*
X0212661Y0187602D01*
X0217661Y0187602D01*
X0220161Y0185102D01*
X0222661Y0187602D01*
X0227661Y0187602D01*
X0230161Y0185102D01*
X0230161Y0180102D01*
X0227661Y0177602D01*
X0233117Y0183309D02*
X0233117Y0184710D01*
X0233817Y0185411D01*
X0234518Y0185411D01*
X0235219Y0184710D01*
X0235919Y0185411D01*
X0236620Y0185411D01*
X0237320Y0184710D01*
X0237320Y0183309D01*
X0236620Y0182609D01*
X0235219Y0184010D02*
X0235219Y0184710D01*
X0233817Y0182609D02*
X0233117Y0183309D01*
X0233117Y0187213D02*
X0235919Y0187213D01*
X0237320Y0188614D01*
X0235919Y0190015D01*
X0233117Y0190015D01*
X0233817Y0191817D02*
X0233117Y0192517D01*
X0233117Y0193918D01*
X0233817Y0194619D01*
X0234518Y0194619D01*
X0235219Y0193918D01*
X0235919Y0194619D01*
X0236620Y0194619D01*
X0237320Y0193918D01*
X0237320Y0192517D01*
X0236620Y0191817D01*
X0235219Y0193218D02*
X0235219Y0193918D01*
X0235919Y0201024D02*
X0235919Y0203126D01*
X0235219Y0203827D01*
X0233817Y0203827D01*
X0233117Y0203126D01*
X0233117Y0201024D01*
X0237320Y0201024D01*
X0236620Y0205628D02*
X0237320Y0206329D01*
X0237320Y0207730D01*
X0236620Y0208431D01*
X0235219Y0208431D01*
X0234518Y0207730D01*
X0234518Y0206329D01*
X0235219Y0205628D01*
X0236620Y0205628D01*
X0236620Y0210232D02*
X0237320Y0210933D01*
X0236620Y0211633D01*
X0237320Y0212334D01*
X0236620Y0213035D01*
X0234518Y0213035D01*
X0235219Y0214836D02*
X0234518Y0215537D01*
X0234518Y0216938D01*
X0235219Y0217639D01*
X0235919Y0217639D01*
X0235919Y0214836D01*
X0235219Y0214836D02*
X0236620Y0214836D01*
X0237320Y0215537D01*
X0237320Y0216938D01*
X0237320Y0219440D02*
X0234518Y0219440D01*
X0234518Y0220841D02*
X0234518Y0221542D01*
X0234518Y0220841D02*
X0235919Y0219440D01*
X0235919Y0223277D02*
X0235919Y0225378D01*
X0235219Y0226079D01*
X0233817Y0226079D01*
X0233117Y0225378D01*
X0233117Y0223277D01*
X0237320Y0223277D01*
X0236620Y0227881D02*
X0233817Y0227881D01*
X0233117Y0228581D01*
X0233117Y0229982D01*
X0233817Y0230683D01*
X0236620Y0230683D01*
X0237320Y0229982D01*
X0237320Y0228581D01*
X0236620Y0227881D01*
X0237320Y0232485D02*
X0233117Y0232485D01*
X0233117Y0234586D01*
X0233817Y0235287D01*
X0236620Y0235287D01*
X0237320Y0234586D01*
X0237320Y0232485D01*
X0236620Y0210232D02*
X0234518Y0210232D01*
X0171391Y0240002D02*
X0170690Y0239302D01*
X0168588Y0239302D01*
X0168588Y0243505D01*
X0170690Y0243505D01*
X0171391Y0242805D01*
X0171391Y0240002D01*
X0166787Y0239302D02*
X0166787Y0243505D01*
X0163984Y0243505D02*
X0166787Y0239302D01*
X0163984Y0239302D02*
X0163984Y0243505D01*
X0162183Y0242805D02*
X0161482Y0243505D01*
X0160081Y0243505D01*
X0159380Y0242805D01*
X0159380Y0240002D01*
X0160081Y0239302D01*
X0161482Y0239302D01*
X0162183Y0240002D01*
X0162183Y0241403D01*
X0160782Y0241403D01*
X0160047Y0224608D02*
X0160047Y0221805D01*
X0161448Y0220404D01*
X0162850Y0221805D01*
X0162850Y0224608D01*
X0164651Y0223907D02*
X0165352Y0224608D01*
X0166753Y0224608D01*
X0167454Y0223907D01*
X0164651Y0221105D01*
X0165352Y0220404D01*
X0166753Y0220404D01*
X0167454Y0221105D01*
X0167454Y0223907D01*
X0164651Y0223907D02*
X0164651Y0221105D01*
X0158246Y0221105D02*
X0157545Y0220404D01*
X0156144Y0220404D01*
X0155443Y0221105D01*
X0155443Y0222506D02*
X0156845Y0223206D01*
X0157545Y0223206D01*
X0158246Y0222506D01*
X0158246Y0221105D01*
X0155443Y0222506D02*
X0155443Y0224608D01*
X0158246Y0224608D01*
X0154256Y0212130D02*
X0150516Y0212130D01*
X0150516Y0271185D01*
X0154256Y0271185D01*
X0154256Y0212130D01*
X0150516Y0212130D02*
X0124728Y0212130D01*
X0124728Y0271185D01*
X0150516Y0271185D01*
X0158987Y0270671D02*
X0158987Y0267868D01*
X0160388Y0266467D01*
X0161789Y0267868D01*
X0161789Y0270671D01*
X0163591Y0270671D02*
X0164992Y0270671D01*
X0164291Y0270671D02*
X0164291Y0266467D01*
X0163591Y0266467D02*
X0164992Y0266467D01*
X0166660Y0266467D02*
X0166660Y0270671D01*
X0169462Y0266467D01*
X0169462Y0270671D01*
X0160732Y0199413D02*
X0155732Y0199413D01*
X0153232Y0196913D01*
X0150732Y0199413D01*
X0145732Y0199413D01*
X0143232Y0196913D01*
X0140732Y0199413D01*
X0135732Y0199413D01*
X0133232Y0196913D01*
X0130732Y0199413D01*
X0125732Y0199413D01*
X0123232Y0196913D01*
X0123232Y0191913D01*
X0125732Y0189413D01*
X0130732Y0189413D01*
X0133232Y0191913D01*
X0135732Y0189413D01*
X0140732Y0189413D01*
X0143232Y0191913D01*
X0145732Y0189413D01*
X0150732Y0189413D01*
X0153232Y0191913D01*
X0155732Y0189413D01*
X0160732Y0189413D01*
X0163232Y0191913D01*
X0163232Y0196913D01*
X0160732Y0199413D01*
X0166888Y0190799D02*
X0166188Y0190098D01*
X0166188Y0187996D01*
X0170391Y0187996D01*
X0170391Y0190098D01*
X0169691Y0190799D01*
X0166888Y0190799D01*
X0166888Y0186195D02*
X0166188Y0185494D01*
X0166188Y0184093D01*
X0166888Y0183392D01*
X0169691Y0183392D01*
X0170391Y0184093D01*
X0170391Y0185494D01*
X0169691Y0186195D01*
X0166888Y0186195D01*
X0166888Y0181591D02*
X0166188Y0180890D01*
X0166188Y0178788D01*
X0170391Y0178788D01*
X0168990Y0178788D02*
X0168990Y0180890D01*
X0168290Y0181591D01*
X0166888Y0181591D01*
X0167589Y0177054D02*
X0167589Y0176353D01*
X0168990Y0174952D01*
X0170391Y0174952D02*
X0167589Y0174952D01*
X0168290Y0173150D02*
X0168990Y0173150D01*
X0168990Y0170348D01*
X0168290Y0170348D02*
X0167589Y0171049D01*
X0167589Y0172450D01*
X0168290Y0173150D01*
X0170391Y0172450D02*
X0170391Y0171049D01*
X0169691Y0170348D01*
X0168290Y0170348D01*
X0167589Y0168546D02*
X0169691Y0168546D01*
X0170391Y0167846D01*
X0169691Y0167145D01*
X0170391Y0166445D01*
X0169691Y0165744D01*
X0167589Y0165744D01*
X0168290Y0163942D02*
X0167589Y0163242D01*
X0167589Y0161841D01*
X0168290Y0161140D01*
X0169691Y0161140D01*
X0170391Y0161841D01*
X0170391Y0163242D01*
X0169691Y0163942D01*
X0168290Y0163942D01*
X0168290Y0159339D02*
X0168990Y0158638D01*
X0168990Y0156536D01*
X0170391Y0156536D02*
X0166188Y0156536D01*
X0166188Y0158638D01*
X0166888Y0159339D01*
X0168290Y0159339D01*
X0169691Y0150131D02*
X0170391Y0149430D01*
X0170391Y0148029D01*
X0169691Y0147328D01*
X0166888Y0150131D01*
X0169691Y0150131D01*
X0166888Y0150131D02*
X0166188Y0149430D01*
X0166188Y0148029D01*
X0166888Y0147328D01*
X0169691Y0147328D01*
X0168990Y0145527D02*
X0166188Y0145527D01*
X0168990Y0145527D02*
X0170391Y0144126D01*
X0168990Y0142724D01*
X0166188Y0142724D01*
X0166188Y0140923D02*
X0166188Y0138120D01*
X0168290Y0138120D01*
X0167589Y0139522D01*
X0167589Y0140222D01*
X0168290Y0140923D01*
X0169691Y0140923D01*
X0170391Y0140222D01*
X0170391Y0138821D01*
X0169691Y0138120D01*
X0144019Y0111699D02*
X0144021Y0111746D01*
X0144027Y0111793D01*
X0144037Y0111840D01*
X0144050Y0111885D01*
X0144068Y0111929D01*
X0144089Y0111971D01*
X0144113Y0112012D01*
X0144141Y0112050D01*
X0144172Y0112086D01*
X0144206Y0112119D01*
X0144242Y0112149D01*
X0144281Y0112176D01*
X0144322Y0112200D01*
X0144365Y0112220D01*
X0144409Y0112236D01*
X0144455Y0112249D01*
X0144501Y0112258D01*
X0144549Y0112263D01*
X0144596Y0112264D01*
X0144643Y0112261D01*
X0144690Y0112254D01*
X0144736Y0112243D01*
X0144781Y0112229D01*
X0144825Y0112210D01*
X0144866Y0112188D01*
X0144906Y0112163D01*
X0144944Y0112134D01*
X0144979Y0112103D01*
X0145012Y0112068D01*
X0145041Y0112031D01*
X0145067Y0111992D01*
X0145090Y0111950D01*
X0145109Y0111907D01*
X0145125Y0111862D01*
X0145137Y0111816D01*
X0145145Y0111770D01*
X0145149Y0111723D01*
X0145149Y0111675D01*
X0145145Y0111628D01*
X0145137Y0111582D01*
X0145125Y0111536D01*
X0145109Y0111491D01*
X0145090Y0111448D01*
X0145067Y0111406D01*
X0145041Y0111367D01*
X0145012Y0111330D01*
X0144979Y0111295D01*
X0144944Y0111264D01*
X0144906Y0111235D01*
X0144867Y0111210D01*
X0144825Y0111188D01*
X0144781Y0111169D01*
X0144736Y0111155D01*
X0144690Y0111144D01*
X0144643Y0111137D01*
X0144596Y0111134D01*
X0144549Y0111135D01*
X0144501Y0111140D01*
X0144455Y0111149D01*
X0144409Y0111162D01*
X0144365Y0111178D01*
X0144322Y0111198D01*
X0144281Y0111222D01*
X0144242Y0111249D01*
X0144206Y0111279D01*
X0144172Y0111312D01*
X0144141Y0111348D01*
X0144113Y0111386D01*
X0144089Y0111427D01*
X0144068Y0111469D01*
X0144050Y0111513D01*
X0144037Y0111558D01*
X0144027Y0111605D01*
X0144021Y0111652D01*
X0144019Y0111699D01*
X0097051Y0110575D02*
X0094551Y0108075D01*
X0097051Y0105575D01*
X0097051Y0100575D01*
X0094551Y0098075D01*
X0097051Y0095575D01*
X0097051Y0090575D01*
X0094551Y0088075D01*
X0097051Y0085575D01*
X0097051Y0080575D01*
X0094551Y0078075D01*
X0097051Y0075575D01*
X0097051Y0070575D01*
X0094551Y0068075D01*
X0097051Y0065575D01*
X0097051Y0060575D01*
X0094551Y0058075D01*
X0089551Y0058075D01*
X0087051Y0060575D01*
X0087051Y0065575D01*
X0089551Y0068075D01*
X0087051Y0070575D01*
X0087051Y0075575D01*
X0089551Y0078075D01*
X0087051Y0080575D01*
X0087051Y0085575D01*
X0089551Y0088075D01*
X0087051Y0090575D01*
X0087051Y0095575D01*
X0089551Y0098075D01*
X0087051Y0100575D01*
X0087051Y0105575D01*
X0089551Y0108075D01*
X0087051Y0110575D01*
X0087051Y0115575D01*
X0089551Y0118075D01*
X0087051Y0120575D01*
X0087051Y0125575D01*
X0089551Y0128075D01*
X0087051Y0130575D01*
X0087051Y0135575D01*
X0089551Y0138075D01*
X0087051Y0140575D01*
X0087051Y0145575D01*
X0089551Y0148075D01*
X0087051Y0150575D01*
X0087051Y0155575D01*
X0089551Y0158075D01*
X0094551Y0158075D01*
X0097051Y0155575D01*
X0097051Y0150575D01*
X0094551Y0148075D01*
X0097051Y0145575D01*
X0097051Y0140575D01*
X0094551Y0138075D01*
X0097051Y0135575D01*
X0097051Y0130575D01*
X0094551Y0128075D01*
X0097051Y0125575D01*
X0097051Y0120575D01*
X0094551Y0118075D01*
X0097051Y0115575D01*
X0097051Y0110575D01*
X0067642Y0137720D02*
X0064492Y0137720D01*
X0064492Y0140083D01*
X0064492Y0146382D02*
X0064492Y0148744D01*
X0067642Y0148744D01*
X0051287Y0144413D02*
X0051287Y0142051D01*
X0050138Y0143232D01*
X0051287Y0144413D01*
X0080240Y0053862D02*
X0021185Y0053862D01*
X0021185Y0050122D01*
X0080240Y0050122D01*
X0080240Y0024335D01*
X0021185Y0024335D01*
X0021185Y0050122D01*
X0026824Y0020789D02*
X0029626Y0016585D01*
X0029626Y0020789D01*
X0029626Y0016585D01*
X0026824Y0020789D01*
X0026824Y0016585D01*
X0026824Y0020789D01*
X0031428Y0020088D02*
X0031428Y0017286D01*
X0032128Y0016585D01*
X0033529Y0016585D01*
X0034230Y0017286D01*
X0034230Y0020088D01*
X0033529Y0020789D01*
X0032128Y0020789D01*
X0031428Y0020088D01*
X0031428Y0017286D01*
X0032128Y0016585D01*
X0033529Y0016585D01*
X0034230Y0017286D01*
X0034230Y0020088D02*
X0033529Y0020789D01*
X0032128Y0020789D01*
X0031428Y0020088D01*
X0044207Y0020088D02*
X0044207Y0017286D01*
X0044907Y0016585D01*
X0046309Y0016585D01*
X0047009Y0017286D01*
X0048811Y0017286D02*
X0048811Y0020088D01*
X0049511Y0020789D01*
X0050912Y0020789D01*
X0051613Y0020088D01*
X0051613Y0017286D01*
X0050912Y0016585D01*
X0049511Y0016585D01*
X0048811Y0017286D01*
X0047009Y0020088D02*
X0046309Y0020789D01*
X0044907Y0020789D01*
X0044207Y0020088D01*
X0053415Y0020789D02*
X0053415Y0016585D01*
X0056217Y0016585D02*
X0056217Y0020789D01*
X0054816Y0019387D01*
X0053415Y0020789D01*
X0066194Y0020789D02*
X0066194Y0016585D01*
X0068996Y0016585D02*
X0068996Y0020789D01*
X0070798Y0020088D02*
X0070798Y0017286D01*
X0071498Y0016585D01*
X0072899Y0016585D01*
X0073600Y0017286D01*
X0073600Y0020088D02*
X0072899Y0020789D01*
X0071498Y0020789D01*
X0070798Y0020088D01*
X0068996Y0016585D02*
X0066194Y0020789D01*
X0091551Y0020789D02*
X0091551Y0016585D01*
X0091551Y0017986D02*
X0093653Y0017986D01*
X0094354Y0018687D01*
X0094354Y0020088D01*
X0093653Y0020789D01*
X0091551Y0020789D01*
X0092952Y0017986D02*
X0094354Y0016585D01*
X0096155Y0017286D02*
X0096155Y0018687D01*
X0096856Y0019387D01*
X0098257Y0019387D01*
X0098958Y0018687D01*
X0098958Y0017986D01*
X0096155Y0017986D01*
X0096155Y0017286D02*
X0096856Y0016585D01*
X0098257Y0016585D01*
X0100759Y0016585D02*
X0102160Y0016585D01*
X0101460Y0016585D02*
X0101460Y0020789D01*
X0100759Y0020789D01*
X0104529Y0019387D02*
X0105930Y0019387D01*
X0106631Y0018687D01*
X0106631Y0016585D01*
X0104529Y0016585D01*
X0103828Y0017286D01*
X0104529Y0017986D01*
X0106631Y0017986D01*
X0108432Y0017286D02*
X0109133Y0016585D01*
X0111235Y0016585D01*
X0111235Y0015884D02*
X0110534Y0015184D01*
X0109833Y0015184D01*
X0111235Y0015884D02*
X0111235Y0019387D01*
X0108432Y0019387D02*
X0108432Y0017286D01*
X0115073Y0017286D02*
X0115773Y0016585D01*
X0117175Y0016585D01*
X0117875Y0017286D01*
X0117875Y0018687D01*
X0116474Y0018687D01*
X0115073Y0020088D02*
X0115073Y0017286D01*
X0115073Y0020088D02*
X0115773Y0020789D01*
X0117175Y0020789D01*
X0117875Y0020088D01*
X0119677Y0020789D02*
X0122479Y0016585D01*
X0122479Y0020789D01*
X0124281Y0020789D02*
X0126382Y0020789D01*
X0127083Y0020088D01*
X0127083Y0017286D01*
X0126382Y0016585D01*
X0124281Y0016585D01*
X0124281Y0020789D01*
X0119677Y0020789D02*
X0119677Y0016585D01*
X0133991Y0016585D02*
X0133991Y0020789D01*
X0133991Y0018687D02*
X0136793Y0018687D01*
X0136793Y0020789D02*
X0136793Y0016585D01*
X0138594Y0017286D02*
X0139295Y0017986D01*
X0141397Y0017986D01*
X0141397Y0018687D02*
X0141397Y0016585D01*
X0139295Y0016585D01*
X0138594Y0017286D01*
X0139295Y0019387D02*
X0140696Y0019387D01*
X0141397Y0018687D01*
X0143198Y0020789D02*
X0143899Y0020789D01*
X0143899Y0016585D01*
X0143198Y0016585D02*
X0144600Y0016585D01*
X0146268Y0016585D02*
X0147669Y0016585D01*
X0146968Y0016585D02*
X0146968Y0020789D01*
X0146268Y0020789D01*
X0151106Y0024335D02*
X0151106Y0050122D01*
X0092051Y0050122D01*
X0092051Y0053862D01*
X0151106Y0053862D01*
X0151106Y0050122D01*
X0172209Y0046776D02*
X0271736Y0046776D01*
X0271736Y0011343D01*
X0230634Y0011343D01*
X0230634Y0017248D01*
X0213311Y0017248D01*
X0213311Y0011343D01*
X0172209Y0011343D01*
X0172209Y0046382D01*
X0151106Y0024335D02*
X0092051Y0024335D01*
X0092051Y0050122D01*
X0080240Y0050122D02*
X0080240Y0053862D01*
X0189472Y0018134D02*
X0194472Y0018134D01*
X0213311Y0011343D02*
X0230634Y0011343D01*
X0282445Y0011343D02*
X0282445Y0046382D01*
X0282445Y0046776D02*
X0381972Y0046776D01*
X0381972Y0011343D01*
X0340870Y0011343D01*
X0340870Y0017248D01*
X0323547Y0017248D01*
X0323547Y0011343D01*
X0282445Y0011343D01*
X0299709Y0018134D02*
X0304709Y0018134D01*
X0323547Y0011343D02*
X0340870Y0011343D01*
X0361205Y0193350D02*
X0358705Y0195850D01*
X0358705Y0200850D01*
X0361205Y0203350D01*
X0358705Y0205850D01*
X0358705Y0210850D01*
X0361205Y0213350D01*
X0358705Y0215850D01*
X0358705Y0220850D01*
X0361205Y0223350D01*
X0358705Y0225850D01*
X0358705Y0230850D01*
X0361205Y0233350D01*
X0358705Y0235850D01*
X0358705Y0240850D01*
X0361205Y0243350D01*
X0358705Y0245850D01*
X0358705Y0250850D01*
X0361205Y0253350D01*
X0366205Y0253350D01*
X0368705Y0250850D01*
X0368705Y0245850D01*
X0366205Y0243350D01*
X0368705Y0240850D01*
X0368705Y0235850D01*
X0366205Y0233350D01*
X0368705Y0230850D01*
X0368705Y0225850D01*
X0366205Y0223350D01*
X0368705Y0220850D01*
X0368705Y0215850D01*
X0366205Y0213350D01*
X0368705Y0210850D01*
X0368705Y0205850D01*
X0366205Y0203350D01*
X0368705Y0200850D01*
X0368705Y0195850D01*
X0366205Y0193350D01*
X0361205Y0193350D01*
X0338608Y0211673D02*
X0332108Y0211673D01*
X0332048Y0211675D01*
X0331987Y0211680D01*
X0331928Y0211689D01*
X0331869Y0211702D01*
X0331810Y0211718D01*
X0331753Y0211738D01*
X0331698Y0211761D01*
X0331643Y0211788D01*
X0331591Y0211817D01*
X0331540Y0211850D01*
X0331491Y0211886D01*
X0331445Y0211924D01*
X0331401Y0211966D01*
X0331359Y0212010D01*
X0331321Y0212056D01*
X0331285Y0212105D01*
X0331252Y0212156D01*
X0331223Y0212208D01*
X0331196Y0212263D01*
X0331173Y0212318D01*
X0331153Y0212375D01*
X0331137Y0212434D01*
X0331124Y0212493D01*
X0331115Y0212552D01*
X0331110Y0212613D01*
X0331108Y0212673D01*
X0331108Y0218673D02*
X0331110Y0218733D01*
X0331115Y0218794D01*
X0331124Y0218853D01*
X0331137Y0218912D01*
X0331153Y0218971D01*
X0331173Y0219028D01*
X0331196Y0219083D01*
X0331223Y0219138D01*
X0331252Y0219190D01*
X0331285Y0219241D01*
X0331321Y0219290D01*
X0331359Y0219336D01*
X0331401Y0219380D01*
X0331445Y0219422D01*
X0331491Y0219460D01*
X0331540Y0219496D01*
X0331591Y0219529D01*
X0331643Y0219558D01*
X0331698Y0219585D01*
X0331753Y0219608D01*
X0331810Y0219628D01*
X0331869Y0219644D01*
X0331928Y0219657D01*
X0331987Y0219666D01*
X0332048Y0219671D01*
X0332108Y0219673D01*
X0338608Y0219673D01*
X0338668Y0219671D01*
X0338729Y0219666D01*
X0338788Y0219657D01*
X0338847Y0219644D01*
X0338906Y0219628D01*
X0338963Y0219608D01*
X0339018Y0219585D01*
X0339073Y0219558D01*
X0339125Y0219529D01*
X0339176Y0219496D01*
X0339225Y0219460D01*
X0339271Y0219422D01*
X0339315Y0219380D01*
X0339357Y0219336D01*
X0339395Y0219290D01*
X0339431Y0219241D01*
X0339464Y0219190D01*
X0339493Y0219138D01*
X0339520Y0219083D01*
X0339543Y0219028D01*
X0339563Y0218971D01*
X0339579Y0218912D01*
X0339592Y0218853D01*
X0339601Y0218794D01*
X0339606Y0218733D01*
X0339608Y0218673D01*
X0339022Y0223554D02*
X0339022Y0226356D01*
X0339022Y0228157D02*
X0339022Y0230960D01*
X0339022Y0229559D02*
X0343226Y0229559D01*
X0343226Y0232761D02*
X0339022Y0232761D01*
X0339022Y0234863D01*
X0339723Y0235564D01*
X0342525Y0235564D01*
X0343226Y0234863D01*
X0343226Y0232761D01*
X0343226Y0237365D02*
X0343226Y0238767D01*
X0343226Y0238066D02*
X0339022Y0238066D01*
X0339022Y0237365D02*
X0339022Y0238767D01*
X0341124Y0224955D02*
X0341124Y0223554D01*
X0343226Y0223554D02*
X0339022Y0223554D01*
X0339608Y0212673D02*
X0339606Y0212613D01*
X0339601Y0212552D01*
X0339592Y0212493D01*
X0339579Y0212434D01*
X0339563Y0212375D01*
X0339543Y0212318D01*
X0339520Y0212263D01*
X0339493Y0212208D01*
X0339464Y0212156D01*
X0339431Y0212105D01*
X0339395Y0212056D01*
X0339357Y0212010D01*
X0339315Y0211966D01*
X0339271Y0211924D01*
X0339225Y0211886D01*
X0339176Y0211850D01*
X0339125Y0211817D01*
X0339073Y0211788D01*
X0339018Y0211761D01*
X0338963Y0211738D01*
X0338906Y0211718D01*
X0338847Y0211702D01*
X0338788Y0211689D01*
X0338729Y0211680D01*
X0338668Y0211675D01*
X0338608Y0211673D01*
D13*
X0361448Y0094569D02*
X0360464Y0093585D01*
X0361448Y0094569D02*
X0363417Y0094569D01*
X0364401Y0093585D01*
X0364401Y0092601D01*
X0360464Y0088664D01*
X0364401Y0088664D01*
X0366909Y0088664D02*
X0366909Y0089648D01*
X0367894Y0089648D01*
X0367894Y0088664D01*
X0366909Y0088664D01*
X0370132Y0089648D02*
X0374069Y0093585D01*
X0374069Y0089648D01*
X0373085Y0088664D01*
X0371116Y0088664D01*
X0370132Y0089648D01*
X0370132Y0093585D01*
X0371116Y0094569D01*
X0373085Y0094569D01*
X0374069Y0093585D01*
X0357955Y0092601D02*
X0355987Y0088664D01*
X0354019Y0092601D01*
X0130645Y0008743D02*
X0129660Y0008743D01*
X0127692Y0006774D01*
X0127692Y0004806D02*
X0127692Y0008743D01*
X0125183Y0007758D02*
X0125183Y0006774D01*
X0121247Y0006774D01*
X0121247Y0005790D02*
X0121247Y0007758D01*
X0122231Y0008743D01*
X0124199Y0008743D01*
X0125183Y0007758D01*
X0124199Y0004806D02*
X0122231Y0004806D01*
X0121247Y0005790D01*
X0118738Y0005790D02*
X0118738Y0007758D01*
X0117754Y0008743D01*
X0114801Y0008743D01*
X0114801Y0002838D01*
X0114801Y0004806D02*
X0117754Y0004806D01*
X0118738Y0005790D01*
X0112292Y0006774D02*
X0108356Y0006774D01*
X0108356Y0005790D02*
X0108356Y0007758D01*
X0109340Y0008743D01*
X0111308Y0008743D01*
X0112292Y0007758D01*
X0112292Y0006774D01*
X0111308Y0004806D02*
X0109340Y0004806D01*
X0108356Y0005790D01*
X0105847Y0006774D02*
X0101910Y0006774D01*
X0101910Y0005790D02*
X0101910Y0007758D01*
X0102894Y0008743D01*
X0104863Y0008743D01*
X0105847Y0007758D01*
X0105847Y0006774D01*
X0104863Y0004806D02*
X0102894Y0004806D01*
X0101910Y0005790D01*
X0099491Y0004806D02*
X0096539Y0006774D01*
X0099491Y0008743D01*
X0096539Y0010711D02*
X0096539Y0004806D01*
X0094030Y0006774D02*
X0090093Y0006774D01*
X0090093Y0005790D02*
X0090093Y0007758D01*
X0091077Y0008743D01*
X0093046Y0008743D01*
X0094030Y0007758D01*
X0094030Y0006774D01*
X0093046Y0004806D02*
X0091077Y0004806D01*
X0090093Y0005790D01*
X0087765Y0004806D02*
X0086780Y0005790D01*
X0086780Y0009727D01*
X0085796Y0008743D02*
X0087765Y0008743D01*
X0083288Y0007758D02*
X0083288Y0004806D01*
X0080335Y0004806D01*
X0079351Y0005790D01*
X0080335Y0006774D01*
X0083288Y0006774D01*
X0083288Y0007758D02*
X0082303Y0008743D01*
X0080335Y0008743D01*
X0076842Y0009727D02*
X0075858Y0010711D01*
X0073889Y0010711D01*
X0072905Y0009727D01*
X0072905Y0005790D01*
X0073889Y0004806D01*
X0075858Y0004806D01*
X0076842Y0005790D01*
X0076842Y0007758D01*
X0074874Y0007758D01*
X0063951Y0006774D02*
X0063951Y0005790D01*
X0062967Y0004806D01*
X0060998Y0004806D01*
X0060014Y0005790D01*
X0060998Y0007758D02*
X0062967Y0007758D01*
X0063951Y0006774D01*
X0063951Y0009727D02*
X0062967Y0010711D01*
X0060998Y0010711D01*
X0060014Y0009727D01*
X0060014Y0008743D01*
X0060998Y0007758D01*
X0057506Y0010711D02*
X0053569Y0010711D01*
X0055537Y0010711D02*
X0055537Y0004806D01*
X0049092Y0004806D02*
X0049092Y0010711D01*
X0051060Y0010711D02*
X0047123Y0010711D01*
X0044615Y0009727D02*
X0043630Y0010711D01*
X0041662Y0010711D01*
X0040678Y0009727D01*
X0040678Y0005790D01*
X0041662Y0004806D01*
X0043630Y0004806D01*
X0044615Y0005790D01*
X0044615Y0009727D01*
X0038169Y0010711D02*
X0038169Y0004806D01*
X0034232Y0010711D01*
X0034232Y0004806D01*
X0031724Y0005790D02*
X0031724Y0006774D01*
X0030739Y0007758D01*
X0028771Y0007758D01*
X0027787Y0008743D01*
X0027787Y0009727D01*
X0028771Y0010711D01*
X0030739Y0010711D01*
X0031724Y0009727D01*
X0025278Y0010711D02*
X0025278Y0004806D01*
X0027787Y0005790D02*
X0028771Y0004806D01*
X0030739Y0004806D01*
X0031724Y0005790D01*
X0025278Y0007758D02*
X0021341Y0007758D01*
X0021341Y0004806D02*
X0021341Y0010711D01*
D14*
X0005201Y0011500D02*
X0005203Y0011658D01*
X0005209Y0011816D01*
X0005219Y0011974D01*
X0005233Y0012132D01*
X0005251Y0012289D01*
X0005272Y0012446D01*
X0005298Y0012602D01*
X0005328Y0012758D01*
X0005361Y0012913D01*
X0005399Y0013066D01*
X0005440Y0013219D01*
X0005485Y0013371D01*
X0005534Y0013522D01*
X0005587Y0013671D01*
X0005643Y0013819D01*
X0005703Y0013965D01*
X0005767Y0014110D01*
X0005835Y0014253D01*
X0005906Y0014395D01*
X0005980Y0014535D01*
X0006058Y0014672D01*
X0006140Y0014808D01*
X0006224Y0014942D01*
X0006313Y0015073D01*
X0006404Y0015202D01*
X0006499Y0015329D01*
X0006596Y0015454D01*
X0006697Y0015576D01*
X0006801Y0015695D01*
X0006908Y0015812D01*
X0007018Y0015926D01*
X0007131Y0016037D01*
X0007246Y0016146D01*
X0007364Y0016251D01*
X0007485Y0016353D01*
X0007608Y0016453D01*
X0007734Y0016549D01*
X0007862Y0016642D01*
X0007992Y0016732D01*
X0008125Y0016818D01*
X0008260Y0016902D01*
X0008396Y0016981D01*
X0008535Y0017058D01*
X0008676Y0017130D01*
X0008818Y0017200D01*
X0008962Y0017265D01*
X0009108Y0017327D01*
X0009255Y0017385D01*
X0009404Y0017440D01*
X0009554Y0017491D01*
X0009705Y0017538D01*
X0009857Y0017581D01*
X0010010Y0017620D01*
X0010165Y0017656D01*
X0010320Y0017687D01*
X0010476Y0017715D01*
X0010632Y0017739D01*
X0010789Y0017759D01*
X0010947Y0017775D01*
X0011104Y0017787D01*
X0011263Y0017795D01*
X0011421Y0017799D01*
X0011579Y0017799D01*
X0011737Y0017795D01*
X0011896Y0017787D01*
X0012053Y0017775D01*
X0012211Y0017759D01*
X0012368Y0017739D01*
X0012524Y0017715D01*
X0012680Y0017687D01*
X0012835Y0017656D01*
X0012990Y0017620D01*
X0013143Y0017581D01*
X0013295Y0017538D01*
X0013446Y0017491D01*
X0013596Y0017440D01*
X0013745Y0017385D01*
X0013892Y0017327D01*
X0014038Y0017265D01*
X0014182Y0017200D01*
X0014324Y0017130D01*
X0014465Y0017058D01*
X0014604Y0016981D01*
X0014740Y0016902D01*
X0014875Y0016818D01*
X0015008Y0016732D01*
X0015138Y0016642D01*
X0015266Y0016549D01*
X0015392Y0016453D01*
X0015515Y0016353D01*
X0015636Y0016251D01*
X0015754Y0016146D01*
X0015869Y0016037D01*
X0015982Y0015926D01*
X0016092Y0015812D01*
X0016199Y0015695D01*
X0016303Y0015576D01*
X0016404Y0015454D01*
X0016501Y0015329D01*
X0016596Y0015202D01*
X0016687Y0015073D01*
X0016776Y0014942D01*
X0016860Y0014808D01*
X0016942Y0014672D01*
X0017020Y0014535D01*
X0017094Y0014395D01*
X0017165Y0014253D01*
X0017233Y0014110D01*
X0017297Y0013965D01*
X0017357Y0013819D01*
X0017413Y0013671D01*
X0017466Y0013522D01*
X0017515Y0013371D01*
X0017560Y0013219D01*
X0017601Y0013066D01*
X0017639Y0012913D01*
X0017672Y0012758D01*
X0017702Y0012602D01*
X0017728Y0012446D01*
X0017749Y0012289D01*
X0017767Y0012132D01*
X0017781Y0011974D01*
X0017791Y0011816D01*
X0017797Y0011658D01*
X0017799Y0011500D01*
X0017797Y0011342D01*
X0017791Y0011184D01*
X0017781Y0011026D01*
X0017767Y0010868D01*
X0017749Y0010711D01*
X0017728Y0010554D01*
X0017702Y0010398D01*
X0017672Y0010242D01*
X0017639Y0010087D01*
X0017601Y0009934D01*
X0017560Y0009781D01*
X0017515Y0009629D01*
X0017466Y0009478D01*
X0017413Y0009329D01*
X0017357Y0009181D01*
X0017297Y0009035D01*
X0017233Y0008890D01*
X0017165Y0008747D01*
X0017094Y0008605D01*
X0017020Y0008465D01*
X0016942Y0008328D01*
X0016860Y0008192D01*
X0016776Y0008058D01*
X0016687Y0007927D01*
X0016596Y0007798D01*
X0016501Y0007671D01*
X0016404Y0007546D01*
X0016303Y0007424D01*
X0016199Y0007305D01*
X0016092Y0007188D01*
X0015982Y0007074D01*
X0015869Y0006963D01*
X0015754Y0006854D01*
X0015636Y0006749D01*
X0015515Y0006647D01*
X0015392Y0006547D01*
X0015266Y0006451D01*
X0015138Y0006358D01*
X0015008Y0006268D01*
X0014875Y0006182D01*
X0014740Y0006098D01*
X0014604Y0006019D01*
X0014465Y0005942D01*
X0014324Y0005870D01*
X0014182Y0005800D01*
X0014038Y0005735D01*
X0013892Y0005673D01*
X0013745Y0005615D01*
X0013596Y0005560D01*
X0013446Y0005509D01*
X0013295Y0005462D01*
X0013143Y0005419D01*
X0012990Y0005380D01*
X0012835Y0005344D01*
X0012680Y0005313D01*
X0012524Y0005285D01*
X0012368Y0005261D01*
X0012211Y0005241D01*
X0012053Y0005225D01*
X0011896Y0005213D01*
X0011737Y0005205D01*
X0011579Y0005201D01*
X0011421Y0005201D01*
X0011263Y0005205D01*
X0011104Y0005213D01*
X0010947Y0005225D01*
X0010789Y0005241D01*
X0010632Y0005261D01*
X0010476Y0005285D01*
X0010320Y0005313D01*
X0010165Y0005344D01*
X0010010Y0005380D01*
X0009857Y0005419D01*
X0009705Y0005462D01*
X0009554Y0005509D01*
X0009404Y0005560D01*
X0009255Y0005615D01*
X0009108Y0005673D01*
X0008962Y0005735D01*
X0008818Y0005800D01*
X0008676Y0005870D01*
X0008535Y0005942D01*
X0008396Y0006019D01*
X0008260Y0006098D01*
X0008125Y0006182D01*
X0007992Y0006268D01*
X0007862Y0006358D01*
X0007734Y0006451D01*
X0007608Y0006547D01*
X0007485Y0006647D01*
X0007364Y0006749D01*
X0007246Y0006854D01*
X0007131Y0006963D01*
X0007018Y0007074D01*
X0006908Y0007188D01*
X0006801Y0007305D01*
X0006697Y0007424D01*
X0006596Y0007546D01*
X0006499Y0007671D01*
X0006404Y0007798D01*
X0006313Y0007927D01*
X0006224Y0008058D01*
X0006140Y0008192D01*
X0006058Y0008328D01*
X0005980Y0008465D01*
X0005906Y0008605D01*
X0005835Y0008747D01*
X0005767Y0008890D01*
X0005703Y0009035D01*
X0005643Y0009181D01*
X0005587Y0009329D01*
X0005534Y0009478D01*
X0005485Y0009629D01*
X0005440Y0009781D01*
X0005399Y0009934D01*
X0005361Y0010087D01*
X0005328Y0010242D01*
X0005298Y0010398D01*
X0005272Y0010554D01*
X0005251Y0010711D01*
X0005233Y0010868D01*
X0005219Y0011026D01*
X0005209Y0011184D01*
X0005203Y0011342D01*
X0005201Y0011500D01*
X0378981Y0094492D02*
X0378983Y0094650D01*
X0378989Y0094808D01*
X0378999Y0094966D01*
X0379013Y0095124D01*
X0379031Y0095281D01*
X0379052Y0095438D01*
X0379078Y0095594D01*
X0379108Y0095750D01*
X0379141Y0095905D01*
X0379179Y0096058D01*
X0379220Y0096211D01*
X0379265Y0096363D01*
X0379314Y0096514D01*
X0379367Y0096663D01*
X0379423Y0096811D01*
X0379483Y0096957D01*
X0379547Y0097102D01*
X0379615Y0097245D01*
X0379686Y0097387D01*
X0379760Y0097527D01*
X0379838Y0097664D01*
X0379920Y0097800D01*
X0380004Y0097934D01*
X0380093Y0098065D01*
X0380184Y0098194D01*
X0380279Y0098321D01*
X0380376Y0098446D01*
X0380477Y0098568D01*
X0380581Y0098687D01*
X0380688Y0098804D01*
X0380798Y0098918D01*
X0380911Y0099029D01*
X0381026Y0099138D01*
X0381144Y0099243D01*
X0381265Y0099345D01*
X0381388Y0099445D01*
X0381514Y0099541D01*
X0381642Y0099634D01*
X0381772Y0099724D01*
X0381905Y0099810D01*
X0382040Y0099894D01*
X0382176Y0099973D01*
X0382315Y0100050D01*
X0382456Y0100122D01*
X0382598Y0100192D01*
X0382742Y0100257D01*
X0382888Y0100319D01*
X0383035Y0100377D01*
X0383184Y0100432D01*
X0383334Y0100483D01*
X0383485Y0100530D01*
X0383637Y0100573D01*
X0383790Y0100612D01*
X0383945Y0100648D01*
X0384100Y0100679D01*
X0384256Y0100707D01*
X0384412Y0100731D01*
X0384569Y0100751D01*
X0384727Y0100767D01*
X0384884Y0100779D01*
X0385043Y0100787D01*
X0385201Y0100791D01*
X0385359Y0100791D01*
X0385517Y0100787D01*
X0385676Y0100779D01*
X0385833Y0100767D01*
X0385991Y0100751D01*
X0386148Y0100731D01*
X0386304Y0100707D01*
X0386460Y0100679D01*
X0386615Y0100648D01*
X0386770Y0100612D01*
X0386923Y0100573D01*
X0387075Y0100530D01*
X0387226Y0100483D01*
X0387376Y0100432D01*
X0387525Y0100377D01*
X0387672Y0100319D01*
X0387818Y0100257D01*
X0387962Y0100192D01*
X0388104Y0100122D01*
X0388245Y0100050D01*
X0388384Y0099973D01*
X0388520Y0099894D01*
X0388655Y0099810D01*
X0388788Y0099724D01*
X0388918Y0099634D01*
X0389046Y0099541D01*
X0389172Y0099445D01*
X0389295Y0099345D01*
X0389416Y0099243D01*
X0389534Y0099138D01*
X0389649Y0099029D01*
X0389762Y0098918D01*
X0389872Y0098804D01*
X0389979Y0098687D01*
X0390083Y0098568D01*
X0390184Y0098446D01*
X0390281Y0098321D01*
X0390376Y0098194D01*
X0390467Y0098065D01*
X0390556Y0097934D01*
X0390640Y0097800D01*
X0390722Y0097664D01*
X0390800Y0097527D01*
X0390874Y0097387D01*
X0390945Y0097245D01*
X0391013Y0097102D01*
X0391077Y0096957D01*
X0391137Y0096811D01*
X0391193Y0096663D01*
X0391246Y0096514D01*
X0391295Y0096363D01*
X0391340Y0096211D01*
X0391381Y0096058D01*
X0391419Y0095905D01*
X0391452Y0095750D01*
X0391482Y0095594D01*
X0391508Y0095438D01*
X0391529Y0095281D01*
X0391547Y0095124D01*
X0391561Y0094966D01*
X0391571Y0094808D01*
X0391577Y0094650D01*
X0391579Y0094492D01*
X0391577Y0094334D01*
X0391571Y0094176D01*
X0391561Y0094018D01*
X0391547Y0093860D01*
X0391529Y0093703D01*
X0391508Y0093546D01*
X0391482Y0093390D01*
X0391452Y0093234D01*
X0391419Y0093079D01*
X0391381Y0092926D01*
X0391340Y0092773D01*
X0391295Y0092621D01*
X0391246Y0092470D01*
X0391193Y0092321D01*
X0391137Y0092173D01*
X0391077Y0092027D01*
X0391013Y0091882D01*
X0390945Y0091739D01*
X0390874Y0091597D01*
X0390800Y0091457D01*
X0390722Y0091320D01*
X0390640Y0091184D01*
X0390556Y0091050D01*
X0390467Y0090919D01*
X0390376Y0090790D01*
X0390281Y0090663D01*
X0390184Y0090538D01*
X0390083Y0090416D01*
X0389979Y0090297D01*
X0389872Y0090180D01*
X0389762Y0090066D01*
X0389649Y0089955D01*
X0389534Y0089846D01*
X0389416Y0089741D01*
X0389295Y0089639D01*
X0389172Y0089539D01*
X0389046Y0089443D01*
X0388918Y0089350D01*
X0388788Y0089260D01*
X0388655Y0089174D01*
X0388520Y0089090D01*
X0388384Y0089011D01*
X0388245Y0088934D01*
X0388104Y0088862D01*
X0387962Y0088792D01*
X0387818Y0088727D01*
X0387672Y0088665D01*
X0387525Y0088607D01*
X0387376Y0088552D01*
X0387226Y0088501D01*
X0387075Y0088454D01*
X0386923Y0088411D01*
X0386770Y0088372D01*
X0386615Y0088336D01*
X0386460Y0088305D01*
X0386304Y0088277D01*
X0386148Y0088253D01*
X0385991Y0088233D01*
X0385833Y0088217D01*
X0385676Y0088205D01*
X0385517Y0088197D01*
X0385359Y0088193D01*
X0385201Y0088193D01*
X0385043Y0088197D01*
X0384884Y0088205D01*
X0384727Y0088217D01*
X0384569Y0088233D01*
X0384412Y0088253D01*
X0384256Y0088277D01*
X0384100Y0088305D01*
X0383945Y0088336D01*
X0383790Y0088372D01*
X0383637Y0088411D01*
X0383485Y0088454D01*
X0383334Y0088501D01*
X0383184Y0088552D01*
X0383035Y0088607D01*
X0382888Y0088665D01*
X0382742Y0088727D01*
X0382598Y0088792D01*
X0382456Y0088862D01*
X0382315Y0088934D01*
X0382176Y0089011D01*
X0382040Y0089090D01*
X0381905Y0089174D01*
X0381772Y0089260D01*
X0381642Y0089350D01*
X0381514Y0089443D01*
X0381388Y0089539D01*
X0381265Y0089639D01*
X0381144Y0089741D01*
X0381026Y0089846D01*
X0380911Y0089955D01*
X0380798Y0090066D01*
X0380688Y0090180D01*
X0380581Y0090297D01*
X0380477Y0090416D01*
X0380376Y0090538D01*
X0380279Y0090663D01*
X0380184Y0090790D01*
X0380093Y0090919D01*
X0380004Y0091050D01*
X0379920Y0091184D01*
X0379838Y0091320D01*
X0379760Y0091457D01*
X0379686Y0091597D01*
X0379615Y0091739D01*
X0379547Y0091882D01*
X0379483Y0092027D01*
X0379423Y0092173D01*
X0379367Y0092321D01*
X0379314Y0092470D01*
X0379265Y0092621D01*
X0379220Y0092773D01*
X0379179Y0092926D01*
X0379141Y0093079D01*
X0379108Y0093234D01*
X0379078Y0093390D01*
X0379052Y0093546D01*
X0379031Y0093703D01*
X0379013Y0093860D01*
X0378999Y0094018D01*
X0378989Y0094176D01*
X0378983Y0094334D01*
X0378981Y0094492D01*
X0378981Y0204492D02*
X0378983Y0204650D01*
X0378989Y0204808D01*
X0378999Y0204966D01*
X0379013Y0205124D01*
X0379031Y0205281D01*
X0379052Y0205438D01*
X0379078Y0205594D01*
X0379108Y0205750D01*
X0379141Y0205905D01*
X0379179Y0206058D01*
X0379220Y0206211D01*
X0379265Y0206363D01*
X0379314Y0206514D01*
X0379367Y0206663D01*
X0379423Y0206811D01*
X0379483Y0206957D01*
X0379547Y0207102D01*
X0379615Y0207245D01*
X0379686Y0207387D01*
X0379760Y0207527D01*
X0379838Y0207664D01*
X0379920Y0207800D01*
X0380004Y0207934D01*
X0380093Y0208065D01*
X0380184Y0208194D01*
X0380279Y0208321D01*
X0380376Y0208446D01*
X0380477Y0208568D01*
X0380581Y0208687D01*
X0380688Y0208804D01*
X0380798Y0208918D01*
X0380911Y0209029D01*
X0381026Y0209138D01*
X0381144Y0209243D01*
X0381265Y0209345D01*
X0381388Y0209445D01*
X0381514Y0209541D01*
X0381642Y0209634D01*
X0381772Y0209724D01*
X0381905Y0209810D01*
X0382040Y0209894D01*
X0382176Y0209973D01*
X0382315Y0210050D01*
X0382456Y0210122D01*
X0382598Y0210192D01*
X0382742Y0210257D01*
X0382888Y0210319D01*
X0383035Y0210377D01*
X0383184Y0210432D01*
X0383334Y0210483D01*
X0383485Y0210530D01*
X0383637Y0210573D01*
X0383790Y0210612D01*
X0383945Y0210648D01*
X0384100Y0210679D01*
X0384256Y0210707D01*
X0384412Y0210731D01*
X0384569Y0210751D01*
X0384727Y0210767D01*
X0384884Y0210779D01*
X0385043Y0210787D01*
X0385201Y0210791D01*
X0385359Y0210791D01*
X0385517Y0210787D01*
X0385676Y0210779D01*
X0385833Y0210767D01*
X0385991Y0210751D01*
X0386148Y0210731D01*
X0386304Y0210707D01*
X0386460Y0210679D01*
X0386615Y0210648D01*
X0386770Y0210612D01*
X0386923Y0210573D01*
X0387075Y0210530D01*
X0387226Y0210483D01*
X0387376Y0210432D01*
X0387525Y0210377D01*
X0387672Y0210319D01*
X0387818Y0210257D01*
X0387962Y0210192D01*
X0388104Y0210122D01*
X0388245Y0210050D01*
X0388384Y0209973D01*
X0388520Y0209894D01*
X0388655Y0209810D01*
X0388788Y0209724D01*
X0388918Y0209634D01*
X0389046Y0209541D01*
X0389172Y0209445D01*
X0389295Y0209345D01*
X0389416Y0209243D01*
X0389534Y0209138D01*
X0389649Y0209029D01*
X0389762Y0208918D01*
X0389872Y0208804D01*
X0389979Y0208687D01*
X0390083Y0208568D01*
X0390184Y0208446D01*
X0390281Y0208321D01*
X0390376Y0208194D01*
X0390467Y0208065D01*
X0390556Y0207934D01*
X0390640Y0207800D01*
X0390722Y0207664D01*
X0390800Y0207527D01*
X0390874Y0207387D01*
X0390945Y0207245D01*
X0391013Y0207102D01*
X0391077Y0206957D01*
X0391137Y0206811D01*
X0391193Y0206663D01*
X0391246Y0206514D01*
X0391295Y0206363D01*
X0391340Y0206211D01*
X0391381Y0206058D01*
X0391419Y0205905D01*
X0391452Y0205750D01*
X0391482Y0205594D01*
X0391508Y0205438D01*
X0391529Y0205281D01*
X0391547Y0205124D01*
X0391561Y0204966D01*
X0391571Y0204808D01*
X0391577Y0204650D01*
X0391579Y0204492D01*
X0391577Y0204334D01*
X0391571Y0204176D01*
X0391561Y0204018D01*
X0391547Y0203860D01*
X0391529Y0203703D01*
X0391508Y0203546D01*
X0391482Y0203390D01*
X0391452Y0203234D01*
X0391419Y0203079D01*
X0391381Y0202926D01*
X0391340Y0202773D01*
X0391295Y0202621D01*
X0391246Y0202470D01*
X0391193Y0202321D01*
X0391137Y0202173D01*
X0391077Y0202027D01*
X0391013Y0201882D01*
X0390945Y0201739D01*
X0390874Y0201597D01*
X0390800Y0201457D01*
X0390722Y0201320D01*
X0390640Y0201184D01*
X0390556Y0201050D01*
X0390467Y0200919D01*
X0390376Y0200790D01*
X0390281Y0200663D01*
X0390184Y0200538D01*
X0390083Y0200416D01*
X0389979Y0200297D01*
X0389872Y0200180D01*
X0389762Y0200066D01*
X0389649Y0199955D01*
X0389534Y0199846D01*
X0389416Y0199741D01*
X0389295Y0199639D01*
X0389172Y0199539D01*
X0389046Y0199443D01*
X0388918Y0199350D01*
X0388788Y0199260D01*
X0388655Y0199174D01*
X0388520Y0199090D01*
X0388384Y0199011D01*
X0388245Y0198934D01*
X0388104Y0198862D01*
X0387962Y0198792D01*
X0387818Y0198727D01*
X0387672Y0198665D01*
X0387525Y0198607D01*
X0387376Y0198552D01*
X0387226Y0198501D01*
X0387075Y0198454D01*
X0386923Y0198411D01*
X0386770Y0198372D01*
X0386615Y0198336D01*
X0386460Y0198305D01*
X0386304Y0198277D01*
X0386148Y0198253D01*
X0385991Y0198233D01*
X0385833Y0198217D01*
X0385676Y0198205D01*
X0385517Y0198197D01*
X0385359Y0198193D01*
X0385201Y0198193D01*
X0385043Y0198197D01*
X0384884Y0198205D01*
X0384727Y0198217D01*
X0384569Y0198233D01*
X0384412Y0198253D01*
X0384256Y0198277D01*
X0384100Y0198305D01*
X0383945Y0198336D01*
X0383790Y0198372D01*
X0383637Y0198411D01*
X0383485Y0198454D01*
X0383334Y0198501D01*
X0383184Y0198552D01*
X0383035Y0198607D01*
X0382888Y0198665D01*
X0382742Y0198727D01*
X0382598Y0198792D01*
X0382456Y0198862D01*
X0382315Y0198934D01*
X0382176Y0199011D01*
X0382040Y0199090D01*
X0381905Y0199174D01*
X0381772Y0199260D01*
X0381642Y0199350D01*
X0381514Y0199443D01*
X0381388Y0199539D01*
X0381265Y0199639D01*
X0381144Y0199741D01*
X0381026Y0199846D01*
X0380911Y0199955D01*
X0380798Y0200066D01*
X0380688Y0200180D01*
X0380581Y0200297D01*
X0380477Y0200416D01*
X0380376Y0200538D01*
X0380279Y0200663D01*
X0380184Y0200790D01*
X0380093Y0200919D01*
X0380004Y0201050D01*
X0379920Y0201184D01*
X0379838Y0201320D01*
X0379760Y0201457D01*
X0379686Y0201597D01*
X0379615Y0201739D01*
X0379547Y0201882D01*
X0379483Y0202027D01*
X0379423Y0202173D01*
X0379367Y0202321D01*
X0379314Y0202470D01*
X0379265Y0202621D01*
X0379220Y0202773D01*
X0379179Y0202926D01*
X0379141Y0203079D01*
X0379108Y0203234D01*
X0379078Y0203390D01*
X0379052Y0203546D01*
X0379031Y0203703D01*
X0379013Y0203860D01*
X0378999Y0204018D01*
X0378989Y0204176D01*
X0378983Y0204334D01*
X0378981Y0204492D01*
D15*
X0373201Y0189492D02*
X0370701Y0186992D01*
X0370701Y0181992D01*
X0373201Y0179492D01*
X0370701Y0176992D01*
X0370701Y0171992D01*
X0373201Y0169492D01*
X0370701Y0166992D01*
X0370701Y0161992D01*
X0373201Y0159492D01*
X0388201Y0159492D01*
X0390701Y0161992D01*
X0390701Y0166992D01*
X0388201Y0169492D01*
X0390701Y0171992D01*
X0390701Y0176992D01*
X0388201Y0179492D01*
X0390701Y0181992D01*
X0390701Y0186992D01*
X0388201Y0189492D01*
X0373201Y0189492D01*
X0301745Y0051470D02*
X0300611Y0051470D01*
X0300044Y0050903D01*
X0300044Y0049769D01*
X0300611Y0049202D01*
X0301745Y0049202D01*
X0302312Y0050336D02*
X0300044Y0050336D01*
X0298629Y0051470D02*
X0296928Y0051470D01*
X0296361Y0050903D01*
X0296361Y0049769D01*
X0296928Y0049202D01*
X0298629Y0049202D01*
X0298629Y0052604D01*
X0301745Y0051470D02*
X0302312Y0050903D01*
X0302312Y0050336D01*
X0295039Y0049202D02*
X0293905Y0049202D01*
X0294472Y0049202D02*
X0294472Y0051470D01*
X0293905Y0051470D01*
X0294472Y0052604D02*
X0294472Y0053172D01*
X0292491Y0051470D02*
X0290789Y0051470D01*
X0290222Y0050903D01*
X0290789Y0050336D01*
X0291923Y0050336D01*
X0292491Y0049769D01*
X0291923Y0049202D01*
X0290222Y0049202D01*
X0288807Y0049202D02*
X0288807Y0050903D01*
X0288240Y0051470D01*
X0286539Y0051470D01*
X0286539Y0049202D01*
X0285218Y0049202D02*
X0284083Y0049202D01*
X0284651Y0049202D02*
X0284651Y0052604D01*
X0285218Y0052604D02*
X0284083Y0052604D01*
X0195995Y0050903D02*
X0195995Y0050336D01*
X0193727Y0050336D01*
X0193727Y0049769D02*
X0193727Y0050903D01*
X0194294Y0051470D01*
X0195428Y0051470D01*
X0195995Y0050903D01*
X0195428Y0049202D02*
X0194294Y0049202D01*
X0193727Y0049769D01*
X0192312Y0049202D02*
X0190611Y0049202D01*
X0190044Y0049769D01*
X0190044Y0050903D01*
X0190611Y0051470D01*
X0192312Y0051470D01*
X0192312Y0052604D02*
X0192312Y0049202D01*
X0188723Y0049202D02*
X0187588Y0049202D01*
X0188155Y0049202D02*
X0188155Y0051470D01*
X0187588Y0051470D01*
X0188155Y0052604D02*
X0188155Y0053172D01*
X0186174Y0051470D02*
X0184472Y0051470D01*
X0183905Y0050903D01*
X0184472Y0050336D01*
X0185607Y0050336D01*
X0186174Y0049769D01*
X0185607Y0049202D01*
X0183905Y0049202D01*
X0182584Y0049202D02*
X0182017Y0049769D01*
X0182017Y0052037D01*
X0181450Y0051470D02*
X0182584Y0051470D01*
X0180035Y0051470D02*
X0180035Y0049202D01*
X0178334Y0049202D01*
X0177767Y0049769D01*
X0177767Y0051470D01*
X0176352Y0052037D02*
X0175785Y0052604D01*
X0174651Y0052604D01*
X0174083Y0052037D01*
X0174083Y0049769D01*
X0174651Y0049202D01*
X0175785Y0049202D01*
X0176352Y0049769D01*
X0176352Y0052037D01*
X0146783Y0102669D02*
X0146783Y0112929D01*
X0108185Y0112929D02*
X0108185Y0102669D01*
X0106177Y0103076D02*
X0103908Y0103076D01*
X0105610Y0104778D01*
X0105610Y0101375D01*
X0102494Y0103076D02*
X0102494Y0104211D01*
X0101927Y0104778D01*
X0100225Y0104778D01*
X0100225Y0101375D01*
X0100225Y0102509D02*
X0101927Y0102509D01*
X0102494Y0103076D01*
X0101927Y0094778D02*
X0102494Y0094211D01*
X0102494Y0093076D01*
X0101927Y0092509D01*
X0100225Y0092509D01*
X0100225Y0091375D02*
X0100225Y0094778D01*
X0101927Y0094778D01*
X0103908Y0094778D02*
X0103908Y0093076D01*
X0105043Y0093643D01*
X0105610Y0093643D01*
X0106177Y0093076D01*
X0106177Y0091942D01*
X0105610Y0091375D01*
X0104475Y0091375D01*
X0103908Y0091942D01*
X0103908Y0094778D02*
X0106177Y0094778D01*
X0106177Y0084778D02*
X0105043Y0084211D01*
X0103908Y0083076D01*
X0105610Y0083076D01*
X0106177Y0082509D01*
X0106177Y0081942D01*
X0105610Y0081375D01*
X0104475Y0081375D01*
X0103908Y0081942D01*
X0103908Y0083076D01*
X0102494Y0083076D02*
X0101927Y0082509D01*
X0100225Y0082509D01*
X0100225Y0081375D02*
X0100225Y0084778D01*
X0101927Y0084778D01*
X0102494Y0084211D01*
X0102494Y0083076D01*
X0101927Y0074778D02*
X0102494Y0074211D01*
X0102494Y0073076D01*
X0101927Y0072509D01*
X0100225Y0072509D01*
X0100225Y0071375D02*
X0100225Y0074778D01*
X0101927Y0074778D01*
X0103908Y0074778D02*
X0106177Y0074778D01*
X0106177Y0074211D01*
X0103908Y0071942D01*
X0103908Y0071375D01*
X0103908Y0064778D02*
X0106177Y0061375D01*
X0106177Y0064778D01*
X0107591Y0064778D02*
X0107591Y0061375D01*
X0109293Y0061375D01*
X0109860Y0061942D01*
X0109860Y0064211D01*
X0109293Y0064778D01*
X0107591Y0064778D01*
X0103908Y0064778D02*
X0103908Y0061375D01*
X0102494Y0061942D02*
X0102494Y0063076D01*
X0101359Y0063076D01*
X0100225Y0061942D02*
X0100225Y0064211D01*
X0100792Y0064778D01*
X0101927Y0064778D01*
X0102494Y0064211D01*
X0102494Y0061942D02*
X0101927Y0061375D01*
X0100792Y0061375D01*
X0100225Y0061942D01*
X0081815Y0057012D02*
X0019610Y0057012D01*
X0019610Y0134965D01*
X0081815Y0134965D01*
X0081815Y0057012D01*
X0065413Y0073551D02*
X0053213Y0073551D01*
X0050713Y0076051D02*
X0050713Y0102051D01*
X0053213Y0104551D02*
X0048213Y0114551D01*
X0053213Y0114551D01*
X0050713Y0117051D02*
X0050713Y0120264D01*
X0053213Y0109551D02*
X0074213Y0109551D01*
X0074213Y0112051D01*
X0048213Y0109551D02*
X0027213Y0109551D01*
X0027213Y0112051D01*
X0035913Y0073551D02*
X0048213Y0073551D01*
X0100225Y0111375D02*
X0100225Y0114778D01*
X0101927Y0114778D01*
X0102494Y0114211D01*
X0102494Y0113076D01*
X0101927Y0112509D01*
X0100225Y0112509D01*
X0103908Y0111942D02*
X0104475Y0111375D01*
X0105610Y0111375D01*
X0106177Y0111942D01*
X0106177Y0112509D01*
X0105610Y0113076D01*
X0105043Y0113076D01*
X0105610Y0113076D02*
X0106177Y0113643D01*
X0106177Y0114211D01*
X0105610Y0114778D01*
X0104475Y0114778D01*
X0103908Y0114211D01*
X0103908Y0121375D02*
X0106177Y0123643D01*
X0106177Y0124211D01*
X0105610Y0124778D01*
X0104475Y0124778D01*
X0103908Y0124211D01*
X0102494Y0124211D02*
X0101927Y0124778D01*
X0100225Y0124778D01*
X0100225Y0121375D01*
X0100225Y0122509D02*
X0101927Y0122509D01*
X0102494Y0123076D01*
X0102494Y0124211D01*
X0103908Y0121375D02*
X0106177Y0121375D01*
X0106177Y0131375D02*
X0103908Y0131375D01*
X0105043Y0131375D02*
X0105043Y0134778D01*
X0103908Y0133643D01*
X0102494Y0133076D02*
X0101927Y0132509D01*
X0100225Y0132509D01*
X0100225Y0131375D02*
X0100225Y0134778D01*
X0101927Y0134778D01*
X0102494Y0134211D01*
X0102494Y0133076D01*
X0104475Y0141375D02*
X0103908Y0141942D01*
X0106177Y0144211D01*
X0106177Y0141942D01*
X0105610Y0141375D01*
X0104475Y0141375D01*
X0103908Y0141942D02*
X0103908Y0144211D01*
X0104475Y0144778D01*
X0105610Y0144778D01*
X0106177Y0144211D01*
X0107591Y0144211D02*
X0109860Y0141942D01*
X0108726Y0141942D02*
X0108726Y0144211D01*
X0109860Y0144211D02*
X0107591Y0141942D01*
X0107591Y0143076D02*
X0109860Y0143076D01*
X0102494Y0143076D02*
X0101927Y0142509D01*
X0100225Y0142509D01*
X0100225Y0141375D02*
X0100225Y0144778D01*
X0101927Y0144778D01*
X0102494Y0144211D01*
X0102494Y0143076D01*
X0101927Y0151375D02*
X0100792Y0151375D01*
X0100225Y0151942D01*
X0100225Y0153076D02*
X0101359Y0153643D01*
X0101927Y0153643D01*
X0102494Y0153076D01*
X0102494Y0151942D01*
X0101927Y0151375D01*
X0103908Y0152509D02*
X0103908Y0154778D01*
X0102494Y0154778D02*
X0100225Y0154778D01*
X0100225Y0153076D01*
X0103908Y0152509D02*
X0105043Y0151375D01*
X0106177Y0152509D01*
X0106177Y0154778D01*
X0107591Y0154211D02*
X0107591Y0151942D01*
X0109860Y0154211D01*
X0109860Y0151942D01*
X0109293Y0151375D01*
X0108159Y0151375D01*
X0107591Y0151942D01*
X0107591Y0154211D02*
X0108159Y0154778D01*
X0109293Y0154778D01*
X0109860Y0154211D01*
X0114958Y0153643D02*
X0116092Y0154778D01*
X0117413Y0154778D02*
X0118548Y0153643D01*
X0119682Y0154778D01*
X0119682Y0151375D01*
X0121096Y0151942D02*
X0121663Y0152509D01*
X0123365Y0152509D01*
X0123365Y0153076D02*
X0123365Y0151375D01*
X0121663Y0151375D01*
X0121096Y0151942D01*
X0121663Y0153643D02*
X0122798Y0153643D01*
X0123365Y0153076D01*
X0124779Y0153076D02*
X0124779Y0151942D01*
X0125347Y0151375D01*
X0127048Y0151375D01*
X0127048Y0150808D02*
X0127048Y0153643D01*
X0125347Y0153643D01*
X0124779Y0153076D01*
X0125914Y0150241D02*
X0126481Y0150241D01*
X0127048Y0150808D01*
X0128463Y0151375D02*
X0129597Y0152509D01*
X0129597Y0153643D01*
X0128463Y0154778D01*
X0136529Y0160155D02*
X0137664Y0159020D01*
X0138798Y0159020D01*
X0139932Y0160155D01*
X0139932Y0161476D02*
X0136529Y0161476D01*
X0137664Y0162610D01*
X0136529Y0163745D01*
X0139932Y0163745D01*
X0139365Y0165159D02*
X0138798Y0165726D01*
X0138798Y0167428D01*
X0138231Y0167428D02*
X0139932Y0167428D01*
X0139932Y0165726D01*
X0139365Y0165159D01*
X0137664Y0165726D02*
X0137664Y0166861D01*
X0138231Y0167428D01*
X0138231Y0168842D02*
X0139365Y0168842D01*
X0139932Y0169409D01*
X0139932Y0171111D01*
X0140499Y0171111D02*
X0137664Y0171111D01*
X0137664Y0169409D01*
X0138231Y0168842D01*
X0141067Y0169977D02*
X0141067Y0170544D01*
X0140499Y0171111D01*
X0139932Y0172525D02*
X0138798Y0173660D01*
X0137664Y0173660D01*
X0136529Y0172525D01*
X0136529Y0178664D02*
X0138231Y0178664D01*
X0137664Y0179798D01*
X0137664Y0180365D01*
X0138231Y0180933D01*
X0139365Y0180933D01*
X0139932Y0180365D01*
X0139932Y0179231D01*
X0139365Y0178664D01*
X0136529Y0178664D02*
X0136529Y0180933D01*
X0136529Y0182347D02*
X0138798Y0182347D01*
X0139932Y0183481D01*
X0138798Y0184616D01*
X0136529Y0184616D01*
X0137097Y0186030D02*
X0136529Y0186597D01*
X0136529Y0187732D01*
X0137097Y0188299D01*
X0139365Y0186030D01*
X0139932Y0186597D01*
X0139932Y0187732D01*
X0139365Y0188299D01*
X0137097Y0188299D01*
X0137097Y0186030D02*
X0139365Y0186030D01*
X0117413Y0154778D02*
X0117413Y0151375D01*
X0116092Y0151375D02*
X0114958Y0152509D01*
X0114958Y0153643D01*
D16*
X0286476Y0190583D02*
X0286476Y0196882D01*
X0299075Y0196882D02*
X0299075Y0190583D01*
D17*
X0296185Y0183390D02*
X0295791Y0182996D01*
X0313114Y0183390D02*
X0313508Y0182996D01*
X0313508Y0166067D02*
X0313114Y0165673D01*
X0296185Y0165673D02*
X0295791Y0166067D01*
X0053213Y0114551D02*
X0053213Y0109551D01*
X0053213Y0104551D01*
X0048213Y0104551D01*
X0048213Y0109551D01*
X0048213Y0114551D01*
X0050713Y0076051D02*
X0053213Y0073551D01*
X0054413Y0072251D01*
D18*
X0311539Y0181421D03*
D19*
X0262917Y0188311D02*
X0257602Y0182996D01*
X0256421Y0182996D01*
X0248941Y0182996D02*
X0247760Y0182996D01*
X0242445Y0188311D01*
X0242445Y0203469D01*
X0248941Y0203469D01*
X0256421Y0203469D02*
X0262917Y0203469D01*
X0262917Y0188311D01*
X0256028Y0184177D02*
X0256247Y0184261D01*
X0256464Y0184350D01*
X0256679Y0184445D01*
X0256892Y0184545D01*
X0257102Y0184650D01*
X0257309Y0184760D01*
X0257514Y0184875D01*
X0257716Y0184995D01*
X0257915Y0185120D01*
X0258111Y0185250D01*
X0258304Y0185384D01*
X0258493Y0185523D01*
X0258679Y0185667D01*
X0258861Y0185815D01*
X0259040Y0185968D01*
X0259215Y0186125D01*
X0259386Y0186286D01*
X0259553Y0186451D01*
X0259716Y0186620D01*
X0259874Y0186793D01*
X0260029Y0186970D01*
X0260179Y0187151D01*
X0260325Y0187335D01*
X0260466Y0187523D01*
X0260603Y0187714D01*
X0260735Y0187909D01*
X0260862Y0188106D01*
X0260984Y0188307D01*
X0261101Y0188510D01*
X0261214Y0188717D01*
X0261321Y0188926D01*
X0261423Y0189137D01*
X0261521Y0189351D01*
X0261612Y0189567D01*
X0261699Y0189786D01*
X0261780Y0190006D01*
X0261856Y0190228D01*
X0261926Y0190453D01*
X0261991Y0190678D01*
X0262051Y0190906D01*
X0262104Y0191134D01*
X0262153Y0191364D01*
X0262195Y0191595D01*
X0262232Y0191827D01*
X0262264Y0192060D01*
X0262289Y0192294D01*
X0262309Y0192528D01*
X0262324Y0192762D01*
X0262332Y0192997D01*
X0262335Y0193232D01*
X0262332Y0193467D01*
X0262324Y0193702D01*
X0262309Y0193936D01*
X0262289Y0194170D01*
X0262264Y0194404D01*
X0262232Y0194637D01*
X0262195Y0194869D01*
X0262153Y0195100D01*
X0262104Y0195330D01*
X0262051Y0195558D01*
X0261991Y0195786D01*
X0261926Y0196011D01*
X0261856Y0196236D01*
X0261780Y0196458D01*
X0261699Y0196678D01*
X0261612Y0196897D01*
X0261521Y0197113D01*
X0261423Y0197327D01*
X0261321Y0197538D01*
X0261214Y0197747D01*
X0261101Y0197954D01*
X0260984Y0198157D01*
X0260862Y0198358D01*
X0260735Y0198555D01*
X0260603Y0198750D01*
X0260466Y0198941D01*
X0260325Y0199129D01*
X0260179Y0199313D01*
X0260029Y0199494D01*
X0259874Y0199671D01*
X0259716Y0199844D01*
X0259553Y0200013D01*
X0259386Y0200178D01*
X0259215Y0200339D01*
X0259040Y0200496D01*
X0258861Y0200649D01*
X0258679Y0200797D01*
X0258493Y0200941D01*
X0258304Y0201080D01*
X0258111Y0201214D01*
X0257915Y0201344D01*
X0257716Y0201469D01*
X0257514Y0201589D01*
X0257309Y0201704D01*
X0257102Y0201814D01*
X0256892Y0201919D01*
X0256679Y0202019D01*
X0256464Y0202114D01*
X0256247Y0202203D01*
X0256028Y0202287D01*
X0249334Y0202287D02*
X0249115Y0202203D01*
X0248898Y0202114D01*
X0248683Y0202019D01*
X0248470Y0201919D01*
X0248260Y0201814D01*
X0248053Y0201704D01*
X0247848Y0201589D01*
X0247646Y0201469D01*
X0247447Y0201344D01*
X0247251Y0201214D01*
X0247058Y0201080D01*
X0246869Y0200941D01*
X0246683Y0200797D01*
X0246501Y0200649D01*
X0246322Y0200496D01*
X0246147Y0200339D01*
X0245976Y0200178D01*
X0245809Y0200013D01*
X0245646Y0199844D01*
X0245488Y0199671D01*
X0245333Y0199494D01*
X0245183Y0199313D01*
X0245037Y0199129D01*
X0244896Y0198941D01*
X0244759Y0198750D01*
X0244627Y0198555D01*
X0244500Y0198358D01*
X0244378Y0198157D01*
X0244261Y0197954D01*
X0244148Y0197747D01*
X0244041Y0197538D01*
X0243939Y0197327D01*
X0243841Y0197113D01*
X0243750Y0196897D01*
X0243663Y0196678D01*
X0243582Y0196458D01*
X0243506Y0196236D01*
X0243436Y0196011D01*
X0243371Y0195786D01*
X0243311Y0195558D01*
X0243258Y0195330D01*
X0243209Y0195100D01*
X0243167Y0194869D01*
X0243130Y0194637D01*
X0243098Y0194404D01*
X0243073Y0194170D01*
X0243053Y0193936D01*
X0243038Y0193702D01*
X0243030Y0193467D01*
X0243027Y0193232D01*
X0243030Y0192997D01*
X0243038Y0192762D01*
X0243053Y0192528D01*
X0243073Y0192294D01*
X0243098Y0192060D01*
X0243130Y0191827D01*
X0243167Y0191595D01*
X0243209Y0191364D01*
X0243258Y0191134D01*
X0243311Y0190906D01*
X0243371Y0190678D01*
X0243436Y0190453D01*
X0243506Y0190228D01*
X0243582Y0190006D01*
X0243663Y0189786D01*
X0243750Y0189567D01*
X0243841Y0189351D01*
X0243939Y0189137D01*
X0244041Y0188926D01*
X0244148Y0188717D01*
X0244261Y0188510D01*
X0244378Y0188307D01*
X0244500Y0188106D01*
X0244627Y0187909D01*
X0244759Y0187714D01*
X0244896Y0187523D01*
X0245037Y0187335D01*
X0245183Y0187151D01*
X0245333Y0186970D01*
X0245488Y0186793D01*
X0245646Y0186620D01*
X0245809Y0186451D01*
X0245976Y0186286D01*
X0246147Y0186125D01*
X0246322Y0185968D01*
X0246501Y0185815D01*
X0246683Y0185667D01*
X0246869Y0185523D01*
X0247058Y0185384D01*
X0247251Y0185250D01*
X0247447Y0185120D01*
X0247646Y0184995D01*
X0247848Y0184875D01*
X0248053Y0184760D01*
X0248260Y0184650D01*
X0248470Y0184545D01*
X0248683Y0184445D01*
X0248898Y0184350D01*
X0249115Y0184261D01*
X0249334Y0184177D01*
X0179650Y0116657D02*
X0174335Y0121972D01*
X0173154Y0121972D01*
X0165673Y0121972D02*
X0164492Y0121972D01*
X0159177Y0116657D01*
X0159177Y0101500D01*
X0165673Y0101500D01*
X0173154Y0101500D02*
X0179650Y0101500D01*
X0179650Y0116657D01*
X0172760Y0120791D02*
X0172979Y0120707D01*
X0173196Y0120618D01*
X0173411Y0120523D01*
X0173624Y0120423D01*
X0173834Y0120318D01*
X0174041Y0120208D01*
X0174246Y0120093D01*
X0174448Y0119973D01*
X0174647Y0119848D01*
X0174843Y0119718D01*
X0175036Y0119584D01*
X0175225Y0119445D01*
X0175411Y0119301D01*
X0175593Y0119153D01*
X0175772Y0119000D01*
X0175947Y0118843D01*
X0176118Y0118682D01*
X0176285Y0118517D01*
X0176448Y0118348D01*
X0176606Y0118175D01*
X0176761Y0117998D01*
X0176911Y0117817D01*
X0177057Y0117633D01*
X0177198Y0117445D01*
X0177335Y0117254D01*
X0177467Y0117059D01*
X0177594Y0116862D01*
X0177716Y0116661D01*
X0177833Y0116458D01*
X0177946Y0116251D01*
X0178053Y0116042D01*
X0178155Y0115831D01*
X0178253Y0115617D01*
X0178344Y0115401D01*
X0178431Y0115182D01*
X0178512Y0114962D01*
X0178588Y0114740D01*
X0178658Y0114515D01*
X0178723Y0114290D01*
X0178783Y0114062D01*
X0178836Y0113834D01*
X0178885Y0113604D01*
X0178927Y0113373D01*
X0178964Y0113141D01*
X0178996Y0112908D01*
X0179021Y0112674D01*
X0179041Y0112440D01*
X0179056Y0112206D01*
X0179064Y0111971D01*
X0179067Y0111736D01*
X0179064Y0111501D01*
X0179056Y0111266D01*
X0179041Y0111032D01*
X0179021Y0110798D01*
X0178996Y0110564D01*
X0178964Y0110331D01*
X0178927Y0110099D01*
X0178885Y0109868D01*
X0178836Y0109638D01*
X0178783Y0109410D01*
X0178723Y0109182D01*
X0178658Y0108957D01*
X0178588Y0108732D01*
X0178512Y0108510D01*
X0178431Y0108290D01*
X0178344Y0108071D01*
X0178253Y0107855D01*
X0178155Y0107641D01*
X0178053Y0107430D01*
X0177946Y0107221D01*
X0177833Y0107014D01*
X0177716Y0106811D01*
X0177594Y0106610D01*
X0177467Y0106413D01*
X0177335Y0106218D01*
X0177198Y0106027D01*
X0177057Y0105839D01*
X0176911Y0105655D01*
X0176761Y0105474D01*
X0176606Y0105297D01*
X0176448Y0105124D01*
X0176285Y0104955D01*
X0176118Y0104790D01*
X0175947Y0104629D01*
X0175772Y0104472D01*
X0175593Y0104319D01*
X0175411Y0104171D01*
X0175225Y0104027D01*
X0175036Y0103888D01*
X0174843Y0103754D01*
X0174647Y0103624D01*
X0174448Y0103499D01*
X0174246Y0103379D01*
X0174041Y0103264D01*
X0173834Y0103154D01*
X0173624Y0103049D01*
X0173411Y0102949D01*
X0173196Y0102854D01*
X0172979Y0102765D01*
X0172760Y0102681D01*
X0166066Y0102681D02*
X0165847Y0102765D01*
X0165630Y0102854D01*
X0165415Y0102949D01*
X0165202Y0103049D01*
X0164992Y0103154D01*
X0164785Y0103264D01*
X0164580Y0103379D01*
X0164378Y0103499D01*
X0164179Y0103624D01*
X0163983Y0103754D01*
X0163790Y0103888D01*
X0163601Y0104027D01*
X0163415Y0104171D01*
X0163233Y0104319D01*
X0163054Y0104472D01*
X0162879Y0104629D01*
X0162708Y0104790D01*
X0162541Y0104955D01*
X0162378Y0105124D01*
X0162220Y0105297D01*
X0162065Y0105474D01*
X0161915Y0105655D01*
X0161769Y0105839D01*
X0161628Y0106027D01*
X0161491Y0106218D01*
X0161359Y0106413D01*
X0161232Y0106610D01*
X0161110Y0106811D01*
X0160993Y0107014D01*
X0160880Y0107221D01*
X0160773Y0107430D01*
X0160671Y0107641D01*
X0160573Y0107855D01*
X0160482Y0108071D01*
X0160395Y0108290D01*
X0160314Y0108510D01*
X0160238Y0108732D01*
X0160168Y0108957D01*
X0160103Y0109182D01*
X0160043Y0109410D01*
X0159990Y0109638D01*
X0159941Y0109868D01*
X0159899Y0110099D01*
X0159862Y0110331D01*
X0159830Y0110564D01*
X0159805Y0110798D01*
X0159785Y0111032D01*
X0159770Y0111266D01*
X0159762Y0111501D01*
X0159759Y0111736D01*
X0159762Y0111971D01*
X0159770Y0112206D01*
X0159785Y0112440D01*
X0159805Y0112674D01*
X0159830Y0112908D01*
X0159862Y0113141D01*
X0159899Y0113373D01*
X0159941Y0113604D01*
X0159990Y0113834D01*
X0160043Y0114062D01*
X0160103Y0114290D01*
X0160168Y0114515D01*
X0160238Y0114740D01*
X0160314Y0114962D01*
X0160395Y0115182D01*
X0160482Y0115401D01*
X0160573Y0115617D01*
X0160671Y0115831D01*
X0160773Y0116042D01*
X0160880Y0116251D01*
X0160993Y0116458D01*
X0161110Y0116661D01*
X0161232Y0116862D01*
X0161359Y0117059D01*
X0161491Y0117254D01*
X0161628Y0117445D01*
X0161769Y0117633D01*
X0161915Y0117817D01*
X0162065Y0117998D01*
X0162220Y0118175D01*
X0162378Y0118348D01*
X0162541Y0118517D01*
X0162708Y0118682D01*
X0162879Y0118843D01*
X0163054Y0119000D01*
X0163233Y0119153D01*
X0163415Y0119301D01*
X0163601Y0119445D01*
X0163790Y0119584D01*
X0163983Y0119718D01*
X0164179Y0119848D01*
X0164378Y0119973D01*
X0164580Y0120093D01*
X0164785Y0120208D01*
X0164992Y0120318D01*
X0165202Y0120423D01*
X0165415Y0120523D01*
X0165630Y0120618D01*
X0165847Y0120707D01*
X0166066Y0120791D01*
X0096382Y0183587D02*
X0091067Y0178272D01*
X0089886Y0178272D01*
X0082406Y0178272D02*
X0081224Y0178272D01*
X0075909Y0183587D01*
X0075909Y0198744D01*
X0082406Y0198744D01*
X0089886Y0198744D02*
X0096382Y0198744D01*
X0096382Y0183587D01*
X0089493Y0179453D02*
X0089712Y0179537D01*
X0089929Y0179626D01*
X0090144Y0179721D01*
X0090357Y0179821D01*
X0090567Y0179926D01*
X0090774Y0180036D01*
X0090979Y0180151D01*
X0091181Y0180271D01*
X0091380Y0180396D01*
X0091576Y0180526D01*
X0091769Y0180660D01*
X0091958Y0180799D01*
X0092144Y0180943D01*
X0092326Y0181091D01*
X0092505Y0181244D01*
X0092680Y0181401D01*
X0092851Y0181562D01*
X0093018Y0181727D01*
X0093181Y0181896D01*
X0093339Y0182069D01*
X0093494Y0182246D01*
X0093644Y0182427D01*
X0093790Y0182611D01*
X0093931Y0182799D01*
X0094068Y0182990D01*
X0094200Y0183185D01*
X0094327Y0183382D01*
X0094449Y0183583D01*
X0094566Y0183786D01*
X0094679Y0183993D01*
X0094786Y0184202D01*
X0094888Y0184413D01*
X0094986Y0184627D01*
X0095077Y0184843D01*
X0095164Y0185062D01*
X0095245Y0185282D01*
X0095321Y0185504D01*
X0095391Y0185729D01*
X0095456Y0185954D01*
X0095516Y0186182D01*
X0095569Y0186410D01*
X0095618Y0186640D01*
X0095660Y0186871D01*
X0095697Y0187103D01*
X0095729Y0187336D01*
X0095754Y0187570D01*
X0095774Y0187804D01*
X0095789Y0188038D01*
X0095797Y0188273D01*
X0095800Y0188508D01*
X0095797Y0188743D01*
X0095789Y0188978D01*
X0095774Y0189212D01*
X0095754Y0189446D01*
X0095729Y0189680D01*
X0095697Y0189913D01*
X0095660Y0190145D01*
X0095618Y0190376D01*
X0095569Y0190606D01*
X0095516Y0190834D01*
X0095456Y0191062D01*
X0095391Y0191287D01*
X0095321Y0191512D01*
X0095245Y0191734D01*
X0095164Y0191954D01*
X0095077Y0192173D01*
X0094986Y0192389D01*
X0094888Y0192603D01*
X0094786Y0192814D01*
X0094679Y0193023D01*
X0094566Y0193230D01*
X0094449Y0193433D01*
X0094327Y0193634D01*
X0094200Y0193831D01*
X0094068Y0194026D01*
X0093931Y0194217D01*
X0093790Y0194405D01*
X0093644Y0194589D01*
X0093494Y0194770D01*
X0093339Y0194947D01*
X0093181Y0195120D01*
X0093018Y0195289D01*
X0092851Y0195454D01*
X0092680Y0195615D01*
X0092505Y0195772D01*
X0092326Y0195925D01*
X0092144Y0196073D01*
X0091958Y0196217D01*
X0091769Y0196356D01*
X0091576Y0196490D01*
X0091380Y0196620D01*
X0091181Y0196745D01*
X0090979Y0196865D01*
X0090774Y0196980D01*
X0090567Y0197090D01*
X0090357Y0197195D01*
X0090144Y0197295D01*
X0089929Y0197390D01*
X0089712Y0197479D01*
X0089493Y0197563D01*
X0082799Y0197563D02*
X0082580Y0197479D01*
X0082363Y0197390D01*
X0082148Y0197295D01*
X0081935Y0197195D01*
X0081725Y0197090D01*
X0081518Y0196980D01*
X0081313Y0196865D01*
X0081111Y0196745D01*
X0080912Y0196620D01*
X0080716Y0196490D01*
X0080523Y0196356D01*
X0080334Y0196217D01*
X0080148Y0196073D01*
X0079966Y0195925D01*
X0079787Y0195772D01*
X0079612Y0195615D01*
X0079441Y0195454D01*
X0079274Y0195289D01*
X0079111Y0195120D01*
X0078953Y0194947D01*
X0078798Y0194770D01*
X0078648Y0194589D01*
X0078502Y0194405D01*
X0078361Y0194217D01*
X0078224Y0194026D01*
X0078092Y0193831D01*
X0077965Y0193634D01*
X0077843Y0193433D01*
X0077726Y0193230D01*
X0077613Y0193023D01*
X0077506Y0192814D01*
X0077404Y0192603D01*
X0077306Y0192389D01*
X0077215Y0192173D01*
X0077128Y0191954D01*
X0077047Y0191734D01*
X0076971Y0191512D01*
X0076901Y0191287D01*
X0076836Y0191062D01*
X0076776Y0190834D01*
X0076723Y0190606D01*
X0076674Y0190376D01*
X0076632Y0190145D01*
X0076595Y0189913D01*
X0076563Y0189680D01*
X0076538Y0189446D01*
X0076518Y0189212D01*
X0076503Y0188978D01*
X0076495Y0188743D01*
X0076492Y0188508D01*
X0076495Y0188273D01*
X0076503Y0188038D01*
X0076518Y0187804D01*
X0076538Y0187570D01*
X0076563Y0187336D01*
X0076595Y0187103D01*
X0076632Y0186871D01*
X0076674Y0186640D01*
X0076723Y0186410D01*
X0076776Y0186182D01*
X0076836Y0185954D01*
X0076901Y0185729D01*
X0076971Y0185504D01*
X0077047Y0185282D01*
X0077128Y0185062D01*
X0077215Y0184843D01*
X0077306Y0184627D01*
X0077404Y0184413D01*
X0077506Y0184202D01*
X0077613Y0183993D01*
X0077726Y0183786D01*
X0077843Y0183583D01*
X0077965Y0183382D01*
X0078092Y0183185D01*
X0078224Y0182990D01*
X0078361Y0182799D01*
X0078502Y0182611D01*
X0078648Y0182427D01*
X0078798Y0182246D01*
X0078953Y0182069D01*
X0079111Y0181896D01*
X0079274Y0181727D01*
X0079441Y0181562D01*
X0079612Y0181401D01*
X0079787Y0181244D01*
X0079966Y0181091D01*
X0080148Y0180943D01*
X0080334Y0180799D01*
X0080523Y0180660D01*
X0080716Y0180526D01*
X0080912Y0180396D01*
X0081111Y0180271D01*
X0081313Y0180151D01*
X0081518Y0180036D01*
X0081725Y0179926D01*
X0081935Y0179821D01*
X0082148Y0179721D01*
X0082363Y0179626D01*
X0082580Y0179537D01*
X0082799Y0179453D01*
X0171579Y0254453D02*
X0176894Y0249138D01*
X0178075Y0249138D01*
X0171579Y0254453D02*
X0171579Y0269610D01*
X0178075Y0269610D01*
X0185555Y0269610D02*
X0192051Y0269610D01*
X0192051Y0254453D01*
X0186736Y0249138D01*
X0185555Y0249138D01*
X0185162Y0250319D02*
X0185381Y0250403D01*
X0185598Y0250492D01*
X0185813Y0250587D01*
X0186026Y0250687D01*
X0186236Y0250792D01*
X0186443Y0250902D01*
X0186648Y0251017D01*
X0186850Y0251137D01*
X0187049Y0251262D01*
X0187245Y0251392D01*
X0187438Y0251526D01*
X0187627Y0251665D01*
X0187813Y0251809D01*
X0187995Y0251957D01*
X0188174Y0252110D01*
X0188349Y0252267D01*
X0188520Y0252428D01*
X0188687Y0252593D01*
X0188850Y0252762D01*
X0189008Y0252935D01*
X0189163Y0253112D01*
X0189313Y0253293D01*
X0189459Y0253477D01*
X0189600Y0253665D01*
X0189737Y0253856D01*
X0189869Y0254051D01*
X0189996Y0254248D01*
X0190118Y0254449D01*
X0190235Y0254652D01*
X0190348Y0254859D01*
X0190455Y0255068D01*
X0190557Y0255279D01*
X0190655Y0255493D01*
X0190746Y0255709D01*
X0190833Y0255928D01*
X0190914Y0256148D01*
X0190990Y0256370D01*
X0191060Y0256595D01*
X0191125Y0256820D01*
X0191185Y0257048D01*
X0191238Y0257276D01*
X0191287Y0257506D01*
X0191329Y0257737D01*
X0191366Y0257969D01*
X0191398Y0258202D01*
X0191423Y0258436D01*
X0191443Y0258670D01*
X0191458Y0258904D01*
X0191466Y0259139D01*
X0191469Y0259374D01*
X0191466Y0259609D01*
X0191458Y0259844D01*
X0191443Y0260078D01*
X0191423Y0260312D01*
X0191398Y0260546D01*
X0191366Y0260779D01*
X0191329Y0261011D01*
X0191287Y0261242D01*
X0191238Y0261472D01*
X0191185Y0261700D01*
X0191125Y0261928D01*
X0191060Y0262153D01*
X0190990Y0262378D01*
X0190914Y0262600D01*
X0190833Y0262820D01*
X0190746Y0263039D01*
X0190655Y0263255D01*
X0190557Y0263469D01*
X0190455Y0263680D01*
X0190348Y0263889D01*
X0190235Y0264096D01*
X0190118Y0264299D01*
X0189996Y0264500D01*
X0189869Y0264697D01*
X0189737Y0264892D01*
X0189600Y0265083D01*
X0189459Y0265271D01*
X0189313Y0265455D01*
X0189163Y0265636D01*
X0189008Y0265813D01*
X0188850Y0265986D01*
X0188687Y0266155D01*
X0188520Y0266320D01*
X0188349Y0266481D01*
X0188174Y0266638D01*
X0187995Y0266791D01*
X0187813Y0266939D01*
X0187627Y0267083D01*
X0187438Y0267222D01*
X0187245Y0267356D01*
X0187049Y0267486D01*
X0186850Y0267611D01*
X0186648Y0267731D01*
X0186443Y0267846D01*
X0186236Y0267956D01*
X0186026Y0268061D01*
X0185813Y0268161D01*
X0185598Y0268256D01*
X0185381Y0268345D01*
X0185162Y0268429D01*
X0178468Y0268429D02*
X0178249Y0268345D01*
X0178032Y0268256D01*
X0177817Y0268161D01*
X0177604Y0268061D01*
X0177394Y0267956D01*
X0177187Y0267846D01*
X0176982Y0267731D01*
X0176780Y0267611D01*
X0176581Y0267486D01*
X0176385Y0267356D01*
X0176192Y0267222D01*
X0176003Y0267083D01*
X0175817Y0266939D01*
X0175635Y0266791D01*
X0175456Y0266638D01*
X0175281Y0266481D01*
X0175110Y0266320D01*
X0174943Y0266155D01*
X0174780Y0265986D01*
X0174622Y0265813D01*
X0174467Y0265636D01*
X0174317Y0265455D01*
X0174171Y0265271D01*
X0174030Y0265083D01*
X0173893Y0264892D01*
X0173761Y0264697D01*
X0173634Y0264500D01*
X0173512Y0264299D01*
X0173395Y0264096D01*
X0173282Y0263889D01*
X0173175Y0263680D01*
X0173073Y0263469D01*
X0172975Y0263255D01*
X0172884Y0263039D01*
X0172797Y0262820D01*
X0172716Y0262600D01*
X0172640Y0262378D01*
X0172570Y0262153D01*
X0172505Y0261928D01*
X0172445Y0261700D01*
X0172392Y0261472D01*
X0172343Y0261242D01*
X0172301Y0261011D01*
X0172264Y0260779D01*
X0172232Y0260546D01*
X0172207Y0260312D01*
X0172187Y0260078D01*
X0172172Y0259844D01*
X0172164Y0259609D01*
X0172161Y0259374D01*
X0172164Y0259139D01*
X0172172Y0258904D01*
X0172187Y0258670D01*
X0172207Y0258436D01*
X0172232Y0258202D01*
X0172264Y0257969D01*
X0172301Y0257737D01*
X0172343Y0257506D01*
X0172392Y0257276D01*
X0172445Y0257048D01*
X0172505Y0256820D01*
X0172570Y0256595D01*
X0172640Y0256370D01*
X0172716Y0256148D01*
X0172797Y0255928D01*
X0172884Y0255709D01*
X0172975Y0255493D01*
X0173073Y0255279D01*
X0173175Y0255068D01*
X0173282Y0254859D01*
X0173395Y0254652D01*
X0173512Y0254449D01*
X0173634Y0254248D01*
X0173761Y0254051D01*
X0173893Y0253856D01*
X0174030Y0253665D01*
X0174171Y0253477D01*
X0174317Y0253293D01*
X0174467Y0253112D01*
X0174622Y0252935D01*
X0174780Y0252762D01*
X0174943Y0252593D01*
X0175110Y0252428D01*
X0175281Y0252267D01*
X0175456Y0252110D01*
X0175635Y0251957D01*
X0175817Y0251809D01*
X0176003Y0251665D01*
X0176192Y0251526D01*
X0176385Y0251392D01*
X0176581Y0251262D01*
X0176780Y0251137D01*
X0176982Y0251017D01*
X0177187Y0250902D01*
X0177394Y0250792D01*
X0177604Y0250687D01*
X0177817Y0250587D01*
X0178032Y0250492D01*
X0178249Y0250403D01*
X0178468Y0250319D01*
M02*
