%
M48
M72
T01C0.0197
T02C0.0320
T03C0.0400
T04C0.1378
%
T01
X2119Y21586
X4087Y21586
X6154Y22669
X9993Y21586
X11961Y21586
X13930Y21586
X15898Y21586
X17867Y21586
X19835Y21586
X21804Y21586
X23772Y21586
X25741Y21586
X27709Y21586
X29678Y21586
X34993Y26507
X36764Y25720
X36961Y25130
X37552Y25523
X37355Y24539
X37748Y23555
X38536Y23161
X35977Y21586
X39520Y25523
X38733Y27689
X40111Y28082
X40307Y29067
X39914Y29559
X39126Y29460
X38339Y29460
X37552Y29460
X37355Y28082
X34993Y29460
X34993Y31429
X36961Y31429
X38733Y32019
X39323Y32019
X41149Y31318
X41685Y31330
X41882Y29165
X42079Y28082
X41882Y25523
X43851Y23555
X36961Y33397
X41336Y35304
X41489Y37334
X39520Y37334
X37552Y37334
X35583Y37334
X33615Y37334
X31646Y37334
X29678Y37334
X27709Y37334
X25741Y37334
X23772Y37334
X21804Y37334
X19835Y37334
X17867Y37334
X15898Y37334
X13930Y37334
X11961Y37334
X9993Y37334
X8024Y37334
X6056Y37334
X4087Y37334
X2119Y35366
X2119Y33397
X2119Y31429
X2119Y29460
X2119Y27492
X2119Y23555
X15898Y31429
X17867Y31429
X19835Y31429
X21804Y31429
X23772Y31429
X25741Y31429
X27709Y31429
T02
X7729Y21086
X7729Y22086
T03
X19485Y22817
X20485Y22717
X21485Y22817
X22485Y22717
X23485Y22817
X24485Y22717
X25485Y22817
X26485Y22717
X32146Y22353
X32146Y21213
X34327Y21213
X34327Y22353
X37504Y22333
X38504Y22333
X39504Y22333
X40504Y22333
X41504Y22333
X42504Y22333
X43504Y22333
X43504Y21233
X42504Y21233
X41504Y21233
X40504Y21233
X39504Y21233
X38504Y21233
X37504Y21233
X43744Y28322
X44744Y28322
X44744Y29322
X43744Y29322
X43744Y30322
X44744Y30322
X44744Y31322
X43744Y31322
X43744Y32322
X44744Y32322
X44744Y33322
X43744Y33322
X43744Y34322
X44744Y34322
X44744Y35322
X43744Y35322
T04
X1725Y25567
X1725Y36984
X44244Y36984
X44244Y25567
M30
