%
M48
M72
T01C0.0197
T02C0.0315
T03C0.0394
T04C0.0400
T05C0.0472
T06C0.0512
T07C0.0520
T08C0.1260
%
T01
X2119Y2119
X4087Y2119
X6056Y2119
X8024Y2119
X9993Y2119
X11961Y2119
X13930Y2119
X15898Y2119
X15898Y4087
X14914Y5268
X14126Y6449
X13339Y6252
X13339Y6843
X11961Y7040
X10977Y5662
X14520Y8811
X15898Y8024
X16784Y9500
X18359Y9500
X19835Y9993
X19441Y11174
X18359Y11174
X16292Y12256
X15898Y13930
X13930Y13930
X13536Y13142
X13969Y12473
X13536Y11174
X13930Y10780
X15307Y10426
X11961Y10386
X11961Y11174
X10485Y11863
X7630Y15012
X8024Y15898
X6056Y15898
X4087Y15898
X2119Y15898
X2119Y13930
X2119Y11961
X4087Y11174
X5662Y11174
X2119Y9993
X2119Y6056
X2119Y4087
X16489Y5859
X16882Y5347
X16489Y6449
X19343Y5563
X20229Y5662
X20229Y6843
X19835Y8024
X21961Y9953
X21410Y11174
X23260Y11016
X25071Y10307
X25937Y10347
X25898Y9402
X25032Y9402
X27315Y10780
X28103Y9205
X29678Y11174
X29323Y12906
X30544Y13890
X31174Y13693
X32709Y13024
X32473Y12512
X35977Y12748
X37355Y10977
X35583Y6056
X34107Y4382
X33221Y5150
X32630Y5071
X31528Y7394
X31646Y9205
X28103Y5465
X27512Y5367
X26528Y5367
X25347Y5465
X26095Y4284
X26528Y4284
X27040Y4284
X27512Y4284
X28103Y4284
X28693Y3103
X28103Y2315
X28693Y2119
X27512Y3103
X26528Y3103
X26725Y2119
X27906Y544
X30725Y819
X31221Y1233
X34107Y1430
X35386Y1528
X35583Y4087
X38733Y13142
X36016Y14953
X34441Y16449
X32985Y17119
X33300Y17552
X32670Y16489
X30819Y17099
X30465Y17453
X30111Y17099
X30111Y17807
X30819Y17807
X31489Y18772
X31252Y19126
X31075Y19559
X30662Y19815
X30229Y19835
X29205Y20307
X28772Y21095
X28063Y20819
X27867Y20386
X26843Y20229
X26528Y20544
X26292Y19914
X25819Y19481
X26174Y18378
X25307Y17670
X25819Y17394
X27748Y16095
X28536Y16252
X28693Y16646
X28221Y16961
X29205Y16174
X29973Y15524
X27985Y14756
X24953Y13930
X23339Y12788
X21292Y12906
X20150Y13142
X21016Y15386
X18536Y15111
X15898Y15898
X13772Y16056
X11961Y15898
X9993Y15898
X9993Y17867
X11961Y17867
X13930Y17867
X15898Y17867
X18575Y17906
X20071Y21134
X19441Y22591
X18457Y24087
X15229Y26056
X11961Y20622
X9304Y19638
X7630Y19835
X6056Y19835
X4087Y19835
X2119Y19835
X2119Y17867
X4087Y17867
X6056Y17867
X8024Y17867
X23142Y23851
X26213Y21213
X28260Y19008
X27886Y18083
X24953Y15898
X23772Y16725
X29953Y21449
X32315Y21567
X32945Y21567
X32630Y20544
X32591Y19008
X35189Y18260
X38162Y19520
X34756Y22394
X34756Y23378
X33575Y23063
X37473Y24559
X29166Y23693
X22099Y5563
X21607Y5563
X19933Y4481
X17867Y4087
X20622Y1528
X19700Y819
T02
X2709Y12237
X7433Y12237
T03
X23520Y7449
X24520Y7449
X25520Y7449
X26520Y7449
X27520Y7449
X28520Y7449
X29520Y7449
X30520Y7449
X32520Y7449
X33520Y7449
X34520Y7449
X35520Y7449
X36520Y7449
X37520Y7449
X37520Y26449
X36520Y26449
X35520Y26449
X34520Y26449
X33520Y26449
X32520Y26449
X31520Y26449
X30520Y26449
X28920Y26449
X27920Y26449
X26920Y26449
X25920Y26449
X24920Y26449
X23920Y26449
X22920Y26449
X21920Y26449
X20920Y26449
X19920Y26449
T04
X9155Y6307
X9255Y7307
X9155Y8307
X9255Y9307
X9155Y10307
X9255Y11307
X9155Y12307
X9255Y13307
X9155Y14307
X9255Y15307
X12823Y19441
X13823Y19441
X14823Y19441
X15823Y19441
X19516Y18260
X20516Y18260
X21516Y18260
X22516Y18260
X22516Y16292
X21516Y16292
X20516Y16292
X19516Y16292
X36370Y19835
X36370Y20835
X36370Y21835
X36370Y22835
X36370Y23835
X36370Y24835
X37570Y18449
X38570Y18449
X38570Y17449
X38570Y16449
X37570Y16449
X37570Y17449
X36221Y3456
X35221Y3456
X34221Y3456
X33221Y3456
X32221Y3456
X31221Y3456
X30221Y3456
X30221Y2356
X31221Y2356
X32221Y2356
X33221Y2356
X34221Y2356
X35221Y2356
X36221Y2356
X25197Y2356
X24197Y2356
X23197Y2356
X22197Y2356
X21197Y2356
X20197Y2356
X19197Y2356
X19197Y3456
X20197Y3456
X21197Y3456
X22197Y3456
X23197Y3456
X24197Y3456
X25197Y3456
T05
X5071Y12926
T06
X3103Y4087
X5071Y4087
X7040Y4087
X10189Y4087
X12158Y4087
X14126Y4087
X14126Y22197
X14126Y24166
X14126Y26134
T07
X2709Y7315
X7433Y7315
T08
X1150Y1150
X38528Y9449
X38528Y20449
M30
