G75*
%MOIN*%
%OFA0B0*%
%FSLAX25Y25*%
%IPPOS*%
%LPD*%
%AMOC8*
5,1,8,0,0,1.08239X$1,22.5*
%
%ADD10C,0.00591*%
%ADD11C,0.00992*%
%ADD12C,0.01004*%
%ADD13C,0.01008*%
D10*
X0009374Y0196177D02*
X0450319Y0196177D01*
X0450509Y0196179D01*
X0450699Y0196186D01*
X0450889Y0196198D01*
X0451079Y0196214D01*
X0451268Y0196234D01*
X0451457Y0196260D01*
X0451645Y0196289D01*
X0451832Y0196324D01*
X0452018Y0196363D01*
X0452203Y0196406D01*
X0452388Y0196454D01*
X0452571Y0196506D01*
X0452752Y0196562D01*
X0452932Y0196623D01*
X0453111Y0196689D01*
X0453288Y0196758D01*
X0453464Y0196832D01*
X0453637Y0196910D01*
X0453809Y0196993D01*
X0453978Y0197079D01*
X0454146Y0197169D01*
X0454311Y0197264D01*
X0454474Y0197362D01*
X0454634Y0197465D01*
X0454792Y0197571D01*
X0454947Y0197681D01*
X0455100Y0197794D01*
X0455250Y0197912D01*
X0455396Y0198033D01*
X0455540Y0198157D01*
X0455681Y0198285D01*
X0455819Y0198416D01*
X0455954Y0198551D01*
X0456085Y0198689D01*
X0456213Y0198830D01*
X0456337Y0198974D01*
X0456458Y0199120D01*
X0456576Y0199270D01*
X0456689Y0199423D01*
X0456799Y0199578D01*
X0456905Y0199736D01*
X0457008Y0199896D01*
X0457106Y0200059D01*
X0457201Y0200224D01*
X0457291Y0200392D01*
X0457377Y0200561D01*
X0457460Y0200733D01*
X0457538Y0200906D01*
X0457612Y0201082D01*
X0457681Y0201259D01*
X0457747Y0201438D01*
X0457808Y0201618D01*
X0457864Y0201799D01*
X0457916Y0201982D01*
X0457964Y0202167D01*
X0458007Y0202352D01*
X0458046Y0202538D01*
X0458081Y0202725D01*
X0458110Y0202913D01*
X0458136Y0203102D01*
X0458156Y0203291D01*
X0458172Y0203481D01*
X0458184Y0203671D01*
X0458191Y0203861D01*
X0458193Y0204051D01*
X0458193Y0377280D01*
X0458191Y0377470D01*
X0458184Y0377660D01*
X0458172Y0377850D01*
X0458156Y0378040D01*
X0458136Y0378229D01*
X0458110Y0378418D01*
X0458081Y0378606D01*
X0458046Y0378793D01*
X0458007Y0378979D01*
X0457964Y0379164D01*
X0457916Y0379349D01*
X0457864Y0379532D01*
X0457808Y0379713D01*
X0457747Y0379893D01*
X0457681Y0380072D01*
X0457612Y0380249D01*
X0457538Y0380425D01*
X0457460Y0380598D01*
X0457377Y0380770D01*
X0457291Y0380939D01*
X0457201Y0381107D01*
X0457106Y0381272D01*
X0457008Y0381435D01*
X0456905Y0381595D01*
X0456799Y0381753D01*
X0456689Y0381908D01*
X0456576Y0382061D01*
X0456458Y0382211D01*
X0456337Y0382357D01*
X0456213Y0382501D01*
X0456085Y0382642D01*
X0455954Y0382780D01*
X0455819Y0382915D01*
X0455681Y0383046D01*
X0455540Y0383174D01*
X0455396Y0383298D01*
X0455250Y0383419D01*
X0455100Y0383537D01*
X0454947Y0383650D01*
X0454792Y0383760D01*
X0454634Y0383866D01*
X0454474Y0383969D01*
X0454311Y0384067D01*
X0454146Y0384162D01*
X0453978Y0384252D01*
X0453809Y0384338D01*
X0453637Y0384421D01*
X0453464Y0384499D01*
X0453288Y0384573D01*
X0453111Y0384642D01*
X0452932Y0384708D01*
X0452752Y0384769D01*
X0452571Y0384825D01*
X0452388Y0384877D01*
X0452203Y0384925D01*
X0452018Y0384968D01*
X0451832Y0385007D01*
X0451645Y0385042D01*
X0451457Y0385071D01*
X0451268Y0385097D01*
X0451079Y0385117D01*
X0450889Y0385133D01*
X0450699Y0385145D01*
X0450509Y0385152D01*
X0450319Y0385154D01*
X0009374Y0385154D01*
X0009184Y0385152D01*
X0008994Y0385145D01*
X0008804Y0385133D01*
X0008614Y0385117D01*
X0008425Y0385097D01*
X0008236Y0385071D01*
X0008048Y0385042D01*
X0007861Y0385007D01*
X0007675Y0384968D01*
X0007490Y0384925D01*
X0007305Y0384877D01*
X0007122Y0384825D01*
X0006941Y0384769D01*
X0006761Y0384708D01*
X0006582Y0384642D01*
X0006405Y0384573D01*
X0006229Y0384499D01*
X0006056Y0384421D01*
X0005884Y0384338D01*
X0005715Y0384252D01*
X0005547Y0384162D01*
X0005382Y0384067D01*
X0005219Y0383969D01*
X0005059Y0383866D01*
X0004901Y0383760D01*
X0004746Y0383650D01*
X0004593Y0383537D01*
X0004443Y0383419D01*
X0004297Y0383298D01*
X0004153Y0383174D01*
X0004012Y0383046D01*
X0003874Y0382915D01*
X0003739Y0382780D01*
X0003608Y0382642D01*
X0003480Y0382501D01*
X0003356Y0382357D01*
X0003235Y0382211D01*
X0003117Y0382061D01*
X0003004Y0381908D01*
X0002894Y0381753D01*
X0002788Y0381595D01*
X0002685Y0381435D01*
X0002587Y0381272D01*
X0002492Y0381107D01*
X0002402Y0380939D01*
X0002316Y0380770D01*
X0002233Y0380598D01*
X0002155Y0380425D01*
X0002081Y0380249D01*
X0002012Y0380072D01*
X0001946Y0379893D01*
X0001885Y0379713D01*
X0001829Y0379532D01*
X0001777Y0379349D01*
X0001729Y0379164D01*
X0001686Y0378979D01*
X0001647Y0378793D01*
X0001612Y0378606D01*
X0001583Y0378418D01*
X0001557Y0378229D01*
X0001537Y0378040D01*
X0001521Y0377850D01*
X0001509Y0377660D01*
X0001502Y0377470D01*
X0001500Y0377280D01*
X0001500Y0204051D01*
X0001502Y0203861D01*
X0001509Y0203671D01*
X0001521Y0203481D01*
X0001537Y0203291D01*
X0001557Y0203102D01*
X0001583Y0202913D01*
X0001612Y0202725D01*
X0001647Y0202538D01*
X0001686Y0202352D01*
X0001729Y0202167D01*
X0001777Y0201982D01*
X0001829Y0201799D01*
X0001885Y0201618D01*
X0001946Y0201438D01*
X0002012Y0201259D01*
X0002081Y0201082D01*
X0002155Y0200906D01*
X0002233Y0200733D01*
X0002316Y0200561D01*
X0002402Y0200392D01*
X0002492Y0200224D01*
X0002587Y0200059D01*
X0002685Y0199896D01*
X0002788Y0199736D01*
X0002894Y0199578D01*
X0003004Y0199423D01*
X0003117Y0199270D01*
X0003235Y0199120D01*
X0003356Y0198974D01*
X0003480Y0198830D01*
X0003608Y0198689D01*
X0003739Y0198551D01*
X0003874Y0198416D01*
X0004012Y0198285D01*
X0004153Y0198157D01*
X0004297Y0198033D01*
X0004443Y0197912D01*
X0004593Y0197794D01*
X0004746Y0197681D01*
X0004901Y0197571D01*
X0005059Y0197465D01*
X0005219Y0197362D01*
X0005382Y0197264D01*
X0005547Y0197169D01*
X0005715Y0197079D01*
X0005884Y0196993D01*
X0006056Y0196910D01*
X0006229Y0196832D01*
X0006405Y0196758D01*
X0006582Y0196689D01*
X0006761Y0196623D01*
X0006941Y0196562D01*
X0007122Y0196506D01*
X0007305Y0196454D01*
X0007490Y0196406D01*
X0007675Y0196363D01*
X0007861Y0196324D01*
X0008048Y0196289D01*
X0008236Y0196260D01*
X0008425Y0196234D01*
X0008614Y0196214D01*
X0008804Y0196198D01*
X0008994Y0196186D01*
X0009184Y0196179D01*
X0009374Y0196177D01*
D11*
X0062224Y0209272D02*
X0062224Y0210642D01*
X0062224Y0209272D02*
X0060854Y0209272D01*
X0060854Y0210642D01*
X0062224Y0210642D01*
X0062224Y0210263D02*
X0060854Y0210263D01*
X0062224Y0213209D02*
X0062224Y0214579D01*
X0062224Y0213209D02*
X0060854Y0213209D01*
X0060854Y0214579D01*
X0062224Y0214579D01*
X0062224Y0214200D02*
X0060854Y0214200D01*
X0062224Y0217146D02*
X0062224Y0218516D01*
X0062224Y0217146D02*
X0060854Y0217146D01*
X0060854Y0218516D01*
X0062224Y0218516D01*
X0062224Y0218137D02*
X0060854Y0218137D01*
X0062224Y0221083D02*
X0062224Y0222453D01*
X0062224Y0221083D02*
X0060854Y0221083D01*
X0060854Y0222453D01*
X0062224Y0222453D01*
X0062224Y0222074D02*
X0060854Y0222074D01*
X0374831Y0291350D02*
X0376201Y0291350D01*
X0376201Y0289980D01*
X0374831Y0289980D01*
X0374831Y0291350D01*
X0374831Y0290971D02*
X0376201Y0290971D01*
X0378768Y0291350D02*
X0380138Y0291350D01*
X0380138Y0289980D01*
X0378768Y0289980D01*
X0378768Y0291350D01*
X0378768Y0290971D02*
X0380138Y0290971D01*
X0382705Y0291350D02*
X0384075Y0291350D01*
X0384075Y0289980D01*
X0382705Y0289980D01*
X0382705Y0291350D01*
X0382705Y0290971D02*
X0384075Y0290971D01*
X0386642Y0291350D02*
X0388012Y0291350D01*
X0388012Y0289980D01*
X0386642Y0289980D01*
X0386642Y0291350D01*
X0386642Y0290971D02*
X0388012Y0290971D01*
X0390579Y0291350D02*
X0391949Y0291350D01*
X0391949Y0289980D01*
X0390579Y0289980D01*
X0390579Y0291350D01*
X0390579Y0290971D02*
X0391949Y0290971D01*
X0394516Y0291350D02*
X0395886Y0291350D01*
X0395886Y0289980D01*
X0394516Y0289980D01*
X0394516Y0291350D01*
X0394516Y0290971D02*
X0395886Y0290971D01*
X0411740Y0290768D02*
X0411740Y0294500D01*
X0415472Y0294500D01*
X0415472Y0290768D01*
X0411740Y0290768D01*
X0411740Y0291759D02*
X0415472Y0291759D01*
X0415472Y0292750D02*
X0411740Y0292750D01*
X0411740Y0293741D02*
X0415472Y0293741D01*
X0411740Y0286626D02*
X0411740Y0282894D01*
X0411740Y0286626D02*
X0415472Y0286626D01*
X0415472Y0282894D01*
X0411740Y0282894D01*
X0411740Y0283885D02*
X0415472Y0283885D01*
X0415472Y0284876D02*
X0411740Y0284876D01*
X0411740Y0285867D02*
X0415472Y0285867D01*
X0415953Y0304941D02*
X0417323Y0304941D01*
X0415953Y0304941D02*
X0415953Y0309855D01*
X0417323Y0309855D01*
X0417323Y0304941D01*
X0417323Y0305932D02*
X0415953Y0305932D01*
X0415953Y0306923D02*
X0417323Y0306923D01*
X0417323Y0307914D02*
X0415953Y0307914D01*
X0415953Y0308905D02*
X0417323Y0308905D01*
X0412323Y0304941D02*
X0410953Y0304941D01*
X0410953Y0309855D01*
X0412323Y0309855D01*
X0412323Y0304941D01*
X0412323Y0305932D02*
X0410953Y0305932D01*
X0410953Y0306923D02*
X0412323Y0306923D01*
X0412323Y0307914D02*
X0410953Y0307914D01*
X0410953Y0308905D02*
X0412323Y0308905D01*
X0407323Y0304941D02*
X0405953Y0304941D01*
X0405953Y0309855D01*
X0407323Y0309855D01*
X0407323Y0304941D01*
X0407323Y0305932D02*
X0405953Y0305932D01*
X0405953Y0306923D02*
X0407323Y0306923D01*
X0407323Y0307914D02*
X0405953Y0307914D01*
X0405953Y0308905D02*
X0407323Y0308905D01*
X0402323Y0304941D02*
X0400953Y0304941D01*
X0400953Y0309855D01*
X0402323Y0309855D01*
X0402323Y0304941D01*
X0402323Y0305932D02*
X0400953Y0305932D01*
X0400953Y0306923D02*
X0402323Y0306923D01*
X0402323Y0307914D02*
X0400953Y0307914D01*
X0400953Y0308905D02*
X0402323Y0308905D01*
X0397323Y0304941D02*
X0395953Y0304941D01*
X0395953Y0309855D01*
X0397323Y0309855D01*
X0397323Y0304941D01*
X0397323Y0305932D02*
X0395953Y0305932D01*
X0395953Y0306923D02*
X0397323Y0306923D01*
X0397323Y0307914D02*
X0395953Y0307914D01*
X0395953Y0308905D02*
X0397323Y0308905D01*
X0392323Y0304941D02*
X0390953Y0304941D01*
X0390953Y0309855D01*
X0392323Y0309855D01*
X0392323Y0304941D01*
X0392323Y0305932D02*
X0390953Y0305932D01*
X0390953Y0306923D02*
X0392323Y0306923D01*
X0392323Y0307914D02*
X0390953Y0307914D01*
X0390953Y0308905D02*
X0392323Y0308905D01*
X0387323Y0304941D02*
X0385953Y0304941D01*
X0385953Y0309855D01*
X0387323Y0309855D01*
X0387323Y0304941D01*
X0387323Y0305932D02*
X0385953Y0305932D01*
X0385953Y0306923D02*
X0387323Y0306923D01*
X0387323Y0307914D02*
X0385953Y0307914D01*
X0385953Y0308905D02*
X0387323Y0308905D01*
X0382323Y0304941D02*
X0380953Y0304941D01*
X0380953Y0309855D01*
X0382323Y0309855D01*
X0382323Y0304941D01*
X0382323Y0305932D02*
X0380953Y0305932D01*
X0380953Y0306923D02*
X0382323Y0306923D01*
X0382323Y0307914D02*
X0380953Y0307914D01*
X0380953Y0308905D02*
X0382323Y0308905D01*
X0382323Y0326594D02*
X0380953Y0326594D01*
X0380953Y0331508D01*
X0382323Y0331508D01*
X0382323Y0326594D01*
X0382323Y0327585D02*
X0380953Y0327585D01*
X0380953Y0328576D02*
X0382323Y0328576D01*
X0382323Y0329567D02*
X0380953Y0329567D01*
X0380953Y0330558D02*
X0382323Y0330558D01*
X0385953Y0326594D02*
X0387323Y0326594D01*
X0385953Y0326594D02*
X0385953Y0331508D01*
X0387323Y0331508D01*
X0387323Y0326594D01*
X0387323Y0327585D02*
X0385953Y0327585D01*
X0385953Y0328576D02*
X0387323Y0328576D01*
X0387323Y0329567D02*
X0385953Y0329567D01*
X0385953Y0330558D02*
X0387323Y0330558D01*
X0390953Y0326594D02*
X0392323Y0326594D01*
X0390953Y0326594D02*
X0390953Y0331508D01*
X0392323Y0331508D01*
X0392323Y0326594D01*
X0392323Y0327585D02*
X0390953Y0327585D01*
X0390953Y0328576D02*
X0392323Y0328576D01*
X0392323Y0329567D02*
X0390953Y0329567D01*
X0390953Y0330558D02*
X0392323Y0330558D01*
X0395953Y0326594D02*
X0397323Y0326594D01*
X0395953Y0326594D02*
X0395953Y0331508D01*
X0397323Y0331508D01*
X0397323Y0326594D01*
X0397323Y0327585D02*
X0395953Y0327585D01*
X0395953Y0328576D02*
X0397323Y0328576D01*
X0397323Y0329567D02*
X0395953Y0329567D01*
X0395953Y0330558D02*
X0397323Y0330558D01*
X0400953Y0326594D02*
X0402323Y0326594D01*
X0400953Y0326594D02*
X0400953Y0331508D01*
X0402323Y0331508D01*
X0402323Y0326594D01*
X0402323Y0327585D02*
X0400953Y0327585D01*
X0400953Y0328576D02*
X0402323Y0328576D01*
X0402323Y0329567D02*
X0400953Y0329567D01*
X0400953Y0330558D02*
X0402323Y0330558D01*
X0405953Y0326594D02*
X0407323Y0326594D01*
X0405953Y0326594D02*
X0405953Y0331508D01*
X0407323Y0331508D01*
X0407323Y0326594D01*
X0407323Y0327585D02*
X0405953Y0327585D01*
X0405953Y0328576D02*
X0407323Y0328576D01*
X0407323Y0329567D02*
X0405953Y0329567D01*
X0405953Y0330558D02*
X0407323Y0330558D01*
X0410953Y0326594D02*
X0412323Y0326594D01*
X0410953Y0326594D02*
X0410953Y0331508D01*
X0412323Y0331508D01*
X0412323Y0326594D01*
X0412323Y0327585D02*
X0410953Y0327585D01*
X0410953Y0328576D02*
X0412323Y0328576D01*
X0412323Y0329567D02*
X0410953Y0329567D01*
X0410953Y0330558D02*
X0412323Y0330558D01*
X0415953Y0326594D02*
X0417323Y0326594D01*
X0415953Y0326594D02*
X0415953Y0331508D01*
X0417323Y0331508D01*
X0417323Y0326594D01*
X0417323Y0327585D02*
X0415953Y0327585D01*
X0415953Y0328576D02*
X0417323Y0328576D01*
X0417323Y0329567D02*
X0415953Y0329567D01*
X0415953Y0330558D02*
X0417323Y0330558D01*
X0422169Y0352358D02*
X0423539Y0352358D01*
X0422169Y0352358D02*
X0422169Y0353728D01*
X0423539Y0353728D01*
X0423539Y0352358D01*
X0423539Y0353349D02*
X0422169Y0353349D01*
X0426106Y0352358D02*
X0427476Y0352358D01*
X0426106Y0352358D02*
X0426106Y0353728D01*
X0427476Y0353728D01*
X0427476Y0352358D01*
X0427476Y0353349D02*
X0426106Y0353349D01*
D12*
X0424050Y0291148D02*
X0424050Y0286246D01*
X0424050Y0291148D02*
X0429344Y0291148D01*
X0429344Y0286246D01*
X0424050Y0286246D01*
X0424050Y0287249D02*
X0429344Y0287249D01*
X0429344Y0288252D02*
X0424050Y0288252D01*
X0424050Y0289255D02*
X0429344Y0289255D01*
X0429344Y0290258D02*
X0424050Y0290258D01*
D13*
X0422154Y0355713D02*
X0420012Y0355713D01*
X0420012Y0358247D01*
X0422154Y0358247D01*
X0422154Y0355713D01*
X0422154Y0356720D02*
X0420012Y0356720D01*
X0420012Y0357727D02*
X0422154Y0357727D01*
X0427492Y0355713D02*
X0429634Y0355713D01*
X0427492Y0355713D02*
X0427492Y0358247D01*
X0429634Y0358247D01*
X0429634Y0355713D01*
X0429634Y0356720D02*
X0427492Y0356720D01*
X0427492Y0357727D02*
X0429634Y0357727D01*
X0425894Y0363981D02*
X0423752Y0363981D01*
X0423752Y0366515D01*
X0425894Y0366515D01*
X0425894Y0363981D01*
X0425894Y0364988D02*
X0423752Y0364988D01*
X0423752Y0365995D02*
X0425894Y0365995D01*
M02*
