G75*
%MOIN*%
%OFA0B0*%
%FSLAX25Y25*%
%IPPOS*%
%LPD*%
%AMOC8*
5,1,8,0,0,1.08239X$1,22.5*
%
%ADD10C,0.01100*%
%ADD11C,0.00591*%
%ADD12C,0.00600*%
%ADD13C,0.00800*%
%ADD14C,0.01000*%
%ADD15C,0.00500*%
D10*
X0035121Y0364837D02*
X0037089Y0368774D01*
X0039598Y0369758D02*
X0040582Y0370742D01*
X0042550Y0370742D01*
X0043535Y0369758D01*
X0043535Y0368774D01*
X0039598Y0364837D01*
X0043535Y0364837D01*
X0046043Y0364837D02*
X0047028Y0364837D01*
X0047028Y0365822D01*
X0046043Y0365822D01*
X0046043Y0364837D01*
X0049266Y0365822D02*
X0049266Y0369758D01*
X0050250Y0370742D01*
X0052219Y0370742D01*
X0053203Y0369758D01*
X0049266Y0365822D01*
X0050250Y0364837D01*
X0052219Y0364837D01*
X0053203Y0365822D01*
X0053203Y0369758D01*
X0053473Y0376648D02*
X0055441Y0376648D01*
X0056426Y0377633D01*
X0056426Y0381569D01*
X0055441Y0382553D01*
X0053473Y0382553D01*
X0052489Y0381569D01*
X0052489Y0377633D01*
X0053473Y0376648D01*
X0049980Y0376648D02*
X0049980Y0382553D01*
X0046043Y0382553D02*
X0046043Y0376648D01*
X0043535Y0377633D02*
X0042550Y0376648D01*
X0040582Y0376648D01*
X0039598Y0377633D01*
X0040582Y0379601D02*
X0042550Y0379601D01*
X0043535Y0378617D01*
X0043535Y0377633D01*
X0040582Y0379601D02*
X0039598Y0380585D01*
X0039598Y0381569D01*
X0040582Y0382553D01*
X0042550Y0382553D01*
X0043535Y0381569D01*
X0046043Y0382553D02*
X0049980Y0376648D01*
X0058934Y0382553D02*
X0062871Y0382553D01*
X0060903Y0382553D02*
X0060903Y0376648D01*
X0065380Y0382553D02*
X0069317Y0382553D01*
X0067348Y0382553D02*
X0067348Y0376648D01*
X0071825Y0377633D02*
X0072810Y0376648D01*
X0074778Y0376648D01*
X0075762Y0377633D01*
X0075762Y0378617D01*
X0074778Y0379601D01*
X0072810Y0379601D01*
X0071825Y0380585D01*
X0071825Y0381569D01*
X0072810Y0382553D01*
X0074778Y0382553D01*
X0075762Y0381569D01*
X0084716Y0381569D02*
X0084716Y0377633D01*
X0085701Y0376648D01*
X0087669Y0376648D01*
X0088653Y0377633D01*
X0088653Y0379601D01*
X0086685Y0379601D01*
X0088653Y0381569D02*
X0087669Y0382553D01*
X0085701Y0382553D01*
X0084716Y0381569D01*
X0092146Y0380585D02*
X0094114Y0380585D01*
X0095099Y0379601D01*
X0095099Y0376648D01*
X0092146Y0376648D01*
X0091162Y0377633D01*
X0092146Y0378617D01*
X0095099Y0378617D01*
X0097607Y0380585D02*
X0099576Y0380585D01*
X0098591Y0381569D02*
X0098591Y0377633D01*
X0099576Y0376648D01*
X0101904Y0377633D02*
X0101904Y0379601D01*
X0102888Y0380585D01*
X0104857Y0380585D01*
X0105841Y0379601D01*
X0105841Y0378617D01*
X0101904Y0378617D01*
X0101904Y0377633D02*
X0102888Y0376648D01*
X0104857Y0376648D01*
X0108350Y0376648D02*
X0108350Y0382553D01*
X0111302Y0380585D02*
X0108350Y0378617D01*
X0111302Y0376648D01*
X0113721Y0377633D02*
X0113721Y0379601D01*
X0114705Y0380585D01*
X0116674Y0380585D01*
X0117658Y0379601D01*
X0117658Y0378617D01*
X0113721Y0378617D01*
X0113721Y0377633D02*
X0114705Y0376648D01*
X0116674Y0376648D01*
X0120167Y0377633D02*
X0120167Y0379601D01*
X0121151Y0380585D01*
X0123119Y0380585D01*
X0124103Y0379601D01*
X0124103Y0378617D01*
X0120167Y0378617D01*
X0120167Y0377633D02*
X0121151Y0376648D01*
X0123119Y0376648D01*
X0126612Y0376648D02*
X0129565Y0376648D01*
X0130549Y0377633D01*
X0130549Y0379601D01*
X0129565Y0380585D01*
X0126612Y0380585D01*
X0126612Y0374680D01*
X0133058Y0377633D02*
X0133058Y0379601D01*
X0134042Y0380585D01*
X0136010Y0380585D01*
X0136994Y0379601D01*
X0136994Y0378617D01*
X0133058Y0378617D01*
X0133058Y0377633D02*
X0134042Y0376648D01*
X0136010Y0376648D01*
X0139503Y0376648D02*
X0139503Y0380585D01*
X0139503Y0378617D02*
X0141471Y0380585D01*
X0142456Y0380585D01*
X0037089Y0379601D02*
X0033152Y0379601D01*
X0033152Y0382553D02*
X0033152Y0376648D01*
X0037089Y0376648D02*
X0037089Y0382553D01*
X0033152Y0368774D02*
X0035121Y0364837D01*
D11*
X0009374Y0196177D02*
X0450319Y0196177D01*
X0450509Y0196179D01*
X0450699Y0196186D01*
X0450889Y0196198D01*
X0451079Y0196214D01*
X0451268Y0196234D01*
X0451457Y0196260D01*
X0451645Y0196289D01*
X0451832Y0196324D01*
X0452018Y0196363D01*
X0452203Y0196406D01*
X0452388Y0196454D01*
X0452571Y0196506D01*
X0452752Y0196562D01*
X0452932Y0196623D01*
X0453111Y0196689D01*
X0453288Y0196758D01*
X0453464Y0196832D01*
X0453637Y0196910D01*
X0453809Y0196993D01*
X0453978Y0197079D01*
X0454146Y0197169D01*
X0454311Y0197264D01*
X0454474Y0197362D01*
X0454634Y0197465D01*
X0454792Y0197571D01*
X0454947Y0197681D01*
X0455100Y0197794D01*
X0455250Y0197912D01*
X0455396Y0198033D01*
X0455540Y0198157D01*
X0455681Y0198285D01*
X0455819Y0198416D01*
X0455954Y0198551D01*
X0456085Y0198689D01*
X0456213Y0198830D01*
X0456337Y0198974D01*
X0456458Y0199120D01*
X0456576Y0199270D01*
X0456689Y0199423D01*
X0456799Y0199578D01*
X0456905Y0199736D01*
X0457008Y0199896D01*
X0457106Y0200059D01*
X0457201Y0200224D01*
X0457291Y0200392D01*
X0457377Y0200561D01*
X0457460Y0200733D01*
X0457538Y0200906D01*
X0457612Y0201082D01*
X0457681Y0201259D01*
X0457747Y0201438D01*
X0457808Y0201618D01*
X0457864Y0201799D01*
X0457916Y0201982D01*
X0457964Y0202167D01*
X0458007Y0202352D01*
X0458046Y0202538D01*
X0458081Y0202725D01*
X0458110Y0202913D01*
X0458136Y0203102D01*
X0458156Y0203291D01*
X0458172Y0203481D01*
X0458184Y0203671D01*
X0458191Y0203861D01*
X0458193Y0204051D01*
X0458193Y0377280D01*
X0458191Y0377470D01*
X0458184Y0377660D01*
X0458172Y0377850D01*
X0458156Y0378040D01*
X0458136Y0378229D01*
X0458110Y0378418D01*
X0458081Y0378606D01*
X0458046Y0378793D01*
X0458007Y0378979D01*
X0457964Y0379164D01*
X0457916Y0379349D01*
X0457864Y0379532D01*
X0457808Y0379713D01*
X0457747Y0379893D01*
X0457681Y0380072D01*
X0457612Y0380249D01*
X0457538Y0380425D01*
X0457460Y0380598D01*
X0457377Y0380770D01*
X0457291Y0380939D01*
X0457201Y0381107D01*
X0457106Y0381272D01*
X0457008Y0381435D01*
X0456905Y0381595D01*
X0456799Y0381753D01*
X0456689Y0381908D01*
X0456576Y0382061D01*
X0456458Y0382211D01*
X0456337Y0382357D01*
X0456213Y0382501D01*
X0456085Y0382642D01*
X0455954Y0382780D01*
X0455819Y0382915D01*
X0455681Y0383046D01*
X0455540Y0383174D01*
X0455396Y0383298D01*
X0455250Y0383419D01*
X0455100Y0383537D01*
X0454947Y0383650D01*
X0454792Y0383760D01*
X0454634Y0383866D01*
X0454474Y0383969D01*
X0454311Y0384067D01*
X0454146Y0384162D01*
X0453978Y0384252D01*
X0453809Y0384338D01*
X0453637Y0384421D01*
X0453464Y0384499D01*
X0453288Y0384573D01*
X0453111Y0384642D01*
X0452932Y0384708D01*
X0452752Y0384769D01*
X0452571Y0384825D01*
X0452388Y0384877D01*
X0452203Y0384925D01*
X0452018Y0384968D01*
X0451832Y0385007D01*
X0451645Y0385042D01*
X0451457Y0385071D01*
X0451268Y0385097D01*
X0451079Y0385117D01*
X0450889Y0385133D01*
X0450699Y0385145D01*
X0450509Y0385152D01*
X0450319Y0385154D01*
X0009374Y0385154D01*
X0009184Y0385152D01*
X0008994Y0385145D01*
X0008804Y0385133D01*
X0008614Y0385117D01*
X0008425Y0385097D01*
X0008236Y0385071D01*
X0008048Y0385042D01*
X0007861Y0385007D01*
X0007675Y0384968D01*
X0007490Y0384925D01*
X0007305Y0384877D01*
X0007122Y0384825D01*
X0006941Y0384769D01*
X0006761Y0384708D01*
X0006582Y0384642D01*
X0006405Y0384573D01*
X0006229Y0384499D01*
X0006056Y0384421D01*
X0005884Y0384338D01*
X0005715Y0384252D01*
X0005547Y0384162D01*
X0005382Y0384067D01*
X0005219Y0383969D01*
X0005059Y0383866D01*
X0004901Y0383760D01*
X0004746Y0383650D01*
X0004593Y0383537D01*
X0004443Y0383419D01*
X0004297Y0383298D01*
X0004153Y0383174D01*
X0004012Y0383046D01*
X0003874Y0382915D01*
X0003739Y0382780D01*
X0003608Y0382642D01*
X0003480Y0382501D01*
X0003356Y0382357D01*
X0003235Y0382211D01*
X0003117Y0382061D01*
X0003004Y0381908D01*
X0002894Y0381753D01*
X0002788Y0381595D01*
X0002685Y0381435D01*
X0002587Y0381272D01*
X0002492Y0381107D01*
X0002402Y0380939D01*
X0002316Y0380770D01*
X0002233Y0380598D01*
X0002155Y0380425D01*
X0002081Y0380249D01*
X0002012Y0380072D01*
X0001946Y0379893D01*
X0001885Y0379713D01*
X0001829Y0379532D01*
X0001777Y0379349D01*
X0001729Y0379164D01*
X0001686Y0378979D01*
X0001647Y0378793D01*
X0001612Y0378606D01*
X0001583Y0378418D01*
X0001557Y0378229D01*
X0001537Y0378040D01*
X0001521Y0377850D01*
X0001509Y0377660D01*
X0001502Y0377470D01*
X0001500Y0377280D01*
X0001500Y0204051D01*
X0001502Y0203861D01*
X0001509Y0203671D01*
X0001521Y0203481D01*
X0001537Y0203291D01*
X0001557Y0203102D01*
X0001583Y0202913D01*
X0001612Y0202725D01*
X0001647Y0202538D01*
X0001686Y0202352D01*
X0001729Y0202167D01*
X0001777Y0201982D01*
X0001829Y0201799D01*
X0001885Y0201618D01*
X0001946Y0201438D01*
X0002012Y0201259D01*
X0002081Y0201082D01*
X0002155Y0200906D01*
X0002233Y0200733D01*
X0002316Y0200561D01*
X0002402Y0200392D01*
X0002492Y0200224D01*
X0002587Y0200059D01*
X0002685Y0199896D01*
X0002788Y0199736D01*
X0002894Y0199578D01*
X0003004Y0199423D01*
X0003117Y0199270D01*
X0003235Y0199120D01*
X0003356Y0198974D01*
X0003480Y0198830D01*
X0003608Y0198689D01*
X0003739Y0198551D01*
X0003874Y0198416D01*
X0004012Y0198285D01*
X0004153Y0198157D01*
X0004297Y0198033D01*
X0004443Y0197912D01*
X0004593Y0197794D01*
X0004746Y0197681D01*
X0004901Y0197571D01*
X0005059Y0197465D01*
X0005219Y0197362D01*
X0005382Y0197264D01*
X0005547Y0197169D01*
X0005715Y0197079D01*
X0005884Y0196993D01*
X0006056Y0196910D01*
X0006229Y0196832D01*
X0006405Y0196758D01*
X0006582Y0196689D01*
X0006761Y0196623D01*
X0006941Y0196562D01*
X0007122Y0196506D01*
X0007305Y0196454D01*
X0007490Y0196406D01*
X0007675Y0196363D01*
X0007861Y0196324D01*
X0008048Y0196289D01*
X0008236Y0196260D01*
X0008425Y0196234D01*
X0008614Y0196214D01*
X0008804Y0196198D01*
X0008994Y0196186D01*
X0009184Y0196179D01*
X0009374Y0196177D01*
D12*
X0193144Y0235430D02*
X0193144Y0236564D01*
X0193711Y0237132D01*
X0194278Y0237132D01*
X0194845Y0236564D01*
X0195412Y0237132D01*
X0195979Y0237132D01*
X0196546Y0236564D01*
X0196546Y0235430D01*
X0195979Y0234863D01*
X0194845Y0235997D02*
X0194845Y0236564D01*
X0193711Y0234863D02*
X0193144Y0235430D01*
X0193144Y0238546D02*
X0195412Y0238546D01*
X0196546Y0239680D01*
X0195412Y0240815D01*
X0193144Y0240815D01*
X0193711Y0242229D02*
X0193144Y0242796D01*
X0193144Y0243931D01*
X0193711Y0244498D01*
X0194278Y0244498D01*
X0194845Y0243931D01*
X0195412Y0244498D01*
X0195979Y0244498D01*
X0196546Y0243931D01*
X0196546Y0242796D01*
X0195979Y0242229D01*
X0194845Y0243364D02*
X0194845Y0243931D01*
X0204278Y0244498D02*
X0204278Y0242796D01*
X0204845Y0242229D01*
X0205412Y0242796D01*
X0205412Y0243931D01*
X0205979Y0244498D01*
X0206546Y0243931D01*
X0206546Y0242229D01*
X0205412Y0240815D02*
X0205412Y0238546D01*
X0204845Y0238546D02*
X0204278Y0239113D01*
X0204278Y0240248D01*
X0204845Y0240815D01*
X0205412Y0240815D01*
X0206546Y0240248D02*
X0206546Y0239113D01*
X0205979Y0238546D01*
X0204845Y0238546D01*
X0204845Y0237132D02*
X0205412Y0236564D01*
X0205412Y0234863D01*
X0205412Y0235997D02*
X0206546Y0237132D01*
X0204845Y0237132D02*
X0203711Y0237132D01*
X0203144Y0236564D01*
X0203144Y0234863D01*
X0206546Y0234863D01*
X0201946Y0234563D02*
X0201946Y0251751D01*
X0203711Y0250163D02*
X0205979Y0250163D01*
X0206546Y0250730D01*
X0204278Y0250730D02*
X0204278Y0249596D01*
X0204845Y0248181D02*
X0205412Y0248181D01*
X0205412Y0245912D01*
X0204845Y0245912D02*
X0204278Y0246480D01*
X0204278Y0247614D01*
X0204845Y0248181D01*
X0206546Y0247614D02*
X0206546Y0246480D01*
X0205979Y0245912D01*
X0204845Y0245912D01*
X0213144Y0243931D02*
X0213144Y0242229D01*
X0216546Y0242229D01*
X0216546Y0243931D01*
X0215979Y0244498D01*
X0213711Y0244498D01*
X0213144Y0243931D01*
X0213144Y0240815D02*
X0216546Y0240815D01*
X0213144Y0238546D01*
X0216546Y0238546D01*
X0215979Y0237132D02*
X0214845Y0237132D01*
X0214845Y0235997D01*
X0215979Y0234863D02*
X0216546Y0235430D01*
X0216546Y0236564D01*
X0215979Y0237132D01*
X0213711Y0237132D02*
X0213144Y0236564D01*
X0213144Y0235430D01*
X0213711Y0234863D01*
X0215979Y0234863D01*
X0223144Y0234863D02*
X0223144Y0235997D01*
X0223144Y0235430D02*
X0226546Y0235430D01*
X0226546Y0234863D02*
X0226546Y0235997D01*
X0226546Y0237318D02*
X0223144Y0237318D01*
X0223144Y0239020D01*
X0223711Y0239587D01*
X0224845Y0239587D01*
X0225412Y0239020D01*
X0225412Y0237318D01*
X0225412Y0238453D02*
X0226546Y0239587D01*
X0225979Y0241002D02*
X0226546Y0241569D01*
X0226546Y0242703D01*
X0225979Y0243270D01*
X0223711Y0243270D01*
X0223144Y0242703D01*
X0223144Y0241569D01*
X0223711Y0241002D01*
X0225979Y0241002D01*
X0225412Y0242136D02*
X0226546Y0243270D01*
X0233144Y0242703D02*
X0233144Y0241569D01*
X0233711Y0241002D01*
X0234278Y0241002D01*
X0234845Y0241569D01*
X0234845Y0242703D01*
X0235412Y0243270D01*
X0235979Y0243270D01*
X0236546Y0242703D01*
X0236546Y0241569D01*
X0235979Y0241002D01*
X0236546Y0239680D02*
X0236546Y0238546D01*
X0236546Y0239113D02*
X0233144Y0239113D01*
X0233144Y0238546D02*
X0233144Y0239680D01*
X0233144Y0237132D02*
X0236546Y0237132D01*
X0236546Y0234863D02*
X0233144Y0234863D01*
X0234278Y0235997D01*
X0233144Y0237132D01*
X0233144Y0242703D02*
X0233711Y0243270D01*
X0233711Y0244685D02*
X0235979Y0244685D01*
X0236546Y0245252D01*
X0236546Y0246386D01*
X0235979Y0246953D01*
X0233711Y0246953D01*
X0233144Y0246386D01*
X0233144Y0245252D01*
X0233711Y0244685D01*
X0243144Y0243931D02*
X0243144Y0242796D01*
X0243711Y0242229D01*
X0244278Y0242229D01*
X0244845Y0242796D01*
X0244845Y0243931D01*
X0245412Y0244498D01*
X0245979Y0244498D01*
X0246546Y0243931D01*
X0246546Y0242796D01*
X0245979Y0242229D01*
X0245979Y0240815D02*
X0243711Y0240815D01*
X0243144Y0240248D01*
X0243144Y0239113D01*
X0243711Y0238546D01*
X0245979Y0238546D01*
X0246546Y0239113D01*
X0246546Y0240248D01*
X0245979Y0240815D01*
X0246546Y0237132D02*
X0243144Y0237132D01*
X0244278Y0235997D01*
X0243144Y0234863D01*
X0246546Y0234863D01*
X0253144Y0235430D02*
X0253711Y0234863D01*
X0254278Y0234863D01*
X0254845Y0235430D01*
X0254845Y0236564D01*
X0255412Y0237132D01*
X0255979Y0237132D01*
X0256546Y0236564D01*
X0256546Y0235430D01*
X0255979Y0234863D01*
X0253144Y0235430D02*
X0253144Y0236564D01*
X0253711Y0237132D01*
X0253711Y0238546D02*
X0255979Y0238546D01*
X0256546Y0239113D01*
X0256546Y0240248D01*
X0255979Y0240815D01*
X0255412Y0242229D02*
X0253144Y0244498D01*
X0253144Y0242229D02*
X0256546Y0242229D01*
X0254845Y0242796D02*
X0256546Y0244498D01*
X0253711Y0240815D02*
X0253144Y0240248D01*
X0253144Y0239113D01*
X0253711Y0238546D01*
X0263144Y0239113D02*
X0263711Y0238546D01*
X0264278Y0238546D01*
X0264845Y0239113D01*
X0264845Y0240248D01*
X0265412Y0240815D01*
X0265979Y0240815D01*
X0266546Y0240248D01*
X0266546Y0239113D01*
X0265979Y0238546D01*
X0265979Y0237132D02*
X0266546Y0236564D01*
X0266546Y0235430D01*
X0265979Y0234863D01*
X0264845Y0235430D02*
X0264845Y0236564D01*
X0265412Y0237132D01*
X0265979Y0237132D01*
X0264845Y0235430D02*
X0264278Y0234863D01*
X0263711Y0234863D01*
X0263144Y0235430D01*
X0263144Y0236564D01*
X0263711Y0237132D01*
X0263144Y0239113D02*
X0263144Y0240248D01*
X0263711Y0240815D01*
X0246546Y0245912D02*
X0246546Y0247047D01*
X0246546Y0246480D02*
X0243144Y0246480D01*
X0243144Y0247047D02*
X0243144Y0245912D01*
X0243711Y0244498D02*
X0243144Y0243931D01*
X0319679Y0240331D02*
X0323082Y0240331D01*
X0323082Y0240898D02*
X0323082Y0239763D01*
X0323082Y0238442D02*
X0323082Y0237308D01*
X0323082Y0237875D02*
X0319679Y0237875D01*
X0319679Y0237308D01*
X0321380Y0235893D02*
X0321948Y0235893D01*
X0321948Y0233625D01*
X0322515Y0233625D02*
X0321380Y0233625D01*
X0320813Y0234192D01*
X0320813Y0235326D01*
X0321380Y0235893D01*
X0323082Y0235326D02*
X0323082Y0234192D01*
X0322515Y0233625D01*
X0322515Y0232210D02*
X0323082Y0231643D01*
X0323082Y0229942D01*
X0319679Y0229942D01*
X0319679Y0231643D01*
X0320246Y0232210D01*
X0320813Y0232210D01*
X0321380Y0231643D01*
X0321380Y0229942D01*
X0321380Y0231643D02*
X0321948Y0232210D01*
X0322515Y0232210D01*
X0319679Y0239763D02*
X0319679Y0240331D01*
X0342467Y0240991D02*
X0342467Y0243260D01*
X0344735Y0240991D01*
X0344735Y0243260D01*
X0344168Y0244674D02*
X0343034Y0244674D01*
X0342467Y0245241D01*
X0342467Y0246376D01*
X0343034Y0246943D01*
X0343601Y0246943D01*
X0343601Y0244674D01*
X0344168Y0244674D02*
X0344735Y0245241D01*
X0344735Y0246376D01*
X0344735Y0248357D02*
X0342467Y0248357D01*
X0343601Y0248357D02*
X0342467Y0249492D01*
X0342467Y0250059D01*
X0342467Y0239577D02*
X0344735Y0237308D01*
X0344735Y0239577D01*
X0342467Y0239577D02*
X0342467Y0237308D01*
X0342467Y0235893D02*
X0344735Y0235893D01*
X0344735Y0234192D01*
X0344168Y0233625D01*
X0342467Y0233625D01*
X0342467Y0232210D02*
X0343034Y0231643D01*
X0343034Y0229942D01*
X0343034Y0231643D02*
X0343601Y0232210D01*
X0344168Y0232210D01*
X0344735Y0231643D01*
X0344735Y0229942D01*
X0341333Y0229942D01*
X0341333Y0231643D01*
X0341900Y0232210D01*
X0342467Y0232210D01*
X0378884Y0269820D02*
X0377750Y0270954D01*
X0378884Y0272088D01*
X0381153Y0272088D01*
X0380586Y0273503D02*
X0378317Y0275771D01*
X0380586Y0275771D01*
X0381153Y0275204D01*
X0381153Y0274070D01*
X0380586Y0273503D01*
X0378317Y0273503D01*
X0377750Y0274070D01*
X0377750Y0275204D01*
X0378317Y0275771D01*
X0379451Y0272088D02*
X0379451Y0269820D01*
X0378884Y0269820D02*
X0381153Y0269820D01*
X0385624Y0270954D02*
X0386758Y0272088D01*
X0389027Y0272088D01*
X0389027Y0273503D02*
X0389027Y0275771D01*
X0389027Y0274637D02*
X0385624Y0274637D01*
X0386758Y0273503D01*
X0387325Y0272088D02*
X0387325Y0269820D01*
X0386758Y0269820D02*
X0385624Y0270954D01*
X0386758Y0269820D02*
X0389027Y0269820D01*
X0393498Y0270954D02*
X0394632Y0272088D01*
X0396901Y0272088D01*
X0396901Y0273503D02*
X0394632Y0275771D01*
X0394065Y0275771D01*
X0393498Y0275204D01*
X0393498Y0274070D01*
X0394065Y0273503D01*
X0395199Y0272088D02*
X0395199Y0269820D01*
X0394632Y0269820D02*
X0393498Y0270954D01*
X0394632Y0269820D02*
X0396901Y0269820D01*
X0396901Y0273503D02*
X0396901Y0275771D01*
X0407893Y0277690D02*
X0408461Y0277123D01*
X0409595Y0277123D01*
X0410162Y0277690D01*
X0411577Y0277690D02*
X0412144Y0277123D01*
X0413278Y0277123D01*
X0413845Y0277690D01*
X0413845Y0278824D01*
X0413278Y0279391D01*
X0412144Y0279391D01*
X0411577Y0278824D01*
X0411577Y0277690D01*
X0410162Y0279959D02*
X0409595Y0280526D01*
X0408461Y0280526D01*
X0407893Y0279959D01*
X0407893Y0277690D01*
X0415260Y0277123D02*
X0415260Y0279391D01*
X0416961Y0279391D01*
X0417528Y0278824D01*
X0417528Y0277123D01*
X0419510Y0277690D02*
X0420077Y0277123D01*
X0419510Y0277690D02*
X0419510Y0279959D01*
X0418943Y0279391D02*
X0420077Y0279391D01*
X0421398Y0279391D02*
X0421398Y0277123D01*
X0421398Y0278257D02*
X0422533Y0279391D01*
X0423100Y0279391D01*
X0425035Y0279391D02*
X0426169Y0279391D01*
X0426736Y0278824D01*
X0426736Y0277123D01*
X0425035Y0277123D01*
X0424468Y0277690D01*
X0425035Y0278257D01*
X0426736Y0278257D01*
X0428151Y0278824D02*
X0428718Y0279391D01*
X0430419Y0279391D01*
X0429852Y0278257D02*
X0428718Y0278257D01*
X0428151Y0278824D01*
X0428151Y0277123D02*
X0429852Y0277123D01*
X0430419Y0277690D01*
X0429852Y0278257D01*
X0431834Y0279391D02*
X0432968Y0279391D01*
X0432401Y0279959D02*
X0432401Y0277690D01*
X0432968Y0277123D01*
X0418437Y0313094D02*
X0418437Y0323354D01*
X0379839Y0323354D02*
X0379839Y0313094D01*
D13*
X0381473Y0314324D02*
X0381475Y0314371D01*
X0381481Y0314418D01*
X0381491Y0314465D01*
X0381504Y0314510D01*
X0381522Y0314554D01*
X0381543Y0314596D01*
X0381567Y0314637D01*
X0381595Y0314675D01*
X0381626Y0314711D01*
X0381660Y0314744D01*
X0381696Y0314774D01*
X0381735Y0314801D01*
X0381776Y0314825D01*
X0381819Y0314845D01*
X0381863Y0314861D01*
X0381909Y0314874D01*
X0381955Y0314883D01*
X0382003Y0314888D01*
X0382050Y0314889D01*
X0382097Y0314886D01*
X0382144Y0314879D01*
X0382190Y0314868D01*
X0382235Y0314854D01*
X0382279Y0314835D01*
X0382320Y0314813D01*
X0382360Y0314788D01*
X0382398Y0314759D01*
X0382433Y0314728D01*
X0382466Y0314693D01*
X0382495Y0314656D01*
X0382521Y0314617D01*
X0382544Y0314575D01*
X0382563Y0314532D01*
X0382579Y0314487D01*
X0382591Y0314441D01*
X0382599Y0314395D01*
X0382603Y0314348D01*
X0382603Y0314300D01*
X0382599Y0314253D01*
X0382591Y0314207D01*
X0382579Y0314161D01*
X0382563Y0314116D01*
X0382544Y0314073D01*
X0382521Y0314031D01*
X0382495Y0313992D01*
X0382466Y0313955D01*
X0382433Y0313920D01*
X0382398Y0313889D01*
X0382360Y0313860D01*
X0382321Y0313835D01*
X0382279Y0313813D01*
X0382235Y0313794D01*
X0382190Y0313780D01*
X0382144Y0313769D01*
X0382097Y0313762D01*
X0382050Y0313759D01*
X0382003Y0313760D01*
X0381955Y0313765D01*
X0381909Y0313774D01*
X0381863Y0313787D01*
X0381819Y0313803D01*
X0381776Y0313823D01*
X0381735Y0313847D01*
X0381696Y0313874D01*
X0381660Y0313904D01*
X0381626Y0313937D01*
X0381595Y0313973D01*
X0381567Y0314011D01*
X0381543Y0314052D01*
X0381522Y0314094D01*
X0381504Y0314138D01*
X0381491Y0314183D01*
X0381481Y0314230D01*
X0381475Y0314277D01*
X0381473Y0314324D01*
X0383390Y0285941D02*
X0383390Y0279642D01*
X0383390Y0285941D01*
X0383389Y0285941D02*
X0383404Y0286002D01*
X0383422Y0286063D01*
X0383444Y0286122D01*
X0383469Y0286180D01*
X0383499Y0286235D01*
X0383531Y0286289D01*
X0383567Y0286341D01*
X0383606Y0286391D01*
X0383648Y0286438D01*
X0383693Y0286482D01*
X0383741Y0286523D01*
X0383791Y0286561D01*
X0383844Y0286596D01*
X0383898Y0286628D01*
X0383955Y0286656D01*
X0384013Y0286681D01*
X0384072Y0286702D01*
X0384133Y0286719D01*
X0384195Y0286732D01*
X0384257Y0286741D01*
X0384320Y0286747D01*
X0384383Y0286748D01*
X0384446Y0286745D01*
X0384509Y0286739D01*
X0384571Y0286729D01*
X0383391Y0285941D02*
X0383377Y0286000D01*
X0383360Y0286058D01*
X0383339Y0286115D01*
X0383315Y0286171D01*
X0383287Y0286225D01*
X0383257Y0286277D01*
X0383223Y0286328D01*
X0383186Y0286376D01*
X0383147Y0286422D01*
X0383104Y0286465D01*
X0383060Y0286506D01*
X0383012Y0286544D01*
X0382963Y0286579D01*
X0382911Y0286611D01*
X0382858Y0286640D01*
X0382803Y0286666D01*
X0382747Y0286688D01*
X0382689Y0286707D01*
X0382630Y0286723D01*
X0382571Y0286734D01*
X0382511Y0286743D01*
X0382450Y0286747D01*
X0382390Y0286748D01*
X0382329Y0286745D01*
X0382269Y0286739D01*
X0382209Y0286729D01*
X0390083Y0286729D02*
X0390143Y0286739D01*
X0390203Y0286745D01*
X0390264Y0286748D01*
X0390324Y0286747D01*
X0390385Y0286743D01*
X0390445Y0286734D01*
X0390504Y0286723D01*
X0390563Y0286707D01*
X0390621Y0286688D01*
X0390677Y0286666D01*
X0390732Y0286640D01*
X0390785Y0286611D01*
X0390837Y0286579D01*
X0390886Y0286544D01*
X0390934Y0286506D01*
X0390978Y0286465D01*
X0391021Y0286422D01*
X0391060Y0286376D01*
X0391097Y0286328D01*
X0391131Y0286277D01*
X0391161Y0286225D01*
X0391189Y0286171D01*
X0391213Y0286115D01*
X0391234Y0286058D01*
X0391251Y0286000D01*
X0391265Y0285941D01*
X0391264Y0285941D02*
X0391264Y0279642D01*
X0391264Y0285941D01*
X0391263Y0285941D02*
X0391278Y0286002D01*
X0391296Y0286063D01*
X0391318Y0286122D01*
X0391343Y0286180D01*
X0391373Y0286235D01*
X0391405Y0286289D01*
X0391441Y0286341D01*
X0391480Y0286391D01*
X0391522Y0286438D01*
X0391567Y0286482D01*
X0391615Y0286523D01*
X0391665Y0286561D01*
X0391718Y0286596D01*
X0391772Y0286628D01*
X0391829Y0286656D01*
X0391887Y0286681D01*
X0391946Y0286702D01*
X0392007Y0286719D01*
X0392069Y0286732D01*
X0392131Y0286741D01*
X0392194Y0286747D01*
X0392257Y0286748D01*
X0392320Y0286745D01*
X0392383Y0286739D01*
X0392445Y0286729D01*
X0397957Y0286729D02*
X0398017Y0286739D01*
X0398077Y0286745D01*
X0398138Y0286748D01*
X0398198Y0286747D01*
X0398259Y0286743D01*
X0398319Y0286734D01*
X0398378Y0286723D01*
X0398437Y0286707D01*
X0398495Y0286688D01*
X0398551Y0286666D01*
X0398606Y0286640D01*
X0398659Y0286611D01*
X0398711Y0286579D01*
X0398760Y0286544D01*
X0398808Y0286506D01*
X0398852Y0286465D01*
X0398895Y0286422D01*
X0398934Y0286376D01*
X0398971Y0286328D01*
X0399005Y0286277D01*
X0399035Y0286225D01*
X0399063Y0286171D01*
X0399087Y0286115D01*
X0399108Y0286058D01*
X0399125Y0286000D01*
X0399139Y0285941D01*
X0399138Y0285941D02*
X0399138Y0279642D01*
X0399139Y0279642D02*
X0399125Y0279583D01*
X0399108Y0279525D01*
X0399087Y0279468D01*
X0399063Y0279412D01*
X0399035Y0279358D01*
X0399005Y0279306D01*
X0398971Y0279255D01*
X0398934Y0279207D01*
X0398895Y0279161D01*
X0398852Y0279118D01*
X0398808Y0279077D01*
X0398760Y0279039D01*
X0398711Y0279004D01*
X0398659Y0278972D01*
X0398606Y0278943D01*
X0398551Y0278917D01*
X0398495Y0278895D01*
X0398437Y0278876D01*
X0398378Y0278860D01*
X0398319Y0278849D01*
X0398259Y0278840D01*
X0398198Y0278836D01*
X0398138Y0278835D01*
X0398077Y0278838D01*
X0398017Y0278844D01*
X0397957Y0278854D01*
X0392445Y0278854D02*
X0392383Y0278844D01*
X0392320Y0278838D01*
X0392257Y0278835D01*
X0392194Y0278836D01*
X0392131Y0278842D01*
X0392069Y0278851D01*
X0392007Y0278864D01*
X0391946Y0278881D01*
X0391887Y0278902D01*
X0391829Y0278927D01*
X0391772Y0278955D01*
X0391718Y0278987D01*
X0391665Y0279022D01*
X0391615Y0279060D01*
X0391567Y0279101D01*
X0391522Y0279145D01*
X0391480Y0279192D01*
X0391441Y0279242D01*
X0391405Y0279294D01*
X0391373Y0279348D01*
X0391343Y0279403D01*
X0391318Y0279461D01*
X0391296Y0279520D01*
X0391278Y0279581D01*
X0391263Y0279642D01*
X0391265Y0279642D02*
X0391251Y0279583D01*
X0391234Y0279525D01*
X0391213Y0279468D01*
X0391189Y0279412D01*
X0391161Y0279358D01*
X0391131Y0279306D01*
X0391097Y0279255D01*
X0391060Y0279207D01*
X0391021Y0279161D01*
X0390978Y0279118D01*
X0390934Y0279077D01*
X0390886Y0279039D01*
X0390837Y0279004D01*
X0390785Y0278972D01*
X0390732Y0278943D01*
X0390677Y0278917D01*
X0390621Y0278895D01*
X0390563Y0278876D01*
X0390504Y0278860D01*
X0390445Y0278849D01*
X0390385Y0278840D01*
X0390324Y0278836D01*
X0390264Y0278835D01*
X0390203Y0278838D01*
X0390143Y0278844D01*
X0390083Y0278854D01*
X0384571Y0278854D02*
X0384509Y0278844D01*
X0384446Y0278838D01*
X0384383Y0278835D01*
X0384320Y0278836D01*
X0384257Y0278842D01*
X0384195Y0278851D01*
X0384133Y0278864D01*
X0384072Y0278881D01*
X0384013Y0278902D01*
X0383955Y0278927D01*
X0383898Y0278955D01*
X0383844Y0278987D01*
X0383791Y0279022D01*
X0383741Y0279060D01*
X0383693Y0279101D01*
X0383648Y0279145D01*
X0383606Y0279192D01*
X0383567Y0279242D01*
X0383531Y0279294D01*
X0383499Y0279348D01*
X0383469Y0279403D01*
X0383444Y0279461D01*
X0383422Y0279520D01*
X0383404Y0279581D01*
X0383389Y0279642D01*
X0383391Y0279642D02*
X0383377Y0279583D01*
X0383360Y0279525D01*
X0383339Y0279468D01*
X0383315Y0279412D01*
X0383287Y0279358D01*
X0383257Y0279306D01*
X0383223Y0279255D01*
X0383186Y0279207D01*
X0383147Y0279161D01*
X0383104Y0279118D01*
X0383060Y0279077D01*
X0383012Y0279039D01*
X0382963Y0279004D01*
X0382911Y0278972D01*
X0382858Y0278943D01*
X0382803Y0278917D01*
X0382747Y0278895D01*
X0382689Y0278876D01*
X0382630Y0278860D01*
X0382571Y0278849D01*
X0382511Y0278840D01*
X0382450Y0278836D01*
X0382390Y0278835D01*
X0382329Y0278838D01*
X0382269Y0278844D01*
X0382209Y0278854D01*
X0376697Y0278854D02*
X0376635Y0278844D01*
X0376572Y0278838D01*
X0376509Y0278835D01*
X0376446Y0278836D01*
X0376383Y0278842D01*
X0376321Y0278851D01*
X0376259Y0278864D01*
X0376198Y0278881D01*
X0376139Y0278902D01*
X0376081Y0278927D01*
X0376024Y0278955D01*
X0375970Y0278987D01*
X0375917Y0279022D01*
X0375867Y0279060D01*
X0375819Y0279101D01*
X0375774Y0279145D01*
X0375732Y0279192D01*
X0375693Y0279242D01*
X0375657Y0279294D01*
X0375625Y0279348D01*
X0375595Y0279403D01*
X0375570Y0279461D01*
X0375548Y0279520D01*
X0375530Y0279581D01*
X0375515Y0279642D01*
X0375516Y0279642D02*
X0375516Y0285941D01*
X0375515Y0285941D02*
X0375530Y0286002D01*
X0375548Y0286063D01*
X0375570Y0286122D01*
X0375595Y0286180D01*
X0375625Y0286235D01*
X0375657Y0286289D01*
X0375693Y0286341D01*
X0375732Y0286391D01*
X0375774Y0286438D01*
X0375819Y0286482D01*
X0375867Y0286523D01*
X0375917Y0286561D01*
X0375970Y0286596D01*
X0376024Y0286628D01*
X0376081Y0286656D01*
X0376139Y0286681D01*
X0376198Y0286702D01*
X0376259Y0286719D01*
X0376321Y0286732D01*
X0376383Y0286741D01*
X0376446Y0286747D01*
X0376509Y0286748D01*
X0376572Y0286745D01*
X0376635Y0286739D01*
X0376697Y0286729D01*
X0396382Y0235547D02*
X0355280Y0235547D01*
X0355280Y0200114D01*
X0454807Y0200114D01*
X0454807Y0200508D02*
X0454807Y0235547D01*
X0413705Y0235547D01*
X0413705Y0229642D01*
X0396382Y0229642D01*
X0396382Y0235547D01*
X0413705Y0235547D01*
X0432543Y0228756D02*
X0437543Y0228756D01*
X0430335Y0360524D02*
X0430335Y0363673D01*
X0427972Y0363673D01*
X0421673Y0363673D02*
X0419311Y0363673D01*
X0419311Y0360524D01*
D14*
X0419217Y0294406D02*
X0427681Y0294406D01*
X0427681Y0292043D01*
X0427681Y0285350D02*
X0427681Y0282988D01*
X0419217Y0282988D01*
D15*
X0353272Y0227831D02*
X0353272Y0222831D01*
X0348272Y0222831D01*
X0348272Y0212831D01*
X0353272Y0212831D01*
X0353272Y0207831D01*
X0331272Y0207831D01*
X0331272Y0227831D01*
X0353272Y0227831D01*
X0353272Y0222831D02*
X0353272Y0212831D01*
X0329492Y0212831D02*
X0329492Y0207831D01*
X0307492Y0207831D01*
X0307492Y0227831D01*
X0329492Y0227831D01*
X0329492Y0222831D01*
X0324492Y0222831D01*
X0324492Y0212831D01*
X0329492Y0212831D01*
X0329492Y0222831D01*
M02*
