G75*
%MOIN*%
%OFA0B0*%
%FSLAX25Y25*%
%IPPOS*%
%LPD*%
%AMOC8*
5,1,8,0,0,1.08239X$1,22.5*
%
%ADD10C,0.00591*%
%ADD11C,0.00600*%
%ADD12C,0.00800*%
%ADD13C,0.00100*%
D10*
X0009374Y0196177D02*
X0450319Y0196177D01*
X0450509Y0196179D01*
X0450699Y0196186D01*
X0450889Y0196198D01*
X0451079Y0196214D01*
X0451268Y0196234D01*
X0451457Y0196260D01*
X0451645Y0196289D01*
X0451832Y0196324D01*
X0452018Y0196363D01*
X0452203Y0196406D01*
X0452388Y0196454D01*
X0452571Y0196506D01*
X0452752Y0196562D01*
X0452932Y0196623D01*
X0453111Y0196689D01*
X0453288Y0196758D01*
X0453464Y0196832D01*
X0453637Y0196910D01*
X0453809Y0196993D01*
X0453978Y0197079D01*
X0454146Y0197169D01*
X0454311Y0197264D01*
X0454474Y0197362D01*
X0454634Y0197465D01*
X0454792Y0197571D01*
X0454947Y0197681D01*
X0455100Y0197794D01*
X0455250Y0197912D01*
X0455396Y0198033D01*
X0455540Y0198157D01*
X0455681Y0198285D01*
X0455819Y0198416D01*
X0455954Y0198551D01*
X0456085Y0198689D01*
X0456213Y0198830D01*
X0456337Y0198974D01*
X0456458Y0199120D01*
X0456576Y0199270D01*
X0456689Y0199423D01*
X0456799Y0199578D01*
X0456905Y0199736D01*
X0457008Y0199896D01*
X0457106Y0200059D01*
X0457201Y0200224D01*
X0457291Y0200392D01*
X0457377Y0200561D01*
X0457460Y0200733D01*
X0457538Y0200906D01*
X0457612Y0201082D01*
X0457681Y0201259D01*
X0457747Y0201438D01*
X0457808Y0201618D01*
X0457864Y0201799D01*
X0457916Y0201982D01*
X0457964Y0202167D01*
X0458007Y0202352D01*
X0458046Y0202538D01*
X0458081Y0202725D01*
X0458110Y0202913D01*
X0458136Y0203102D01*
X0458156Y0203291D01*
X0458172Y0203481D01*
X0458184Y0203671D01*
X0458191Y0203861D01*
X0458193Y0204051D01*
X0458193Y0377280D01*
X0458191Y0377470D01*
X0458184Y0377660D01*
X0458172Y0377850D01*
X0458156Y0378040D01*
X0458136Y0378229D01*
X0458110Y0378418D01*
X0458081Y0378606D01*
X0458046Y0378793D01*
X0458007Y0378979D01*
X0457964Y0379164D01*
X0457916Y0379349D01*
X0457864Y0379532D01*
X0457808Y0379713D01*
X0457747Y0379893D01*
X0457681Y0380072D01*
X0457612Y0380249D01*
X0457538Y0380425D01*
X0457460Y0380598D01*
X0457377Y0380770D01*
X0457291Y0380939D01*
X0457201Y0381107D01*
X0457106Y0381272D01*
X0457008Y0381435D01*
X0456905Y0381595D01*
X0456799Y0381753D01*
X0456689Y0381908D01*
X0456576Y0382061D01*
X0456458Y0382211D01*
X0456337Y0382357D01*
X0456213Y0382501D01*
X0456085Y0382642D01*
X0455954Y0382780D01*
X0455819Y0382915D01*
X0455681Y0383046D01*
X0455540Y0383174D01*
X0455396Y0383298D01*
X0455250Y0383419D01*
X0455100Y0383537D01*
X0454947Y0383650D01*
X0454792Y0383760D01*
X0454634Y0383866D01*
X0454474Y0383969D01*
X0454311Y0384067D01*
X0454146Y0384162D01*
X0453978Y0384252D01*
X0453809Y0384338D01*
X0453637Y0384421D01*
X0453464Y0384499D01*
X0453288Y0384573D01*
X0453111Y0384642D01*
X0452932Y0384708D01*
X0452752Y0384769D01*
X0452571Y0384825D01*
X0452388Y0384877D01*
X0452203Y0384925D01*
X0452018Y0384968D01*
X0451832Y0385007D01*
X0451645Y0385042D01*
X0451457Y0385071D01*
X0451268Y0385097D01*
X0451079Y0385117D01*
X0450889Y0385133D01*
X0450699Y0385145D01*
X0450509Y0385152D01*
X0450319Y0385154D01*
X0009374Y0385154D01*
X0009184Y0385152D01*
X0008994Y0385145D01*
X0008804Y0385133D01*
X0008614Y0385117D01*
X0008425Y0385097D01*
X0008236Y0385071D01*
X0008048Y0385042D01*
X0007861Y0385007D01*
X0007675Y0384968D01*
X0007490Y0384925D01*
X0007305Y0384877D01*
X0007122Y0384825D01*
X0006941Y0384769D01*
X0006761Y0384708D01*
X0006582Y0384642D01*
X0006405Y0384573D01*
X0006229Y0384499D01*
X0006056Y0384421D01*
X0005884Y0384338D01*
X0005715Y0384252D01*
X0005547Y0384162D01*
X0005382Y0384067D01*
X0005219Y0383969D01*
X0005059Y0383866D01*
X0004901Y0383760D01*
X0004746Y0383650D01*
X0004593Y0383537D01*
X0004443Y0383419D01*
X0004297Y0383298D01*
X0004153Y0383174D01*
X0004012Y0383046D01*
X0003874Y0382915D01*
X0003739Y0382780D01*
X0003608Y0382642D01*
X0003480Y0382501D01*
X0003356Y0382357D01*
X0003235Y0382211D01*
X0003117Y0382061D01*
X0003004Y0381908D01*
X0002894Y0381753D01*
X0002788Y0381595D01*
X0002685Y0381435D01*
X0002587Y0381272D01*
X0002492Y0381107D01*
X0002402Y0380939D01*
X0002316Y0380770D01*
X0002233Y0380598D01*
X0002155Y0380425D01*
X0002081Y0380249D01*
X0002012Y0380072D01*
X0001946Y0379893D01*
X0001885Y0379713D01*
X0001829Y0379532D01*
X0001777Y0379349D01*
X0001729Y0379164D01*
X0001686Y0378979D01*
X0001647Y0378793D01*
X0001612Y0378606D01*
X0001583Y0378418D01*
X0001557Y0378229D01*
X0001537Y0378040D01*
X0001521Y0377850D01*
X0001509Y0377660D01*
X0001502Y0377470D01*
X0001500Y0377280D01*
X0001500Y0204051D01*
X0001502Y0203861D01*
X0001509Y0203671D01*
X0001521Y0203481D01*
X0001537Y0203291D01*
X0001557Y0203102D01*
X0001583Y0202913D01*
X0001612Y0202725D01*
X0001647Y0202538D01*
X0001686Y0202352D01*
X0001729Y0202167D01*
X0001777Y0201982D01*
X0001829Y0201799D01*
X0001885Y0201618D01*
X0001946Y0201438D01*
X0002012Y0201259D01*
X0002081Y0201082D01*
X0002155Y0200906D01*
X0002233Y0200733D01*
X0002316Y0200561D01*
X0002402Y0200392D01*
X0002492Y0200224D01*
X0002587Y0200059D01*
X0002685Y0199896D01*
X0002788Y0199736D01*
X0002894Y0199578D01*
X0003004Y0199423D01*
X0003117Y0199270D01*
X0003235Y0199120D01*
X0003356Y0198974D01*
X0003480Y0198830D01*
X0003608Y0198689D01*
X0003739Y0198551D01*
X0003874Y0198416D01*
X0004012Y0198285D01*
X0004153Y0198157D01*
X0004297Y0198033D01*
X0004443Y0197912D01*
X0004593Y0197794D01*
X0004746Y0197681D01*
X0004901Y0197571D01*
X0005059Y0197465D01*
X0005219Y0197362D01*
X0005382Y0197264D01*
X0005547Y0197169D01*
X0005715Y0197079D01*
X0005884Y0196993D01*
X0006056Y0196910D01*
X0006229Y0196832D01*
X0006405Y0196758D01*
X0006582Y0196689D01*
X0006761Y0196623D01*
X0006941Y0196562D01*
X0007122Y0196506D01*
X0007305Y0196454D01*
X0007490Y0196406D01*
X0007675Y0196363D01*
X0007861Y0196324D01*
X0008048Y0196289D01*
X0008236Y0196260D01*
X0008425Y0196234D01*
X0008614Y0196214D01*
X0008804Y0196198D01*
X0008994Y0196186D01*
X0009184Y0196179D01*
X0009374Y0196177D01*
X0153075Y0200114D02*
X0153075Y0235547D01*
X0306618Y0235547D01*
X0306618Y0200114D01*
D11*
X0432445Y0280724D02*
X0432445Y0285724D01*
X0434945Y0288224D01*
X0432445Y0290724D01*
X0432445Y0295724D01*
X0434945Y0298224D01*
X0432445Y0300724D01*
X0432445Y0305724D01*
X0434945Y0308224D01*
X0432445Y0310724D01*
X0432445Y0315724D01*
X0434945Y0318224D01*
X0432445Y0320724D01*
X0432445Y0325724D01*
X0434945Y0328224D01*
X0432445Y0330724D01*
X0432445Y0335724D01*
X0434945Y0338224D01*
X0432445Y0340724D01*
X0432445Y0345724D01*
X0434945Y0348224D01*
X0432445Y0350724D01*
X0432445Y0355724D01*
X0434945Y0358224D01*
X0449945Y0358224D01*
X0452445Y0355724D01*
X0452445Y0350724D01*
X0449945Y0348224D01*
X0452445Y0345724D01*
X0452445Y0340724D01*
X0449945Y0338224D01*
X0452445Y0335724D01*
X0452445Y0330724D01*
X0449945Y0328224D01*
X0452445Y0325724D01*
X0452445Y0320724D01*
X0449945Y0318224D01*
X0452445Y0315724D01*
X0452445Y0310724D01*
X0449945Y0308224D01*
X0452445Y0305724D01*
X0452445Y0300724D01*
X0449945Y0298224D01*
X0452445Y0295724D01*
X0452445Y0290724D01*
X0449945Y0288224D01*
X0452445Y0285724D01*
X0452445Y0280724D01*
X0449945Y0278224D01*
X0434945Y0278224D01*
X0432445Y0280724D01*
X0067287Y0215862D02*
X0067290Y0216107D01*
X0067299Y0216353D01*
X0067314Y0216598D01*
X0067335Y0216842D01*
X0067362Y0217086D01*
X0067395Y0217329D01*
X0067434Y0217572D01*
X0067479Y0217813D01*
X0067530Y0218053D01*
X0067587Y0218292D01*
X0067649Y0218529D01*
X0067718Y0218765D01*
X0067792Y0218999D01*
X0067872Y0219231D01*
X0067957Y0219461D01*
X0068048Y0219689D01*
X0068145Y0219914D01*
X0068247Y0220138D01*
X0068355Y0220358D01*
X0068468Y0220576D01*
X0068586Y0220791D01*
X0068710Y0221003D01*
X0068838Y0221212D01*
X0068972Y0221418D01*
X0069111Y0221620D01*
X0069255Y0221819D01*
X0069404Y0222014D01*
X0069557Y0222206D01*
X0069715Y0222394D01*
X0069877Y0222578D01*
X0070045Y0222757D01*
X0070216Y0222933D01*
X0070392Y0223104D01*
X0070571Y0223272D01*
X0070755Y0223434D01*
X0070943Y0223592D01*
X0071135Y0223745D01*
X0071330Y0223894D01*
X0071529Y0224038D01*
X0071731Y0224177D01*
X0071937Y0224311D01*
X0072146Y0224439D01*
X0072358Y0224563D01*
X0072573Y0224681D01*
X0072791Y0224794D01*
X0073011Y0224902D01*
X0073235Y0225004D01*
X0073460Y0225101D01*
X0073688Y0225192D01*
X0073918Y0225277D01*
X0074150Y0225357D01*
X0074384Y0225431D01*
X0074620Y0225500D01*
X0074857Y0225562D01*
X0075096Y0225619D01*
X0075336Y0225670D01*
X0075577Y0225715D01*
X0075820Y0225754D01*
X0076063Y0225787D01*
X0076307Y0225814D01*
X0076551Y0225835D01*
X0076796Y0225850D01*
X0077042Y0225859D01*
X0077287Y0225862D01*
X0077532Y0225859D01*
X0077778Y0225850D01*
X0078023Y0225835D01*
X0078267Y0225814D01*
X0078511Y0225787D01*
X0078754Y0225754D01*
X0078997Y0225715D01*
X0079238Y0225670D01*
X0079478Y0225619D01*
X0079717Y0225562D01*
X0079954Y0225500D01*
X0080190Y0225431D01*
X0080424Y0225357D01*
X0080656Y0225277D01*
X0080886Y0225192D01*
X0081114Y0225101D01*
X0081339Y0225004D01*
X0081563Y0224902D01*
X0081783Y0224794D01*
X0082001Y0224681D01*
X0082216Y0224563D01*
X0082428Y0224439D01*
X0082637Y0224311D01*
X0082843Y0224177D01*
X0083045Y0224038D01*
X0083244Y0223894D01*
X0083439Y0223745D01*
X0083631Y0223592D01*
X0083819Y0223434D01*
X0084003Y0223272D01*
X0084182Y0223104D01*
X0084358Y0222933D01*
X0084529Y0222757D01*
X0084697Y0222578D01*
X0084859Y0222394D01*
X0085017Y0222206D01*
X0085170Y0222014D01*
X0085319Y0221819D01*
X0085463Y0221620D01*
X0085602Y0221418D01*
X0085736Y0221212D01*
X0085864Y0221003D01*
X0085988Y0220791D01*
X0086106Y0220576D01*
X0086219Y0220358D01*
X0086327Y0220138D01*
X0086429Y0219914D01*
X0086526Y0219689D01*
X0086617Y0219461D01*
X0086702Y0219231D01*
X0086782Y0218999D01*
X0086856Y0218765D01*
X0086925Y0218529D01*
X0086987Y0218292D01*
X0087044Y0218053D01*
X0087095Y0217813D01*
X0087140Y0217572D01*
X0087179Y0217329D01*
X0087212Y0217086D01*
X0087239Y0216842D01*
X0087260Y0216598D01*
X0087275Y0216353D01*
X0087284Y0216107D01*
X0087287Y0215862D01*
X0087284Y0215617D01*
X0087275Y0215371D01*
X0087260Y0215126D01*
X0087239Y0214882D01*
X0087212Y0214638D01*
X0087179Y0214395D01*
X0087140Y0214152D01*
X0087095Y0213911D01*
X0087044Y0213671D01*
X0086987Y0213432D01*
X0086925Y0213195D01*
X0086856Y0212959D01*
X0086782Y0212725D01*
X0086702Y0212493D01*
X0086617Y0212263D01*
X0086526Y0212035D01*
X0086429Y0211810D01*
X0086327Y0211586D01*
X0086219Y0211366D01*
X0086106Y0211148D01*
X0085988Y0210933D01*
X0085864Y0210721D01*
X0085736Y0210512D01*
X0085602Y0210306D01*
X0085463Y0210104D01*
X0085319Y0209905D01*
X0085170Y0209710D01*
X0085017Y0209518D01*
X0084859Y0209330D01*
X0084697Y0209146D01*
X0084529Y0208967D01*
X0084358Y0208791D01*
X0084182Y0208620D01*
X0084003Y0208452D01*
X0083819Y0208290D01*
X0083631Y0208132D01*
X0083439Y0207979D01*
X0083244Y0207830D01*
X0083045Y0207686D01*
X0082843Y0207547D01*
X0082637Y0207413D01*
X0082428Y0207285D01*
X0082216Y0207161D01*
X0082001Y0207043D01*
X0081783Y0206930D01*
X0081563Y0206822D01*
X0081339Y0206720D01*
X0081114Y0206623D01*
X0080886Y0206532D01*
X0080656Y0206447D01*
X0080424Y0206367D01*
X0080190Y0206293D01*
X0079954Y0206224D01*
X0079717Y0206162D01*
X0079478Y0206105D01*
X0079238Y0206054D01*
X0078997Y0206009D01*
X0078754Y0205970D01*
X0078511Y0205937D01*
X0078267Y0205910D01*
X0078023Y0205889D01*
X0077778Y0205874D01*
X0077532Y0205865D01*
X0077287Y0205862D01*
X0077042Y0205865D01*
X0076796Y0205874D01*
X0076551Y0205889D01*
X0076307Y0205910D01*
X0076063Y0205937D01*
X0075820Y0205970D01*
X0075577Y0206009D01*
X0075336Y0206054D01*
X0075096Y0206105D01*
X0074857Y0206162D01*
X0074620Y0206224D01*
X0074384Y0206293D01*
X0074150Y0206367D01*
X0073918Y0206447D01*
X0073688Y0206532D01*
X0073460Y0206623D01*
X0073235Y0206720D01*
X0073011Y0206822D01*
X0072791Y0206930D01*
X0072573Y0207043D01*
X0072358Y0207161D01*
X0072146Y0207285D01*
X0071937Y0207413D01*
X0071731Y0207547D01*
X0071529Y0207686D01*
X0071330Y0207830D01*
X0071135Y0207979D01*
X0070943Y0208132D01*
X0070755Y0208290D01*
X0070571Y0208452D01*
X0070392Y0208620D01*
X0070216Y0208791D01*
X0070045Y0208967D01*
X0069877Y0209146D01*
X0069715Y0209330D01*
X0069557Y0209518D01*
X0069404Y0209710D01*
X0069255Y0209905D01*
X0069111Y0210104D01*
X0068972Y0210306D01*
X0068838Y0210512D01*
X0068710Y0210721D01*
X0068586Y0210933D01*
X0068468Y0211148D01*
X0068355Y0211366D01*
X0068247Y0211586D01*
X0068145Y0211810D01*
X0068048Y0212035D01*
X0067957Y0212263D01*
X0067872Y0212493D01*
X0067792Y0212725D01*
X0067718Y0212959D01*
X0067649Y0213195D01*
X0067587Y0213432D01*
X0067530Y0213671D01*
X0067479Y0213911D01*
X0067434Y0214152D01*
X0067395Y0214395D01*
X0067362Y0214638D01*
X0067335Y0214882D01*
X0067314Y0215126D01*
X0067299Y0215371D01*
X0067290Y0215617D01*
X0067287Y0215862D01*
D12*
X0069787Y0205862D02*
X0084787Y0205862D01*
X0189846Y0225173D02*
X0189846Y0230173D01*
X0192346Y0232673D01*
X0197346Y0232673D01*
X0199846Y0230173D01*
X0202346Y0232673D01*
X0207346Y0232673D01*
X0209846Y0230173D01*
X0212346Y0232673D01*
X0217346Y0232673D01*
X0219846Y0230173D01*
X0222346Y0232673D01*
X0227346Y0232673D01*
X0229846Y0230173D01*
X0232346Y0232673D01*
X0237346Y0232673D01*
X0239846Y0230173D01*
X0242346Y0232673D01*
X0247346Y0232673D01*
X0249846Y0230173D01*
X0252346Y0232673D01*
X0257346Y0232673D01*
X0259846Y0230173D01*
X0262346Y0232673D01*
X0267346Y0232673D01*
X0269846Y0230173D01*
X0269846Y0225173D01*
X0267346Y0222673D01*
X0262346Y0222673D01*
X0259846Y0225173D01*
X0257346Y0222673D01*
X0252346Y0222673D01*
X0249846Y0225173D01*
X0247346Y0222673D01*
X0242346Y0222673D01*
X0239846Y0225173D01*
X0237346Y0222673D01*
X0232346Y0222673D01*
X0229846Y0225173D01*
X0227346Y0222673D01*
X0222346Y0222673D01*
X0219846Y0225173D01*
X0217346Y0222673D01*
X0212346Y0222673D01*
X0209846Y0225173D01*
X0207346Y0222673D01*
X0202346Y0222673D01*
X0199846Y0225173D01*
X0197346Y0222673D01*
X0192346Y0222673D01*
X0189846Y0225173D01*
D13*
X0085096Y0205533D02*
X0084556Y0206253D01*
X0084557Y0206252D02*
X0084790Y0206433D01*
X0085018Y0206619D01*
X0085242Y0206811D01*
X0085461Y0207008D01*
X0085675Y0207210D01*
X0085884Y0207418D01*
X0086087Y0207631D01*
X0086286Y0207848D01*
X0086479Y0208071D01*
X0086667Y0208298D01*
X0086849Y0208529D01*
X0087026Y0208765D01*
X0087196Y0209006D01*
X0087361Y0209250D01*
X0087519Y0209498D01*
X0087672Y0209750D01*
X0087818Y0210006D01*
X0087958Y0210265D01*
X0088092Y0210528D01*
X0088219Y0210793D01*
X0088340Y0211062D01*
X0088454Y0211334D01*
X0088561Y0211608D01*
X0088662Y0211885D01*
X0088756Y0212164D01*
X0088843Y0212446D01*
X0088923Y0212729D01*
X0088996Y0213015D01*
X0089062Y0213302D01*
X0089121Y0213591D01*
X0089173Y0213881D01*
X0089218Y0214172D01*
X0089256Y0214464D01*
X0089286Y0214757D01*
X0089310Y0215051D01*
X0089326Y0215345D01*
X0089335Y0215639D01*
X0089337Y0215934D01*
X0089331Y0216229D01*
X0089319Y0216523D01*
X0089299Y0216817D01*
X0089272Y0217110D01*
X0089238Y0217403D01*
X0089197Y0217695D01*
X0089148Y0217985D01*
X0089093Y0218275D01*
X0089031Y0218562D01*
X0088961Y0218849D01*
X0088884Y0219133D01*
X0088801Y0219416D01*
X0088711Y0219696D01*
X0088614Y0219974D01*
X0088510Y0220250D01*
X0088399Y0220523D01*
X0088282Y0220793D01*
X0088158Y0221061D01*
X0088028Y0221325D01*
X0087891Y0221586D01*
X0087748Y0221843D01*
X0087598Y0222097D01*
X0087443Y0222348D01*
X0087281Y0222594D01*
X0087114Y0222836D01*
X0086940Y0223074D01*
X0086761Y0223308D01*
X0086576Y0223538D01*
X0086386Y0223762D01*
X0086190Y0223983D01*
X0085989Y0224198D01*
X0085782Y0224408D01*
X0085571Y0224613D01*
X0085354Y0224813D01*
X0085133Y0225008D01*
X0084907Y0225197D01*
X0084677Y0225380D01*
X0084442Y0225558D01*
X0084202Y0225730D01*
X0083959Y0225896D01*
X0083712Y0226056D01*
X0083461Y0226210D01*
X0083206Y0226358D01*
X0082947Y0226500D01*
X0082686Y0226635D01*
X0082421Y0226764D01*
X0082153Y0226886D01*
X0081882Y0227002D01*
X0081608Y0227111D01*
X0081332Y0227213D01*
X0081053Y0227308D01*
X0080772Y0227397D01*
X0080489Y0227479D01*
X0080204Y0227554D01*
X0079917Y0227621D01*
X0079629Y0227682D01*
X0079339Y0227736D01*
X0079048Y0227783D01*
X0078756Y0227822D01*
X0078464Y0227854D01*
X0078170Y0227880D01*
X0077876Y0227898D01*
X0077582Y0227908D01*
X0077287Y0227912D01*
X0076992Y0227908D01*
X0076698Y0227898D01*
X0076404Y0227880D01*
X0076110Y0227854D01*
X0075818Y0227822D01*
X0075526Y0227783D01*
X0075235Y0227736D01*
X0074945Y0227682D01*
X0074657Y0227621D01*
X0074370Y0227554D01*
X0074085Y0227479D01*
X0073802Y0227397D01*
X0073521Y0227308D01*
X0073242Y0227213D01*
X0072966Y0227111D01*
X0072692Y0227002D01*
X0072421Y0226886D01*
X0072153Y0226764D01*
X0071888Y0226635D01*
X0071627Y0226500D01*
X0071368Y0226358D01*
X0071113Y0226210D01*
X0070862Y0226056D01*
X0070615Y0225896D01*
X0070372Y0225730D01*
X0070132Y0225558D01*
X0069897Y0225380D01*
X0069667Y0225197D01*
X0069441Y0225008D01*
X0069220Y0224813D01*
X0069003Y0224613D01*
X0068792Y0224408D01*
X0068585Y0224198D01*
X0068384Y0223983D01*
X0068188Y0223762D01*
X0067998Y0223538D01*
X0067813Y0223308D01*
X0067634Y0223074D01*
X0067460Y0222836D01*
X0067293Y0222594D01*
X0067131Y0222348D01*
X0066976Y0222097D01*
X0066826Y0221843D01*
X0066683Y0221586D01*
X0066546Y0221325D01*
X0066416Y0221061D01*
X0066292Y0220793D01*
X0066175Y0220523D01*
X0066064Y0220250D01*
X0065960Y0219974D01*
X0065863Y0219696D01*
X0065773Y0219416D01*
X0065690Y0219133D01*
X0065613Y0218849D01*
X0065543Y0218562D01*
X0065481Y0218275D01*
X0065426Y0217985D01*
X0065377Y0217695D01*
X0065336Y0217403D01*
X0065302Y0217110D01*
X0065275Y0216817D01*
X0065255Y0216523D01*
X0065243Y0216229D01*
X0065237Y0215934D01*
X0065239Y0215639D01*
X0065248Y0215345D01*
X0065264Y0215051D01*
X0065288Y0214757D01*
X0065318Y0214464D01*
X0065356Y0214172D01*
X0065401Y0213881D01*
X0065453Y0213591D01*
X0065512Y0213302D01*
X0065578Y0213015D01*
X0065651Y0212729D01*
X0065731Y0212446D01*
X0065818Y0212164D01*
X0065912Y0211885D01*
X0066013Y0211608D01*
X0066120Y0211334D01*
X0066234Y0211062D01*
X0066355Y0210793D01*
X0066482Y0210528D01*
X0066616Y0210265D01*
X0066756Y0210006D01*
X0066902Y0209750D01*
X0067055Y0209498D01*
X0067213Y0209250D01*
X0067378Y0209006D01*
X0067548Y0208765D01*
X0067725Y0208529D01*
X0067907Y0208298D01*
X0068095Y0208071D01*
X0068288Y0207848D01*
X0068487Y0207631D01*
X0068690Y0207418D01*
X0068899Y0207210D01*
X0069113Y0207008D01*
X0069332Y0206811D01*
X0069556Y0206619D01*
X0069784Y0206433D01*
X0070017Y0206252D01*
X0069478Y0205533D01*
X0069477Y0205532D01*
X0069227Y0205726D01*
X0068981Y0205926D01*
X0068741Y0206132D01*
X0068506Y0206344D01*
X0068276Y0206562D01*
X0068051Y0206785D01*
X0067832Y0207013D01*
X0067618Y0207247D01*
X0067410Y0207486D01*
X0067208Y0207730D01*
X0067013Y0207979D01*
X0066823Y0208233D01*
X0066640Y0208491D01*
X0066463Y0208753D01*
X0066292Y0209020D01*
X0066128Y0209291D01*
X0065971Y0209566D01*
X0065820Y0209844D01*
X0065676Y0210127D01*
X0065540Y0210412D01*
X0065410Y0210701D01*
X0065287Y0210993D01*
X0065172Y0211288D01*
X0065064Y0211585D01*
X0064963Y0211886D01*
X0064869Y0212188D01*
X0064783Y0212493D01*
X0064704Y0212800D01*
X0064633Y0213108D01*
X0064570Y0213418D01*
X0064514Y0213730D01*
X0064465Y0214043D01*
X0064425Y0214357D01*
X0064392Y0214672D01*
X0064367Y0214988D01*
X0064349Y0215304D01*
X0064339Y0215620D01*
X0064337Y0215937D01*
X0064343Y0216254D01*
X0064356Y0216570D01*
X0064378Y0216886D01*
X0064406Y0217201D01*
X0064443Y0217516D01*
X0064487Y0217829D01*
X0064539Y0218142D01*
X0064599Y0218453D01*
X0064666Y0218762D01*
X0064741Y0219070D01*
X0064823Y0219376D01*
X0064912Y0219679D01*
X0065009Y0219981D01*
X0065114Y0220280D01*
X0065226Y0220576D01*
X0065344Y0220870D01*
X0065470Y0221160D01*
X0065603Y0221447D01*
X0065744Y0221732D01*
X0065891Y0222012D01*
X0066044Y0222289D01*
X0066205Y0222562D01*
X0066372Y0222831D01*
X0066546Y0223096D01*
X0066726Y0223356D01*
X0066912Y0223612D01*
X0067105Y0223863D01*
X0067303Y0224110D01*
X0067508Y0224352D01*
X0067718Y0224588D01*
X0067935Y0224820D01*
X0068157Y0225045D01*
X0068384Y0225266D01*
X0068616Y0225481D01*
X0068854Y0225690D01*
X0069097Y0225893D01*
X0069345Y0226091D01*
X0069597Y0226282D01*
X0069854Y0226467D01*
X0070116Y0226645D01*
X0070382Y0226817D01*
X0070651Y0226983D01*
X0070925Y0227142D01*
X0071203Y0227294D01*
X0071484Y0227439D01*
X0071769Y0227578D01*
X0072057Y0227709D01*
X0072349Y0227833D01*
X0072643Y0227951D01*
X0072940Y0228061D01*
X0073239Y0228163D01*
X0073541Y0228258D01*
X0073845Y0228346D01*
X0074152Y0228427D01*
X0074460Y0228500D01*
X0074770Y0228565D01*
X0075081Y0228623D01*
X0075394Y0228673D01*
X0075708Y0228715D01*
X0076022Y0228750D01*
X0076338Y0228777D01*
X0076654Y0228797D01*
X0076970Y0228808D01*
X0077287Y0228812D01*
X0077604Y0228808D01*
X0077920Y0228797D01*
X0078236Y0228777D01*
X0078552Y0228750D01*
X0078866Y0228715D01*
X0079180Y0228673D01*
X0079493Y0228623D01*
X0079804Y0228565D01*
X0080114Y0228500D01*
X0080422Y0228427D01*
X0080729Y0228346D01*
X0081033Y0228258D01*
X0081335Y0228163D01*
X0081634Y0228061D01*
X0081931Y0227951D01*
X0082225Y0227833D01*
X0082517Y0227709D01*
X0082805Y0227578D01*
X0083090Y0227439D01*
X0083371Y0227294D01*
X0083649Y0227142D01*
X0083923Y0226983D01*
X0084192Y0226817D01*
X0084458Y0226645D01*
X0084720Y0226467D01*
X0084977Y0226282D01*
X0085229Y0226091D01*
X0085477Y0225893D01*
X0085720Y0225690D01*
X0085958Y0225481D01*
X0086190Y0225266D01*
X0086417Y0225045D01*
X0086639Y0224820D01*
X0086856Y0224588D01*
X0087066Y0224352D01*
X0087271Y0224110D01*
X0087469Y0223863D01*
X0087662Y0223612D01*
X0087848Y0223356D01*
X0088028Y0223096D01*
X0088202Y0222831D01*
X0088369Y0222562D01*
X0088530Y0222289D01*
X0088683Y0222012D01*
X0088830Y0221732D01*
X0088971Y0221447D01*
X0089104Y0221160D01*
X0089230Y0220870D01*
X0089348Y0220576D01*
X0089460Y0220280D01*
X0089565Y0219981D01*
X0089662Y0219679D01*
X0089751Y0219376D01*
X0089833Y0219070D01*
X0089908Y0218762D01*
X0089975Y0218453D01*
X0090035Y0218142D01*
X0090087Y0217829D01*
X0090131Y0217516D01*
X0090168Y0217201D01*
X0090196Y0216886D01*
X0090218Y0216570D01*
X0090231Y0216254D01*
X0090237Y0215937D01*
X0090235Y0215620D01*
X0090225Y0215304D01*
X0090207Y0214988D01*
X0090182Y0214672D01*
X0090149Y0214357D01*
X0090109Y0214043D01*
X0090060Y0213730D01*
X0090004Y0213418D01*
X0089941Y0213108D01*
X0089870Y0212800D01*
X0089791Y0212493D01*
X0089705Y0212188D01*
X0089611Y0211886D01*
X0089510Y0211585D01*
X0089402Y0211288D01*
X0089287Y0210993D01*
X0089164Y0210701D01*
X0089034Y0210412D01*
X0088898Y0210127D01*
X0088754Y0209844D01*
X0088603Y0209566D01*
X0088446Y0209291D01*
X0088282Y0209020D01*
X0088111Y0208753D01*
X0087934Y0208491D01*
X0087751Y0208233D01*
X0087561Y0207979D01*
X0087366Y0207730D01*
X0087164Y0207486D01*
X0086956Y0207247D01*
X0086742Y0207013D01*
X0086523Y0206785D01*
X0086298Y0206562D01*
X0086068Y0206344D01*
X0085833Y0206132D01*
X0085593Y0205926D01*
X0085347Y0205726D01*
X0085097Y0205532D01*
X0085041Y0205607D01*
X0085289Y0205800D01*
X0085533Y0205999D01*
X0085771Y0206203D01*
X0086005Y0206413D01*
X0086233Y0206629D01*
X0086456Y0206851D01*
X0086674Y0207078D01*
X0086886Y0207310D01*
X0087092Y0207547D01*
X0087293Y0207789D01*
X0087487Y0208037D01*
X0087675Y0208288D01*
X0087857Y0208545D01*
X0088033Y0208805D01*
X0088202Y0209070D01*
X0088365Y0209339D01*
X0088521Y0209612D01*
X0088671Y0209888D01*
X0088813Y0210168D01*
X0088949Y0210452D01*
X0089078Y0210739D01*
X0089200Y0211029D01*
X0089314Y0211321D01*
X0089422Y0211617D01*
X0089522Y0211915D01*
X0089615Y0212215D01*
X0089700Y0212518D01*
X0089778Y0212822D01*
X0089849Y0213128D01*
X0089912Y0213436D01*
X0089968Y0213746D01*
X0090016Y0214056D01*
X0090056Y0214368D01*
X0090089Y0214681D01*
X0090114Y0214994D01*
X0090131Y0215308D01*
X0090141Y0215622D01*
X0090143Y0215937D01*
X0090137Y0216251D01*
X0090124Y0216565D01*
X0090103Y0216879D01*
X0090074Y0217192D01*
X0090038Y0217504D01*
X0089994Y0217815D01*
X0089942Y0218125D01*
X0089883Y0218434D01*
X0089816Y0218741D01*
X0089742Y0219047D01*
X0089661Y0219350D01*
X0089572Y0219652D01*
X0089475Y0219951D01*
X0089372Y0220248D01*
X0089261Y0220542D01*
X0089143Y0220833D01*
X0089018Y0221122D01*
X0088886Y0221407D01*
X0088747Y0221689D01*
X0088601Y0221967D01*
X0088448Y0222242D01*
X0088289Y0222513D01*
X0088123Y0222780D01*
X0087950Y0223043D01*
X0087772Y0223302D01*
X0087587Y0223556D01*
X0087395Y0223805D01*
X0087198Y0224050D01*
X0086995Y0224290D01*
X0086786Y0224525D01*
X0086571Y0224755D01*
X0086351Y0224979D01*
X0086126Y0225198D01*
X0085895Y0225411D01*
X0085659Y0225619D01*
X0085417Y0225821D01*
X0085172Y0226016D01*
X0084921Y0226206D01*
X0084666Y0226390D01*
X0084406Y0226567D01*
X0084142Y0226738D01*
X0083874Y0226902D01*
X0083602Y0227060D01*
X0083327Y0227211D01*
X0083047Y0227355D01*
X0082765Y0227493D01*
X0082479Y0227623D01*
X0082190Y0227747D01*
X0081897Y0227863D01*
X0081603Y0227972D01*
X0081305Y0228074D01*
X0081006Y0228168D01*
X0080703Y0228256D01*
X0080399Y0228336D01*
X0080094Y0228408D01*
X0079786Y0228473D01*
X0079477Y0228530D01*
X0079166Y0228580D01*
X0078855Y0228622D01*
X0078542Y0228657D01*
X0078229Y0228683D01*
X0077915Y0228703D01*
X0077601Y0228714D01*
X0077287Y0228718D01*
X0076973Y0228714D01*
X0076659Y0228703D01*
X0076345Y0228683D01*
X0076032Y0228657D01*
X0075719Y0228622D01*
X0075408Y0228580D01*
X0075097Y0228530D01*
X0074788Y0228473D01*
X0074480Y0228408D01*
X0074175Y0228336D01*
X0073871Y0228256D01*
X0073568Y0228168D01*
X0073269Y0228074D01*
X0072971Y0227972D01*
X0072677Y0227863D01*
X0072384Y0227747D01*
X0072095Y0227623D01*
X0071809Y0227493D01*
X0071527Y0227355D01*
X0071247Y0227211D01*
X0070972Y0227060D01*
X0070700Y0226902D01*
X0070432Y0226738D01*
X0070168Y0226567D01*
X0069908Y0226390D01*
X0069653Y0226206D01*
X0069402Y0226016D01*
X0069157Y0225821D01*
X0068915Y0225619D01*
X0068679Y0225411D01*
X0068448Y0225198D01*
X0068223Y0224979D01*
X0068003Y0224755D01*
X0067788Y0224525D01*
X0067579Y0224290D01*
X0067376Y0224050D01*
X0067179Y0223805D01*
X0066987Y0223556D01*
X0066802Y0223302D01*
X0066624Y0223043D01*
X0066451Y0222780D01*
X0066285Y0222513D01*
X0066126Y0222242D01*
X0065973Y0221967D01*
X0065827Y0221689D01*
X0065688Y0221407D01*
X0065556Y0221122D01*
X0065431Y0220833D01*
X0065313Y0220542D01*
X0065202Y0220248D01*
X0065099Y0219951D01*
X0065002Y0219652D01*
X0064913Y0219350D01*
X0064832Y0219047D01*
X0064758Y0218741D01*
X0064691Y0218434D01*
X0064632Y0218125D01*
X0064580Y0217815D01*
X0064536Y0217504D01*
X0064500Y0217192D01*
X0064471Y0216879D01*
X0064450Y0216565D01*
X0064437Y0216251D01*
X0064431Y0215937D01*
X0064433Y0215622D01*
X0064443Y0215308D01*
X0064460Y0214994D01*
X0064485Y0214681D01*
X0064518Y0214368D01*
X0064558Y0214056D01*
X0064606Y0213746D01*
X0064662Y0213436D01*
X0064725Y0213128D01*
X0064796Y0212822D01*
X0064874Y0212518D01*
X0064959Y0212215D01*
X0065052Y0211915D01*
X0065152Y0211617D01*
X0065260Y0211321D01*
X0065374Y0211029D01*
X0065496Y0210739D01*
X0065625Y0210452D01*
X0065761Y0210168D01*
X0065903Y0209888D01*
X0066053Y0209612D01*
X0066209Y0209339D01*
X0066372Y0209070D01*
X0066541Y0208805D01*
X0066717Y0208545D01*
X0066899Y0208288D01*
X0067087Y0208037D01*
X0067281Y0207789D01*
X0067482Y0207547D01*
X0067688Y0207310D01*
X0067900Y0207078D01*
X0068118Y0206851D01*
X0068341Y0206629D01*
X0068569Y0206413D01*
X0068803Y0206203D01*
X0069041Y0205999D01*
X0069285Y0205800D01*
X0069533Y0205607D01*
X0069590Y0205682D01*
X0069343Y0205874D01*
X0069101Y0206071D01*
X0068864Y0206274D01*
X0068633Y0206483D01*
X0068406Y0206697D01*
X0068184Y0206917D01*
X0067968Y0207142D01*
X0067758Y0207373D01*
X0067553Y0207608D01*
X0067354Y0207849D01*
X0067161Y0208094D01*
X0066975Y0208344D01*
X0066794Y0208598D01*
X0066619Y0208857D01*
X0066451Y0209120D01*
X0066290Y0209387D01*
X0066135Y0209658D01*
X0065986Y0209932D01*
X0065845Y0210210D01*
X0065710Y0210492D01*
X0065582Y0210776D01*
X0065461Y0211064D01*
X0065347Y0211355D01*
X0065241Y0211648D01*
X0065141Y0211944D01*
X0065049Y0212242D01*
X0064964Y0212542D01*
X0064887Y0212845D01*
X0064817Y0213149D01*
X0064754Y0213454D01*
X0064699Y0213761D01*
X0064651Y0214070D01*
X0064611Y0214379D01*
X0064579Y0214690D01*
X0064554Y0215001D01*
X0064537Y0215312D01*
X0064527Y0215624D01*
X0064525Y0215936D01*
X0064531Y0216248D01*
X0064544Y0216560D01*
X0064565Y0216871D01*
X0064593Y0217182D01*
X0064630Y0217492D01*
X0064673Y0217801D01*
X0064724Y0218109D01*
X0064783Y0218416D01*
X0064849Y0218720D01*
X0064923Y0219024D01*
X0065004Y0219325D01*
X0065092Y0219624D01*
X0065188Y0219921D01*
X0065291Y0220216D01*
X0065401Y0220508D01*
X0065518Y0220797D01*
X0065642Y0221084D01*
X0065773Y0221367D01*
X0065911Y0221647D01*
X0066056Y0221923D01*
X0066208Y0222196D01*
X0066366Y0222465D01*
X0066531Y0222730D01*
X0066702Y0222991D01*
X0066879Y0223247D01*
X0067063Y0223500D01*
X0067253Y0223747D01*
X0067448Y0223990D01*
X0067650Y0224229D01*
X0067858Y0224462D01*
X0068071Y0224690D01*
X0068289Y0224912D01*
X0068513Y0225130D01*
X0068742Y0225341D01*
X0068977Y0225547D01*
X0069216Y0225748D01*
X0069460Y0225942D01*
X0069709Y0226130D01*
X0069962Y0226313D01*
X0070220Y0226489D01*
X0070482Y0226658D01*
X0070748Y0226821D01*
X0071018Y0226978D01*
X0071292Y0227128D01*
X0071569Y0227271D01*
X0071849Y0227408D01*
X0072133Y0227537D01*
X0072420Y0227660D01*
X0072710Y0227775D01*
X0073003Y0227883D01*
X0073298Y0227985D01*
X0073596Y0228079D01*
X0073896Y0228165D01*
X0074197Y0228244D01*
X0074501Y0228316D01*
X0074806Y0228381D01*
X0075113Y0228438D01*
X0075421Y0228487D01*
X0075731Y0228529D01*
X0076041Y0228563D01*
X0076352Y0228590D01*
X0076663Y0228609D01*
X0076975Y0228620D01*
X0077287Y0228624D01*
X0077599Y0228620D01*
X0077911Y0228609D01*
X0078222Y0228590D01*
X0078533Y0228563D01*
X0078843Y0228529D01*
X0079153Y0228487D01*
X0079461Y0228438D01*
X0079768Y0228381D01*
X0080073Y0228316D01*
X0080377Y0228244D01*
X0080678Y0228165D01*
X0080978Y0228079D01*
X0081276Y0227985D01*
X0081571Y0227883D01*
X0081864Y0227775D01*
X0082154Y0227660D01*
X0082441Y0227537D01*
X0082725Y0227408D01*
X0083005Y0227271D01*
X0083282Y0227128D01*
X0083556Y0226978D01*
X0083826Y0226821D01*
X0084092Y0226658D01*
X0084354Y0226489D01*
X0084612Y0226313D01*
X0084865Y0226130D01*
X0085114Y0225942D01*
X0085358Y0225748D01*
X0085597Y0225547D01*
X0085832Y0225341D01*
X0086061Y0225130D01*
X0086285Y0224912D01*
X0086503Y0224690D01*
X0086716Y0224462D01*
X0086924Y0224229D01*
X0087126Y0223990D01*
X0087321Y0223747D01*
X0087511Y0223500D01*
X0087695Y0223247D01*
X0087872Y0222991D01*
X0088043Y0222730D01*
X0088208Y0222465D01*
X0088366Y0222196D01*
X0088518Y0221923D01*
X0088663Y0221647D01*
X0088801Y0221367D01*
X0088932Y0221084D01*
X0089056Y0220797D01*
X0089173Y0220508D01*
X0089283Y0220216D01*
X0089386Y0219921D01*
X0089482Y0219624D01*
X0089570Y0219325D01*
X0089651Y0219024D01*
X0089725Y0218720D01*
X0089791Y0218416D01*
X0089850Y0218109D01*
X0089901Y0217801D01*
X0089944Y0217492D01*
X0089981Y0217182D01*
X0090009Y0216871D01*
X0090030Y0216560D01*
X0090043Y0216248D01*
X0090049Y0215936D01*
X0090047Y0215624D01*
X0090037Y0215312D01*
X0090020Y0215001D01*
X0089995Y0214690D01*
X0089963Y0214379D01*
X0089923Y0214070D01*
X0089875Y0213761D01*
X0089820Y0213454D01*
X0089757Y0213149D01*
X0089687Y0212845D01*
X0089610Y0212542D01*
X0089525Y0212242D01*
X0089433Y0211944D01*
X0089333Y0211648D01*
X0089227Y0211355D01*
X0089113Y0211064D01*
X0088992Y0210776D01*
X0088864Y0210492D01*
X0088729Y0210210D01*
X0088588Y0209932D01*
X0088439Y0209658D01*
X0088284Y0209387D01*
X0088123Y0209120D01*
X0087955Y0208857D01*
X0087780Y0208598D01*
X0087599Y0208344D01*
X0087413Y0208094D01*
X0087220Y0207849D01*
X0087021Y0207608D01*
X0086816Y0207373D01*
X0086606Y0207142D01*
X0086390Y0206917D01*
X0086168Y0206697D01*
X0085941Y0206483D01*
X0085710Y0206274D01*
X0085473Y0206071D01*
X0085231Y0205874D01*
X0084984Y0205682D01*
X0084928Y0205758D01*
X0085173Y0205948D01*
X0085413Y0206143D01*
X0085648Y0206345D01*
X0085878Y0206552D01*
X0086103Y0206765D01*
X0086323Y0206983D01*
X0086537Y0207207D01*
X0086746Y0207436D01*
X0086949Y0207669D01*
X0087147Y0207908D01*
X0087338Y0208151D01*
X0087524Y0208400D01*
X0087703Y0208652D01*
X0087876Y0208909D01*
X0088043Y0209170D01*
X0088204Y0209435D01*
X0088357Y0209704D01*
X0088505Y0209976D01*
X0088645Y0210252D01*
X0088779Y0210532D01*
X0088906Y0210814D01*
X0089026Y0211100D01*
X0089139Y0211388D01*
X0089245Y0211679D01*
X0089343Y0211973D01*
X0089435Y0212269D01*
X0089519Y0212567D01*
X0089596Y0212867D01*
X0089665Y0213169D01*
X0089728Y0213472D01*
X0089782Y0213777D01*
X0089830Y0214083D01*
X0089869Y0214391D01*
X0089901Y0214699D01*
X0089926Y0215007D01*
X0089943Y0215317D01*
X0089953Y0215626D01*
X0089955Y0215936D01*
X0089949Y0216246D01*
X0089936Y0216555D01*
X0089915Y0216864D01*
X0089887Y0217173D01*
X0089851Y0217480D01*
X0089808Y0217787D01*
X0089757Y0218093D01*
X0089699Y0218397D01*
X0089633Y0218700D01*
X0089560Y0219001D01*
X0089480Y0219300D01*
X0089392Y0219597D01*
X0089297Y0219892D01*
X0089195Y0220184D01*
X0089086Y0220474D01*
X0088969Y0220761D01*
X0088846Y0221045D01*
X0088716Y0221326D01*
X0088579Y0221604D01*
X0088435Y0221878D01*
X0088285Y0222149D01*
X0088128Y0222416D01*
X0087964Y0222679D01*
X0087794Y0222938D01*
X0087618Y0223193D01*
X0087436Y0223444D01*
X0087247Y0223689D01*
X0087053Y0223931D01*
X0086853Y0224167D01*
X0086647Y0224398D01*
X0086435Y0224625D01*
X0086218Y0224846D01*
X0085996Y0225061D01*
X0085769Y0225272D01*
X0085536Y0225476D01*
X0085298Y0225675D01*
X0085056Y0225868D01*
X0084809Y0226055D01*
X0084558Y0226236D01*
X0084302Y0226410D01*
X0084042Y0226579D01*
X0083778Y0226741D01*
X0083510Y0226896D01*
X0083238Y0227045D01*
X0082963Y0227187D01*
X0082684Y0227323D01*
X0082403Y0227451D01*
X0082118Y0227573D01*
X0081830Y0227687D01*
X0081539Y0227795D01*
X0081246Y0227895D01*
X0080951Y0227989D01*
X0080653Y0228075D01*
X0080354Y0228153D01*
X0080052Y0228224D01*
X0079749Y0228288D01*
X0079445Y0228345D01*
X0079139Y0228394D01*
X0078832Y0228435D01*
X0078524Y0228469D01*
X0078215Y0228496D01*
X0077906Y0228515D01*
X0077597Y0228526D01*
X0077287Y0228530D01*
X0076977Y0228526D01*
X0076668Y0228515D01*
X0076359Y0228496D01*
X0076050Y0228469D01*
X0075742Y0228435D01*
X0075435Y0228394D01*
X0075129Y0228345D01*
X0074825Y0228288D01*
X0074522Y0228224D01*
X0074220Y0228153D01*
X0073921Y0228075D01*
X0073623Y0227989D01*
X0073328Y0227895D01*
X0073035Y0227795D01*
X0072744Y0227687D01*
X0072456Y0227573D01*
X0072171Y0227451D01*
X0071890Y0227323D01*
X0071611Y0227187D01*
X0071336Y0227045D01*
X0071064Y0226896D01*
X0070796Y0226741D01*
X0070532Y0226579D01*
X0070272Y0226410D01*
X0070016Y0226236D01*
X0069765Y0226055D01*
X0069518Y0225868D01*
X0069276Y0225675D01*
X0069038Y0225476D01*
X0068805Y0225272D01*
X0068578Y0225061D01*
X0068356Y0224846D01*
X0068139Y0224625D01*
X0067927Y0224398D01*
X0067721Y0224167D01*
X0067521Y0223931D01*
X0067327Y0223689D01*
X0067138Y0223444D01*
X0066956Y0223193D01*
X0066780Y0222938D01*
X0066610Y0222679D01*
X0066446Y0222416D01*
X0066289Y0222149D01*
X0066139Y0221878D01*
X0065995Y0221604D01*
X0065858Y0221326D01*
X0065728Y0221045D01*
X0065605Y0220761D01*
X0065488Y0220474D01*
X0065379Y0220184D01*
X0065277Y0219892D01*
X0065182Y0219597D01*
X0065094Y0219300D01*
X0065014Y0219001D01*
X0064941Y0218700D01*
X0064875Y0218397D01*
X0064817Y0218093D01*
X0064766Y0217787D01*
X0064723Y0217480D01*
X0064687Y0217173D01*
X0064659Y0216864D01*
X0064638Y0216555D01*
X0064625Y0216246D01*
X0064619Y0215936D01*
X0064621Y0215626D01*
X0064631Y0215317D01*
X0064648Y0215007D01*
X0064673Y0214699D01*
X0064705Y0214391D01*
X0064744Y0214083D01*
X0064792Y0213777D01*
X0064846Y0213472D01*
X0064909Y0213169D01*
X0064978Y0212867D01*
X0065055Y0212567D01*
X0065139Y0212269D01*
X0065231Y0211973D01*
X0065329Y0211679D01*
X0065435Y0211388D01*
X0065548Y0211100D01*
X0065668Y0210814D01*
X0065795Y0210532D01*
X0065929Y0210252D01*
X0066069Y0209976D01*
X0066217Y0209704D01*
X0066370Y0209435D01*
X0066531Y0209170D01*
X0066698Y0208909D01*
X0066871Y0208652D01*
X0067050Y0208400D01*
X0067236Y0208151D01*
X0067427Y0207908D01*
X0067625Y0207669D01*
X0067828Y0207436D01*
X0068037Y0207207D01*
X0068251Y0206983D01*
X0068471Y0206765D01*
X0068696Y0206552D01*
X0068926Y0206345D01*
X0069161Y0206143D01*
X0069401Y0205948D01*
X0069646Y0205758D01*
X0069703Y0205833D01*
X0069460Y0206021D01*
X0069221Y0206216D01*
X0068988Y0206416D01*
X0068760Y0206621D01*
X0068536Y0206833D01*
X0068318Y0207049D01*
X0068105Y0207271D01*
X0067898Y0207498D01*
X0067696Y0207730D01*
X0067500Y0207967D01*
X0067310Y0208209D01*
X0067126Y0208455D01*
X0066948Y0208706D01*
X0066776Y0208961D01*
X0066611Y0209220D01*
X0066451Y0209483D01*
X0066299Y0209750D01*
X0066152Y0210020D01*
X0066013Y0210294D01*
X0065880Y0210571D01*
X0065754Y0210852D01*
X0065635Y0211135D01*
X0065523Y0211422D01*
X0065418Y0211711D01*
X0065320Y0212002D01*
X0065229Y0212296D01*
X0065146Y0212592D01*
X0065069Y0212889D01*
X0065000Y0213189D01*
X0064939Y0213490D01*
X0064884Y0213793D01*
X0064838Y0214097D01*
X0064798Y0214402D01*
X0064766Y0214707D01*
X0064742Y0215014D01*
X0064725Y0215321D01*
X0064715Y0215628D01*
X0064713Y0215936D01*
X0064719Y0216243D01*
X0064732Y0216550D01*
X0064752Y0216857D01*
X0064781Y0217163D01*
X0064816Y0217469D01*
X0064859Y0217773D01*
X0064910Y0218076D01*
X0064967Y0218378D01*
X0065033Y0218679D01*
X0065105Y0218978D01*
X0065185Y0219274D01*
X0065272Y0219569D01*
X0065366Y0219862D01*
X0065468Y0220152D01*
X0065576Y0220440D01*
X0065691Y0220725D01*
X0065814Y0221007D01*
X0065943Y0221286D01*
X0066079Y0221562D01*
X0066222Y0221834D01*
X0066371Y0222103D01*
X0066527Y0222368D01*
X0066689Y0222629D01*
X0066858Y0222886D01*
X0067033Y0223139D01*
X0067214Y0223387D01*
X0067401Y0223631D01*
X0067594Y0223871D01*
X0067792Y0224105D01*
X0067997Y0224335D01*
X0068207Y0224560D01*
X0068422Y0224779D01*
X0068643Y0224993D01*
X0068868Y0225202D01*
X0069099Y0225405D01*
X0069335Y0225602D01*
X0069576Y0225794D01*
X0069821Y0225979D01*
X0070070Y0226159D01*
X0070324Y0226332D01*
X0070582Y0226499D01*
X0070844Y0226660D01*
X0071110Y0226814D01*
X0071380Y0226962D01*
X0071653Y0227103D01*
X0071930Y0227238D01*
X0072209Y0227365D01*
X0072492Y0227486D01*
X0072778Y0227600D01*
X0073066Y0227706D01*
X0073357Y0227806D01*
X0073650Y0227899D01*
X0073946Y0227984D01*
X0074243Y0228062D01*
X0074542Y0228133D01*
X0074843Y0228196D01*
X0075145Y0228252D01*
X0075449Y0228301D01*
X0075754Y0228342D01*
X0076059Y0228376D01*
X0076365Y0228402D01*
X0076672Y0228421D01*
X0076980Y0228432D01*
X0077287Y0228436D01*
X0077594Y0228432D01*
X0077902Y0228421D01*
X0078209Y0228402D01*
X0078515Y0228376D01*
X0078820Y0228342D01*
X0079125Y0228301D01*
X0079429Y0228252D01*
X0079731Y0228196D01*
X0080032Y0228133D01*
X0080331Y0228062D01*
X0080628Y0227984D01*
X0080924Y0227899D01*
X0081217Y0227806D01*
X0081508Y0227706D01*
X0081796Y0227600D01*
X0082082Y0227486D01*
X0082365Y0227365D01*
X0082644Y0227238D01*
X0082921Y0227103D01*
X0083194Y0226962D01*
X0083464Y0226814D01*
X0083730Y0226660D01*
X0083992Y0226499D01*
X0084250Y0226332D01*
X0084504Y0226159D01*
X0084753Y0225979D01*
X0084998Y0225794D01*
X0085239Y0225602D01*
X0085475Y0225405D01*
X0085706Y0225202D01*
X0085931Y0224993D01*
X0086152Y0224779D01*
X0086367Y0224560D01*
X0086577Y0224335D01*
X0086782Y0224105D01*
X0086980Y0223871D01*
X0087173Y0223631D01*
X0087360Y0223387D01*
X0087541Y0223139D01*
X0087716Y0222886D01*
X0087885Y0222629D01*
X0088047Y0222368D01*
X0088203Y0222103D01*
X0088352Y0221834D01*
X0088495Y0221562D01*
X0088631Y0221286D01*
X0088760Y0221007D01*
X0088883Y0220725D01*
X0088998Y0220440D01*
X0089106Y0220152D01*
X0089208Y0219862D01*
X0089302Y0219569D01*
X0089389Y0219274D01*
X0089469Y0218978D01*
X0089541Y0218679D01*
X0089607Y0218378D01*
X0089664Y0218076D01*
X0089715Y0217773D01*
X0089758Y0217469D01*
X0089793Y0217163D01*
X0089822Y0216857D01*
X0089842Y0216550D01*
X0089855Y0216243D01*
X0089861Y0215936D01*
X0089859Y0215628D01*
X0089849Y0215321D01*
X0089832Y0215014D01*
X0089808Y0214707D01*
X0089776Y0214402D01*
X0089736Y0214097D01*
X0089690Y0213793D01*
X0089635Y0213490D01*
X0089574Y0213189D01*
X0089505Y0212889D01*
X0089428Y0212592D01*
X0089345Y0212296D01*
X0089254Y0212002D01*
X0089156Y0211711D01*
X0089051Y0211422D01*
X0088939Y0211135D01*
X0088820Y0210852D01*
X0088694Y0210571D01*
X0088561Y0210294D01*
X0088422Y0210020D01*
X0088275Y0209750D01*
X0088123Y0209483D01*
X0087963Y0209220D01*
X0087798Y0208961D01*
X0087626Y0208706D01*
X0087448Y0208455D01*
X0087264Y0208209D01*
X0087074Y0207967D01*
X0086878Y0207730D01*
X0086676Y0207498D01*
X0086469Y0207271D01*
X0086256Y0207049D01*
X0086038Y0206833D01*
X0085814Y0206621D01*
X0085586Y0206416D01*
X0085353Y0206216D01*
X0085114Y0206021D01*
X0084871Y0205833D01*
X0084815Y0205908D01*
X0085056Y0206095D01*
X0085293Y0206288D01*
X0085524Y0206487D01*
X0085751Y0206691D01*
X0085973Y0206900D01*
X0086189Y0207115D01*
X0086400Y0207336D01*
X0086606Y0207561D01*
X0086806Y0207791D01*
X0087001Y0208027D01*
X0087189Y0208266D01*
X0087372Y0208511D01*
X0087549Y0208760D01*
X0087719Y0209013D01*
X0087884Y0209270D01*
X0088042Y0209531D01*
X0088193Y0209796D01*
X0088338Y0210064D01*
X0088477Y0210336D01*
X0088609Y0210611D01*
X0088734Y0210890D01*
X0088852Y0211171D01*
X0088963Y0211455D01*
X0089067Y0211742D01*
X0089165Y0212031D01*
X0089255Y0212323D01*
X0089338Y0212616D01*
X0089413Y0212912D01*
X0089482Y0213209D01*
X0089543Y0213508D01*
X0089597Y0213809D01*
X0089643Y0214110D01*
X0089683Y0214413D01*
X0089714Y0214716D01*
X0089739Y0215021D01*
X0089755Y0215325D01*
X0089765Y0215630D01*
X0089767Y0215935D01*
X0089761Y0216240D01*
X0089748Y0216545D01*
X0089728Y0216850D01*
X0089700Y0217154D01*
X0089665Y0217457D01*
X0089622Y0217759D01*
X0089572Y0218060D01*
X0089515Y0218360D01*
X0089450Y0218658D01*
X0089378Y0218954D01*
X0089299Y0219249D01*
X0089212Y0219542D01*
X0089119Y0219832D01*
X0089018Y0220120D01*
X0088910Y0220406D01*
X0088796Y0220689D01*
X0088674Y0220969D01*
X0088546Y0221246D01*
X0088411Y0221519D01*
X0088270Y0221789D01*
X0088121Y0222056D01*
X0087967Y0222319D01*
X0087806Y0222578D01*
X0087638Y0222834D01*
X0087465Y0223085D01*
X0087285Y0223331D01*
X0087099Y0223573D01*
X0086908Y0223811D01*
X0086711Y0224044D01*
X0086508Y0224272D01*
X0086299Y0224495D01*
X0086086Y0224713D01*
X0085867Y0224925D01*
X0085643Y0225132D01*
X0085413Y0225334D01*
X0085179Y0225530D01*
X0084941Y0225720D01*
X0084697Y0225904D01*
X0084450Y0226082D01*
X0084198Y0226254D01*
X0083941Y0226420D01*
X0083681Y0226579D01*
X0083417Y0226733D01*
X0083150Y0226879D01*
X0082879Y0227019D01*
X0082604Y0227153D01*
X0082327Y0227279D01*
X0082046Y0227399D01*
X0081762Y0227512D01*
X0081476Y0227618D01*
X0081188Y0227717D01*
X0080897Y0227809D01*
X0080603Y0227893D01*
X0080308Y0227971D01*
X0080011Y0228041D01*
X0079713Y0228104D01*
X0079413Y0228160D01*
X0079111Y0228208D01*
X0078809Y0228249D01*
X0078506Y0228282D01*
X0078202Y0228308D01*
X0077897Y0228327D01*
X0077592Y0228338D01*
X0077287Y0228342D01*
X0076982Y0228338D01*
X0076677Y0228327D01*
X0076372Y0228308D01*
X0076068Y0228282D01*
X0075765Y0228249D01*
X0075463Y0228208D01*
X0075161Y0228160D01*
X0074861Y0228104D01*
X0074563Y0228041D01*
X0074266Y0227971D01*
X0073971Y0227893D01*
X0073677Y0227809D01*
X0073386Y0227717D01*
X0073098Y0227618D01*
X0072812Y0227512D01*
X0072528Y0227399D01*
X0072247Y0227279D01*
X0071970Y0227153D01*
X0071695Y0227019D01*
X0071424Y0226879D01*
X0071157Y0226733D01*
X0070893Y0226579D01*
X0070633Y0226420D01*
X0070376Y0226254D01*
X0070124Y0226082D01*
X0069877Y0225904D01*
X0069633Y0225720D01*
X0069395Y0225530D01*
X0069161Y0225334D01*
X0068931Y0225132D01*
X0068707Y0224925D01*
X0068488Y0224713D01*
X0068275Y0224495D01*
X0068066Y0224272D01*
X0067863Y0224044D01*
X0067666Y0223811D01*
X0067475Y0223573D01*
X0067289Y0223331D01*
X0067109Y0223085D01*
X0066936Y0222834D01*
X0066768Y0222578D01*
X0066607Y0222319D01*
X0066453Y0222056D01*
X0066304Y0221789D01*
X0066163Y0221519D01*
X0066028Y0221246D01*
X0065900Y0220969D01*
X0065778Y0220689D01*
X0065664Y0220406D01*
X0065556Y0220120D01*
X0065455Y0219832D01*
X0065362Y0219542D01*
X0065275Y0219249D01*
X0065196Y0218954D01*
X0065124Y0218658D01*
X0065059Y0218360D01*
X0065002Y0218060D01*
X0064952Y0217759D01*
X0064909Y0217457D01*
X0064874Y0217154D01*
X0064846Y0216850D01*
X0064826Y0216545D01*
X0064813Y0216240D01*
X0064807Y0215935D01*
X0064809Y0215630D01*
X0064819Y0215325D01*
X0064835Y0215021D01*
X0064860Y0214716D01*
X0064891Y0214413D01*
X0064931Y0214110D01*
X0064977Y0213809D01*
X0065031Y0213508D01*
X0065092Y0213209D01*
X0065161Y0212912D01*
X0065236Y0212616D01*
X0065319Y0212323D01*
X0065409Y0212031D01*
X0065507Y0211742D01*
X0065611Y0211455D01*
X0065722Y0211171D01*
X0065840Y0210890D01*
X0065965Y0210611D01*
X0066097Y0210336D01*
X0066236Y0210064D01*
X0066381Y0209796D01*
X0066532Y0209531D01*
X0066690Y0209270D01*
X0066855Y0209013D01*
X0067025Y0208760D01*
X0067202Y0208511D01*
X0067385Y0208266D01*
X0067573Y0208027D01*
X0067768Y0207791D01*
X0067968Y0207561D01*
X0068174Y0207336D01*
X0068385Y0207115D01*
X0068601Y0206900D01*
X0068823Y0206691D01*
X0069050Y0206487D01*
X0069281Y0206288D01*
X0069518Y0206095D01*
X0069759Y0205908D01*
X0069815Y0205983D01*
X0069576Y0206169D01*
X0069341Y0206360D01*
X0069112Y0206557D01*
X0068887Y0206760D01*
X0068666Y0206968D01*
X0068452Y0207182D01*
X0068242Y0207400D01*
X0068038Y0207624D01*
X0067839Y0207852D01*
X0067646Y0208086D01*
X0067459Y0208324D01*
X0067278Y0208566D01*
X0067102Y0208813D01*
X0066933Y0209064D01*
X0066770Y0209320D01*
X0066613Y0209579D01*
X0066463Y0209842D01*
X0066319Y0210108D01*
X0066181Y0210378D01*
X0066050Y0210651D01*
X0065926Y0210927D01*
X0065809Y0211207D01*
X0065699Y0211489D01*
X0065595Y0211773D01*
X0065499Y0212060D01*
X0065409Y0212350D01*
X0065327Y0212641D01*
X0065252Y0212934D01*
X0065184Y0213230D01*
X0065123Y0213526D01*
X0065070Y0213824D01*
X0065024Y0214124D01*
X0064985Y0214424D01*
X0064953Y0214725D01*
X0064929Y0215027D01*
X0064912Y0215330D01*
X0064903Y0215632D01*
X0064901Y0215935D01*
X0064907Y0216238D01*
X0064920Y0216540D01*
X0064940Y0216843D01*
X0064968Y0217144D01*
X0065003Y0217445D01*
X0065045Y0217745D01*
X0065095Y0218044D01*
X0065152Y0218341D01*
X0065216Y0218637D01*
X0065287Y0218931D01*
X0065366Y0219224D01*
X0065452Y0219514D01*
X0065545Y0219803D01*
X0065644Y0220088D01*
X0065751Y0220372D01*
X0065865Y0220652D01*
X0065985Y0220930D01*
X0066113Y0221205D01*
X0066247Y0221477D01*
X0066387Y0221745D01*
X0066534Y0222010D01*
X0066688Y0222271D01*
X0066848Y0222528D01*
X0067014Y0222781D01*
X0067186Y0223030D01*
X0067364Y0223275D01*
X0067549Y0223516D01*
X0067739Y0223751D01*
X0067934Y0223982D01*
X0068136Y0224209D01*
X0068342Y0224430D01*
X0068555Y0224646D01*
X0068772Y0224857D01*
X0068994Y0225062D01*
X0069222Y0225262D01*
X0069454Y0225457D01*
X0069691Y0225645D01*
X0069933Y0225828D01*
X0070178Y0226005D01*
X0070429Y0226176D01*
X0070683Y0226340D01*
X0070941Y0226499D01*
X0071203Y0226651D01*
X0071468Y0226796D01*
X0071737Y0226935D01*
X0072010Y0227068D01*
X0072285Y0227193D01*
X0072564Y0227312D01*
X0072845Y0227424D01*
X0073129Y0227529D01*
X0073416Y0227628D01*
X0073705Y0227719D01*
X0073996Y0227803D01*
X0074289Y0227880D01*
X0074583Y0227949D01*
X0074880Y0228012D01*
X0075177Y0228067D01*
X0075476Y0228115D01*
X0075776Y0228156D01*
X0076078Y0228189D01*
X0076379Y0228215D01*
X0076682Y0228233D01*
X0076984Y0228244D01*
X0077287Y0228248D01*
X0077590Y0228244D01*
X0077892Y0228233D01*
X0078195Y0228215D01*
X0078496Y0228189D01*
X0078798Y0228156D01*
X0079098Y0228115D01*
X0079397Y0228067D01*
X0079694Y0228012D01*
X0079991Y0227949D01*
X0080285Y0227880D01*
X0080578Y0227803D01*
X0080869Y0227719D01*
X0081158Y0227628D01*
X0081445Y0227529D01*
X0081729Y0227424D01*
X0082010Y0227312D01*
X0082289Y0227193D01*
X0082564Y0227068D01*
X0082837Y0226935D01*
X0083106Y0226796D01*
X0083371Y0226651D01*
X0083633Y0226499D01*
X0083891Y0226340D01*
X0084145Y0226176D01*
X0084396Y0226005D01*
X0084641Y0225828D01*
X0084883Y0225645D01*
X0085120Y0225457D01*
X0085352Y0225262D01*
X0085580Y0225062D01*
X0085802Y0224857D01*
X0086019Y0224646D01*
X0086232Y0224430D01*
X0086438Y0224209D01*
X0086640Y0223982D01*
X0086835Y0223751D01*
X0087025Y0223516D01*
X0087210Y0223275D01*
X0087388Y0223030D01*
X0087560Y0222781D01*
X0087726Y0222528D01*
X0087886Y0222271D01*
X0088040Y0222010D01*
X0088187Y0221745D01*
X0088327Y0221477D01*
X0088461Y0221205D01*
X0088589Y0220930D01*
X0088709Y0220652D01*
X0088823Y0220372D01*
X0088930Y0220088D01*
X0089029Y0219803D01*
X0089122Y0219514D01*
X0089208Y0219224D01*
X0089287Y0218931D01*
X0089358Y0218637D01*
X0089422Y0218341D01*
X0089479Y0218044D01*
X0089529Y0217745D01*
X0089571Y0217445D01*
X0089606Y0217144D01*
X0089634Y0216843D01*
X0089654Y0216540D01*
X0089667Y0216238D01*
X0089673Y0215935D01*
X0089671Y0215632D01*
X0089662Y0215330D01*
X0089645Y0215027D01*
X0089621Y0214725D01*
X0089589Y0214424D01*
X0089550Y0214124D01*
X0089504Y0213824D01*
X0089451Y0213526D01*
X0089390Y0213230D01*
X0089322Y0212934D01*
X0089247Y0212641D01*
X0089165Y0212350D01*
X0089075Y0212060D01*
X0088979Y0211773D01*
X0088875Y0211489D01*
X0088765Y0211207D01*
X0088648Y0210927D01*
X0088524Y0210651D01*
X0088393Y0210378D01*
X0088255Y0210108D01*
X0088111Y0209842D01*
X0087961Y0209579D01*
X0087804Y0209320D01*
X0087641Y0209064D01*
X0087472Y0208813D01*
X0087296Y0208566D01*
X0087115Y0208324D01*
X0086928Y0208086D01*
X0086735Y0207852D01*
X0086536Y0207624D01*
X0086332Y0207400D01*
X0086122Y0207182D01*
X0085908Y0206968D01*
X0085687Y0206760D01*
X0085462Y0206557D01*
X0085233Y0206360D01*
X0084998Y0206169D01*
X0084759Y0205983D01*
X0084702Y0206058D01*
X0084940Y0206243D01*
X0085172Y0206433D01*
X0085401Y0206628D01*
X0085624Y0206829D01*
X0085842Y0207036D01*
X0086056Y0207248D01*
X0086264Y0207465D01*
X0086466Y0207687D01*
X0086663Y0207914D01*
X0086855Y0208145D01*
X0087041Y0208381D01*
X0087221Y0208622D01*
X0087395Y0208867D01*
X0087563Y0209116D01*
X0087725Y0209370D01*
X0087880Y0209627D01*
X0088029Y0209888D01*
X0088172Y0210152D01*
X0088309Y0210420D01*
X0088438Y0210691D01*
X0088561Y0210965D01*
X0088678Y0211242D01*
X0088787Y0211522D01*
X0088890Y0211805D01*
X0088986Y0212089D01*
X0089074Y0212377D01*
X0089156Y0212666D01*
X0089231Y0212957D01*
X0089298Y0213250D01*
X0089359Y0213544D01*
X0089412Y0213840D01*
X0089457Y0214137D01*
X0089496Y0214435D01*
X0089527Y0214734D01*
X0089551Y0215034D01*
X0089568Y0215334D01*
X0089577Y0215634D01*
X0089579Y0215935D01*
X0089573Y0216235D01*
X0089561Y0216536D01*
X0089540Y0216835D01*
X0089513Y0217135D01*
X0089478Y0217433D01*
X0089436Y0217731D01*
X0089387Y0218027D01*
X0089330Y0218322D01*
X0089266Y0218616D01*
X0089196Y0218908D01*
X0089118Y0219198D01*
X0089032Y0219487D01*
X0088940Y0219773D01*
X0088841Y0220057D01*
X0088735Y0220338D01*
X0088622Y0220616D01*
X0088503Y0220892D01*
X0088376Y0221165D01*
X0088243Y0221434D01*
X0088104Y0221700D01*
X0087958Y0221963D01*
X0087806Y0222222D01*
X0087647Y0222478D01*
X0087482Y0222729D01*
X0087311Y0222976D01*
X0087134Y0223219D01*
X0086951Y0223458D01*
X0086763Y0223692D01*
X0086569Y0223921D01*
X0086369Y0224145D01*
X0086164Y0224365D01*
X0085953Y0224579D01*
X0085737Y0224789D01*
X0085517Y0224993D01*
X0085291Y0225191D01*
X0085060Y0225384D01*
X0084825Y0225571D01*
X0084586Y0225753D01*
X0084342Y0225928D01*
X0084093Y0226098D01*
X0083841Y0226261D01*
X0083585Y0226418D01*
X0083325Y0226569D01*
X0083061Y0226713D01*
X0082794Y0226851D01*
X0082524Y0226983D01*
X0082251Y0227107D01*
X0081974Y0227225D01*
X0081695Y0227336D01*
X0081413Y0227441D01*
X0081129Y0227538D01*
X0080842Y0227629D01*
X0080553Y0227712D01*
X0080263Y0227788D01*
X0079970Y0227858D01*
X0079676Y0227920D01*
X0079381Y0227974D01*
X0079084Y0228022D01*
X0078786Y0228062D01*
X0078487Y0228095D01*
X0078188Y0228121D01*
X0077888Y0228139D01*
X0077588Y0228150D01*
X0077287Y0228154D01*
X0076986Y0228150D01*
X0076686Y0228139D01*
X0076386Y0228121D01*
X0076087Y0228095D01*
X0075788Y0228062D01*
X0075490Y0228022D01*
X0075193Y0227974D01*
X0074898Y0227920D01*
X0074604Y0227858D01*
X0074311Y0227788D01*
X0074021Y0227712D01*
X0073732Y0227629D01*
X0073445Y0227538D01*
X0073161Y0227441D01*
X0072879Y0227336D01*
X0072600Y0227225D01*
X0072323Y0227107D01*
X0072050Y0226983D01*
X0071780Y0226851D01*
X0071513Y0226713D01*
X0071249Y0226569D01*
X0070989Y0226418D01*
X0070733Y0226261D01*
X0070481Y0226098D01*
X0070232Y0225928D01*
X0069988Y0225753D01*
X0069749Y0225571D01*
X0069514Y0225384D01*
X0069283Y0225191D01*
X0069057Y0224993D01*
X0068837Y0224789D01*
X0068621Y0224579D01*
X0068410Y0224365D01*
X0068205Y0224145D01*
X0068005Y0223921D01*
X0067811Y0223692D01*
X0067623Y0223458D01*
X0067440Y0223219D01*
X0067263Y0222976D01*
X0067092Y0222729D01*
X0066927Y0222478D01*
X0066768Y0222222D01*
X0066616Y0221963D01*
X0066470Y0221700D01*
X0066331Y0221434D01*
X0066198Y0221165D01*
X0066071Y0220892D01*
X0065952Y0220616D01*
X0065839Y0220338D01*
X0065733Y0220057D01*
X0065634Y0219773D01*
X0065542Y0219487D01*
X0065456Y0219198D01*
X0065378Y0218908D01*
X0065308Y0218616D01*
X0065244Y0218322D01*
X0065187Y0218027D01*
X0065138Y0217731D01*
X0065096Y0217433D01*
X0065061Y0217135D01*
X0065034Y0216835D01*
X0065013Y0216536D01*
X0065001Y0216235D01*
X0064995Y0215935D01*
X0064997Y0215634D01*
X0065006Y0215334D01*
X0065023Y0215034D01*
X0065047Y0214734D01*
X0065078Y0214435D01*
X0065117Y0214137D01*
X0065162Y0213840D01*
X0065215Y0213544D01*
X0065276Y0213250D01*
X0065343Y0212957D01*
X0065418Y0212666D01*
X0065500Y0212377D01*
X0065588Y0212089D01*
X0065684Y0211805D01*
X0065787Y0211522D01*
X0065896Y0211242D01*
X0066013Y0210965D01*
X0066136Y0210691D01*
X0066265Y0210420D01*
X0066402Y0210152D01*
X0066545Y0209888D01*
X0066694Y0209627D01*
X0066849Y0209370D01*
X0067011Y0209116D01*
X0067179Y0208867D01*
X0067353Y0208622D01*
X0067533Y0208381D01*
X0067719Y0208145D01*
X0067911Y0207914D01*
X0068108Y0207687D01*
X0068310Y0207465D01*
X0068518Y0207248D01*
X0068732Y0207036D01*
X0068950Y0206829D01*
X0069173Y0206628D01*
X0069402Y0206433D01*
X0069634Y0206243D01*
X0069872Y0206058D01*
X0069928Y0206134D01*
X0069693Y0206316D01*
X0069462Y0206505D01*
X0069235Y0206699D01*
X0069013Y0206899D01*
X0068797Y0207104D01*
X0068585Y0207314D01*
X0068379Y0207529D01*
X0068178Y0207749D01*
X0067982Y0207975D01*
X0067792Y0208204D01*
X0067608Y0208439D01*
X0067429Y0208678D01*
X0067256Y0208921D01*
X0067090Y0209168D01*
X0066929Y0209420D01*
X0066775Y0209675D01*
X0066627Y0209934D01*
X0066485Y0210196D01*
X0066350Y0210462D01*
X0066221Y0210731D01*
X0066099Y0211003D01*
X0065983Y0211278D01*
X0065874Y0211556D01*
X0065773Y0211836D01*
X0065678Y0212119D01*
X0065590Y0212404D01*
X0065509Y0212691D01*
X0065434Y0212979D01*
X0065368Y0213270D01*
X0065308Y0213562D01*
X0065255Y0213856D01*
X0065210Y0214151D01*
X0065171Y0214446D01*
X0065140Y0214743D01*
X0065117Y0215040D01*
X0065100Y0215338D01*
X0065091Y0215636D01*
X0065089Y0215934D01*
X0065095Y0216233D01*
X0065107Y0216531D01*
X0065127Y0216828D01*
X0065155Y0217125D01*
X0065189Y0217421D01*
X0065231Y0217717D01*
X0065280Y0218011D01*
X0065336Y0218304D01*
X0065399Y0218595D01*
X0065470Y0218885D01*
X0065547Y0219173D01*
X0065631Y0219459D01*
X0065723Y0219743D01*
X0065821Y0220025D01*
X0065926Y0220304D01*
X0066038Y0220580D01*
X0066157Y0220854D01*
X0066282Y0221124D01*
X0066414Y0221392D01*
X0066553Y0221656D01*
X0066698Y0221917D01*
X0066849Y0222174D01*
X0067006Y0222427D01*
X0067170Y0222676D01*
X0067340Y0222922D01*
X0067515Y0223163D01*
X0067697Y0223400D01*
X0067884Y0223632D01*
X0068076Y0223859D01*
X0068275Y0224082D01*
X0068478Y0224300D01*
X0068687Y0224513D01*
X0068901Y0224721D01*
X0069121Y0224923D01*
X0069344Y0225120D01*
X0069573Y0225311D01*
X0069807Y0225497D01*
X0070044Y0225677D01*
X0070286Y0225851D01*
X0070533Y0226019D01*
X0070783Y0226181D01*
X0071037Y0226337D01*
X0071295Y0226487D01*
X0071557Y0226630D01*
X0071822Y0226767D01*
X0072090Y0226898D01*
X0072361Y0227021D01*
X0072636Y0227138D01*
X0072913Y0227249D01*
X0073193Y0227352D01*
X0073475Y0227449D01*
X0073759Y0227539D01*
X0074046Y0227621D01*
X0074334Y0227697D01*
X0074624Y0227766D01*
X0074916Y0227827D01*
X0075209Y0227882D01*
X0075504Y0227929D01*
X0075799Y0227969D01*
X0076096Y0228002D01*
X0076393Y0228027D01*
X0076691Y0228045D01*
X0076989Y0228056D01*
X0077287Y0228060D01*
X0077585Y0228056D01*
X0077883Y0228045D01*
X0078181Y0228027D01*
X0078478Y0228002D01*
X0078775Y0227969D01*
X0079070Y0227929D01*
X0079365Y0227882D01*
X0079658Y0227827D01*
X0079950Y0227766D01*
X0080240Y0227697D01*
X0080528Y0227621D01*
X0080815Y0227539D01*
X0081099Y0227449D01*
X0081381Y0227352D01*
X0081661Y0227249D01*
X0081938Y0227138D01*
X0082213Y0227021D01*
X0082484Y0226898D01*
X0082752Y0226767D01*
X0083017Y0226630D01*
X0083279Y0226487D01*
X0083537Y0226337D01*
X0083791Y0226181D01*
X0084041Y0226019D01*
X0084288Y0225851D01*
X0084530Y0225677D01*
X0084767Y0225497D01*
X0085001Y0225311D01*
X0085230Y0225120D01*
X0085453Y0224923D01*
X0085673Y0224721D01*
X0085887Y0224513D01*
X0086096Y0224300D01*
X0086299Y0224082D01*
X0086498Y0223859D01*
X0086690Y0223632D01*
X0086877Y0223400D01*
X0087059Y0223163D01*
X0087234Y0222922D01*
X0087404Y0222676D01*
X0087568Y0222427D01*
X0087725Y0222174D01*
X0087876Y0221917D01*
X0088021Y0221656D01*
X0088160Y0221392D01*
X0088292Y0221124D01*
X0088417Y0220854D01*
X0088536Y0220580D01*
X0088648Y0220304D01*
X0088753Y0220025D01*
X0088851Y0219743D01*
X0088943Y0219459D01*
X0089027Y0219173D01*
X0089104Y0218885D01*
X0089175Y0218595D01*
X0089238Y0218304D01*
X0089294Y0218011D01*
X0089343Y0217717D01*
X0089385Y0217421D01*
X0089419Y0217125D01*
X0089447Y0216828D01*
X0089467Y0216531D01*
X0089479Y0216233D01*
X0089485Y0215934D01*
X0089483Y0215636D01*
X0089474Y0215338D01*
X0089457Y0215040D01*
X0089434Y0214743D01*
X0089403Y0214446D01*
X0089364Y0214151D01*
X0089319Y0213856D01*
X0089266Y0213562D01*
X0089206Y0213270D01*
X0089140Y0212979D01*
X0089065Y0212691D01*
X0088984Y0212404D01*
X0088896Y0212119D01*
X0088801Y0211836D01*
X0088700Y0211556D01*
X0088591Y0211278D01*
X0088475Y0211003D01*
X0088353Y0210731D01*
X0088224Y0210462D01*
X0088089Y0210196D01*
X0087947Y0209934D01*
X0087799Y0209675D01*
X0087645Y0209420D01*
X0087484Y0209168D01*
X0087318Y0208921D01*
X0087145Y0208678D01*
X0086966Y0208439D01*
X0086782Y0208204D01*
X0086592Y0207975D01*
X0086396Y0207749D01*
X0086195Y0207529D01*
X0085989Y0207314D01*
X0085777Y0207104D01*
X0085561Y0206899D01*
X0085339Y0206699D01*
X0085112Y0206505D01*
X0084881Y0206316D01*
X0084646Y0206134D01*
X0084589Y0206209D01*
X0084823Y0206390D01*
X0085052Y0206577D01*
X0085277Y0206770D01*
X0085497Y0206968D01*
X0085712Y0207171D01*
X0085922Y0207380D01*
X0086127Y0207594D01*
X0086326Y0207812D01*
X0086520Y0208036D01*
X0086709Y0208264D01*
X0086892Y0208496D01*
X0087069Y0208733D01*
X0087240Y0208975D01*
X0087406Y0209220D01*
X0087565Y0209469D01*
X0087718Y0209723D01*
X0087865Y0209979D01*
X0088006Y0210240D01*
X0088140Y0210504D01*
X0088268Y0210771D01*
X0088389Y0211041D01*
X0088504Y0211313D01*
X0088612Y0211589D01*
X0088713Y0211867D01*
X0088807Y0212148D01*
X0088894Y0212430D01*
X0088975Y0212715D01*
X0089048Y0213002D01*
X0089115Y0213290D01*
X0089174Y0213580D01*
X0089226Y0213872D01*
X0089271Y0214164D01*
X0089309Y0214458D01*
X0089340Y0214752D01*
X0089364Y0215047D01*
X0089380Y0215342D01*
X0089389Y0215638D01*
X0089391Y0215934D01*
X0089385Y0216230D01*
X0089373Y0216526D01*
X0089353Y0216821D01*
X0089326Y0217116D01*
X0089292Y0217410D01*
X0089250Y0217703D01*
X0089202Y0217995D01*
X0089146Y0218285D01*
X0089083Y0218574D01*
X0089013Y0218862D01*
X0088936Y0219148D01*
X0088853Y0219432D01*
X0088762Y0219713D01*
X0088664Y0219993D01*
X0088560Y0220270D01*
X0088449Y0220544D01*
X0088331Y0220815D01*
X0088207Y0221084D01*
X0088076Y0221349D01*
X0087938Y0221611D01*
X0087795Y0221870D01*
X0087645Y0222125D01*
X0087488Y0222377D01*
X0087326Y0222624D01*
X0087158Y0222867D01*
X0086983Y0223107D01*
X0086803Y0223342D01*
X0086618Y0223572D01*
X0086426Y0223798D01*
X0086230Y0224019D01*
X0086028Y0224235D01*
X0085820Y0224446D01*
X0085608Y0224652D01*
X0085390Y0224853D01*
X0085168Y0225049D01*
X0084941Y0225239D01*
X0084710Y0225423D01*
X0084474Y0225601D01*
X0084234Y0225774D01*
X0083989Y0225941D01*
X0083741Y0226102D01*
X0083488Y0226257D01*
X0083232Y0226405D01*
X0082973Y0226547D01*
X0082710Y0226683D01*
X0082444Y0226813D01*
X0082175Y0226935D01*
X0081902Y0227052D01*
X0081627Y0227161D01*
X0081350Y0227264D01*
X0081070Y0227360D01*
X0080788Y0227449D01*
X0080503Y0227531D01*
X0080217Y0227606D01*
X0079929Y0227674D01*
X0079640Y0227735D01*
X0079349Y0227789D01*
X0079056Y0227836D01*
X0078763Y0227876D01*
X0078469Y0227908D01*
X0078174Y0227933D01*
X0077879Y0227952D01*
X0077583Y0227962D01*
X0077287Y0227966D01*
X0076991Y0227962D01*
X0076695Y0227952D01*
X0076400Y0227933D01*
X0076105Y0227908D01*
X0075811Y0227876D01*
X0075518Y0227836D01*
X0075225Y0227789D01*
X0074934Y0227735D01*
X0074645Y0227674D01*
X0074357Y0227606D01*
X0074071Y0227531D01*
X0073786Y0227449D01*
X0073504Y0227360D01*
X0073224Y0227264D01*
X0072947Y0227161D01*
X0072672Y0227052D01*
X0072399Y0226935D01*
X0072130Y0226813D01*
X0071864Y0226683D01*
X0071601Y0226547D01*
X0071342Y0226405D01*
X0071086Y0226257D01*
X0070833Y0226102D01*
X0070585Y0225941D01*
X0070340Y0225774D01*
X0070100Y0225601D01*
X0069864Y0225423D01*
X0069633Y0225239D01*
X0069406Y0225049D01*
X0069184Y0224853D01*
X0068966Y0224652D01*
X0068754Y0224446D01*
X0068546Y0224235D01*
X0068344Y0224019D01*
X0068148Y0223798D01*
X0067956Y0223572D01*
X0067771Y0223342D01*
X0067591Y0223107D01*
X0067416Y0222867D01*
X0067248Y0222624D01*
X0067086Y0222377D01*
X0066929Y0222125D01*
X0066779Y0221870D01*
X0066636Y0221611D01*
X0066498Y0221349D01*
X0066367Y0221084D01*
X0066243Y0220815D01*
X0066125Y0220544D01*
X0066014Y0220270D01*
X0065910Y0219993D01*
X0065812Y0219713D01*
X0065721Y0219432D01*
X0065638Y0219148D01*
X0065561Y0218862D01*
X0065491Y0218574D01*
X0065428Y0218285D01*
X0065372Y0217995D01*
X0065324Y0217703D01*
X0065282Y0217410D01*
X0065248Y0217116D01*
X0065221Y0216821D01*
X0065201Y0216526D01*
X0065189Y0216230D01*
X0065183Y0215934D01*
X0065185Y0215638D01*
X0065194Y0215342D01*
X0065210Y0215047D01*
X0065234Y0214752D01*
X0065265Y0214458D01*
X0065303Y0214164D01*
X0065348Y0213872D01*
X0065400Y0213580D01*
X0065459Y0213290D01*
X0065526Y0213002D01*
X0065599Y0212715D01*
X0065680Y0212430D01*
X0065767Y0212148D01*
X0065861Y0211867D01*
X0065962Y0211589D01*
X0066070Y0211313D01*
X0066185Y0211041D01*
X0066306Y0210771D01*
X0066434Y0210504D01*
X0066568Y0210240D01*
X0066709Y0209979D01*
X0066856Y0209723D01*
X0067009Y0209469D01*
X0067168Y0209220D01*
X0067334Y0208975D01*
X0067505Y0208733D01*
X0067682Y0208496D01*
X0067865Y0208264D01*
X0068054Y0208036D01*
X0068248Y0207812D01*
X0068447Y0207594D01*
X0068652Y0207380D01*
X0068862Y0207171D01*
X0069077Y0206968D01*
X0069297Y0206770D01*
X0069522Y0206577D01*
X0069751Y0206390D01*
X0069985Y0206209D01*
M02*
